G04 #@! TF.GenerationSoftware,KiCad,Pcbnew,(6.0.11)*
G04 #@! TF.CreationDate,2024-10-09T23:17:59+02:00*
G04 #@! TF.ProjectId,kicad-c128keyb,6b696361-642d-4633-9132-386b6579622e,rev?*
G04 #@! TF.SameCoordinates,Original*
G04 #@! TF.FileFunction,Copper,L1,Top*
G04 #@! TF.FilePolarity,Positive*
%FSLAX46Y46*%
G04 Gerber Fmt 4.6, Leading zero omitted, Abs format (unit mm)*
G04 Created by KiCad (PCBNEW (6.0.11)) date 2024-10-09 23:17:59*
%MOMM*%
%LPD*%
G01*
G04 APERTURE LIST*
G04 #@! TA.AperFunction,ComponentPad*
%ADD10R,1.600000X1.600000*%
G04 #@! TD*
G04 #@! TA.AperFunction,ComponentPad*
%ADD11O,1.600000X1.600000*%
G04 #@! TD*
G04 #@! TA.AperFunction,ComponentPad*
%ADD12O,1.700000X1.700000*%
G04 #@! TD*
G04 #@! TA.AperFunction,ComponentPad*
%ADD13R,1.700000X1.700000*%
G04 #@! TD*
G04 #@! TA.AperFunction,ComponentPad*
%ADD14C,1.600000*%
G04 #@! TD*
G04 #@! TA.AperFunction,ComponentPad*
%ADD15R,1.050000X1.500000*%
G04 #@! TD*
G04 #@! TA.AperFunction,ComponentPad*
%ADD16O,1.050000X1.500000*%
G04 #@! TD*
G04 #@! TA.AperFunction,ComponentPad*
%ADD17O,1.700000X3.700000*%
G04 #@! TD*
G04 #@! TA.AperFunction,ComponentPad*
%ADD18O,1.700000X3.600000*%
G04 #@! TD*
G04 #@! TA.AperFunction,ComponentPad*
%ADD19R,1.700000X3.500000*%
G04 #@! TD*
G04 #@! TA.AperFunction,ComponentPad*
%ADD20C,0.700000*%
G04 #@! TD*
G04 #@! TA.AperFunction,ComponentPad*
%ADD21C,4.400000*%
G04 #@! TD*
G04 #@! TA.AperFunction,ViaPad*
%ADD22C,0.800000*%
G04 #@! TD*
G04 #@! TA.AperFunction,Conductor*
%ADD23C,0.250000*%
G04 #@! TD*
G04 APERTURE END LIST*
D10*
X110993000Y-79741000D03*
D11*
X110993000Y-82281000D03*
X110993000Y-84821000D03*
X110993000Y-87361000D03*
X110993000Y-89901000D03*
X110993000Y-92441000D03*
X110993000Y-94981000D03*
X110993000Y-97521000D03*
X110993000Y-100061000D03*
X110993000Y-102601000D03*
X110993000Y-105141000D03*
X110993000Y-107681000D03*
X110993000Y-110221000D03*
X110993000Y-112761000D03*
X126233000Y-112761000D03*
X126233000Y-110221000D03*
X126233000Y-107681000D03*
X126233000Y-105141000D03*
X126233000Y-102601000D03*
X126233000Y-100061000D03*
X126233000Y-97521000D03*
X126233000Y-94981000D03*
X126233000Y-92441000D03*
X126233000Y-89901000D03*
X126233000Y-87361000D03*
X126233000Y-84821000D03*
X126233000Y-82281000D03*
X126233000Y-79741000D03*
D12*
X159258000Y-116586000D03*
X156718000Y-116586000D03*
X154178000Y-116586000D03*
X151638000Y-116586000D03*
X149098000Y-116586000D03*
X146558000Y-116586000D03*
X144018000Y-116586000D03*
X141478000Y-116586000D03*
X138938000Y-116586000D03*
X136398000Y-116586000D03*
X133858000Y-116586000D03*
X131318000Y-116586000D03*
X128778000Y-116586000D03*
X126238000Y-116586000D03*
X123698000Y-116586000D03*
X121158000Y-116586000D03*
X118618000Y-116586000D03*
X116078000Y-116586000D03*
X113538000Y-116586000D03*
D13*
X110998000Y-116586000D03*
X107188000Y-116586000D03*
D12*
X107188000Y-114046000D03*
X107188000Y-111506000D03*
X107188000Y-108966000D03*
X107188000Y-106426000D03*
X107188000Y-103886000D03*
X107188000Y-101346000D03*
X107188000Y-98806000D03*
X107188000Y-96266000D03*
X107188000Y-93726000D03*
X107188000Y-91186000D03*
X107188000Y-88646000D03*
X107188000Y-86106000D03*
X107188000Y-83566000D03*
X107188000Y-81026000D03*
X107188000Y-78486000D03*
X107188000Y-75946000D03*
X107188000Y-73406000D03*
X107188000Y-70866000D03*
X107188000Y-68326000D03*
D14*
X110784000Y-76454000D03*
X115784000Y-76454000D03*
X138938000Y-75184000D03*
D11*
X138938000Y-67564000D03*
D10*
X131074000Y-94986000D03*
D11*
X131074000Y-97526000D03*
X131074000Y-100066000D03*
X131074000Y-102606000D03*
X131074000Y-105146000D03*
X131074000Y-107686000D03*
X131074000Y-110226000D03*
X131074000Y-112766000D03*
X138694000Y-112766000D03*
X138694000Y-110226000D03*
X138694000Y-107686000D03*
X138694000Y-105146000D03*
X138694000Y-102606000D03*
X138694000Y-100066000D03*
X138694000Y-97526000D03*
X138694000Y-94986000D03*
D13*
X156464000Y-68453000D03*
D12*
X156464000Y-70993000D03*
X156464000Y-73533000D03*
X156464000Y-76073000D03*
D14*
X138898000Y-91440000D03*
X133898000Y-91440000D03*
D15*
X137414000Y-80243000D03*
D16*
X138684000Y-80243000D03*
X139954000Y-80243000D03*
D17*
X159512000Y-106923000D03*
X156972000Y-106923000D03*
X154432000Y-106923000D03*
X151892000Y-106923000D03*
D18*
X149352000Y-106923000D03*
X146812000Y-106923000D03*
X144272000Y-106923000D03*
X144272000Y-89673000D03*
X146812000Y-89673000D03*
X149352000Y-89673000D03*
X151892000Y-89673000D03*
X154432000Y-89673000D03*
X156972000Y-89673000D03*
D19*
X159512000Y-89673000D03*
D20*
X121920000Y-70486000D03*
X123086726Y-70969274D03*
X123570000Y-72136000D03*
D21*
X121920000Y-72136000D03*
D20*
X123086726Y-73302726D03*
X121920000Y-73786000D03*
X120753274Y-70969274D03*
X120753274Y-73302726D03*
X120270000Y-72136000D03*
X149756726Y-70969274D03*
X147423274Y-73302726D03*
X148590000Y-70486000D03*
X148590000Y-73786000D03*
X146940000Y-72136000D03*
X147423274Y-70969274D03*
X149756726Y-73302726D03*
X150240000Y-72136000D03*
D21*
X148590000Y-72136000D03*
D13*
X155453000Y-112014000D03*
D12*
X152913000Y-112014000D03*
D22*
X122155100Y-85127800D03*
X146413300Y-94816500D03*
X146666100Y-97857700D03*
X145767500Y-99943400D03*
X129046100Y-88702300D03*
X120914200Y-84649700D03*
X120676300Y-88745900D03*
X128037700Y-98424400D03*
X118418500Y-97521000D03*
X114025500Y-90808200D03*
X118203900Y-113435200D03*
X141333900Y-105220000D03*
X145002600Y-101679400D03*
X128556300Y-105141000D03*
X132518000Y-110040500D03*
X119597400Y-98561000D03*
X121370500Y-101119000D03*
X137065100Y-108958100D03*
X114129700Y-102915900D03*
X116101800Y-106968500D03*
X135416500Y-111124000D03*
X124101500Y-113290000D03*
X115207900Y-114251500D03*
X128655100Y-111360200D03*
X123581400Y-101261800D03*
X119035100Y-100669800D03*
X116503100Y-83027100D03*
X137544600Y-101316600D03*
X134430800Y-96252500D03*
X125013000Y-101073400D03*
X118871100Y-110384400D03*
X135545700Y-102044300D03*
X129696800Y-114978400D03*
X133645300Y-111850900D03*
D23*
X127826800Y-90367900D02*
X127359900Y-89901000D01*
X130409000Y-90367900D02*
X127826800Y-90367900D01*
X137567100Y-97526000D02*
X130409000Y-90367900D01*
X138694000Y-97526000D02*
X137567100Y-97526000D01*
X126233000Y-89901000D02*
X127359900Y-89901000D01*
X110993000Y-79741000D02*
X112119900Y-79741000D01*
X121906300Y-85376600D02*
X122155100Y-85127800D01*
X117755500Y-85376600D02*
X121906300Y-85376600D01*
X112119900Y-79741000D02*
X117755500Y-85376600D01*
X151415400Y-94816500D02*
X146413300Y-94816500D01*
X154432000Y-91799900D02*
X151415400Y-94816500D01*
X154432000Y-90673000D02*
X154432000Y-91799900D01*
X150914200Y-97857700D02*
X146666100Y-97857700D01*
X156972000Y-91799900D02*
X150914200Y-97857700D01*
X156972000Y-90673000D02*
X156972000Y-91799900D01*
X151318500Y-99943400D02*
X145767500Y-99943400D01*
X159512000Y-91749900D02*
X151318500Y-99943400D01*
X159512000Y-90673000D02*
X159512000Y-91749900D01*
X151892000Y-90673000D02*
X151892000Y-91799900D01*
X110993000Y-87361000D02*
X112119900Y-87361000D01*
X141058100Y-91799900D02*
X151892000Y-91799900D01*
X138749500Y-89491300D02*
X141058100Y-91799900D01*
X128807000Y-89491300D02*
X138749500Y-89491300D01*
X128062200Y-88746500D02*
X128807000Y-89491300D01*
X122030300Y-88746500D02*
X128062200Y-88746500D01*
X121304000Y-89472800D02*
X122030300Y-88746500D01*
X114231700Y-89472800D02*
X121304000Y-89472800D01*
X112119900Y-87361000D02*
X114231700Y-89472800D01*
X144272000Y-90673000D02*
X144272000Y-87546100D01*
X110993000Y-82281000D02*
X112119900Y-82281000D01*
X115926900Y-86088000D02*
X112119900Y-82281000D01*
X142813900Y-86088000D02*
X115926900Y-86088000D01*
X144272000Y-87546100D02*
X142813900Y-86088000D01*
X112533900Y-102187000D02*
X112119900Y-102601000D01*
X120739200Y-102187000D02*
X112533900Y-102187000D01*
X124837100Y-106284900D02*
X120739200Y-102187000D01*
X142295700Y-106284900D02*
X124837100Y-106284900D01*
X143784500Y-104796100D02*
X142295700Y-106284900D01*
X144272000Y-104796100D02*
X143784500Y-104796100D01*
X144272000Y-105923000D02*
X144272000Y-104796100D01*
X110993000Y-102601000D02*
X112119900Y-102601000D01*
X126233000Y-87361000D02*
X127359900Y-87361000D01*
X128701200Y-88702300D02*
X129046100Y-88702300D01*
X127359900Y-87361000D02*
X128701200Y-88702300D01*
X108307400Y-72042900D02*
X120914200Y-84649700D01*
X107188000Y-72042900D02*
X108307400Y-72042900D01*
X107188000Y-70866000D02*
X107188000Y-72042900D01*
X117684900Y-88745900D02*
X120676300Y-88745900D01*
X112490000Y-83551000D02*
X117684900Y-88745900D01*
X110665000Y-83551000D02*
X112490000Y-83551000D01*
X108364900Y-81250900D02*
X110665000Y-83551000D01*
X108364900Y-77931900D02*
X108364900Y-81250900D01*
X107555900Y-77122900D02*
X108364900Y-77931900D01*
X107188000Y-77122900D02*
X107555900Y-77122900D01*
X107188000Y-75946000D02*
X107188000Y-77122900D01*
X128037700Y-97630900D02*
X128037700Y-98424400D01*
X126514700Y-96107900D02*
X128037700Y-97630900D01*
X126233000Y-96107900D02*
X126514700Y-96107900D01*
X126233000Y-94981000D02*
X126233000Y-96107900D01*
X126233000Y-97521000D02*
X125106100Y-97521000D01*
X125106100Y-97521000D02*
X118418500Y-97521000D01*
X111848300Y-88631000D02*
X114025500Y-90808200D01*
X110632300Y-88631000D02*
X111848300Y-88631000D01*
X108364900Y-86363600D02*
X110632300Y-88631000D01*
X108364900Y-83011900D02*
X108364900Y-86363600D01*
X107555900Y-82202900D02*
X108364900Y-83011900D01*
X107188000Y-82202900D02*
X107555900Y-82202900D01*
X107188000Y-81026000D02*
X107188000Y-82202900D01*
X110998000Y-116586000D02*
X112174900Y-116586000D01*
X112174900Y-116218200D02*
X112174900Y-116586000D01*
X114957900Y-113435200D02*
X112174900Y-116218200D01*
X118203900Y-113435200D02*
X114957900Y-113435200D01*
X107188000Y-83566000D02*
X107188000Y-84742900D01*
X110993000Y-100061000D02*
X110993000Y-99497500D01*
X110993000Y-99497500D02*
X110993000Y-98934100D01*
X110759500Y-98934100D02*
X110993000Y-98934100D01*
X109578400Y-97753000D02*
X110759500Y-98934100D01*
X109578400Y-96943400D02*
X109578400Y-97753000D01*
X107703500Y-95068500D02*
X109578400Y-96943400D01*
X106798400Y-95068500D02*
X107703500Y-95068500D01*
X105998800Y-94268900D02*
X106798400Y-95068500D01*
X105998800Y-85564300D02*
X105998800Y-94268900D01*
X106820200Y-84742900D02*
X105998800Y-85564300D01*
X107188000Y-84742900D02*
X106820200Y-84742900D01*
X120789000Y-99497500D02*
X110993000Y-99497500D01*
X125164500Y-103873000D02*
X120789000Y-99497500D01*
X139986900Y-103873000D02*
X125164500Y-103873000D01*
X141333900Y-105220000D02*
X139986900Y-103873000D01*
X110759500Y-91314100D02*
X110993000Y-91314100D01*
X108364900Y-88919500D02*
X110759500Y-91314100D01*
X108364900Y-88091900D02*
X108364900Y-88919500D01*
X107555900Y-87282900D02*
X108364900Y-88091900D01*
X107188000Y-87282900D02*
X107555900Y-87282900D01*
X107188000Y-86106000D02*
X107188000Y-87282900D01*
X110993000Y-92441000D02*
X110993000Y-91877500D01*
X110993000Y-91877500D02*
X110993000Y-91314100D01*
X142119200Y-98796000D02*
X145002600Y-101679400D01*
X138105700Y-98796000D02*
X142119200Y-98796000D01*
X132882300Y-93572600D02*
X138105700Y-98796000D01*
X112688100Y-93572600D02*
X132882300Y-93572600D01*
X110993000Y-91877500D02*
X112688100Y-93572600D01*
X154178000Y-116586000D02*
X153001100Y-116586000D01*
X126233000Y-105141000D02*
X128556300Y-105141000D01*
X125106100Y-104854600D02*
X125106100Y-105141000D01*
X121370500Y-101119000D02*
X125106100Y-104854600D01*
X126233000Y-105141000D02*
X125106100Y-105141000D01*
X107188000Y-88646000D02*
X107188000Y-89822900D01*
X116230900Y-98561000D02*
X119597400Y-98561000D01*
X111466100Y-93796200D02*
X116230900Y-98561000D01*
X110662800Y-93796200D02*
X111466100Y-93796200D01*
X108364900Y-91498300D02*
X110662800Y-93796200D01*
X108364900Y-90631900D02*
X108364900Y-91498300D01*
X107555900Y-89822900D02*
X108364900Y-90631900D01*
X107188000Y-89822900D02*
X107555900Y-89822900D01*
X135808000Y-110040500D02*
X132518000Y-110040500D01*
X137263500Y-111496000D02*
X135808000Y-110040500D01*
X148276900Y-111496000D02*
X137263500Y-111496000D01*
X153001100Y-116220200D02*
X148276900Y-111496000D01*
X153001100Y-116586000D02*
X153001100Y-116220200D01*
X126233000Y-107681000D02*
X127359900Y-107681000D01*
X126233000Y-107681000D02*
X125106100Y-107681000D01*
X120341000Y-102915900D02*
X125106100Y-107681000D01*
X114129700Y-102915900D02*
X120341000Y-102915900D01*
X128637000Y-108958100D02*
X137065100Y-108958100D01*
X127359900Y-107681000D02*
X128637000Y-108958100D01*
X126233000Y-110221000D02*
X126233000Y-109949400D01*
X126233000Y-109949400D02*
X126233000Y-109677900D01*
X123523600Y-106968500D02*
X116101800Y-106968500D01*
X126233000Y-109677900D02*
X123523600Y-106968500D01*
X128522700Y-109949400D02*
X126233000Y-109949400D01*
X129935300Y-111362000D02*
X128522700Y-109949400D01*
X133103100Y-111362000D02*
X129935300Y-111362000D01*
X133341100Y-111124000D02*
X133103100Y-111362000D01*
X135416500Y-111124000D02*
X133341100Y-111124000D01*
X110993000Y-112761000D02*
X112119900Y-112761000D01*
X112172600Y-112708300D02*
X112119900Y-112761000D01*
X123519800Y-112708300D02*
X112172600Y-112708300D01*
X124101500Y-113290000D02*
X123519800Y-112708300D01*
X131318000Y-116586000D02*
X131318000Y-115409100D01*
X130160400Y-114251500D02*
X115207900Y-114251500D01*
X131318000Y-115409100D02*
X130160400Y-114251500D01*
X110993000Y-107681000D02*
X112119900Y-107681000D01*
X110759500Y-106554100D02*
X110993000Y-106554100D01*
X108364900Y-104159500D02*
X110759500Y-106554100D01*
X108364900Y-103886000D02*
X108364900Y-104159500D01*
X107188000Y-103886000D02*
X108364900Y-103886000D01*
X110993000Y-107681000D02*
X110993000Y-106554100D01*
X112214300Y-107775400D02*
X112119900Y-107681000D01*
X118717400Y-107775400D02*
X112214300Y-107775400D01*
X122302200Y-111360200D02*
X118717400Y-107775400D01*
X128655100Y-111360200D02*
X122302200Y-111360200D01*
X150461100Y-116220200D02*
X150461100Y-116586000D01*
X149129800Y-114888900D02*
X150461100Y-116220200D01*
X131603200Y-114888900D02*
X149129800Y-114888900D01*
X129475300Y-112761000D02*
X131603200Y-114888900D01*
X126233000Y-112761000D02*
X129475300Y-112761000D01*
X151638000Y-116586000D02*
X150461100Y-116586000D01*
X107188000Y-106426000D02*
X108364900Y-106426000D01*
X126233000Y-112761000D02*
X125106100Y-112761000D01*
X108364900Y-106646700D02*
X108364900Y-106426000D01*
X110684200Y-108966000D02*
X108364900Y-106646700D01*
X118728000Y-108966000D02*
X110684200Y-108966000D01*
X121847600Y-112085600D02*
X118728000Y-108966000D01*
X124430700Y-112085600D02*
X121847600Y-112085600D01*
X125106100Y-112761000D02*
X124430700Y-112085600D01*
X126233000Y-102601000D02*
X125106100Y-102601000D01*
X159512000Y-105923000D02*
X159512000Y-109099900D01*
X138898000Y-93655100D02*
X138898000Y-91440000D01*
X138694000Y-93859100D02*
X138898000Y-93655100D01*
X138694000Y-94986000D02*
X138694000Y-93859100D01*
X152855900Y-110226000D02*
X138694000Y-110226000D01*
X154276100Y-111646200D02*
X152855900Y-110226000D01*
X154276100Y-112014000D02*
X154276100Y-111646200D01*
X156629900Y-111982000D02*
X159512000Y-109099900D01*
X156629900Y-112014000D02*
X156629900Y-111982000D01*
X155453000Y-112014000D02*
X156629900Y-112014000D01*
X155453000Y-112014000D02*
X154276100Y-112014000D01*
X107188000Y-108966000D02*
X107188000Y-107789100D01*
X110784000Y-77308000D02*
X110784000Y-76454000D01*
X116503100Y-83027100D02*
X110784000Y-77308000D01*
X106822200Y-107789100D02*
X107188000Y-107789100D01*
X105994500Y-106961400D02*
X106822200Y-107789100D01*
X105994500Y-103357700D02*
X105994500Y-106961400D01*
X106736200Y-102616000D02*
X105994500Y-103357700D01*
X107666500Y-102616000D02*
X106736200Y-102616000D01*
X108953000Y-101329500D02*
X107666500Y-102616000D01*
X118375400Y-101329500D02*
X108953000Y-101329500D01*
X119035100Y-100669800D02*
X118375400Y-101329500D01*
X123766900Y-101261800D02*
X123581400Y-101261800D01*
X125106100Y-102601000D02*
X123766900Y-101261800D01*
X126233000Y-102601000D02*
X127359900Y-102601000D01*
X128644300Y-101316600D02*
X127359900Y-102601000D01*
X137544600Y-101316600D02*
X128644300Y-101316600D01*
X117749500Y-111506000D02*
X107188000Y-111506000D01*
X118871100Y-110384400D02*
X117749500Y-111506000D01*
X131887300Y-98796000D02*
X134430800Y-96252500D01*
X129091700Y-98796000D02*
X131887300Y-98796000D01*
X126699800Y-101187900D02*
X129091700Y-98796000D01*
X125127500Y-101187900D02*
X126699800Y-101187900D01*
X125013000Y-101073400D02*
X125127500Y-101187900D01*
X138694000Y-102606000D02*
X137567100Y-102606000D01*
X119794900Y-116220200D02*
X119794900Y-116586000D01*
X121036700Y-114978400D02*
X119794900Y-116220200D01*
X129696800Y-114978400D02*
X121036700Y-114978400D01*
X118618000Y-116586000D02*
X119794900Y-116586000D01*
X117441100Y-116951800D02*
X117441100Y-116586000D01*
X116583600Y-117809300D02*
X117441100Y-116951800D01*
X109588200Y-117809300D02*
X116583600Y-117809300D01*
X108364900Y-116586000D02*
X109588200Y-117809300D01*
X107188000Y-116586000D02*
X108364900Y-116586000D01*
X118618000Y-116586000D02*
X117441100Y-116586000D01*
X132773100Y-76454000D02*
X115784000Y-76454000D01*
X136562100Y-80243000D02*
X132773100Y-76454000D01*
X137414000Y-80243000D02*
X136562100Y-80243000D01*
X145162400Y-79166100D02*
X137414000Y-79166100D01*
X155287100Y-69041400D02*
X145162400Y-79166100D01*
X155287100Y-68453000D02*
X155287100Y-69041400D01*
X156464000Y-68453000D02*
X155287100Y-68453000D01*
X137414000Y-80243000D02*
X137414000Y-79166100D01*
X154831900Y-102606000D02*
X139820900Y-102606000D01*
X156972000Y-104746100D02*
X154831900Y-102606000D01*
X156972000Y-105923000D02*
X156972000Y-104746100D01*
X138694000Y-102606000D02*
X139820900Y-102606000D01*
X131074000Y-112766000D02*
X132200900Y-112766000D01*
X133116000Y-111850900D02*
X133645300Y-111850900D01*
X132200900Y-112766000D02*
X133116000Y-111850900D01*
X137005400Y-102044300D02*
X135545700Y-102044300D01*
X137567100Y-102606000D02*
X137005400Y-102044300D01*
G04 #@! TA.AperFunction,Conductor*
G36*
X105365012Y-107137762D02*
G01*
X105403497Y-107197834D01*
X105408482Y-107214993D01*
X105412515Y-107221812D01*
X105412517Y-107221817D01*
X105418793Y-107232428D01*
X105427488Y-107250176D01*
X105434948Y-107269017D01*
X105439610Y-107275433D01*
X105439610Y-107275434D01*
X105460936Y-107304787D01*
X105467452Y-107314707D01*
X105489958Y-107352762D01*
X105504279Y-107367083D01*
X105517119Y-107382116D01*
X105529028Y-107398507D01*
X105563105Y-107426698D01*
X105571884Y-107434688D01*
X106102119Y-107964923D01*
X106136145Y-108027235D01*
X106131080Y-108098050D01*
X106117114Y-108125019D01*
X106002743Y-108292680D01*
X105987336Y-108325872D01*
X105913630Y-108484659D01*
X105908688Y-108495305D01*
X105848989Y-108710570D01*
X105825251Y-108932695D01*
X105825548Y-108937848D01*
X105825548Y-108937851D01*
X105837767Y-109149758D01*
X105838110Y-109155715D01*
X105839247Y-109160761D01*
X105839248Y-109160767D01*
X105859119Y-109248939D01*
X105887222Y-109373639D01*
X105941557Y-109507451D01*
X105967970Y-109572498D01*
X105971266Y-109580616D01*
X105973965Y-109585020D01*
X106085201Y-109766541D01*
X106087987Y-109771088D01*
X106234250Y-109939938D01*
X106406126Y-110082632D01*
X106427254Y-110094978D01*
X106479445Y-110125476D01*
X106528169Y-110177114D01*
X106541240Y-110246897D01*
X106514509Y-110312669D01*
X106474055Y-110346027D01*
X106461607Y-110352507D01*
X106457474Y-110355610D01*
X106457471Y-110355612D01*
X106325899Y-110454399D01*
X106282965Y-110486635D01*
X106128629Y-110648138D01*
X106125715Y-110652410D01*
X106125714Y-110652411D01*
X106080446Y-110718771D01*
X106002743Y-110832680D01*
X105975750Y-110890832D01*
X105918696Y-111013745D01*
X105908688Y-111035305D01*
X105848989Y-111250570D01*
X105825251Y-111472695D01*
X105825548Y-111477848D01*
X105825548Y-111477851D01*
X105829620Y-111548470D01*
X105838110Y-111695715D01*
X105839247Y-111700761D01*
X105839248Y-111700767D01*
X105849934Y-111748183D01*
X105887222Y-111913639D01*
X105931364Y-112022348D01*
X105965345Y-112106033D01*
X105971266Y-112120616D01*
X106003825Y-112173748D01*
X106085207Y-112306551D01*
X106087987Y-112311088D01*
X106234250Y-112479938D01*
X106406126Y-112622632D01*
X106476595Y-112663811D01*
X106479445Y-112665476D01*
X106528169Y-112717114D01*
X106541240Y-112786897D01*
X106514509Y-112852669D01*
X106474055Y-112886027D01*
X106461607Y-112892507D01*
X106457474Y-112895610D01*
X106457471Y-112895612D01*
X106325895Y-112994402D01*
X106282965Y-113026635D01*
X106128629Y-113188138D01*
X106125715Y-113192410D01*
X106125714Y-113192411D01*
X106110139Y-113215243D01*
X106002743Y-113372680D01*
X105977409Y-113427257D01*
X105917234Y-113556895D01*
X105908688Y-113575305D01*
X105848989Y-113790570D01*
X105825251Y-114012695D01*
X105825548Y-114017848D01*
X105825548Y-114017851D01*
X105830946Y-114111468D01*
X105838110Y-114235715D01*
X105839247Y-114240761D01*
X105839248Y-114240767D01*
X105851517Y-114295205D01*
X105887222Y-114453639D01*
X105971266Y-114660616D01*
X106087987Y-114851088D01*
X106234250Y-115019938D01*
X106238225Y-115023238D01*
X106238231Y-115023244D01*
X106243425Y-115027556D01*
X106283059Y-115086460D01*
X106284555Y-115157441D01*
X106247439Y-115217962D01*
X106207168Y-115242480D01*
X106099946Y-115282676D01*
X106084351Y-115291214D01*
X105982276Y-115367715D01*
X105969715Y-115380276D01*
X105893214Y-115482351D01*
X105884676Y-115497946D01*
X105839522Y-115618394D01*
X105835895Y-115633649D01*
X105830369Y-115684514D01*
X105830000Y-115691328D01*
X105830000Y-116313885D01*
X105834475Y-116329124D01*
X105835865Y-116330329D01*
X105843548Y-116332000D01*
X108527884Y-116332000D01*
X108543123Y-116327525D01*
X108544328Y-116326135D01*
X108545999Y-116318452D01*
X108545999Y-115691331D01*
X108545629Y-115684510D01*
X108540105Y-115633648D01*
X108536479Y-115618396D01*
X108491324Y-115497946D01*
X108482786Y-115482351D01*
X108406285Y-115380276D01*
X108393724Y-115367715D01*
X108291649Y-115291214D01*
X108276054Y-115282676D01*
X108165813Y-115241348D01*
X108109049Y-115198706D01*
X108084349Y-115132145D01*
X108099557Y-115062796D01*
X108121104Y-115034115D01*
X108222430Y-114933144D01*
X108222440Y-114933132D01*
X108226096Y-114929489D01*
X108254868Y-114889449D01*
X108353435Y-114752277D01*
X108356453Y-114748077D01*
X108455430Y-114547811D01*
X108520370Y-114334069D01*
X108549529Y-114112590D01*
X108550460Y-114074498D01*
X108551074Y-114049365D01*
X108551074Y-114049361D01*
X108551156Y-114046000D01*
X108532852Y-113823361D01*
X108478431Y-113606702D01*
X108389354Y-113401840D01*
X108329441Y-113309229D01*
X108270822Y-113218617D01*
X108270820Y-113218614D01*
X108268014Y-113214277D01*
X108117670Y-113049051D01*
X108113619Y-113045852D01*
X108113615Y-113045848D01*
X107946414Y-112913800D01*
X107946410Y-112913798D01*
X107942359Y-112910598D01*
X107901053Y-112887796D01*
X107851084Y-112837364D01*
X107836312Y-112767921D01*
X107861428Y-112701516D01*
X107888780Y-112674909D01*
X107947823Y-112632794D01*
X108067860Y-112547173D01*
X108076846Y-112538219D01*
X108189181Y-112426275D01*
X108226096Y-112389489D01*
X108281943Y-112311770D01*
X108353435Y-112212277D01*
X108356453Y-112208077D01*
X108358746Y-112203437D01*
X108360446Y-112200608D01*
X108412674Y-112152518D01*
X108468451Y-112139500D01*
X109641976Y-112139500D01*
X109710097Y-112159502D01*
X109756590Y-112213158D01*
X109766694Y-112283432D01*
X109760596Y-112307726D01*
X109758716Y-112311757D01*
X109699457Y-112532913D01*
X109679502Y-112761000D01*
X109699457Y-112989087D01*
X109700881Y-112994400D01*
X109700881Y-112994402D01*
X109751792Y-113184401D01*
X109758716Y-113210243D01*
X109761039Y-113215224D01*
X109761039Y-113215225D01*
X109853151Y-113412762D01*
X109853154Y-113412767D01*
X109855477Y-113417749D01*
X109928902Y-113522611D01*
X109969295Y-113580297D01*
X109986802Y-113605300D01*
X110148700Y-113767198D01*
X110153208Y-113770355D01*
X110153211Y-113770357D01*
X110189415Y-113795707D01*
X110336251Y-113898523D01*
X110341233Y-113900846D01*
X110341238Y-113900849D01*
X110538775Y-113992961D01*
X110543757Y-113995284D01*
X110549065Y-113996706D01*
X110549067Y-113996707D01*
X110759598Y-114053119D01*
X110759600Y-114053119D01*
X110764913Y-114054543D01*
X110993000Y-114074498D01*
X111221087Y-114054543D01*
X111226400Y-114053119D01*
X111226402Y-114053119D01*
X111436933Y-113996707D01*
X111436935Y-113996706D01*
X111442243Y-113995284D01*
X111447225Y-113992961D01*
X111644762Y-113900849D01*
X111644767Y-113900846D01*
X111649749Y-113898523D01*
X111796585Y-113795707D01*
X111832789Y-113770357D01*
X111832792Y-113770355D01*
X111837300Y-113767198D01*
X111999198Y-113605300D01*
X112016706Y-113580297D01*
X112049913Y-113532872D01*
X112110994Y-113445639D01*
X112166450Y-113401312D01*
X112204056Y-113393293D01*
X112204035Y-113393163D01*
X112206490Y-113392774D01*
X112210247Y-113391973D01*
X112211870Y-113391922D01*
X112219789Y-113391673D01*
X112239243Y-113386021D01*
X112258600Y-113382013D01*
X112270830Y-113380468D01*
X112270831Y-113380468D01*
X112278697Y-113379474D01*
X112286068Y-113376555D01*
X112286070Y-113376555D01*
X112319812Y-113363196D01*
X112331042Y-113359351D01*
X112345925Y-113355027D01*
X112373492Y-113347018D01*
X112374085Y-113349058D01*
X112409142Y-113341800D01*
X113851205Y-113341800D01*
X113919326Y-113361802D01*
X113965819Y-113415458D01*
X113975923Y-113485732D01*
X113946429Y-113550312D01*
X113940300Y-113556895D01*
X112236215Y-115260980D01*
X112173903Y-115295006D01*
X112103088Y-115289941D01*
X112097176Y-115287237D01*
X112094705Y-115285385D01*
X111958316Y-115234255D01*
X111896134Y-115227500D01*
X110099866Y-115227500D01*
X110037684Y-115234255D01*
X109901295Y-115285385D01*
X109784739Y-115372739D01*
X109697385Y-115489295D01*
X109646255Y-115625684D01*
X109639500Y-115687866D01*
X109639500Y-117484134D01*
X109646255Y-117546316D01*
X109697385Y-117682705D01*
X109784739Y-117799261D01*
X109901295Y-117886615D01*
X110037684Y-117937745D01*
X110099866Y-117944500D01*
X111896134Y-117944500D01*
X111958316Y-117937745D01*
X112094705Y-117886615D01*
X112211261Y-117799261D01*
X112298615Y-117682705D01*
X112320799Y-117623529D01*
X112342598Y-117565382D01*
X112385240Y-117508618D01*
X112451802Y-117483918D01*
X112521150Y-117499126D01*
X112555817Y-117527114D01*
X112584250Y-117559938D01*
X112756126Y-117702632D01*
X112949000Y-117815338D01*
X113157692Y-117895030D01*
X113162760Y-117896061D01*
X113162763Y-117896062D01*
X113257862Y-117915410D01*
X113376597Y-117939567D01*
X113381772Y-117939757D01*
X113381774Y-117939757D01*
X113594673Y-117947564D01*
X113594677Y-117947564D01*
X113599837Y-117947753D01*
X113604957Y-117947097D01*
X113604959Y-117947097D01*
X113816288Y-117920025D01*
X113816289Y-117920025D01*
X113821416Y-117919368D01*
X113826366Y-117917883D01*
X114030429Y-117856661D01*
X114030434Y-117856659D01*
X114035384Y-117855174D01*
X114235994Y-117756896D01*
X114417860Y-117627173D01*
X114576096Y-117469489D01*
X114706453Y-117288077D01*
X114707776Y-117289028D01*
X114754645Y-117245857D01*
X114824580Y-117233625D01*
X114890026Y-117261144D01*
X114917875Y-117292994D01*
X114977987Y-117391088D01*
X115124250Y-117559938D01*
X115296126Y-117702632D01*
X115489000Y-117815338D01*
X115697692Y-117895030D01*
X115702760Y-117896061D01*
X115702763Y-117896062D01*
X115797862Y-117915410D01*
X115916597Y-117939567D01*
X115921772Y-117939757D01*
X115921774Y-117939757D01*
X116134673Y-117947564D01*
X116134677Y-117947564D01*
X116139837Y-117947753D01*
X116144957Y-117947097D01*
X116144959Y-117947097D01*
X116356288Y-117920025D01*
X116356289Y-117920025D01*
X116361416Y-117919368D01*
X116366366Y-117917883D01*
X116570429Y-117856661D01*
X116570434Y-117856659D01*
X116575384Y-117855174D01*
X116775994Y-117756896D01*
X116957860Y-117627173D01*
X117116096Y-117469489D01*
X117246453Y-117288077D01*
X117247640Y-117288930D01*
X117294960Y-117245362D01*
X117364897Y-117233145D01*
X117430338Y-117260678D01*
X117458166Y-117292511D01*
X117515694Y-117386388D01*
X117521777Y-117394699D01*
X117661213Y-117555667D01*
X117668580Y-117562883D01*
X117832434Y-117698916D01*
X117840881Y-117704831D01*
X118024756Y-117812279D01*
X118034042Y-117816729D01*
X118233001Y-117892703D01*
X118242899Y-117895579D01*
X118346250Y-117916606D01*
X118360299Y-117915410D01*
X118364000Y-117905065D01*
X118364000Y-115269102D01*
X118360082Y-115255758D01*
X118345806Y-115253771D01*
X118307324Y-115259660D01*
X118297288Y-115262051D01*
X118094868Y-115328212D01*
X118085359Y-115332209D01*
X117896463Y-115430542D01*
X117887738Y-115436036D01*
X117717433Y-115563905D01*
X117709726Y-115570748D01*
X117562590Y-115724717D01*
X117556109Y-115732722D01*
X117451498Y-115886074D01*
X117396587Y-115931076D01*
X117326062Y-115939247D01*
X117262315Y-115907993D01*
X117241618Y-115883509D01*
X117160822Y-115758617D01*
X117160820Y-115758614D01*
X117158014Y-115754277D01*
X117007670Y-115589051D01*
X117003619Y-115585852D01*
X117003615Y-115585848D01*
X116836414Y-115453800D01*
X116836410Y-115453798D01*
X116832359Y-115450598D01*
X116796028Y-115430542D01*
X116704970Y-115380276D01*
X116636789Y-115342638D01*
X116631920Y-115340914D01*
X116631916Y-115340912D01*
X116431087Y-115269795D01*
X116431083Y-115269794D01*
X116426212Y-115268069D01*
X116421119Y-115267162D01*
X116421116Y-115267161D01*
X116211373Y-115229800D01*
X116211367Y-115229799D01*
X116206284Y-115228894D01*
X116132452Y-115227992D01*
X115988081Y-115226228D01*
X115988079Y-115226228D01*
X115982911Y-115226165D01*
X115834447Y-115248883D01*
X115772572Y-115258351D01*
X115702209Y-115248883D01*
X115648135Y-115202877D01*
X115627518Y-115134940D01*
X115646903Y-115066641D01*
X115679452Y-115031865D01*
X115813814Y-114934245D01*
X115819153Y-114930366D01*
X115823568Y-114925463D01*
X115828480Y-114921040D01*
X115829605Y-114922289D01*
X115882914Y-114889449D01*
X115916100Y-114885000D01*
X129845806Y-114885000D01*
X129913927Y-114905002D01*
X129934901Y-114921905D01*
X130407310Y-115394314D01*
X130441336Y-115456626D01*
X130436271Y-115527441D01*
X130409309Y-115570460D01*
X130363607Y-115618285D01*
X130258629Y-115728138D01*
X130151201Y-115885621D01*
X130096293Y-115930621D01*
X130025768Y-115938792D01*
X129962021Y-115907538D01*
X129941324Y-115883054D01*
X129860822Y-115758617D01*
X129860820Y-115758614D01*
X129858014Y-115754277D01*
X129707670Y-115589051D01*
X129703619Y-115585852D01*
X129703615Y-115585848D01*
X129536414Y-115453800D01*
X129536410Y-115453798D01*
X129532359Y-115450598D01*
X129496028Y-115430542D01*
X129404970Y-115380276D01*
X129336789Y-115342638D01*
X129331920Y-115340914D01*
X129331916Y-115340912D01*
X129131087Y-115269795D01*
X129131083Y-115269794D01*
X129126212Y-115268069D01*
X129121119Y-115267162D01*
X129121116Y-115267161D01*
X128911373Y-115229800D01*
X128911367Y-115229799D01*
X128906284Y-115228894D01*
X128832452Y-115227992D01*
X128688081Y-115226228D01*
X128688079Y-115226228D01*
X128682911Y-115226165D01*
X128462091Y-115259955D01*
X128249756Y-115329357D01*
X128051607Y-115432507D01*
X128047474Y-115435610D01*
X128047471Y-115435612D01*
X127877100Y-115563530D01*
X127872965Y-115566635D01*
X127718629Y-115728138D01*
X127611201Y-115885621D01*
X127556293Y-115930621D01*
X127485768Y-115938792D01*
X127422021Y-115907538D01*
X127401324Y-115883054D01*
X127320822Y-115758617D01*
X127320820Y-115758614D01*
X127318014Y-115754277D01*
X127167670Y-115589051D01*
X127163619Y-115585852D01*
X127163615Y-115585848D01*
X126996414Y-115453800D01*
X126996410Y-115453798D01*
X126992359Y-115450598D01*
X126956028Y-115430542D01*
X126864970Y-115380276D01*
X126796789Y-115342638D01*
X126791920Y-115340914D01*
X126791916Y-115340912D01*
X126591087Y-115269795D01*
X126591083Y-115269794D01*
X126586212Y-115268069D01*
X126581119Y-115267162D01*
X126581116Y-115267161D01*
X126371373Y-115229800D01*
X126371367Y-115229799D01*
X126366284Y-115228894D01*
X126292452Y-115227992D01*
X126148081Y-115226228D01*
X126148079Y-115226228D01*
X126142911Y-115226165D01*
X125922091Y-115259955D01*
X125709756Y-115329357D01*
X125511607Y-115432507D01*
X125507474Y-115435610D01*
X125507471Y-115435612D01*
X125337100Y-115563530D01*
X125332965Y-115566635D01*
X125178629Y-115728138D01*
X125071201Y-115885621D01*
X125016293Y-115930621D01*
X124945768Y-115938792D01*
X124882021Y-115907538D01*
X124861324Y-115883054D01*
X124780822Y-115758617D01*
X124780820Y-115758614D01*
X124778014Y-115754277D01*
X124627670Y-115589051D01*
X124623619Y-115585852D01*
X124623615Y-115585848D01*
X124456414Y-115453800D01*
X124456410Y-115453798D01*
X124452359Y-115450598D01*
X124416028Y-115430542D01*
X124324970Y-115380276D01*
X124256789Y-115342638D01*
X124251920Y-115340914D01*
X124251916Y-115340912D01*
X124051087Y-115269795D01*
X124051083Y-115269794D01*
X124046212Y-115268069D01*
X124041119Y-115267162D01*
X124041116Y-115267161D01*
X123831373Y-115229800D01*
X123831367Y-115229799D01*
X123826284Y-115228894D01*
X123752452Y-115227992D01*
X123608081Y-115226228D01*
X123608079Y-115226228D01*
X123602911Y-115226165D01*
X123382091Y-115259955D01*
X123169756Y-115329357D01*
X122971607Y-115432507D01*
X122967474Y-115435610D01*
X122967471Y-115435612D01*
X122797100Y-115563530D01*
X122792965Y-115566635D01*
X122638629Y-115728138D01*
X122531201Y-115885621D01*
X122476293Y-115930621D01*
X122405768Y-115938792D01*
X122342021Y-115907538D01*
X122321324Y-115883054D01*
X122240822Y-115758617D01*
X122240820Y-115758614D01*
X122238014Y-115754277D01*
X122087670Y-115589051D01*
X122083619Y-115585852D01*
X122083615Y-115585848D01*
X121916414Y-115453800D01*
X121916410Y-115453798D01*
X121912359Y-115450598D01*
X121876028Y-115430542D01*
X121784970Y-115380276D01*
X121716789Y-115342638D01*
X121711920Y-115340914D01*
X121711916Y-115340912D01*
X121511087Y-115269795D01*
X121511083Y-115269794D01*
X121506212Y-115268069D01*
X121501119Y-115267162D01*
X121501116Y-115267161D01*
X121291373Y-115229800D01*
X121291367Y-115229799D01*
X121286284Y-115228894D01*
X121212452Y-115227992D01*
X121068081Y-115226228D01*
X121068079Y-115226228D01*
X121062911Y-115226165D01*
X120842091Y-115259955D01*
X120629756Y-115329357D01*
X120431607Y-115432507D01*
X120427474Y-115435610D01*
X120427471Y-115435612D01*
X120257100Y-115563530D01*
X120252965Y-115566635D01*
X120098629Y-115728138D01*
X119991204Y-115885618D01*
X119990898Y-115886066D01*
X119935987Y-115931069D01*
X119865462Y-115939240D01*
X119801715Y-115907986D01*
X119781018Y-115883502D01*
X119700426Y-115758926D01*
X119694136Y-115750757D01*
X119550806Y-115593240D01*
X119543273Y-115586215D01*
X119376139Y-115454222D01*
X119367552Y-115448517D01*
X119181117Y-115345599D01*
X119171705Y-115341369D01*
X118970959Y-115270280D01*
X118960988Y-115267646D01*
X118889837Y-115254972D01*
X118876540Y-115256432D01*
X118872000Y-115270989D01*
X118872000Y-117904517D01*
X118876064Y-117918359D01*
X118889478Y-117920393D01*
X118896184Y-117919534D01*
X118906262Y-117917392D01*
X119110255Y-117856191D01*
X119119842Y-117852433D01*
X119311095Y-117758739D01*
X119319945Y-117753464D01*
X119493328Y-117629792D01*
X119501200Y-117623139D01*
X119652052Y-117472812D01*
X119658730Y-117464965D01*
X119786022Y-117287819D01*
X119787279Y-117288722D01*
X119834373Y-117245362D01*
X119904311Y-117233145D01*
X119969751Y-117260678D01*
X119997579Y-117292511D01*
X120057987Y-117391088D01*
X120204250Y-117559938D01*
X120376126Y-117702632D01*
X120569000Y-117815338D01*
X120777692Y-117895030D01*
X120782760Y-117896061D01*
X120782763Y-117896062D01*
X120877862Y-117915410D01*
X120996597Y-117939567D01*
X121001772Y-117939757D01*
X121001774Y-117939757D01*
X121214673Y-117947564D01*
X121214677Y-117947564D01*
X121219837Y-117947753D01*
X121224957Y-117947097D01*
X121224959Y-117947097D01*
X121436288Y-117920025D01*
X121436289Y-117920025D01*
X121441416Y-117919368D01*
X121446366Y-117917883D01*
X121650429Y-117856661D01*
X121650434Y-117856659D01*
X121655384Y-117855174D01*
X121855994Y-117756896D01*
X122037860Y-117627173D01*
X122196096Y-117469489D01*
X122326453Y-117288077D01*
X122327776Y-117289028D01*
X122374645Y-117245857D01*
X122444580Y-117233625D01*
X122510026Y-117261144D01*
X122537875Y-117292994D01*
X122597987Y-117391088D01*
X122744250Y-117559938D01*
X122916126Y-117702632D01*
X123109000Y-117815338D01*
X123317692Y-117895030D01*
X123322760Y-117896061D01*
X123322763Y-117896062D01*
X123417862Y-117915410D01*
X123536597Y-117939567D01*
X123541772Y-117939757D01*
X123541774Y-117939757D01*
X123754673Y-117947564D01*
X123754677Y-117947564D01*
X123759837Y-117947753D01*
X123764957Y-117947097D01*
X123764959Y-117947097D01*
X123976288Y-117920025D01*
X123976289Y-117920025D01*
X123981416Y-117919368D01*
X123986366Y-117917883D01*
X124190429Y-117856661D01*
X124190434Y-117856659D01*
X124195384Y-117855174D01*
X124395994Y-117756896D01*
X124577860Y-117627173D01*
X124736096Y-117469489D01*
X124866453Y-117288077D01*
X124867776Y-117289028D01*
X124914645Y-117245857D01*
X124984580Y-117233625D01*
X125050026Y-117261144D01*
X125077875Y-117292994D01*
X125137987Y-117391088D01*
X125284250Y-117559938D01*
X125456126Y-117702632D01*
X125649000Y-117815338D01*
X125857692Y-117895030D01*
X125862760Y-117896061D01*
X125862763Y-117896062D01*
X125957862Y-117915410D01*
X126076597Y-117939567D01*
X126081772Y-117939757D01*
X126081774Y-117939757D01*
X126294673Y-117947564D01*
X126294677Y-117947564D01*
X126299837Y-117947753D01*
X126304957Y-117947097D01*
X126304959Y-117947097D01*
X126516288Y-117920025D01*
X126516289Y-117920025D01*
X126521416Y-117919368D01*
X126526366Y-117917883D01*
X126730429Y-117856661D01*
X126730434Y-117856659D01*
X126735384Y-117855174D01*
X126935994Y-117756896D01*
X127117860Y-117627173D01*
X127276096Y-117469489D01*
X127406453Y-117288077D01*
X127407776Y-117289028D01*
X127454645Y-117245857D01*
X127524580Y-117233625D01*
X127590026Y-117261144D01*
X127617875Y-117292994D01*
X127677987Y-117391088D01*
X127824250Y-117559938D01*
X127996126Y-117702632D01*
X128189000Y-117815338D01*
X128397692Y-117895030D01*
X128402760Y-117896061D01*
X128402763Y-117896062D01*
X128497862Y-117915410D01*
X128616597Y-117939567D01*
X128621772Y-117939757D01*
X128621774Y-117939757D01*
X128834673Y-117947564D01*
X128834677Y-117947564D01*
X128839837Y-117947753D01*
X128844957Y-117947097D01*
X128844959Y-117947097D01*
X129056288Y-117920025D01*
X129056289Y-117920025D01*
X129061416Y-117919368D01*
X129066366Y-117917883D01*
X129270429Y-117856661D01*
X129270434Y-117856659D01*
X129275384Y-117855174D01*
X129475994Y-117756896D01*
X129657860Y-117627173D01*
X129816096Y-117469489D01*
X129946453Y-117288077D01*
X129947776Y-117289028D01*
X129994645Y-117245857D01*
X130064580Y-117233625D01*
X130130026Y-117261144D01*
X130157875Y-117292994D01*
X130217987Y-117391088D01*
X130364250Y-117559938D01*
X130536126Y-117702632D01*
X130729000Y-117815338D01*
X130937692Y-117895030D01*
X130942760Y-117896061D01*
X130942763Y-117896062D01*
X131037862Y-117915410D01*
X131156597Y-117939567D01*
X131161772Y-117939757D01*
X131161774Y-117939757D01*
X131374673Y-117947564D01*
X131374677Y-117947564D01*
X131379837Y-117947753D01*
X131384957Y-117947097D01*
X131384959Y-117947097D01*
X131596288Y-117920025D01*
X131596289Y-117920025D01*
X131601416Y-117919368D01*
X131606366Y-117917883D01*
X131810429Y-117856661D01*
X131810434Y-117856659D01*
X131815384Y-117855174D01*
X132015994Y-117756896D01*
X132197860Y-117627173D01*
X132356096Y-117469489D01*
X132486453Y-117288077D01*
X132487776Y-117289028D01*
X132534645Y-117245857D01*
X132604580Y-117233625D01*
X132670026Y-117261144D01*
X132697875Y-117292994D01*
X132757987Y-117391088D01*
X132904250Y-117559938D01*
X133076126Y-117702632D01*
X133269000Y-117815338D01*
X133477692Y-117895030D01*
X133482760Y-117896061D01*
X133482763Y-117896062D01*
X133577862Y-117915410D01*
X133696597Y-117939567D01*
X133701772Y-117939757D01*
X133701774Y-117939757D01*
X133914673Y-117947564D01*
X133914677Y-117947564D01*
X133919837Y-117947753D01*
X133924957Y-117947097D01*
X133924959Y-117947097D01*
X134136288Y-117920025D01*
X134136289Y-117920025D01*
X134141416Y-117919368D01*
X134146366Y-117917883D01*
X134350429Y-117856661D01*
X134350434Y-117856659D01*
X134355384Y-117855174D01*
X134555994Y-117756896D01*
X134737860Y-117627173D01*
X134896096Y-117469489D01*
X135026453Y-117288077D01*
X135027776Y-117289028D01*
X135074645Y-117245857D01*
X135144580Y-117233625D01*
X135210026Y-117261144D01*
X135237875Y-117292994D01*
X135297987Y-117391088D01*
X135444250Y-117559938D01*
X135616126Y-117702632D01*
X135809000Y-117815338D01*
X136017692Y-117895030D01*
X136022760Y-117896061D01*
X136022763Y-117896062D01*
X136117862Y-117915410D01*
X136236597Y-117939567D01*
X136241772Y-117939757D01*
X136241774Y-117939757D01*
X136454673Y-117947564D01*
X136454677Y-117947564D01*
X136459837Y-117947753D01*
X136464957Y-117947097D01*
X136464959Y-117947097D01*
X136676288Y-117920025D01*
X136676289Y-117920025D01*
X136681416Y-117919368D01*
X136686366Y-117917883D01*
X136890429Y-117856661D01*
X136890434Y-117856659D01*
X136895384Y-117855174D01*
X137095994Y-117756896D01*
X137277860Y-117627173D01*
X137436096Y-117469489D01*
X137566453Y-117288077D01*
X137567776Y-117289028D01*
X137614645Y-117245857D01*
X137684580Y-117233625D01*
X137750026Y-117261144D01*
X137777875Y-117292994D01*
X137837987Y-117391088D01*
X137984250Y-117559938D01*
X138156126Y-117702632D01*
X138349000Y-117815338D01*
X138557692Y-117895030D01*
X138562760Y-117896061D01*
X138562763Y-117896062D01*
X138657862Y-117915410D01*
X138776597Y-117939567D01*
X138781772Y-117939757D01*
X138781774Y-117939757D01*
X138994673Y-117947564D01*
X138994677Y-117947564D01*
X138999837Y-117947753D01*
X139004957Y-117947097D01*
X139004959Y-117947097D01*
X139216288Y-117920025D01*
X139216289Y-117920025D01*
X139221416Y-117919368D01*
X139226366Y-117917883D01*
X139430429Y-117856661D01*
X139430434Y-117856659D01*
X139435384Y-117855174D01*
X139635994Y-117756896D01*
X139817860Y-117627173D01*
X139976096Y-117469489D01*
X140106453Y-117288077D01*
X140107776Y-117289028D01*
X140154645Y-117245857D01*
X140224580Y-117233625D01*
X140290026Y-117261144D01*
X140317875Y-117292994D01*
X140377987Y-117391088D01*
X140524250Y-117559938D01*
X140696126Y-117702632D01*
X140889000Y-117815338D01*
X141097692Y-117895030D01*
X141102760Y-117896061D01*
X141102763Y-117896062D01*
X141197862Y-117915410D01*
X141316597Y-117939567D01*
X141321772Y-117939757D01*
X141321774Y-117939757D01*
X141534673Y-117947564D01*
X141534677Y-117947564D01*
X141539837Y-117947753D01*
X141544957Y-117947097D01*
X141544959Y-117947097D01*
X141756288Y-117920025D01*
X141756289Y-117920025D01*
X141761416Y-117919368D01*
X141766366Y-117917883D01*
X141970429Y-117856661D01*
X141970434Y-117856659D01*
X141975384Y-117855174D01*
X142175994Y-117756896D01*
X142357860Y-117627173D01*
X142516096Y-117469489D01*
X142646453Y-117288077D01*
X142647776Y-117289028D01*
X142694645Y-117245857D01*
X142764580Y-117233625D01*
X142830026Y-117261144D01*
X142857875Y-117292994D01*
X142917987Y-117391088D01*
X143064250Y-117559938D01*
X143236126Y-117702632D01*
X143429000Y-117815338D01*
X143637692Y-117895030D01*
X143642760Y-117896061D01*
X143642763Y-117896062D01*
X143737862Y-117915410D01*
X143856597Y-117939567D01*
X143861772Y-117939757D01*
X143861774Y-117939757D01*
X144074673Y-117947564D01*
X144074677Y-117947564D01*
X144079837Y-117947753D01*
X144084957Y-117947097D01*
X144084959Y-117947097D01*
X144296288Y-117920025D01*
X144296289Y-117920025D01*
X144301416Y-117919368D01*
X144306366Y-117917883D01*
X144510429Y-117856661D01*
X144510434Y-117856659D01*
X144515384Y-117855174D01*
X144715994Y-117756896D01*
X144897860Y-117627173D01*
X145056096Y-117469489D01*
X145186453Y-117288077D01*
X145187776Y-117289028D01*
X145234645Y-117245857D01*
X145304580Y-117233625D01*
X145370026Y-117261144D01*
X145397875Y-117292994D01*
X145457987Y-117391088D01*
X145604250Y-117559938D01*
X145776126Y-117702632D01*
X145969000Y-117815338D01*
X146177692Y-117895030D01*
X146182760Y-117896061D01*
X146182763Y-117896062D01*
X146277862Y-117915410D01*
X146396597Y-117939567D01*
X146401772Y-117939757D01*
X146401774Y-117939757D01*
X146614673Y-117947564D01*
X146614677Y-117947564D01*
X146619837Y-117947753D01*
X146624957Y-117947097D01*
X146624959Y-117947097D01*
X146836288Y-117920025D01*
X146836289Y-117920025D01*
X146841416Y-117919368D01*
X146846366Y-117917883D01*
X147050429Y-117856661D01*
X147050434Y-117856659D01*
X147055384Y-117855174D01*
X147255994Y-117756896D01*
X147437860Y-117627173D01*
X147596096Y-117469489D01*
X147726453Y-117288077D01*
X147727776Y-117289028D01*
X147774645Y-117245857D01*
X147844580Y-117233625D01*
X147910026Y-117261144D01*
X147937875Y-117292994D01*
X147997987Y-117391088D01*
X148144250Y-117559938D01*
X148316126Y-117702632D01*
X148509000Y-117815338D01*
X148717692Y-117895030D01*
X148722760Y-117896061D01*
X148722763Y-117896062D01*
X148817862Y-117915410D01*
X148936597Y-117939567D01*
X148941772Y-117939757D01*
X148941774Y-117939757D01*
X149154673Y-117947564D01*
X149154677Y-117947564D01*
X149159837Y-117947753D01*
X149164957Y-117947097D01*
X149164959Y-117947097D01*
X149376288Y-117920025D01*
X149376289Y-117920025D01*
X149381416Y-117919368D01*
X149386366Y-117917883D01*
X149590429Y-117856661D01*
X149590434Y-117856659D01*
X149595384Y-117855174D01*
X149795994Y-117756896D01*
X149977860Y-117627173D01*
X150136096Y-117469489D01*
X150266453Y-117288077D01*
X150267774Y-117289026D01*
X150314663Y-117245849D01*
X150384600Y-117233628D01*
X150450042Y-117261158D01*
X150477874Y-117292995D01*
X150535285Y-117386680D01*
X150535290Y-117386687D01*
X150537987Y-117391088D01*
X150684250Y-117559938D01*
X150856126Y-117702632D01*
X151049000Y-117815338D01*
X151257692Y-117895030D01*
X151262760Y-117896061D01*
X151262763Y-117896062D01*
X151357862Y-117915410D01*
X151476597Y-117939567D01*
X151481772Y-117939757D01*
X151481774Y-117939757D01*
X151694673Y-117947564D01*
X151694677Y-117947564D01*
X151699837Y-117947753D01*
X151704957Y-117947097D01*
X151704959Y-117947097D01*
X151916288Y-117920025D01*
X151916289Y-117920025D01*
X151921416Y-117919368D01*
X151926366Y-117917883D01*
X152130429Y-117856661D01*
X152130434Y-117856659D01*
X152135384Y-117855174D01*
X152335994Y-117756896D01*
X152517860Y-117627173D01*
X152676096Y-117469489D01*
X152806453Y-117288077D01*
X152807774Y-117289026D01*
X152854663Y-117245849D01*
X152924600Y-117233628D01*
X152990042Y-117261158D01*
X153017874Y-117292995D01*
X153075285Y-117386680D01*
X153075290Y-117386687D01*
X153077987Y-117391088D01*
X153224250Y-117559938D01*
X153396126Y-117702632D01*
X153589000Y-117815338D01*
X153797692Y-117895030D01*
X153802760Y-117896061D01*
X153802763Y-117896062D01*
X153897862Y-117915410D01*
X154016597Y-117939567D01*
X154021772Y-117939757D01*
X154021774Y-117939757D01*
X154234673Y-117947564D01*
X154234677Y-117947564D01*
X154239837Y-117947753D01*
X154244957Y-117947097D01*
X154244959Y-117947097D01*
X154456288Y-117920025D01*
X154456289Y-117920025D01*
X154461416Y-117919368D01*
X154466366Y-117917883D01*
X154670429Y-117856661D01*
X154670434Y-117856659D01*
X154675384Y-117855174D01*
X154875994Y-117756896D01*
X155057860Y-117627173D01*
X155216096Y-117469489D01*
X155346453Y-117288077D01*
X155347776Y-117289028D01*
X155394645Y-117245857D01*
X155464580Y-117233625D01*
X155530026Y-117261144D01*
X155557875Y-117292994D01*
X155617987Y-117391088D01*
X155764250Y-117559938D01*
X155936126Y-117702632D01*
X156129000Y-117815338D01*
X156337692Y-117895030D01*
X156342760Y-117896061D01*
X156342763Y-117896062D01*
X156437862Y-117915410D01*
X156556597Y-117939567D01*
X156561772Y-117939757D01*
X156561774Y-117939757D01*
X156774673Y-117947564D01*
X156774677Y-117947564D01*
X156779837Y-117947753D01*
X156784957Y-117947097D01*
X156784959Y-117947097D01*
X156996288Y-117920025D01*
X156996289Y-117920025D01*
X157001416Y-117919368D01*
X157006366Y-117917883D01*
X157210429Y-117856661D01*
X157210434Y-117856659D01*
X157215384Y-117855174D01*
X157415994Y-117756896D01*
X157597860Y-117627173D01*
X157756096Y-117469489D01*
X157886453Y-117288077D01*
X157887776Y-117289028D01*
X157934645Y-117245857D01*
X158004580Y-117233625D01*
X158070026Y-117261144D01*
X158097875Y-117292994D01*
X158157987Y-117391088D01*
X158304250Y-117559938D01*
X158476126Y-117702632D01*
X158669000Y-117815338D01*
X158877692Y-117895030D01*
X158882760Y-117896061D01*
X158882763Y-117896062D01*
X158977862Y-117915410D01*
X159096597Y-117939567D01*
X159101772Y-117939757D01*
X159101774Y-117939757D01*
X159314673Y-117947564D01*
X159314677Y-117947564D01*
X159319837Y-117947753D01*
X159324957Y-117947097D01*
X159324959Y-117947097D01*
X159536288Y-117920025D01*
X159536289Y-117920025D01*
X159541416Y-117919368D01*
X159546366Y-117917883D01*
X159750429Y-117856661D01*
X159750434Y-117856659D01*
X159755384Y-117855174D01*
X159955994Y-117756896D01*
X160137860Y-117627173D01*
X160296096Y-117469489D01*
X160426453Y-117288077D01*
X160439995Y-117260678D01*
X160523136Y-117092453D01*
X160523137Y-117092451D01*
X160525430Y-117087811D01*
X160556532Y-116985443D01*
X160595473Y-116926079D01*
X160660327Y-116897192D01*
X160730503Y-116907953D01*
X160783721Y-116954947D01*
X160803090Y-117022072D01*
X160803090Y-118433810D01*
X160783088Y-118501931D01*
X160729432Y-118548424D01*
X160677090Y-118559810D01*
X105282500Y-118559810D01*
X105214379Y-118539808D01*
X105167886Y-118486152D01*
X105156500Y-118433810D01*
X105156500Y-117480669D01*
X105830001Y-117480669D01*
X105830371Y-117487490D01*
X105835895Y-117538352D01*
X105839521Y-117553604D01*
X105884676Y-117674054D01*
X105893214Y-117689649D01*
X105969715Y-117791724D01*
X105982276Y-117804285D01*
X106084351Y-117880786D01*
X106099946Y-117889324D01*
X106220394Y-117934478D01*
X106235649Y-117938105D01*
X106286514Y-117943631D01*
X106293328Y-117944000D01*
X106915885Y-117944000D01*
X106931124Y-117939525D01*
X106932329Y-117938135D01*
X106934000Y-117930452D01*
X106934000Y-117925884D01*
X107442000Y-117925884D01*
X107446475Y-117941123D01*
X107447865Y-117942328D01*
X107455548Y-117943999D01*
X108082669Y-117943999D01*
X108089490Y-117943629D01*
X108140352Y-117938105D01*
X108155604Y-117934479D01*
X108276054Y-117889324D01*
X108291649Y-117880786D01*
X108393724Y-117804285D01*
X108406285Y-117791724D01*
X108482786Y-117689649D01*
X108491324Y-117674054D01*
X108536478Y-117553606D01*
X108540105Y-117538351D01*
X108545631Y-117487486D01*
X108546000Y-117480672D01*
X108546000Y-116858115D01*
X108541525Y-116842876D01*
X108540135Y-116841671D01*
X108532452Y-116840000D01*
X107460115Y-116840000D01*
X107444876Y-116844475D01*
X107443671Y-116845865D01*
X107442000Y-116853548D01*
X107442000Y-117925884D01*
X106934000Y-117925884D01*
X106934000Y-116858115D01*
X106929525Y-116842876D01*
X106928135Y-116841671D01*
X106920452Y-116840000D01*
X105848116Y-116840000D01*
X105832877Y-116844475D01*
X105831672Y-116845865D01*
X105830001Y-116853548D01*
X105830001Y-117480669D01*
X105156500Y-117480669D01*
X105156500Y-107232986D01*
X105176502Y-107164865D01*
X105230158Y-107118372D01*
X105300432Y-107108268D01*
X105365012Y-107137762D01*
G37*
G04 #@! TD.AperFunction*
G04 #@! TA.AperFunction,Conductor*
G36*
X160770034Y-108758321D02*
G01*
X160801273Y-108822076D01*
X160803090Y-108843394D01*
X160803090Y-116141704D01*
X160783088Y-116209825D01*
X160729432Y-116256318D01*
X160659158Y-116266422D01*
X160594578Y-116236928D01*
X160554886Y-116172400D01*
X160549691Y-116151720D01*
X160548431Y-116146702D01*
X160459354Y-115941840D01*
X160338014Y-115754277D01*
X160187670Y-115589051D01*
X160183619Y-115585852D01*
X160183615Y-115585848D01*
X160016414Y-115453800D01*
X160016410Y-115453798D01*
X160012359Y-115450598D01*
X159976028Y-115430542D01*
X159884970Y-115380276D01*
X159816789Y-115342638D01*
X159811920Y-115340914D01*
X159811916Y-115340912D01*
X159611087Y-115269795D01*
X159611083Y-115269794D01*
X159606212Y-115268069D01*
X159601119Y-115267162D01*
X159601116Y-115267161D01*
X159391373Y-115229800D01*
X159391367Y-115229799D01*
X159386284Y-115228894D01*
X159312452Y-115227992D01*
X159168081Y-115226228D01*
X159168079Y-115226228D01*
X159162911Y-115226165D01*
X158942091Y-115259955D01*
X158729756Y-115329357D01*
X158531607Y-115432507D01*
X158527474Y-115435610D01*
X158527471Y-115435612D01*
X158357100Y-115563530D01*
X158352965Y-115566635D01*
X158198629Y-115728138D01*
X158091201Y-115885621D01*
X158036293Y-115930621D01*
X157965768Y-115938792D01*
X157902021Y-115907538D01*
X157881324Y-115883054D01*
X157800822Y-115758617D01*
X157800820Y-115758614D01*
X157798014Y-115754277D01*
X157647670Y-115589051D01*
X157643619Y-115585852D01*
X157643615Y-115585848D01*
X157476414Y-115453800D01*
X157476410Y-115453798D01*
X157472359Y-115450598D01*
X157436028Y-115430542D01*
X157344970Y-115380276D01*
X157276789Y-115342638D01*
X157271920Y-115340914D01*
X157271916Y-115340912D01*
X157071087Y-115269795D01*
X157071083Y-115269794D01*
X157066212Y-115268069D01*
X157061119Y-115267162D01*
X157061116Y-115267161D01*
X156851373Y-115229800D01*
X156851367Y-115229799D01*
X156846284Y-115228894D01*
X156772452Y-115227992D01*
X156628081Y-115226228D01*
X156628079Y-115226228D01*
X156622911Y-115226165D01*
X156402091Y-115259955D01*
X156189756Y-115329357D01*
X155991607Y-115432507D01*
X155987474Y-115435610D01*
X155987471Y-115435612D01*
X155817100Y-115563530D01*
X155812965Y-115566635D01*
X155658629Y-115728138D01*
X155551201Y-115885621D01*
X155496293Y-115930621D01*
X155425768Y-115938792D01*
X155362021Y-115907538D01*
X155341324Y-115883054D01*
X155260822Y-115758617D01*
X155260820Y-115758614D01*
X155258014Y-115754277D01*
X155107670Y-115589051D01*
X155103619Y-115585852D01*
X155103615Y-115585848D01*
X154936414Y-115453800D01*
X154936410Y-115453798D01*
X154932359Y-115450598D01*
X154896028Y-115430542D01*
X154804970Y-115380276D01*
X154736789Y-115342638D01*
X154731920Y-115340914D01*
X154731916Y-115340912D01*
X154531087Y-115269795D01*
X154531083Y-115269794D01*
X154526212Y-115268069D01*
X154521119Y-115267162D01*
X154521116Y-115267161D01*
X154311373Y-115229800D01*
X154311367Y-115229799D01*
X154306284Y-115228894D01*
X154232452Y-115227992D01*
X154088081Y-115226228D01*
X154088079Y-115226228D01*
X154082911Y-115226165D01*
X153862091Y-115259955D01*
X153649756Y-115329357D01*
X153451607Y-115432507D01*
X153447474Y-115435610D01*
X153447471Y-115435612D01*
X153343536Y-115513649D01*
X153277051Y-115538555D01*
X153207656Y-115523563D01*
X153178788Y-115501984D01*
X151009870Y-113333065D01*
X149958771Y-112281966D01*
X151581257Y-112281966D01*
X151611565Y-112416446D01*
X151614645Y-112426275D01*
X151694770Y-112623603D01*
X151699413Y-112632794D01*
X151810694Y-112814388D01*
X151816777Y-112822699D01*
X151956213Y-112983667D01*
X151963580Y-112990883D01*
X152127434Y-113126916D01*
X152135881Y-113132831D01*
X152319756Y-113240279D01*
X152329042Y-113244729D01*
X152528001Y-113320703D01*
X152537899Y-113323579D01*
X152641250Y-113344606D01*
X152655299Y-113343410D01*
X152659000Y-113333065D01*
X152659000Y-112286115D01*
X152654525Y-112270876D01*
X152653135Y-112269671D01*
X152645452Y-112268000D01*
X151596225Y-112268000D01*
X151582694Y-112271973D01*
X151581257Y-112281966D01*
X149958771Y-112281966D01*
X148780552Y-111103747D01*
X148773012Y-111095461D01*
X148768900Y-111088982D01*
X148756514Y-111077351D01*
X148720548Y-111016138D01*
X148723385Y-110945198D01*
X148764125Y-110887054D01*
X148829833Y-110860165D01*
X148842766Y-110859500D01*
X151843104Y-110859500D01*
X151911225Y-110879502D01*
X151957718Y-110933158D01*
X151967822Y-111003432D01*
X151934198Y-111072551D01*
X151857591Y-111152717D01*
X151851104Y-111160727D01*
X151731098Y-111336649D01*
X151726000Y-111345623D01*
X151636338Y-111538783D01*
X151632775Y-111548470D01*
X151577389Y-111748183D01*
X151578912Y-111756607D01*
X151591292Y-111760000D01*
X153041000Y-111760000D01*
X153109121Y-111780002D01*
X153155614Y-111833658D01*
X153167000Y-111886000D01*
X153167000Y-113332517D01*
X153171064Y-113346359D01*
X153184478Y-113348393D01*
X153191184Y-113347534D01*
X153201262Y-113345392D01*
X153405255Y-113284191D01*
X153414842Y-113280433D01*
X153606095Y-113186739D01*
X153614945Y-113181464D01*
X153788328Y-113057792D01*
X153796193Y-113051145D01*
X153900897Y-112946805D01*
X153963268Y-112912889D01*
X154034075Y-112918077D01*
X154090837Y-112960723D01*
X154107819Y-112991826D01*
X154128071Y-113045848D01*
X154152385Y-113110705D01*
X154239739Y-113227261D01*
X154356295Y-113314615D01*
X154492684Y-113365745D01*
X154554866Y-113372500D01*
X156351134Y-113372500D01*
X156413316Y-113365745D01*
X156549705Y-113314615D01*
X156666261Y-113227261D01*
X156753615Y-113110705D01*
X156804745Y-112974316D01*
X156811500Y-112912134D01*
X156811500Y-112712640D01*
X156831502Y-112644519D01*
X156885158Y-112598026D01*
X156890804Y-112595828D01*
X156894232Y-112594215D01*
X156901775Y-112591764D01*
X156908472Y-112587514D01*
X156908731Y-112587350D01*
X156929858Y-112576585D01*
X156930146Y-112576471D01*
X156930151Y-112576468D01*
X156937517Y-112573552D01*
X156943925Y-112568896D01*
X156943931Y-112568893D01*
X156982952Y-112540542D01*
X156989489Y-112536099D01*
X157036918Y-112506000D01*
X157042559Y-112499993D01*
X157060346Y-112484312D01*
X157060591Y-112484134D01*
X157060593Y-112484132D01*
X157067007Y-112479472D01*
X157072062Y-112473362D01*
X157102803Y-112436204D01*
X157108034Y-112430270D01*
X157141058Y-112395102D01*
X157141060Y-112395099D01*
X157146486Y-112389321D01*
X157150458Y-112382097D01*
X157163781Y-112362494D01*
X157163980Y-112362254D01*
X157163984Y-112362247D01*
X157169033Y-112356144D01*
X157175111Y-112343228D01*
X157200024Y-112307780D01*
X159904253Y-109603552D01*
X159912539Y-109596012D01*
X159919018Y-109591900D01*
X159965644Y-109542248D01*
X159968398Y-109539407D01*
X159988135Y-109519670D01*
X159990615Y-109516473D01*
X159998320Y-109507451D01*
X160023159Y-109481000D01*
X160028586Y-109475221D01*
X160032405Y-109468275D01*
X160032407Y-109468272D01*
X160038348Y-109457466D01*
X160049199Y-109440947D01*
X160056758Y-109431201D01*
X160061614Y-109424941D01*
X160064759Y-109417672D01*
X160064762Y-109417668D01*
X160079174Y-109384363D01*
X160084391Y-109373713D01*
X160105695Y-109334960D01*
X160110733Y-109315337D01*
X160117137Y-109296634D01*
X160122033Y-109285320D01*
X160122033Y-109285319D01*
X160125181Y-109278045D01*
X160126420Y-109270222D01*
X160126423Y-109270212D01*
X160132099Y-109234376D01*
X160134505Y-109222756D01*
X160140501Y-109199399D01*
X160145500Y-109179931D01*
X160145831Y-109180016D01*
X160172325Y-109119273D01*
X160203581Y-109092426D01*
X160204886Y-109091634D01*
X160315317Y-109024623D01*
X160359001Y-108986716D01*
X160485412Y-108877023D01*
X160485414Y-108877021D01*
X160489445Y-108873523D01*
X160565416Y-108780870D01*
X160579656Y-108763503D01*
X160638316Y-108723508D01*
X160709286Y-108721577D01*
X160770034Y-108758321D01*
G37*
G04 #@! TD.AperFunction*
G04 #@! TA.AperFunction,Conductor*
G36*
X136398435Y-111528099D02*
G01*
X136409642Y-111538047D01*
X136759848Y-111888253D01*
X136767388Y-111896539D01*
X136771500Y-111903018D01*
X136777277Y-111908443D01*
X136821151Y-111949643D01*
X136823993Y-111952398D01*
X136843730Y-111972135D01*
X136846927Y-111974615D01*
X136855947Y-111982318D01*
X136888179Y-112012586D01*
X136895125Y-112016405D01*
X136895128Y-112016407D01*
X136905934Y-112022348D01*
X136922453Y-112033199D01*
X136938459Y-112045614D01*
X136945728Y-112048759D01*
X136945732Y-112048762D01*
X136979037Y-112063174D01*
X136989687Y-112068391D01*
X137028440Y-112089695D01*
X137036115Y-112091666D01*
X137036116Y-112091666D01*
X137048062Y-112094733D01*
X137066766Y-112101137D01*
X137074672Y-112104558D01*
X137085355Y-112109181D01*
X137093178Y-112110420D01*
X137093188Y-112110423D01*
X137129024Y-112116099D01*
X137140644Y-112118505D01*
X137175680Y-112127500D01*
X137183470Y-112129500D01*
X137203724Y-112129500D01*
X137223434Y-112131051D01*
X137243443Y-112134220D01*
X137251335Y-112133474D01*
X137287461Y-112130059D01*
X137299319Y-112129500D01*
X137349255Y-112129500D01*
X137417376Y-112149502D01*
X137463869Y-112203158D01*
X137473973Y-112273432D01*
X137463448Y-112308753D01*
X137462048Y-112311757D01*
X137459716Y-112316757D01*
X137458294Y-112322065D01*
X137458293Y-112322067D01*
X137403221Y-112527598D01*
X137400457Y-112537913D01*
X137380502Y-112766000D01*
X137400457Y-112994087D01*
X137401881Y-112999400D01*
X137401881Y-112999402D01*
X137437634Y-113132831D01*
X137459716Y-113215243D01*
X137462039Y-113220224D01*
X137462039Y-113220225D01*
X137554151Y-113417762D01*
X137554154Y-113417767D01*
X137556477Y-113422749D01*
X137595747Y-113478832D01*
X137666794Y-113580297D01*
X137687802Y-113610300D01*
X137849700Y-113772198D01*
X137854208Y-113775355D01*
X137854211Y-113775357D01*
X137883274Y-113795707D01*
X138037251Y-113903523D01*
X138042233Y-113905846D01*
X138042238Y-113905849D01*
X138234034Y-113995284D01*
X138244757Y-114000284D01*
X138250065Y-114001706D01*
X138250067Y-114001707D01*
X138272408Y-114007693D01*
X138333031Y-114044645D01*
X138364052Y-114108505D01*
X138355624Y-114179000D01*
X138310421Y-114233747D01*
X138239797Y-114255400D01*
X131917794Y-114255400D01*
X131849673Y-114235398D01*
X131828699Y-114218495D01*
X131708555Y-114098351D01*
X131674529Y-114036039D01*
X131679594Y-113965224D01*
X131722141Y-113908388D01*
X131734657Y-113900133D01*
X131735005Y-113899932D01*
X131913467Y-113774972D01*
X131921875Y-113767916D01*
X132075916Y-113613875D01*
X132082972Y-113605467D01*
X132207931Y-113427007D01*
X132213414Y-113417511D01*
X132305490Y-113220053D01*
X132309236Y-113209761D01*
X132355394Y-113037497D01*
X132355058Y-113023401D01*
X132347116Y-113020000D01*
X130946000Y-113020000D01*
X130877879Y-112999998D01*
X130831386Y-112946342D01*
X130820000Y-112894000D01*
X130820000Y-112638000D01*
X130840002Y-112569879D01*
X130893658Y-112523386D01*
X130946000Y-112512000D01*
X132341967Y-112512000D01*
X132355498Y-112508027D01*
X132356727Y-112499478D01*
X132309236Y-112322239D01*
X132305490Y-112311947D01*
X132241514Y-112174750D01*
X132230853Y-112104558D01*
X132259833Y-112039745D01*
X132319253Y-112000889D01*
X132355709Y-111995500D01*
X133024333Y-111995500D01*
X133035516Y-111996027D01*
X133043009Y-111997702D01*
X133050935Y-111997453D01*
X133050936Y-111997453D01*
X133111086Y-111995562D01*
X133115045Y-111995500D01*
X133142956Y-111995500D01*
X133146891Y-111995003D01*
X133146956Y-111994995D01*
X133158793Y-111994062D01*
X133191051Y-111993048D01*
X133195070Y-111992922D01*
X133202989Y-111992673D01*
X133222443Y-111987021D01*
X133241800Y-111983013D01*
X133254030Y-111981468D01*
X133254031Y-111981468D01*
X133261897Y-111980474D01*
X133269268Y-111977555D01*
X133269270Y-111977555D01*
X133303012Y-111964196D01*
X133314242Y-111960351D01*
X133349083Y-111950229D01*
X133349084Y-111950229D01*
X133356693Y-111948018D01*
X133363512Y-111943985D01*
X133363517Y-111943983D01*
X133374128Y-111937707D01*
X133391876Y-111929012D01*
X133410717Y-111921552D01*
X133421609Y-111913639D01*
X133446487Y-111895564D01*
X133456407Y-111889048D01*
X133487635Y-111870580D01*
X133487638Y-111870578D01*
X133494462Y-111866542D01*
X133508786Y-111852218D01*
X133523813Y-111839383D01*
X133540207Y-111827472D01*
X133560301Y-111803183D01*
X133619133Y-111763446D01*
X133657384Y-111757500D01*
X134708300Y-111757500D01*
X134776421Y-111777502D01*
X134795647Y-111793843D01*
X134795920Y-111793540D01*
X134800832Y-111797963D01*
X134805247Y-111802866D01*
X134824679Y-111816984D01*
X134950784Y-111908605D01*
X134959748Y-111915118D01*
X134965776Y-111917802D01*
X134965778Y-111917803D01*
X135126155Y-111989207D01*
X135134212Y-111992794D01*
X135227326Y-112012586D01*
X135314556Y-112031128D01*
X135314561Y-112031128D01*
X135321013Y-112032500D01*
X135511987Y-112032500D01*
X135518439Y-112031128D01*
X135518444Y-112031128D01*
X135605674Y-112012586D01*
X135698788Y-111992794D01*
X135706845Y-111989207D01*
X135867222Y-111917803D01*
X135867224Y-111917802D01*
X135873252Y-111915118D01*
X135882217Y-111908605D01*
X135949521Y-111859705D01*
X136027753Y-111802866D01*
X136124232Y-111695715D01*
X136151121Y-111665852D01*
X136151122Y-111665851D01*
X136155540Y-111660944D01*
X136211430Y-111564140D01*
X136262810Y-111515149D01*
X136332523Y-111501712D01*
X136398435Y-111528099D01*
G37*
G04 #@! TD.AperFunction*
G04 #@! TA.AperFunction,Conductor*
G36*
X160752485Y-91877419D02*
G01*
X160795096Y-91934206D01*
X160803090Y-91978372D01*
X160803090Y-104995840D01*
X160783088Y-105063961D01*
X160729432Y-105110454D01*
X160659158Y-105120558D01*
X160594578Y-105091064D01*
X160578891Y-105074789D01*
X160577539Y-105073107D01*
X160574559Y-105068681D01*
X160570057Y-105063961D01*
X160442431Y-104930176D01*
X160415424Y-104901865D01*
X160230458Y-104764246D01*
X160225707Y-104761830D01*
X160225703Y-104761828D01*
X160107588Y-104701776D01*
X160024949Y-104659760D01*
X160019855Y-104658178D01*
X160019852Y-104658177D01*
X159809871Y-104592976D01*
X159804773Y-104591393D01*
X159799484Y-104590692D01*
X159581511Y-104561802D01*
X159581506Y-104561802D01*
X159576226Y-104561102D01*
X159570897Y-104561302D01*
X159570895Y-104561302D01*
X159461034Y-104565427D01*
X159345842Y-104569751D01*
X159340623Y-104570846D01*
X159306560Y-104577993D01*
X159120209Y-104617093D01*
X159115250Y-104619051D01*
X159115248Y-104619052D01*
X158910744Y-104699815D01*
X158910742Y-104699816D01*
X158905779Y-104701776D01*
X158901220Y-104704543D01*
X158901217Y-104704544D01*
X158783908Y-104775729D01*
X158708683Y-104821377D01*
X158704653Y-104824874D01*
X158545017Y-104963399D01*
X158534555Y-104972477D01*
X158531168Y-104976608D01*
X158391760Y-105146627D01*
X158391756Y-105146633D01*
X158388376Y-105150755D01*
X158351860Y-105214906D01*
X158351847Y-105214928D01*
X158300765Y-105264234D01*
X158231135Y-105278096D01*
X158165064Y-105252113D01*
X158137825Y-105222963D01*
X158037150Y-105073425D01*
X158030481Y-105065130D01*
X157878772Y-104906100D01*
X157870814Y-104899059D01*
X157694475Y-104767859D01*
X157685438Y-104762255D01*
X157489516Y-104662643D01*
X157479665Y-104658643D01*
X157269760Y-104593466D01*
X157259376Y-104591183D01*
X157243957Y-104589139D01*
X157229793Y-104591335D01*
X157226000Y-104604522D01*
X157226000Y-109239192D01*
X157229973Y-109252723D01*
X157240580Y-109254248D01*
X157358421Y-109229523D01*
X157368617Y-109226463D01*
X157573029Y-109145737D01*
X157582561Y-109141006D01*
X157770462Y-109026984D01*
X157779052Y-109020720D01*
X157945052Y-108876673D01*
X157952472Y-108869042D01*
X158091826Y-108699089D01*
X158097850Y-108690322D01*
X158131565Y-108631094D01*
X158182647Y-108581788D01*
X158252277Y-108567926D01*
X158318348Y-108593909D01*
X158345587Y-108623059D01*
X158449441Y-108777319D01*
X158453120Y-108781176D01*
X158453122Y-108781178D01*
X158603348Y-108938655D01*
X158635895Y-109001752D01*
X158629164Y-109072429D01*
X158601273Y-109114722D01*
X156875693Y-110840302D01*
X156813381Y-110874328D01*
X156742566Y-110869263D01*
X156685772Y-110826773D01*
X156672407Y-110808940D01*
X156666261Y-110800739D01*
X156549705Y-110713385D01*
X156413316Y-110662255D01*
X156351134Y-110655500D01*
X154554866Y-110655500D01*
X154492684Y-110662255D01*
X154356295Y-110713385D01*
X154355875Y-110712265D01*
X154295041Y-110725575D01*
X154228491Y-110700843D01*
X154214785Y-110688980D01*
X153359552Y-109833747D01*
X153352012Y-109825461D01*
X153347900Y-109818982D01*
X153298248Y-109772356D01*
X153295407Y-109769602D01*
X153275670Y-109749865D01*
X153272473Y-109747385D01*
X153263451Y-109739680D01*
X153237000Y-109714841D01*
X153231221Y-109709414D01*
X153224275Y-109705595D01*
X153224272Y-109705593D01*
X153213466Y-109699652D01*
X153196947Y-109688801D01*
X153196483Y-109688441D01*
X153180941Y-109676386D01*
X153173672Y-109673241D01*
X153173668Y-109673238D01*
X153140363Y-109658826D01*
X153129713Y-109653609D01*
X153090960Y-109632305D01*
X153071337Y-109627267D01*
X153052634Y-109620863D01*
X153041320Y-109615967D01*
X153041319Y-109615967D01*
X153034045Y-109612819D01*
X153026222Y-109611580D01*
X153026212Y-109611577D01*
X152990376Y-109605901D01*
X152978756Y-109603495D01*
X152943611Y-109594472D01*
X152943610Y-109594472D01*
X152935930Y-109592500D01*
X152915676Y-109592500D01*
X152895965Y-109590949D01*
X152883786Y-109589020D01*
X152875957Y-109587780D01*
X152832151Y-109591921D01*
X152831939Y-109591941D01*
X152820081Y-109592500D01*
X139913394Y-109592500D01*
X139845273Y-109572498D01*
X139810181Y-109538771D01*
X139703357Y-109386211D01*
X139703355Y-109386208D01*
X139700198Y-109381700D01*
X139538300Y-109219802D01*
X139533792Y-109216645D01*
X139533789Y-109216643D01*
X139453990Y-109160767D01*
X139350749Y-109088477D01*
X139345767Y-109086154D01*
X139345762Y-109086151D01*
X139311543Y-109070195D01*
X139258258Y-109023278D01*
X139238797Y-108955001D01*
X139259339Y-108887041D01*
X139311543Y-108841805D01*
X139345762Y-108825849D01*
X139345767Y-108825846D01*
X139350749Y-108823523D01*
X139504726Y-108715707D01*
X139533789Y-108695357D01*
X139533792Y-108695355D01*
X139538300Y-108692198D01*
X139700198Y-108530300D01*
X139708539Y-108518389D01*
X139828366Y-108347257D01*
X139831523Y-108342749D01*
X139833846Y-108337767D01*
X139833849Y-108337762D01*
X139925961Y-108140225D01*
X139925961Y-108140224D01*
X139928284Y-108135243D01*
X139939874Y-108091991D01*
X139986119Y-107919402D01*
X139986119Y-107919400D01*
X139987543Y-107914087D01*
X140007498Y-107686000D01*
X139987543Y-107457913D01*
X139986119Y-107452598D01*
X139929707Y-107242067D01*
X139929706Y-107242065D01*
X139928284Y-107236757D01*
X139923901Y-107227357D01*
X139863418Y-107097649D01*
X139852757Y-107027458D01*
X139881737Y-106962645D01*
X139941157Y-106923789D01*
X139977613Y-106918400D01*
X142216933Y-106918400D01*
X142228116Y-106918927D01*
X142235609Y-106920602D01*
X142243535Y-106920353D01*
X142243536Y-106920353D01*
X142303686Y-106918462D01*
X142307645Y-106918400D01*
X142335556Y-106918400D01*
X142339491Y-106917903D01*
X142339556Y-106917895D01*
X142351393Y-106916962D01*
X142383651Y-106915948D01*
X142387670Y-106915822D01*
X142395589Y-106915573D01*
X142415043Y-106909921D01*
X142434400Y-106905913D01*
X142446630Y-106904368D01*
X142446631Y-106904368D01*
X142454497Y-106903374D01*
X142461868Y-106900455D01*
X142461870Y-106900455D01*
X142495612Y-106887096D01*
X142506842Y-106883251D01*
X142541683Y-106873129D01*
X142541684Y-106873129D01*
X142549293Y-106870918D01*
X142556112Y-106866885D01*
X142556117Y-106866883D01*
X142566728Y-106860607D01*
X142584476Y-106851912D01*
X142603317Y-106844452D01*
X142639087Y-106818464D01*
X142649007Y-106811948D01*
X142680235Y-106793480D01*
X142680238Y-106793478D01*
X142687062Y-106789442D01*
X142698405Y-106778099D01*
X142760717Y-106744073D01*
X142831532Y-106749138D01*
X142888368Y-106791685D01*
X142913179Y-106858205D01*
X142913500Y-106867194D01*
X142913500Y-107930890D01*
X142913725Y-107933539D01*
X142927170Y-108091991D01*
X142928080Y-108102720D01*
X142929418Y-108107875D01*
X142929419Y-108107881D01*
X142980477Y-108304598D01*
X142985999Y-108325872D01*
X143080688Y-108536075D01*
X143209441Y-108727319D01*
X143213120Y-108731176D01*
X143213122Y-108731178D01*
X143257139Y-108777319D01*
X143368576Y-108894135D01*
X143553542Y-109031754D01*
X143558293Y-109034170D01*
X143558297Y-109034172D01*
X143645618Y-109078568D01*
X143759051Y-109136240D01*
X143764145Y-109137822D01*
X143764148Y-109137823D01*
X143906363Y-109181982D01*
X143979227Y-109204607D01*
X143984516Y-109205308D01*
X144202489Y-109234198D01*
X144202494Y-109234198D01*
X144207774Y-109234898D01*
X144213103Y-109234698D01*
X144213105Y-109234698D01*
X144338189Y-109230002D01*
X144438158Y-109226249D01*
X144450312Y-109223699D01*
X144649135Y-109181982D01*
X144663791Y-109178907D01*
X144668750Y-109176949D01*
X144668752Y-109176948D01*
X144873256Y-109096185D01*
X144873258Y-109096184D01*
X144878221Y-109094224D01*
X144894787Y-109084172D01*
X145070757Y-108977390D01*
X145070756Y-108977390D01*
X145075317Y-108974623D01*
X145096778Y-108956000D01*
X145245412Y-108827023D01*
X145245414Y-108827021D01*
X145249445Y-108823523D01*
X145319289Y-108738342D01*
X145392240Y-108649373D01*
X145392244Y-108649367D01*
X145395624Y-108645245D01*
X145431878Y-108581556D01*
X145482959Y-108532251D01*
X145552589Y-108518389D01*
X145618660Y-108544372D01*
X145645898Y-108573521D01*
X145749441Y-108727319D01*
X145753120Y-108731176D01*
X145753122Y-108731178D01*
X145797139Y-108777319D01*
X145908576Y-108894135D01*
X146093542Y-109031754D01*
X146098293Y-109034170D01*
X146098297Y-109034172D01*
X146185618Y-109078568D01*
X146299051Y-109136240D01*
X146304145Y-109137822D01*
X146304148Y-109137823D01*
X146446363Y-109181982D01*
X146519227Y-109204607D01*
X146524516Y-109205308D01*
X146742489Y-109234198D01*
X146742494Y-109234198D01*
X146747774Y-109234898D01*
X146753103Y-109234698D01*
X146753105Y-109234698D01*
X146878189Y-109230002D01*
X146978158Y-109226249D01*
X146990312Y-109223699D01*
X147189135Y-109181982D01*
X147203791Y-109178907D01*
X147208750Y-109176949D01*
X147208752Y-109176948D01*
X147413256Y-109096185D01*
X147413258Y-109096184D01*
X147418221Y-109094224D01*
X147434787Y-109084172D01*
X147610757Y-108977390D01*
X147610756Y-108977390D01*
X147615317Y-108974623D01*
X147636778Y-108956000D01*
X147785412Y-108827023D01*
X147785414Y-108827021D01*
X147789445Y-108823523D01*
X147859289Y-108738342D01*
X147932240Y-108649373D01*
X147932244Y-108649367D01*
X147935624Y-108645245D01*
X147971878Y-108581556D01*
X148022959Y-108532251D01*
X148092589Y-108518389D01*
X148158660Y-108544372D01*
X148185898Y-108573521D01*
X148289441Y-108727319D01*
X148293120Y-108731176D01*
X148293122Y-108731178D01*
X148337139Y-108777319D01*
X148448576Y-108894135D01*
X148633542Y-109031754D01*
X148638293Y-109034170D01*
X148638297Y-109034172D01*
X148725618Y-109078568D01*
X148839051Y-109136240D01*
X148844145Y-109137822D01*
X148844148Y-109137823D01*
X148986363Y-109181982D01*
X149059227Y-109204607D01*
X149064516Y-109205308D01*
X149282489Y-109234198D01*
X149282494Y-109234198D01*
X149287774Y-109234898D01*
X149293103Y-109234698D01*
X149293105Y-109234698D01*
X149418189Y-109230002D01*
X149518158Y-109226249D01*
X149530312Y-109223699D01*
X149729135Y-109181982D01*
X149743791Y-109178907D01*
X149748750Y-109176949D01*
X149748752Y-109176948D01*
X149953256Y-109096185D01*
X149953258Y-109096184D01*
X149958221Y-109094224D01*
X149974787Y-109084172D01*
X150150757Y-108977390D01*
X150150756Y-108977390D01*
X150155317Y-108974623D01*
X150176778Y-108956000D01*
X150325412Y-108827023D01*
X150325414Y-108827021D01*
X150329445Y-108823523D01*
X150399289Y-108738342D01*
X150472240Y-108649373D01*
X150472244Y-108649367D01*
X150475624Y-108645245D01*
X150496455Y-108608650D01*
X150547537Y-108559344D01*
X150617167Y-108545482D01*
X150683238Y-108571465D01*
X150710477Y-108600615D01*
X150829441Y-108777319D01*
X150833120Y-108781176D01*
X150833122Y-108781178D01*
X150875736Y-108825849D01*
X150988576Y-108944135D01*
X150992854Y-108947318D01*
X151022486Y-108969365D01*
X151173542Y-109081754D01*
X151178293Y-109084170D01*
X151178297Y-109084172D01*
X151259234Y-109125322D01*
X151379051Y-109186240D01*
X151384145Y-109187822D01*
X151384148Y-109187823D01*
X151532643Y-109233932D01*
X151599227Y-109254607D01*
X151604516Y-109255308D01*
X151822489Y-109284198D01*
X151822494Y-109284198D01*
X151827774Y-109284898D01*
X151833103Y-109284698D01*
X151833105Y-109284698D01*
X151942966Y-109280574D01*
X152058158Y-109276249D01*
X152086931Y-109270212D01*
X152256191Y-109234698D01*
X152283791Y-109228907D01*
X152288750Y-109226949D01*
X152288752Y-109226948D01*
X152493256Y-109146185D01*
X152493258Y-109146184D01*
X152498221Y-109144224D01*
X152503525Y-109141006D01*
X152690757Y-109027390D01*
X152690760Y-109027388D01*
X152695317Y-109024623D01*
X152739001Y-108986716D01*
X152865412Y-108877023D01*
X152865414Y-108877021D01*
X152869445Y-108873523D01*
X152908535Y-108825849D01*
X153012240Y-108699373D01*
X153012244Y-108699367D01*
X153015624Y-108695245D01*
X153051878Y-108631556D01*
X153102959Y-108582251D01*
X153172589Y-108568389D01*
X153238660Y-108594372D01*
X153265898Y-108623521D01*
X153369441Y-108777319D01*
X153373120Y-108781176D01*
X153373122Y-108781178D01*
X153415736Y-108825849D01*
X153528576Y-108944135D01*
X153532854Y-108947318D01*
X153562486Y-108969365D01*
X153713542Y-109081754D01*
X153718293Y-109084170D01*
X153718297Y-109084172D01*
X153799234Y-109125322D01*
X153919051Y-109186240D01*
X153924145Y-109187822D01*
X153924148Y-109187823D01*
X154072643Y-109233932D01*
X154139227Y-109254607D01*
X154144516Y-109255308D01*
X154362489Y-109284198D01*
X154362494Y-109284198D01*
X154367774Y-109284898D01*
X154373103Y-109284698D01*
X154373105Y-109284698D01*
X154482966Y-109280574D01*
X154598158Y-109276249D01*
X154626931Y-109270212D01*
X154796191Y-109234698D01*
X154823791Y-109228907D01*
X154828750Y-109226949D01*
X154828752Y-109226948D01*
X155033256Y-109146185D01*
X155033258Y-109146184D01*
X155038221Y-109144224D01*
X155043525Y-109141006D01*
X155230757Y-109027390D01*
X155230760Y-109027388D01*
X155235317Y-109024623D01*
X155279001Y-108986716D01*
X155405412Y-108877023D01*
X155405414Y-108877021D01*
X155409445Y-108873523D01*
X155448535Y-108825849D01*
X155552240Y-108699373D01*
X155552244Y-108699367D01*
X155555624Y-108695245D01*
X155592154Y-108631071D01*
X155643235Y-108581766D01*
X155712865Y-108567904D01*
X155778936Y-108593887D01*
X155806175Y-108623037D01*
X155906850Y-108772575D01*
X155913519Y-108780870D01*
X156065228Y-108939900D01*
X156073186Y-108946941D01*
X156249525Y-109078141D01*
X156258562Y-109083745D01*
X156454484Y-109183357D01*
X156464335Y-109187357D01*
X156674240Y-109252534D01*
X156684624Y-109254817D01*
X156700043Y-109256861D01*
X156714207Y-109254665D01*
X156718000Y-109241478D01*
X156718000Y-104606808D01*
X156714027Y-104593277D01*
X156703420Y-104591752D01*
X156585579Y-104616477D01*
X156575383Y-104619537D01*
X156370971Y-104700263D01*
X156361439Y-104704994D01*
X156173538Y-104819016D01*
X156164948Y-104825280D01*
X155998948Y-104969327D01*
X155991528Y-104976958D01*
X155852174Y-105146911D01*
X155846150Y-105155678D01*
X155812435Y-105214906D01*
X155761353Y-105264212D01*
X155691723Y-105278074D01*
X155625652Y-105252091D01*
X155598413Y-105222941D01*
X155553129Y-105155678D01*
X155494559Y-105068681D01*
X155490057Y-105063961D01*
X155362431Y-104930176D01*
X155335424Y-104901865D01*
X155150458Y-104764246D01*
X155145707Y-104761830D01*
X155145703Y-104761828D01*
X155027588Y-104701776D01*
X154944949Y-104659760D01*
X154939855Y-104658178D01*
X154939852Y-104658177D01*
X154729871Y-104592976D01*
X154724773Y-104591393D01*
X154719484Y-104590692D01*
X154501511Y-104561802D01*
X154501506Y-104561802D01*
X154496226Y-104561102D01*
X154490897Y-104561302D01*
X154490895Y-104561302D01*
X154381034Y-104565427D01*
X154265842Y-104569751D01*
X154260623Y-104570846D01*
X154226560Y-104577993D01*
X154040209Y-104617093D01*
X154035250Y-104619051D01*
X154035248Y-104619052D01*
X153830744Y-104699815D01*
X153830742Y-104699816D01*
X153825779Y-104701776D01*
X153821220Y-104704543D01*
X153821217Y-104704544D01*
X153703908Y-104775729D01*
X153628683Y-104821377D01*
X153624653Y-104824874D01*
X153465017Y-104963399D01*
X153454555Y-104972477D01*
X153451168Y-104976608D01*
X153311760Y-105146627D01*
X153311756Y-105146633D01*
X153308376Y-105150755D01*
X153278025Y-105204074D01*
X153272123Y-105214443D01*
X153221041Y-105263749D01*
X153151411Y-105277611D01*
X153085340Y-105251628D01*
X153058101Y-105222478D01*
X153052692Y-105214443D01*
X152954559Y-105068681D01*
X152950057Y-105063961D01*
X152822431Y-104930176D01*
X152795424Y-104901865D01*
X152610458Y-104764246D01*
X152605707Y-104761830D01*
X152605703Y-104761828D01*
X152487588Y-104701776D01*
X152404949Y-104659760D01*
X152399855Y-104658178D01*
X152399852Y-104658177D01*
X152189871Y-104592976D01*
X152184773Y-104591393D01*
X152179484Y-104590692D01*
X151961511Y-104561802D01*
X151961506Y-104561802D01*
X151956226Y-104561102D01*
X151950897Y-104561302D01*
X151950895Y-104561302D01*
X151841034Y-104565427D01*
X151725842Y-104569751D01*
X151720623Y-104570846D01*
X151686560Y-104577993D01*
X151500209Y-104617093D01*
X151495250Y-104619051D01*
X151495248Y-104619052D01*
X151290744Y-104699815D01*
X151290742Y-104699816D01*
X151285779Y-104701776D01*
X151281220Y-104704543D01*
X151281217Y-104704544D01*
X151163908Y-104775729D01*
X151088683Y-104821377D01*
X151084653Y-104824874D01*
X150925017Y-104963399D01*
X150914555Y-104972477D01*
X150911168Y-104976608D01*
X150771760Y-105146627D01*
X150771756Y-105146633D01*
X150768376Y-105150755D01*
X150765737Y-105155391D01*
X150765735Y-105155394D01*
X150716701Y-105241535D01*
X150665619Y-105290841D01*
X150595988Y-105304703D01*
X150529917Y-105278720D01*
X150502679Y-105249570D01*
X150439467Y-105155678D01*
X150414559Y-105118681D01*
X150371085Y-105073108D01*
X150319446Y-105018977D01*
X150255424Y-104951865D01*
X150070458Y-104814246D01*
X150065707Y-104811830D01*
X150065703Y-104811828D01*
X149875729Y-104715241D01*
X149864949Y-104709760D01*
X149859855Y-104708178D01*
X149859852Y-104708177D01*
X149649871Y-104642976D01*
X149644773Y-104641393D01*
X149613914Y-104637303D01*
X149421511Y-104611802D01*
X149421506Y-104611802D01*
X149416226Y-104611102D01*
X149410897Y-104611302D01*
X149410895Y-104611302D01*
X149301034Y-104615426D01*
X149185842Y-104619751D01*
X149180623Y-104620846D01*
X149102189Y-104637303D01*
X148960209Y-104667093D01*
X148955250Y-104669051D01*
X148955248Y-104669052D01*
X148750744Y-104749815D01*
X148750742Y-104749816D01*
X148745779Y-104751776D01*
X148741220Y-104754543D01*
X148741217Y-104754544D01*
X148642832Y-104814246D01*
X148548683Y-104871377D01*
X148544653Y-104874874D01*
X148400331Y-105000110D01*
X148374555Y-105022477D01*
X148367909Y-105030582D01*
X148231760Y-105196627D01*
X148231756Y-105196633D01*
X148228376Y-105200755D01*
X148192518Y-105263749D01*
X148192123Y-105264443D01*
X148141041Y-105313749D01*
X148071411Y-105327611D01*
X148005340Y-105301628D01*
X147978101Y-105272478D01*
X147972536Y-105264212D01*
X147874559Y-105118681D01*
X147831085Y-105073108D01*
X147779446Y-105018977D01*
X147715424Y-104951865D01*
X147530458Y-104814246D01*
X147525707Y-104811830D01*
X147525703Y-104811828D01*
X147335729Y-104715241D01*
X147324949Y-104709760D01*
X147319855Y-104708178D01*
X147319852Y-104708177D01*
X147109871Y-104642976D01*
X147104773Y-104641393D01*
X147073914Y-104637303D01*
X146881511Y-104611802D01*
X146881506Y-104611802D01*
X146876226Y-104611102D01*
X146870897Y-104611302D01*
X146870895Y-104611302D01*
X146761034Y-104615426D01*
X146645842Y-104619751D01*
X146640623Y-104620846D01*
X146562189Y-104637303D01*
X146420209Y-104667093D01*
X146415250Y-104669051D01*
X146415248Y-104669052D01*
X146210744Y-104749815D01*
X146210742Y-104749816D01*
X146205779Y-104751776D01*
X146201220Y-104754543D01*
X146201217Y-104754544D01*
X146102832Y-104814246D01*
X146008683Y-104871377D01*
X146004653Y-104874874D01*
X145860331Y-105000110D01*
X145834555Y-105022477D01*
X145827909Y-105030582D01*
X145691760Y-105196627D01*
X145691756Y-105196633D01*
X145688376Y-105200755D01*
X145652518Y-105263749D01*
X145652123Y-105264443D01*
X145601041Y-105313749D01*
X145531411Y-105327611D01*
X145465340Y-105301628D01*
X145438101Y-105272478D01*
X145432536Y-105264212D01*
X145334559Y-105118681D01*
X145291085Y-105073108D01*
X145239446Y-105018977D01*
X145175424Y-104951865D01*
X144990458Y-104814246D01*
X144985706Y-104811830D01*
X144985698Y-104811825D01*
X144969294Y-104803485D01*
X144917637Y-104754782D01*
X144900649Y-104699082D01*
X144899723Y-104684363D01*
X144899723Y-104684362D01*
X144899225Y-104676450D01*
X144896679Y-104668613D01*
X144891506Y-104645469D01*
X144891468Y-104645165D01*
X144891467Y-104645160D01*
X144890474Y-104637303D01*
X144887558Y-104629938D01*
X144887557Y-104629934D01*
X144869801Y-104585089D01*
X144867129Y-104577670D01*
X144849764Y-104524225D01*
X144845514Y-104517528D01*
X144845350Y-104517269D01*
X144834585Y-104496142D01*
X144834471Y-104495854D01*
X144834468Y-104495849D01*
X144831552Y-104488483D01*
X144826896Y-104482075D01*
X144826893Y-104482069D01*
X144798542Y-104443048D01*
X144794092Y-104436501D01*
X144787553Y-104426197D01*
X144764000Y-104389082D01*
X144757993Y-104383441D01*
X144742312Y-104365654D01*
X144742134Y-104365409D01*
X144742132Y-104365407D01*
X144737472Y-104358993D01*
X144731305Y-104353891D01*
X144694204Y-104323197D01*
X144688270Y-104317966D01*
X144653102Y-104284942D01*
X144653099Y-104284940D01*
X144647321Y-104279514D01*
X144640097Y-104275542D01*
X144620494Y-104262219D01*
X144620254Y-104262020D01*
X144620247Y-104262016D01*
X144614144Y-104256967D01*
X144563324Y-104233053D01*
X144556292Y-104229471D01*
X144507060Y-104202405D01*
X144499385Y-104200435D01*
X144499379Y-104200432D01*
X144499081Y-104200356D01*
X144476772Y-104192324D01*
X144476497Y-104192194D01*
X144476489Y-104192191D01*
X144469318Y-104188817D01*
X144414151Y-104178294D01*
X144406442Y-104176571D01*
X144371651Y-104167638D01*
X144359707Y-104164571D01*
X144359706Y-104164571D01*
X144352030Y-104162600D01*
X144343793Y-104162600D01*
X144320184Y-104160368D01*
X144319881Y-104160310D01*
X144319877Y-104160310D01*
X144312094Y-104158825D01*
X144256049Y-104162351D01*
X144248138Y-104162600D01*
X143863267Y-104162600D01*
X143852084Y-104162073D01*
X143844591Y-104160398D01*
X143836665Y-104160647D01*
X143836664Y-104160647D01*
X143776514Y-104162538D01*
X143772555Y-104162600D01*
X143744644Y-104162600D01*
X143740710Y-104163097D01*
X143740709Y-104163097D01*
X143740644Y-104163105D01*
X143728807Y-104164038D01*
X143696990Y-104165038D01*
X143692529Y-104165178D01*
X143684610Y-104165427D01*
X143666954Y-104170556D01*
X143665158Y-104171078D01*
X143645806Y-104175086D01*
X143638735Y-104175980D01*
X143625703Y-104177626D01*
X143618334Y-104180543D01*
X143618332Y-104180544D01*
X143584597Y-104193900D01*
X143573369Y-104197745D01*
X143530907Y-104210082D01*
X143524084Y-104214117D01*
X143524082Y-104214118D01*
X143513472Y-104220393D01*
X143495724Y-104229088D01*
X143476883Y-104236548D01*
X143470467Y-104241210D01*
X143470466Y-104241210D01*
X143441113Y-104262536D01*
X143431193Y-104269052D01*
X143399965Y-104287520D01*
X143399962Y-104287522D01*
X143393138Y-104291558D01*
X143378817Y-104305879D01*
X143363784Y-104318719D01*
X143347393Y-104330628D01*
X143328148Y-104353891D01*
X143319202Y-104364705D01*
X143311212Y-104373484D01*
X142454861Y-105229834D01*
X142392551Y-105263859D01*
X142321736Y-105258794D01*
X142264900Y-105216247D01*
X142240458Y-105153909D01*
X142228132Y-105036635D01*
X142228132Y-105036633D01*
X142227442Y-105030072D01*
X142168427Y-104848444D01*
X142072940Y-104683056D01*
X142059936Y-104668613D01*
X141949575Y-104546045D01*
X141949574Y-104546044D01*
X141945153Y-104541134D01*
X141790652Y-104428882D01*
X141784624Y-104426198D01*
X141784622Y-104426197D01*
X141622219Y-104353891D01*
X141622218Y-104353891D01*
X141616188Y-104351206D01*
X141519377Y-104330628D01*
X141435844Y-104312872D01*
X141435839Y-104312872D01*
X141429387Y-104311500D01*
X141373495Y-104311500D01*
X141305374Y-104291498D01*
X141284399Y-104274595D01*
X140490547Y-103480742D01*
X140483013Y-103472463D01*
X140478900Y-103465982D01*
X140429248Y-103419356D01*
X140426407Y-103416602D01*
X140406670Y-103396865D01*
X140403473Y-103394385D01*
X140394451Y-103386680D01*
X140381845Y-103374842D01*
X140362221Y-103356414D01*
X140355275Y-103352595D01*
X140355272Y-103352593D01*
X140344466Y-103346652D01*
X140327947Y-103335801D01*
X140327483Y-103335441D01*
X140311941Y-103323386D01*
X140304672Y-103320241D01*
X140304668Y-103320238D01*
X140271363Y-103305826D01*
X140260713Y-103300609D01*
X140221960Y-103279305D01*
X140213883Y-103277231D01*
X140202338Y-103274267D01*
X140183634Y-103267863D01*
X140172320Y-103262967D01*
X140172319Y-103262967D01*
X140165045Y-103259819D01*
X140157222Y-103258580D01*
X140157212Y-103258577D01*
X140121376Y-103252901D01*
X140109756Y-103250495D01*
X140074611Y-103241472D01*
X140074610Y-103241472D01*
X140066930Y-103239500D01*
X140046676Y-103239500D01*
X140026960Y-103237948D01*
X140020364Y-103236903D01*
X139956212Y-103206488D01*
X139918688Y-103146218D01*
X139919705Y-103075229D01*
X139924339Y-103063216D01*
X139929236Y-103049761D01*
X139975394Y-102877497D01*
X139975058Y-102863401D01*
X139967116Y-102860000D01*
X137426033Y-102860000D01*
X137412502Y-102863973D01*
X137411273Y-102872522D01*
X137458764Y-103049761D01*
X137462510Y-103060053D01*
X137462602Y-103060250D01*
X137462616Y-103060345D01*
X137464393Y-103065226D01*
X137463412Y-103065583D01*
X137473263Y-103130442D01*
X137444283Y-103195255D01*
X137384863Y-103234111D01*
X137348407Y-103239500D01*
X132420144Y-103239500D01*
X132352023Y-103219498D01*
X132305530Y-103165842D01*
X132295426Y-103095568D01*
X132304383Y-103065509D01*
X132304078Y-103065398D01*
X132305941Y-103060279D01*
X132305951Y-103060246D01*
X132305961Y-103060225D01*
X132305961Y-103060224D01*
X132308284Y-103055243D01*
X132314336Y-103032659D01*
X132366119Y-102839402D01*
X132366119Y-102839400D01*
X132367543Y-102834087D01*
X132387498Y-102606000D01*
X132367543Y-102377913D01*
X132360600Y-102352000D01*
X132309707Y-102162067D01*
X132309706Y-102162065D01*
X132308284Y-102156757D01*
X132305953Y-102151757D01*
X132295504Y-102129350D01*
X132284843Y-102059158D01*
X132313823Y-101994345D01*
X132373243Y-101955489D01*
X132409699Y-101950100D01*
X136836400Y-101950100D01*
X136904521Y-101970102D01*
X136923747Y-101986443D01*
X136924020Y-101986140D01*
X136928932Y-101990563D01*
X136933347Y-101995466D01*
X136938686Y-101999345D01*
X137001072Y-102044671D01*
X137087848Y-102107718D01*
X137093876Y-102110402D01*
X137093878Y-102110403D01*
X137256281Y-102182709D01*
X137262312Y-102185394D01*
X137268767Y-102186766D01*
X137268776Y-102186769D01*
X137312434Y-102196049D01*
X137374907Y-102229777D01*
X137409228Y-102291927D01*
X137408725Y-102316472D01*
X137412175Y-102316390D01*
X137412942Y-102348599D01*
X137420884Y-102352000D01*
X139961967Y-102352000D01*
X139975498Y-102348027D01*
X139976727Y-102339478D01*
X139929236Y-102162239D01*
X139925490Y-102151947D01*
X139833414Y-101954489D01*
X139827931Y-101944993D01*
X139702972Y-101766533D01*
X139695916Y-101758125D01*
X139541875Y-101604084D01*
X139533467Y-101597028D01*
X139355007Y-101472069D01*
X139345511Y-101466586D01*
X139310951Y-101450471D01*
X139257666Y-101403554D01*
X139238205Y-101335277D01*
X139258747Y-101267317D01*
X139310951Y-101222081D01*
X139345762Y-101205849D01*
X139345767Y-101205846D01*
X139350749Y-101203523D01*
X139504726Y-101095707D01*
X139533789Y-101075357D01*
X139533792Y-101075355D01*
X139538300Y-101072198D01*
X139700198Y-100910300D01*
X139705539Y-100902673D01*
X139806251Y-100758841D01*
X139831523Y-100722749D01*
X139833846Y-100717767D01*
X139833849Y-100717762D01*
X139925961Y-100520225D01*
X139925961Y-100520224D01*
X139928284Y-100515243D01*
X139931578Y-100502952D01*
X139986119Y-100299402D01*
X139986119Y-100299400D01*
X139987543Y-100294087D01*
X140007498Y-100066000D01*
X139987543Y-99837913D01*
X139928284Y-99616757D01*
X139925953Y-99611757D01*
X139924552Y-99608753D01*
X139924331Y-99607296D01*
X139924078Y-99606602D01*
X139924218Y-99606551D01*
X139913889Y-99538562D01*
X139942867Y-99473748D01*
X140002285Y-99434890D01*
X140038745Y-99429500D01*
X141804606Y-99429500D01*
X141872727Y-99449502D01*
X141893701Y-99466405D01*
X144055478Y-101628182D01*
X144089504Y-101690494D01*
X144091692Y-101704103D01*
X144109058Y-101869328D01*
X144168073Y-102050956D01*
X144263560Y-102216344D01*
X144267978Y-102221251D01*
X144267979Y-102221252D01*
X144374430Y-102339478D01*
X144391347Y-102358266D01*
X144545848Y-102470518D01*
X144551876Y-102473202D01*
X144551878Y-102473203D01*
X144714281Y-102545509D01*
X144720312Y-102548194D01*
X144813713Y-102568047D01*
X144900656Y-102586528D01*
X144900661Y-102586528D01*
X144907113Y-102587900D01*
X145098087Y-102587900D01*
X145104539Y-102586528D01*
X145104544Y-102586528D01*
X145191487Y-102568047D01*
X145284888Y-102548194D01*
X145290919Y-102545509D01*
X145453322Y-102473203D01*
X145453324Y-102473202D01*
X145459352Y-102470518D01*
X145613853Y-102358266D01*
X145630770Y-102339478D01*
X145737221Y-102221252D01*
X145737222Y-102221251D01*
X145741640Y-102216344D01*
X145837127Y-102050956D01*
X145896142Y-101869328D01*
X145916104Y-101679400D01*
X145908188Y-101604084D01*
X145896832Y-101496035D01*
X145896832Y-101496033D01*
X145896142Y-101489472D01*
X145837127Y-101307844D01*
X145741640Y-101142456D01*
X145669385Y-101062208D01*
X145638669Y-100998203D01*
X145647433Y-100927749D01*
X145692895Y-100873218D01*
X145763022Y-100851900D01*
X145862987Y-100851900D01*
X145869439Y-100850528D01*
X145869444Y-100850528D01*
X145956387Y-100832047D01*
X146049788Y-100812194D01*
X146058759Y-100808200D01*
X146218222Y-100737203D01*
X146218224Y-100737202D01*
X146224252Y-100734518D01*
X146229670Y-100730582D01*
X146373414Y-100626145D01*
X146378753Y-100622266D01*
X146383168Y-100617363D01*
X146388080Y-100612940D01*
X146389205Y-100614189D01*
X146442514Y-100581349D01*
X146475700Y-100576900D01*
X151239733Y-100576900D01*
X151250916Y-100577427D01*
X151258409Y-100579102D01*
X151266335Y-100578853D01*
X151266336Y-100578853D01*
X151326486Y-100576962D01*
X151330445Y-100576900D01*
X151358356Y-100576900D01*
X151362291Y-100576403D01*
X151362356Y-100576395D01*
X151374193Y-100575462D01*
X151406451Y-100574448D01*
X151410470Y-100574322D01*
X151418389Y-100574073D01*
X151437843Y-100568421D01*
X151457200Y-100564413D01*
X151469430Y-100562868D01*
X151469431Y-100562868D01*
X151477297Y-100561874D01*
X151484668Y-100558955D01*
X151484670Y-100558955D01*
X151518412Y-100545596D01*
X151529642Y-100541751D01*
X151564483Y-100531629D01*
X151564484Y-100531629D01*
X151572093Y-100529418D01*
X151578912Y-100525385D01*
X151578917Y-100525383D01*
X151589528Y-100519107D01*
X151607276Y-100510412D01*
X151626117Y-100502952D01*
X151648853Y-100486434D01*
X151661887Y-100476964D01*
X151671807Y-100470448D01*
X151703035Y-100451980D01*
X151703038Y-100451978D01*
X151709862Y-100447942D01*
X151724183Y-100433621D01*
X151739217Y-100420780D01*
X151749194Y-100413531D01*
X151755607Y-100408872D01*
X151783798Y-100374795D01*
X151791788Y-100366016D01*
X159904253Y-92253552D01*
X159912539Y-92246012D01*
X159919018Y-92241900D01*
X159932848Y-92227173D01*
X159965643Y-92192249D01*
X159968398Y-92189407D01*
X159988135Y-92169670D01*
X159990615Y-92166473D01*
X159998320Y-92157451D01*
X160028586Y-92125221D01*
X160032405Y-92118275D01*
X160032407Y-92118272D01*
X160038348Y-92107466D01*
X160049199Y-92090947D01*
X160051760Y-92087645D01*
X160061614Y-92074941D01*
X160064759Y-92067672D01*
X160064762Y-92067668D01*
X160079174Y-92034363D01*
X160084391Y-92023713D01*
X160099187Y-91996798D01*
X160149532Y-91946741D01*
X160209601Y-91931500D01*
X160410134Y-91931500D01*
X160472316Y-91924745D01*
X160554187Y-91894053D01*
X160600303Y-91876765D01*
X160600304Y-91876764D01*
X160608705Y-91873615D01*
X160615887Y-91868233D01*
X160616580Y-91867853D01*
X160685937Y-91852683D01*
X160752485Y-91877419D01*
G37*
G04 #@! TD.AperFunction*
G04 #@! TA.AperFunction,Conductor*
G36*
X133165072Y-90144802D02*
G01*
X133211565Y-90198458D01*
X133221669Y-90268732D01*
X133195374Y-90329470D01*
X133176576Y-90352988D01*
X133183644Y-90366434D01*
X133885188Y-91067978D01*
X133899132Y-91075592D01*
X133900965Y-91075461D01*
X133907580Y-91071210D01*
X134613077Y-90365713D01*
X134619507Y-90353938D01*
X134599363Y-90327900D01*
X134573499Y-90261782D01*
X134587488Y-90192177D01*
X134636888Y-90141184D01*
X134699020Y-90124800D01*
X138095379Y-90124800D01*
X138163500Y-90144802D01*
X138209993Y-90198458D01*
X138220097Y-90268732D01*
X138190603Y-90333312D01*
X138167650Y-90354013D01*
X138058211Y-90430643D01*
X138058208Y-90430645D01*
X138053700Y-90433802D01*
X137891802Y-90595700D01*
X137888645Y-90600208D01*
X137888643Y-90600211D01*
X137834377Y-90677711D01*
X137760477Y-90783251D01*
X137758154Y-90788233D01*
X137758151Y-90788238D01*
X137673815Y-90969099D01*
X137663716Y-90990757D01*
X137662294Y-90996065D01*
X137662293Y-90996067D01*
X137612015Y-91183705D01*
X137604457Y-91211913D01*
X137584502Y-91440000D01*
X137604457Y-91668087D01*
X137605881Y-91673400D01*
X137605881Y-91673402D01*
X137661244Y-91880016D01*
X137663716Y-91889243D01*
X137666039Y-91894224D01*
X137666039Y-91894225D01*
X137758151Y-92091762D01*
X137758154Y-92091767D01*
X137760477Y-92096749D01*
X137833423Y-92200926D01*
X137887746Y-92278507D01*
X137891802Y-92284300D01*
X138053700Y-92446198D01*
X138058208Y-92449355D01*
X138058211Y-92449357D01*
X138210771Y-92556181D01*
X138255099Y-92611638D01*
X138264500Y-92659394D01*
X138264500Y-93340505D01*
X138244498Y-93408626D01*
X138227595Y-93429600D01*
X138217865Y-93439330D01*
X138215385Y-93442527D01*
X138207682Y-93451547D01*
X138177414Y-93483779D01*
X138173595Y-93490725D01*
X138173593Y-93490728D01*
X138167652Y-93501534D01*
X138156801Y-93518053D01*
X138144386Y-93534059D01*
X138141241Y-93541328D01*
X138141238Y-93541332D01*
X138126826Y-93574637D01*
X138121609Y-93585287D01*
X138100305Y-93624040D01*
X138098334Y-93631715D01*
X138098334Y-93631716D01*
X138095267Y-93643662D01*
X138088863Y-93662366D01*
X138080819Y-93680955D01*
X138079580Y-93688778D01*
X138079577Y-93688788D01*
X138073901Y-93724624D01*
X138071495Y-93736244D01*
X138060500Y-93779070D01*
X138060500Y-93782871D01*
X138032852Y-93846265D01*
X138008498Y-93868610D01*
X137854211Y-93976643D01*
X137854208Y-93976645D01*
X137849700Y-93979802D01*
X137687802Y-94141700D01*
X137684645Y-94146208D01*
X137684643Y-94146211D01*
X137642484Y-94206421D01*
X137556477Y-94329251D01*
X137554154Y-94334233D01*
X137554151Y-94334238D01*
X137462039Y-94531775D01*
X137459716Y-94536757D01*
X137458294Y-94542065D01*
X137458293Y-94542067D01*
X137403221Y-94747598D01*
X137400457Y-94757913D01*
X137380502Y-94986000D01*
X137400457Y-95214087D01*
X137401881Y-95219400D01*
X137401881Y-95219402D01*
X137442607Y-95371390D01*
X137459716Y-95435243D01*
X137462039Y-95440224D01*
X137462039Y-95440225D01*
X137554151Y-95637762D01*
X137554154Y-95637767D01*
X137556477Y-95642749D01*
X137587228Y-95686666D01*
X137666794Y-95800297D01*
X137687802Y-95830300D01*
X137849700Y-95992198D01*
X137854208Y-95995355D01*
X137854211Y-95995357D01*
X137883274Y-96015707D01*
X138037251Y-96123523D01*
X138042233Y-96125846D01*
X138042238Y-96125849D01*
X138076457Y-96141805D01*
X138129742Y-96188722D01*
X138149203Y-96256999D01*
X138128661Y-96324959D01*
X138076457Y-96370195D01*
X138042238Y-96386151D01*
X138042233Y-96386154D01*
X138037251Y-96388477D01*
X137934010Y-96460767D01*
X137854211Y-96516643D01*
X137854208Y-96516645D01*
X137849700Y-96519802D01*
X137742348Y-96627154D01*
X137680036Y-96661180D01*
X137609221Y-96656115D01*
X137564158Y-96627154D01*
X133897800Y-92960795D01*
X133863774Y-92898483D01*
X133868839Y-92827667D01*
X133911386Y-92770832D01*
X133975914Y-92746179D01*
X134120520Y-92733528D01*
X134131312Y-92731625D01*
X134341761Y-92675236D01*
X134352053Y-92671490D01*
X134549511Y-92579414D01*
X134559006Y-92573931D01*
X134611048Y-92537491D01*
X134619424Y-92527012D01*
X134612356Y-92513566D01*
X133539922Y-91441132D01*
X134262408Y-91441132D01*
X134262539Y-91442965D01*
X134266790Y-91449580D01*
X134972287Y-92155077D01*
X134984062Y-92161507D01*
X134996077Y-92152211D01*
X135031931Y-92101006D01*
X135037414Y-92091511D01*
X135129490Y-91894053D01*
X135133236Y-91883761D01*
X135189625Y-91673312D01*
X135191528Y-91662519D01*
X135210517Y-91445475D01*
X135210517Y-91434525D01*
X135191528Y-91217481D01*
X135189625Y-91206688D01*
X135133236Y-90996239D01*
X135129490Y-90985947D01*
X135037414Y-90788489D01*
X135031931Y-90778994D01*
X134995491Y-90726952D01*
X134985012Y-90718576D01*
X134971566Y-90725644D01*
X134270022Y-91427188D01*
X134262408Y-91441132D01*
X133539922Y-91441132D01*
X132823713Y-90724923D01*
X132811938Y-90718493D01*
X132799923Y-90727789D01*
X132764069Y-90778994D01*
X132758586Y-90788489D01*
X132666510Y-90985947D01*
X132662764Y-90996239D01*
X132606375Y-91206688D01*
X132604472Y-91217480D01*
X132591821Y-91362086D01*
X132565958Y-91428204D01*
X132508454Y-91469844D01*
X132437567Y-91473785D01*
X132377205Y-91440200D01*
X131276900Y-90339895D01*
X131242874Y-90277583D01*
X131247939Y-90206768D01*
X131290486Y-90149932D01*
X131357006Y-90125121D01*
X131365995Y-90124800D01*
X133096951Y-90124800D01*
X133165072Y-90144802D01*
G37*
G04 #@! TD.AperFunction*
G04 #@! TA.AperFunction,Conductor*
G36*
X109214028Y-82995932D02*
G01*
X110002057Y-83783961D01*
X110036083Y-83846273D01*
X110031018Y-83917088D01*
X110002057Y-83962151D01*
X109991082Y-83973126D01*
X109984032Y-83981528D01*
X109859069Y-84159993D01*
X109853586Y-84169489D01*
X109761510Y-84366947D01*
X109757764Y-84377239D01*
X109711606Y-84549503D01*
X109711942Y-84563599D01*
X109719884Y-84567000D01*
X112260967Y-84567000D01*
X112274498Y-84563027D01*
X112279083Y-84531136D01*
X112280272Y-84531307D01*
X112283652Y-84490834D01*
X112326873Y-84434509D01*
X112393684Y-84410492D01*
X112462873Y-84426408D01*
X112490270Y-84447174D01*
X114718593Y-86675498D01*
X116667300Y-88624205D01*
X116701326Y-88686517D01*
X116696261Y-88757333D01*
X116653714Y-88814168D01*
X116587194Y-88838979D01*
X116578205Y-88839300D01*
X114546295Y-88839300D01*
X114478174Y-88819298D01*
X114457200Y-88802395D01*
X112623552Y-86968747D01*
X112616012Y-86960461D01*
X112611900Y-86953982D01*
X112606116Y-86948550D01*
X112562249Y-86907357D01*
X112559407Y-86904602D01*
X112539670Y-86884865D01*
X112536473Y-86882385D01*
X112527451Y-86874680D01*
X112501000Y-86849841D01*
X112495221Y-86844414D01*
X112488275Y-86840595D01*
X112488272Y-86840593D01*
X112477466Y-86834652D01*
X112460947Y-86823801D01*
X112460483Y-86823441D01*
X112444941Y-86811386D01*
X112437672Y-86808241D01*
X112437668Y-86808238D01*
X112404363Y-86793826D01*
X112393713Y-86788609D01*
X112354960Y-86767305D01*
X112335337Y-86762267D01*
X112316634Y-86755863D01*
X112305320Y-86750967D01*
X112305319Y-86750967D01*
X112298045Y-86747819D01*
X112290222Y-86746580D01*
X112290212Y-86746577D01*
X112254376Y-86740901D01*
X112242756Y-86738495D01*
X112207611Y-86729472D01*
X112207610Y-86729472D01*
X112199930Y-86727500D01*
X112196129Y-86727500D01*
X112132735Y-86699852D01*
X112110390Y-86675498D01*
X112002357Y-86521211D01*
X112002355Y-86521208D01*
X111999198Y-86516700D01*
X111837300Y-86354802D01*
X111832792Y-86351645D01*
X111832789Y-86351643D01*
X111754611Y-86296902D01*
X111649749Y-86223477D01*
X111644767Y-86221154D01*
X111644762Y-86221151D01*
X111609951Y-86204919D01*
X111556666Y-86158002D01*
X111537205Y-86089725D01*
X111557747Y-86021765D01*
X111609951Y-85976529D01*
X111644511Y-85960414D01*
X111654007Y-85954931D01*
X111832467Y-85829972D01*
X111840875Y-85822916D01*
X111994916Y-85668875D01*
X112001972Y-85660467D01*
X112126931Y-85482007D01*
X112132414Y-85472511D01*
X112224490Y-85275053D01*
X112228236Y-85264761D01*
X112274394Y-85092497D01*
X112274058Y-85078401D01*
X112266116Y-85075000D01*
X109725033Y-85075000D01*
X109711502Y-85078973D01*
X109710273Y-85087522D01*
X109757764Y-85264761D01*
X109761510Y-85275053D01*
X109853586Y-85472511D01*
X109859069Y-85482007D01*
X109984028Y-85660467D01*
X109991084Y-85668875D01*
X110145125Y-85822916D01*
X110153533Y-85829972D01*
X110331993Y-85954931D01*
X110341489Y-85960414D01*
X110376049Y-85976529D01*
X110429334Y-86023446D01*
X110448795Y-86091723D01*
X110428253Y-86159683D01*
X110376049Y-86204919D01*
X110341238Y-86221151D01*
X110341233Y-86221154D01*
X110336251Y-86223477D01*
X110231389Y-86296902D01*
X110153211Y-86351643D01*
X110153208Y-86351645D01*
X110148700Y-86354802D01*
X109986802Y-86516700D01*
X109855477Y-86704251D01*
X109853154Y-86709233D01*
X109853151Y-86709238D01*
X109850743Y-86714403D01*
X109803825Y-86767688D01*
X109735548Y-86787149D01*
X109667588Y-86766607D01*
X109647453Y-86750248D01*
X109035305Y-86138100D01*
X109001279Y-86075788D01*
X108998400Y-86049005D01*
X108998400Y-83090668D01*
X108998927Y-83079483D01*
X109000602Y-83071992D01*
X109000555Y-83070510D01*
X109025813Y-83007237D01*
X109083604Y-82965998D01*
X109154517Y-82962549D01*
X109214028Y-82995932D01*
G37*
G04 #@! TD.AperFunction*
G04 #@! TA.AperFunction,Conductor*
G36*
X160745211Y-65552502D02*
G01*
X160791704Y-65606158D01*
X160803090Y-65658500D01*
X160803090Y-87367628D01*
X160783088Y-87435749D01*
X160729432Y-87482242D01*
X160659158Y-87492346D01*
X160616580Y-87478147D01*
X160615887Y-87477767D01*
X160608705Y-87472385D01*
X160600304Y-87469236D01*
X160600303Y-87469235D01*
X160518562Y-87438592D01*
X160472316Y-87421255D01*
X160410134Y-87414500D01*
X158613866Y-87414500D01*
X158551684Y-87421255D01*
X158415295Y-87472385D01*
X158298739Y-87559739D01*
X158211385Y-87676295D01*
X158208233Y-87684704D01*
X158208232Y-87684705D01*
X158180232Y-87759395D01*
X158137591Y-87816160D01*
X158071029Y-87840860D01*
X158001680Y-87825653D01*
X157971080Y-87802138D01*
X157961963Y-87792581D01*
X157875424Y-87701865D01*
X157831399Y-87669109D01*
X157694740Y-87567432D01*
X157694741Y-87567432D01*
X157690458Y-87564246D01*
X157685707Y-87561830D01*
X157685703Y-87561828D01*
X157576376Y-87506244D01*
X157484949Y-87459760D01*
X157479855Y-87458178D01*
X157479852Y-87458177D01*
X157279980Y-87396115D01*
X157264773Y-87391393D01*
X157233914Y-87387303D01*
X157041511Y-87361802D01*
X157041506Y-87361802D01*
X157036226Y-87361102D01*
X157030897Y-87361302D01*
X157030895Y-87361302D01*
X156921034Y-87365427D01*
X156805842Y-87369751D01*
X156580209Y-87417093D01*
X156575250Y-87419051D01*
X156575248Y-87419052D01*
X156370744Y-87499815D01*
X156370742Y-87499816D01*
X156365779Y-87501776D01*
X156361220Y-87504543D01*
X156361217Y-87504544D01*
X156262832Y-87564246D01*
X156168683Y-87621377D01*
X156164653Y-87624874D01*
X156009631Y-87759395D01*
X155994555Y-87772477D01*
X155967943Y-87804933D01*
X155851760Y-87946627D01*
X155851756Y-87946633D01*
X155848376Y-87950755D01*
X155812123Y-88014443D01*
X155761041Y-88063749D01*
X155691411Y-88077611D01*
X155625340Y-88051628D01*
X155598101Y-88022478D01*
X155494559Y-87868681D01*
X155475286Y-87848477D01*
X155423126Y-87793800D01*
X155335424Y-87701865D01*
X155291399Y-87669109D01*
X155154740Y-87567432D01*
X155154741Y-87567432D01*
X155150458Y-87564246D01*
X155145707Y-87561830D01*
X155145703Y-87561828D01*
X155036376Y-87506244D01*
X154944949Y-87459760D01*
X154939855Y-87458178D01*
X154939852Y-87458177D01*
X154739980Y-87396115D01*
X154724773Y-87391393D01*
X154693914Y-87387303D01*
X154501511Y-87361802D01*
X154501506Y-87361802D01*
X154496226Y-87361102D01*
X154490897Y-87361302D01*
X154490895Y-87361302D01*
X154381034Y-87365427D01*
X154265842Y-87369751D01*
X154040209Y-87417093D01*
X154035250Y-87419051D01*
X154035248Y-87419052D01*
X153830744Y-87499815D01*
X153830742Y-87499816D01*
X153825779Y-87501776D01*
X153821220Y-87504543D01*
X153821217Y-87504544D01*
X153722832Y-87564246D01*
X153628683Y-87621377D01*
X153624653Y-87624874D01*
X153469631Y-87759395D01*
X153454555Y-87772477D01*
X153427943Y-87804933D01*
X153311760Y-87946627D01*
X153311756Y-87946633D01*
X153308376Y-87950755D01*
X153272123Y-88014443D01*
X153221041Y-88063749D01*
X153151411Y-88077611D01*
X153085340Y-88051628D01*
X153058101Y-88022478D01*
X152954559Y-87868681D01*
X152935286Y-87848477D01*
X152883126Y-87793800D01*
X152795424Y-87701865D01*
X152751399Y-87669109D01*
X152614740Y-87567432D01*
X152614741Y-87567432D01*
X152610458Y-87564246D01*
X152605707Y-87561830D01*
X152605703Y-87561828D01*
X152496376Y-87506244D01*
X152404949Y-87459760D01*
X152399855Y-87458178D01*
X152399852Y-87458177D01*
X152199980Y-87396115D01*
X152184773Y-87391393D01*
X152153914Y-87387303D01*
X151961511Y-87361802D01*
X151961506Y-87361802D01*
X151956226Y-87361102D01*
X151950897Y-87361302D01*
X151950895Y-87361302D01*
X151841034Y-87365427D01*
X151725842Y-87369751D01*
X151500209Y-87417093D01*
X151495250Y-87419051D01*
X151495248Y-87419052D01*
X151290744Y-87499815D01*
X151290742Y-87499816D01*
X151285779Y-87501776D01*
X151281220Y-87504543D01*
X151281217Y-87504544D01*
X151182832Y-87564246D01*
X151088683Y-87621377D01*
X151084653Y-87624874D01*
X150929631Y-87759395D01*
X150914555Y-87772477D01*
X150887943Y-87804933D01*
X150771760Y-87946627D01*
X150771756Y-87946633D01*
X150768376Y-87950755D01*
X150732123Y-88014443D01*
X150681041Y-88063749D01*
X150611411Y-88077611D01*
X150545340Y-88051628D01*
X150518101Y-88022478D01*
X150414559Y-87868681D01*
X150395286Y-87848477D01*
X150343126Y-87793800D01*
X150255424Y-87701865D01*
X150211399Y-87669109D01*
X150074740Y-87567432D01*
X150074741Y-87567432D01*
X150070458Y-87564246D01*
X150065707Y-87561830D01*
X150065703Y-87561828D01*
X149956376Y-87506244D01*
X149864949Y-87459760D01*
X149859855Y-87458178D01*
X149859852Y-87458177D01*
X149659980Y-87396115D01*
X149644773Y-87391393D01*
X149613914Y-87387303D01*
X149421511Y-87361802D01*
X149421506Y-87361802D01*
X149416226Y-87361102D01*
X149410897Y-87361302D01*
X149410895Y-87361302D01*
X149301034Y-87365427D01*
X149185842Y-87369751D01*
X148960209Y-87417093D01*
X148955250Y-87419051D01*
X148955248Y-87419052D01*
X148750744Y-87499815D01*
X148750742Y-87499816D01*
X148745779Y-87501776D01*
X148741220Y-87504543D01*
X148741217Y-87504544D01*
X148642832Y-87564246D01*
X148548683Y-87621377D01*
X148544653Y-87624874D01*
X148389631Y-87759395D01*
X148374555Y-87772477D01*
X148347943Y-87804933D01*
X148231760Y-87946627D01*
X148231756Y-87946633D01*
X148228376Y-87950755D01*
X148192123Y-88014443D01*
X148141041Y-88063749D01*
X148071411Y-88077611D01*
X148005340Y-88051628D01*
X147978101Y-88022478D01*
X147874559Y-87868681D01*
X147855286Y-87848477D01*
X147803126Y-87793800D01*
X147715424Y-87701865D01*
X147671399Y-87669109D01*
X147534740Y-87567432D01*
X147534741Y-87567432D01*
X147530458Y-87564246D01*
X147525707Y-87561830D01*
X147525703Y-87561828D01*
X147416376Y-87506244D01*
X147324949Y-87459760D01*
X147319855Y-87458178D01*
X147319852Y-87458177D01*
X147119980Y-87396115D01*
X147104773Y-87391393D01*
X147073914Y-87387303D01*
X146881511Y-87361802D01*
X146881506Y-87361802D01*
X146876226Y-87361102D01*
X146870897Y-87361302D01*
X146870895Y-87361302D01*
X146761034Y-87365427D01*
X146645842Y-87369751D01*
X146420209Y-87417093D01*
X146415250Y-87419051D01*
X146415248Y-87419052D01*
X146210744Y-87499815D01*
X146210742Y-87499816D01*
X146205779Y-87501776D01*
X146201220Y-87504543D01*
X146201217Y-87504544D01*
X146102832Y-87564246D01*
X146008683Y-87621377D01*
X146004653Y-87624874D01*
X145849631Y-87759395D01*
X145834555Y-87772477D01*
X145807943Y-87804933D01*
X145691760Y-87946627D01*
X145691756Y-87946633D01*
X145688376Y-87950755D01*
X145652123Y-88014443D01*
X145601041Y-88063749D01*
X145531411Y-88077611D01*
X145465340Y-88051628D01*
X145438101Y-88022478D01*
X145334559Y-87868681D01*
X145315286Y-87848477D01*
X145263126Y-87793800D01*
X145175424Y-87701865D01*
X145131399Y-87669109D01*
X144994740Y-87567432D01*
X144994741Y-87567432D01*
X144990458Y-87564246D01*
X144985706Y-87561830D01*
X144985698Y-87561825D01*
X144971507Y-87554610D01*
X144919850Y-87505906D01*
X144907242Y-87461476D01*
X144904163Y-87461964D01*
X144902923Y-87454136D01*
X144902674Y-87446211D01*
X144900462Y-87438597D01*
X144900461Y-87438592D01*
X144897023Y-87426759D01*
X144893012Y-87407395D01*
X144891467Y-87395164D01*
X144890474Y-87387303D01*
X144887557Y-87379936D01*
X144887556Y-87379931D01*
X144874198Y-87346192D01*
X144870354Y-87334965D01*
X144860230Y-87300122D01*
X144858018Y-87292507D01*
X144847707Y-87275072D01*
X144839012Y-87257324D01*
X144831552Y-87238483D01*
X144805564Y-87202713D01*
X144799048Y-87192793D01*
X144780580Y-87161565D01*
X144780578Y-87161562D01*
X144776542Y-87154738D01*
X144762221Y-87140417D01*
X144749380Y-87125383D01*
X144742131Y-87115406D01*
X144737472Y-87108993D01*
X144703395Y-87080802D01*
X144694616Y-87072812D01*
X143317552Y-85695747D01*
X143310012Y-85687461D01*
X143305900Y-85680982D01*
X143256248Y-85634356D01*
X143253407Y-85631602D01*
X143233670Y-85611865D01*
X143230473Y-85609385D01*
X143221451Y-85601680D01*
X143195000Y-85576841D01*
X143189221Y-85571414D01*
X143182275Y-85567595D01*
X143182272Y-85567593D01*
X143171466Y-85561652D01*
X143154947Y-85550801D01*
X143146492Y-85544243D01*
X143138941Y-85538386D01*
X143131672Y-85535241D01*
X143131668Y-85535238D01*
X143098363Y-85520826D01*
X143087713Y-85515609D01*
X143048960Y-85494305D01*
X143029337Y-85489267D01*
X143010634Y-85482863D01*
X142999320Y-85477967D01*
X142999319Y-85477967D01*
X142992045Y-85474819D01*
X142984222Y-85473580D01*
X142984212Y-85473577D01*
X142948376Y-85467901D01*
X142936756Y-85465495D01*
X142901611Y-85456472D01*
X142901610Y-85456472D01*
X142893930Y-85454500D01*
X142873676Y-85454500D01*
X142853965Y-85452949D01*
X142841786Y-85451020D01*
X142833957Y-85449780D01*
X142826065Y-85450526D01*
X142789939Y-85453941D01*
X142778081Y-85454500D01*
X127579144Y-85454500D01*
X127511023Y-85434498D01*
X127464530Y-85380842D01*
X127454426Y-85310568D01*
X127463383Y-85280509D01*
X127463078Y-85280398D01*
X127464941Y-85275279D01*
X127464951Y-85275246D01*
X127464961Y-85275225D01*
X127464961Y-85275224D01*
X127467284Y-85270243D01*
X127473638Y-85246532D01*
X127525119Y-85054402D01*
X127525119Y-85054400D01*
X127526543Y-85049087D01*
X127546498Y-84821000D01*
X127526543Y-84592913D01*
X127519600Y-84567000D01*
X127468707Y-84377067D01*
X127468706Y-84377065D01*
X127467284Y-84371757D01*
X127452738Y-84340563D01*
X127372849Y-84169238D01*
X127372846Y-84169233D01*
X127370523Y-84164251D01*
X127274513Y-84027135D01*
X127242357Y-83981211D01*
X127242355Y-83981208D01*
X127239198Y-83976700D01*
X127077300Y-83814802D01*
X127072792Y-83811645D01*
X127072789Y-83811643D01*
X126943620Y-83721198D01*
X126889749Y-83683477D01*
X126884767Y-83681154D01*
X126884762Y-83681151D01*
X126850543Y-83665195D01*
X126797258Y-83618278D01*
X126777797Y-83550001D01*
X126798339Y-83482041D01*
X126850543Y-83436805D01*
X126884762Y-83420849D01*
X126884767Y-83420846D01*
X126889749Y-83418523D01*
X127036585Y-83315707D01*
X127072789Y-83290357D01*
X127072792Y-83290355D01*
X127077300Y-83287198D01*
X127239198Y-83125300D01*
X127256706Y-83100297D01*
X127321867Y-83007237D01*
X127370523Y-82937749D01*
X127372846Y-82932767D01*
X127372849Y-82932762D01*
X127464961Y-82735225D01*
X127464961Y-82735224D01*
X127467284Y-82730243D01*
X127473321Y-82707715D01*
X127525119Y-82514402D01*
X127525119Y-82514400D01*
X127526543Y-82509087D01*
X127546498Y-82281000D01*
X127526543Y-82052913D01*
X127512348Y-81999938D01*
X127468707Y-81837067D01*
X127468706Y-81837065D01*
X127467284Y-81831757D01*
X127453591Y-81802392D01*
X127372849Y-81629238D01*
X127372846Y-81629233D01*
X127370523Y-81624251D01*
X127287605Y-81505832D01*
X127242357Y-81441211D01*
X127242355Y-81441208D01*
X127239198Y-81436700D01*
X127077300Y-81274802D01*
X127072792Y-81271645D01*
X127072789Y-81271643D01*
X126977987Y-81205262D01*
X126889749Y-81143477D01*
X126884767Y-81141154D01*
X126884762Y-81141151D01*
X126850543Y-81125195D01*
X126797258Y-81078278D01*
X126785683Y-81037669D01*
X136381001Y-81037669D01*
X136381371Y-81044490D01*
X136386895Y-81095352D01*
X136390521Y-81110604D01*
X136435676Y-81231054D01*
X136444214Y-81246649D01*
X136520715Y-81348724D01*
X136533276Y-81361285D01*
X136635351Y-81437786D01*
X136650946Y-81446324D01*
X136771394Y-81491478D01*
X136786649Y-81495105D01*
X136837514Y-81500631D01*
X136844328Y-81501000D01*
X137141885Y-81501000D01*
X137157124Y-81496525D01*
X137158329Y-81495135D01*
X137160000Y-81487452D01*
X137160000Y-80519004D01*
X137650500Y-80519004D01*
X137665277Y-80669713D01*
X137665968Y-80672002D01*
X137668000Y-80692724D01*
X137668000Y-81482884D01*
X137672475Y-81498123D01*
X137673865Y-81499328D01*
X137681548Y-81500999D01*
X137983669Y-81500999D01*
X137990490Y-81500629D01*
X138041352Y-81495105D01*
X138056604Y-81491479D01*
X138177056Y-81446323D01*
X138192466Y-81437886D01*
X138261823Y-81422716D01*
X138290235Y-81428040D01*
X138475180Y-81485290D01*
X138481305Y-81485934D01*
X138481306Y-81485934D01*
X138670622Y-81505832D01*
X138670623Y-81505832D01*
X138676750Y-81506476D01*
X138786090Y-81496525D01*
X138872457Y-81488665D01*
X138872460Y-81488664D01*
X138878596Y-81488106D01*
X138884502Y-81486368D01*
X138884506Y-81486367D01*
X139063658Y-81433639D01*
X139073029Y-81430881D01*
X139078486Y-81428028D01*
X139078489Y-81428027D01*
X139230182Y-81348724D01*
X139252460Y-81337077D01*
X139252462Y-81337077D01*
X139252645Y-81336981D01*
X139252663Y-81337016D01*
X139318441Y-81317111D01*
X139379409Y-81332271D01*
X139551565Y-81425356D01*
X139648373Y-81455323D01*
X139739293Y-81483468D01*
X139739296Y-81483469D01*
X139745180Y-81485290D01*
X139751305Y-81485934D01*
X139751306Y-81485934D01*
X139940622Y-81505832D01*
X139940623Y-81505832D01*
X139946750Y-81506476D01*
X140056090Y-81496525D01*
X140142457Y-81488665D01*
X140142460Y-81488664D01*
X140148596Y-81488106D01*
X140154502Y-81486368D01*
X140154506Y-81486367D01*
X140333658Y-81433639D01*
X140343029Y-81430881D01*
X140348486Y-81428028D01*
X140348489Y-81428027D01*
X140500182Y-81348724D01*
X140522645Y-81336981D01*
X140680601Y-81209981D01*
X140810881Y-81054719D01*
X140813845Y-81049327D01*
X140813848Y-81049323D01*
X140905556Y-80882506D01*
X140908523Y-80877109D01*
X140969807Y-80683916D01*
X140971401Y-80669713D01*
X140987107Y-80529683D01*
X140987500Y-80526183D01*
X140987500Y-79966996D01*
X140972723Y-79816287D01*
X140914142Y-79622258D01*
X140818990Y-79443302D01*
X140690890Y-79286237D01*
X140653066Y-79254946D01*
X140539472Y-79160973D01*
X140539469Y-79160971D01*
X140534722Y-79157044D01*
X140356435Y-79060644D01*
X140259628Y-79030677D01*
X140168707Y-79002532D01*
X140168704Y-79002531D01*
X140162820Y-79000710D01*
X140156695Y-79000066D01*
X140156694Y-79000066D01*
X139967378Y-78980168D01*
X139967377Y-78980168D01*
X139961250Y-78979524D01*
X139882709Y-78986672D01*
X139765543Y-78997335D01*
X139765540Y-78997336D01*
X139759404Y-78997894D01*
X139753498Y-78999632D01*
X139753494Y-78999633D01*
X139617442Y-79039676D01*
X139564971Y-79055119D01*
X139559514Y-79057972D01*
X139559511Y-79057973D01*
X139487099Y-79095829D01*
X139385540Y-79148923D01*
X139385538Y-79148923D01*
X139385355Y-79149019D01*
X139385337Y-79148984D01*
X139319559Y-79168889D01*
X139258591Y-79153729D01*
X139249815Y-79148984D01*
X139086435Y-79060644D01*
X138989628Y-79030677D01*
X138898707Y-79002532D01*
X138898704Y-79002531D01*
X138892820Y-79000710D01*
X138886695Y-79000066D01*
X138886694Y-79000066D01*
X138697378Y-78980168D01*
X138697377Y-78980168D01*
X138691250Y-78979524D01*
X138612709Y-78986672D01*
X138495543Y-78997335D01*
X138495540Y-78997336D01*
X138489404Y-78997894D01*
X138483498Y-78999632D01*
X138483494Y-78999633D01*
X138392188Y-79026506D01*
X138294971Y-79055119D01*
X138294771Y-79054441D01*
X138228727Y-79060956D01*
X138191677Y-79047680D01*
X138177063Y-79039679D01*
X138056606Y-78994522D01*
X138041351Y-78990895D01*
X137990486Y-78985369D01*
X137983672Y-78985000D01*
X137686115Y-78985000D01*
X137670876Y-78989475D01*
X137669671Y-78990865D01*
X137668000Y-78998548D01*
X137668000Y-79796758D01*
X137667215Y-79810803D01*
X137650500Y-79959817D01*
X137650500Y-80519004D01*
X137160000Y-80519004D01*
X137160000Y-80515115D01*
X137155525Y-80499876D01*
X137154135Y-80498671D01*
X137146452Y-80497000D01*
X136399116Y-80497000D01*
X136383877Y-80501475D01*
X136382672Y-80502865D01*
X136381001Y-80510548D01*
X136381001Y-81037669D01*
X126785683Y-81037669D01*
X126777797Y-81010001D01*
X126798339Y-80942041D01*
X126850543Y-80896805D01*
X126884762Y-80880849D01*
X126884767Y-80880846D01*
X126889749Y-80878523D01*
X127036585Y-80775707D01*
X127072789Y-80750357D01*
X127072792Y-80750355D01*
X127077300Y-80747198D01*
X127239198Y-80585300D01*
X127256706Y-80560297D01*
X127299856Y-80498671D01*
X127370523Y-80397749D01*
X127372846Y-80392767D01*
X127372849Y-80392762D01*
X127464961Y-80195225D01*
X127464961Y-80195224D01*
X127467284Y-80190243D01*
X127474209Y-80164401D01*
X127525119Y-79974402D01*
X127525119Y-79974400D01*
X127526061Y-79970885D01*
X136381000Y-79970885D01*
X136385475Y-79986124D01*
X136386865Y-79987329D01*
X136394548Y-79989000D01*
X137141885Y-79989000D01*
X137157124Y-79984525D01*
X137158329Y-79983135D01*
X137160000Y-79975452D01*
X137160000Y-79003116D01*
X137155525Y-78987877D01*
X137154135Y-78986672D01*
X137146452Y-78985001D01*
X136844331Y-78985001D01*
X136837510Y-78985371D01*
X136786648Y-78990895D01*
X136771396Y-78994521D01*
X136650946Y-79039676D01*
X136635351Y-79048214D01*
X136533276Y-79124715D01*
X136520715Y-79137276D01*
X136444214Y-79239351D01*
X136435676Y-79254946D01*
X136390522Y-79375394D01*
X136386895Y-79390649D01*
X136381369Y-79441514D01*
X136381000Y-79448328D01*
X136381000Y-79970885D01*
X127526061Y-79970885D01*
X127526543Y-79969087D01*
X127546498Y-79741000D01*
X127526543Y-79512913D01*
X127512348Y-79459938D01*
X127468707Y-79297067D01*
X127468706Y-79297065D01*
X127467284Y-79291757D01*
X127400725Y-79149019D01*
X127372849Y-79089238D01*
X127372846Y-79089233D01*
X127370523Y-79084251D01*
X127239198Y-78896700D01*
X127077300Y-78734802D01*
X127072792Y-78731645D01*
X127072789Y-78731643D01*
X126985535Y-78670547D01*
X126889749Y-78603477D01*
X126884767Y-78601154D01*
X126884762Y-78601151D01*
X126687225Y-78509039D01*
X126687224Y-78509039D01*
X126682243Y-78506716D01*
X126676935Y-78505294D01*
X126676933Y-78505293D01*
X126466402Y-78448881D01*
X126466400Y-78448881D01*
X126461087Y-78447457D01*
X126233000Y-78427502D01*
X126004913Y-78447457D01*
X125999600Y-78448881D01*
X125999598Y-78448881D01*
X125789067Y-78505293D01*
X125789065Y-78505294D01*
X125783757Y-78506716D01*
X125778776Y-78509039D01*
X125778775Y-78509039D01*
X125581238Y-78601151D01*
X125581233Y-78601154D01*
X125576251Y-78603477D01*
X125480465Y-78670547D01*
X125393211Y-78731643D01*
X125393208Y-78731645D01*
X125388700Y-78734802D01*
X125226802Y-78896700D01*
X125095477Y-79084251D01*
X125093154Y-79089233D01*
X125093151Y-79089238D01*
X125065275Y-79149019D01*
X124998716Y-79291757D01*
X124997294Y-79297065D01*
X124997293Y-79297067D01*
X124953652Y-79459938D01*
X124939457Y-79512913D01*
X124919502Y-79741000D01*
X124939457Y-79969087D01*
X124940881Y-79974400D01*
X124940881Y-79974402D01*
X124991792Y-80164401D01*
X124998716Y-80190243D01*
X125001039Y-80195224D01*
X125001039Y-80195225D01*
X125093151Y-80392762D01*
X125093154Y-80392767D01*
X125095477Y-80397749D01*
X125166144Y-80498671D01*
X125209295Y-80560297D01*
X125226802Y-80585300D01*
X125388700Y-80747198D01*
X125393208Y-80750355D01*
X125393211Y-80750357D01*
X125429415Y-80775707D01*
X125576251Y-80878523D01*
X125581233Y-80880846D01*
X125581238Y-80880849D01*
X125615457Y-80896805D01*
X125668742Y-80943722D01*
X125688203Y-81011999D01*
X125667661Y-81079959D01*
X125615457Y-81125195D01*
X125581238Y-81141151D01*
X125581233Y-81141154D01*
X125576251Y-81143477D01*
X125488013Y-81205262D01*
X125393211Y-81271643D01*
X125393208Y-81271645D01*
X125388700Y-81274802D01*
X125226802Y-81436700D01*
X125223645Y-81441208D01*
X125223643Y-81441211D01*
X125178395Y-81505832D01*
X125095477Y-81624251D01*
X125093154Y-81629233D01*
X125093151Y-81629238D01*
X125012409Y-81802392D01*
X124998716Y-81831757D01*
X124997294Y-81837065D01*
X124997293Y-81837067D01*
X124953652Y-81999938D01*
X124939457Y-82052913D01*
X124919502Y-82281000D01*
X124939457Y-82509087D01*
X124940881Y-82514400D01*
X124940881Y-82514402D01*
X124992680Y-82707715D01*
X124998716Y-82730243D01*
X125001039Y-82735224D01*
X125001039Y-82735225D01*
X125093151Y-82932762D01*
X125093154Y-82932767D01*
X125095477Y-82937749D01*
X125144133Y-83007237D01*
X125209295Y-83100297D01*
X125226802Y-83125300D01*
X125388700Y-83287198D01*
X125393208Y-83290355D01*
X125393211Y-83290357D01*
X125429415Y-83315707D01*
X125576251Y-83418523D01*
X125581233Y-83420846D01*
X125581238Y-83420849D01*
X125615457Y-83436805D01*
X125668742Y-83483722D01*
X125688203Y-83551999D01*
X125667661Y-83619959D01*
X125615457Y-83665195D01*
X125581238Y-83681151D01*
X125581233Y-83681154D01*
X125576251Y-83683477D01*
X125522380Y-83721198D01*
X125393211Y-83811643D01*
X125393208Y-83811645D01*
X125388700Y-83814802D01*
X125226802Y-83976700D01*
X125223645Y-83981208D01*
X125223643Y-83981211D01*
X125191487Y-84027135D01*
X125095477Y-84164251D01*
X125093154Y-84169233D01*
X125093151Y-84169238D01*
X125013262Y-84340563D01*
X124998716Y-84371757D01*
X124997294Y-84377065D01*
X124997293Y-84377067D01*
X124946400Y-84567000D01*
X124939457Y-84592913D01*
X124919502Y-84821000D01*
X124939457Y-85049087D01*
X124940881Y-85054400D01*
X124940881Y-85054402D01*
X124992363Y-85246532D01*
X124998716Y-85270243D01*
X125001039Y-85275224D01*
X125001039Y-85275225D01*
X125001049Y-85275246D01*
X125001051Y-85275256D01*
X125002922Y-85280398D01*
X125001889Y-85280774D01*
X125011712Y-85345438D01*
X124982735Y-85410251D01*
X124923316Y-85449110D01*
X124886856Y-85454500D01*
X123174204Y-85454500D01*
X123106083Y-85434498D01*
X123059590Y-85380842D01*
X123048894Y-85315330D01*
X123053104Y-85275279D01*
X123068604Y-85127800D01*
X123062386Y-85068637D01*
X123049332Y-84944435D01*
X123049332Y-84944433D01*
X123048642Y-84937872D01*
X122989627Y-84756244D01*
X122894140Y-84590856D01*
X122766353Y-84448934D01*
X122611852Y-84336682D01*
X122605824Y-84333998D01*
X122605822Y-84333997D01*
X122443419Y-84261691D01*
X122443418Y-84261691D01*
X122437388Y-84259006D01*
X122343988Y-84239153D01*
X122257044Y-84220672D01*
X122257039Y-84220672D01*
X122250587Y-84219300D01*
X122059613Y-84219300D01*
X122053161Y-84220672D01*
X122053156Y-84220672D01*
X121966212Y-84239153D01*
X121872812Y-84259006D01*
X121866780Y-84261692D01*
X121860500Y-84263732D01*
X121859916Y-84261936D01*
X121798582Y-84270158D01*
X121734286Y-84240049D01*
X121708585Y-84208617D01*
X121697387Y-84189220D01*
X121653240Y-84112756D01*
X121581654Y-84033251D01*
X121529875Y-83975745D01*
X121529874Y-83975744D01*
X121525453Y-83970834D01*
X121370952Y-83858582D01*
X121364924Y-83855898D01*
X121364922Y-83855897D01*
X121202519Y-83783591D01*
X121202518Y-83783591D01*
X121196488Y-83780906D01*
X121101742Y-83760767D01*
X121016144Y-83742572D01*
X121016139Y-83742572D01*
X121009687Y-83741200D01*
X120953794Y-83741200D01*
X120885673Y-83721198D01*
X120864699Y-83704295D01*
X114891633Y-77731228D01*
X114857607Y-77668916D01*
X114862672Y-77598101D01*
X114905219Y-77541265D01*
X114971739Y-77516454D01*
X115041113Y-77531545D01*
X115052999Y-77538920D01*
X115122994Y-77587931D01*
X115132489Y-77593414D01*
X115329947Y-77685490D01*
X115340239Y-77689236D01*
X115550688Y-77745625D01*
X115561481Y-77747528D01*
X115778525Y-77766517D01*
X115789475Y-77766517D01*
X116006519Y-77747528D01*
X116017312Y-77745625D01*
X116227761Y-77689236D01*
X116238053Y-77685490D01*
X116435511Y-77593414D01*
X116445006Y-77587931D01*
X116497048Y-77551491D01*
X116505424Y-77541012D01*
X116498356Y-77527566D01*
X115425922Y-76455132D01*
X116148408Y-76455132D01*
X116148539Y-76456965D01*
X116152790Y-76463580D01*
X116858287Y-77169077D01*
X116870062Y-77175507D01*
X116882077Y-77166211D01*
X116917931Y-77115006D01*
X116923414Y-77105511D01*
X117015490Y-76908053D01*
X117019236Y-76897761D01*
X117075625Y-76687312D01*
X117077528Y-76676519D01*
X117096517Y-76459475D01*
X117096517Y-76448525D01*
X117077528Y-76231481D01*
X117075625Y-76220688D01*
X117019236Y-76010239D01*
X117015490Y-75999947D01*
X116923414Y-75802489D01*
X116917931Y-75792994D01*
X116881491Y-75740952D01*
X116871012Y-75732576D01*
X116857566Y-75739644D01*
X116156022Y-76441188D01*
X116148408Y-76455132D01*
X115425922Y-76455132D01*
X114709713Y-75738923D01*
X114697938Y-75732493D01*
X114685923Y-75741789D01*
X114650069Y-75792994D01*
X114644586Y-75802489D01*
X114552510Y-75999947D01*
X114548764Y-76010239D01*
X114492375Y-76220688D01*
X114490472Y-76231481D01*
X114471483Y-76448525D01*
X114471483Y-76459475D01*
X114490472Y-76676519D01*
X114492375Y-76687312D01*
X114548764Y-76897761D01*
X114552510Y-76908053D01*
X114644586Y-77105511D01*
X114650069Y-77115006D01*
X114699080Y-77185001D01*
X114721768Y-77252275D01*
X114704483Y-77321135D01*
X114652714Y-77369720D01*
X114582896Y-77382603D01*
X114517196Y-77355694D01*
X114506772Y-77346367D01*
X112527393Y-75366988D01*
X115062576Y-75366988D01*
X115069644Y-75380434D01*
X115771188Y-76081978D01*
X115785132Y-76089592D01*
X115786965Y-76089461D01*
X115793580Y-76085210D01*
X116499077Y-75379713D01*
X116505507Y-75367938D01*
X116496211Y-75355923D01*
X116445006Y-75320069D01*
X116435511Y-75314586D01*
X116238053Y-75222510D01*
X116227761Y-75218764D01*
X116098019Y-75184000D01*
X137624502Y-75184000D01*
X137644457Y-75412087D01*
X137645881Y-75417400D01*
X137645881Y-75417402D01*
X137697408Y-75609700D01*
X137703716Y-75633243D01*
X137706039Y-75638224D01*
X137706039Y-75638225D01*
X137798151Y-75835762D01*
X137798154Y-75835767D01*
X137800477Y-75840749D01*
X137847260Y-75907562D01*
X137920802Y-76012590D01*
X137931802Y-76028300D01*
X138093700Y-76190198D01*
X138098208Y-76193355D01*
X138098211Y-76193357D01*
X138137244Y-76220688D01*
X138281251Y-76321523D01*
X138286233Y-76323846D01*
X138286238Y-76323849D01*
X138483775Y-76415961D01*
X138488757Y-76418284D01*
X138494065Y-76419706D01*
X138494067Y-76419707D01*
X138704598Y-76476119D01*
X138704600Y-76476119D01*
X138709913Y-76477543D01*
X138938000Y-76497498D01*
X139166087Y-76477543D01*
X139171400Y-76476119D01*
X139171402Y-76476119D01*
X139381933Y-76419707D01*
X139381935Y-76419706D01*
X139387243Y-76418284D01*
X139392225Y-76415961D01*
X139589762Y-76323849D01*
X139589767Y-76323846D01*
X139594749Y-76321523D01*
X139738756Y-76220688D01*
X139777789Y-76193357D01*
X139777792Y-76193355D01*
X139782300Y-76190198D01*
X139932803Y-76039695D01*
X155101251Y-76039695D01*
X155101548Y-76044848D01*
X155101548Y-76044851D01*
X155112304Y-76231393D01*
X155114110Y-76262715D01*
X155115247Y-76267761D01*
X155115248Y-76267767D01*
X155127363Y-76321523D01*
X155163222Y-76480639D01*
X155247266Y-76687616D01*
X155283466Y-76746689D01*
X155350958Y-76856826D01*
X155363987Y-76878088D01*
X155510250Y-77046938D01*
X155682126Y-77189632D01*
X155875000Y-77302338D01*
X155879825Y-77304180D01*
X155879826Y-77304181D01*
X155924224Y-77321135D01*
X156083692Y-77382030D01*
X156088760Y-77383061D01*
X156088763Y-77383062D01*
X156196017Y-77404883D01*
X156302597Y-77426567D01*
X156307772Y-77426757D01*
X156307774Y-77426757D01*
X156520673Y-77434564D01*
X156520677Y-77434564D01*
X156525837Y-77434753D01*
X156530957Y-77434097D01*
X156530959Y-77434097D01*
X156742288Y-77407025D01*
X156742289Y-77407025D01*
X156747416Y-77406368D01*
X156752366Y-77404883D01*
X156956429Y-77343661D01*
X156956434Y-77343659D01*
X156961384Y-77342174D01*
X157161994Y-77243896D01*
X157343860Y-77114173D01*
X157352301Y-77105762D01*
X157498435Y-76960137D01*
X157502096Y-76956489D01*
X157528361Y-76919938D01*
X157629435Y-76779277D01*
X157632453Y-76775077D01*
X157675785Y-76687402D01*
X157729136Y-76579453D01*
X157729137Y-76579451D01*
X157731430Y-76574811D01*
X157778987Y-76418284D01*
X157794865Y-76366023D01*
X157794865Y-76366021D01*
X157796370Y-76361069D01*
X157825529Y-76139590D01*
X157827156Y-76073000D01*
X157808852Y-75850361D01*
X157754431Y-75633702D01*
X157665354Y-75428840D01*
X157594987Y-75320069D01*
X157546822Y-75245617D01*
X157546820Y-75245614D01*
X157544014Y-75241277D01*
X157393670Y-75076051D01*
X157389619Y-75072852D01*
X157389615Y-75072848D01*
X157222414Y-74940800D01*
X157222410Y-74940798D01*
X157218359Y-74937598D01*
X157177053Y-74914796D01*
X157127084Y-74864364D01*
X157112312Y-74794921D01*
X157137428Y-74728516D01*
X157164780Y-74701909D01*
X157227329Y-74657293D01*
X157343860Y-74574173D01*
X157352588Y-74565476D01*
X157468296Y-74450171D01*
X157502096Y-74416489D01*
X157516754Y-74396091D01*
X157629435Y-74239277D01*
X157632453Y-74235077D01*
X157651425Y-74196691D01*
X157729136Y-74039453D01*
X157729137Y-74039451D01*
X157731430Y-74034811D01*
X157796370Y-73821069D01*
X157825529Y-73599590D01*
X157827156Y-73533000D01*
X157808852Y-73310361D01*
X157754431Y-73093702D01*
X157665354Y-72888840D01*
X157581526Y-72759261D01*
X157546822Y-72705617D01*
X157546820Y-72705614D01*
X157544014Y-72701277D01*
X157393670Y-72536051D01*
X157389619Y-72532852D01*
X157389615Y-72532848D01*
X157222414Y-72400800D01*
X157222410Y-72400798D01*
X157218359Y-72397598D01*
X157177053Y-72374796D01*
X157127084Y-72324364D01*
X157112312Y-72254921D01*
X157137428Y-72188516D01*
X157164780Y-72161909D01*
X157208603Y-72130650D01*
X157343860Y-72034173D01*
X157352588Y-72025476D01*
X157498435Y-71880137D01*
X157502096Y-71876489D01*
X157528361Y-71839938D01*
X157629435Y-71699277D01*
X157632453Y-71695077D01*
X157658751Y-71641868D01*
X157729136Y-71499453D01*
X157729137Y-71499451D01*
X157731430Y-71494811D01*
X157796370Y-71281069D01*
X157825529Y-71059590D01*
X157827156Y-70993000D01*
X157808852Y-70770361D01*
X157754431Y-70553702D01*
X157665354Y-70348840D01*
X157564330Y-70192680D01*
X157546822Y-70165617D01*
X157546820Y-70165614D01*
X157544014Y-70161277D01*
X157540540Y-70157459D01*
X157540533Y-70157450D01*
X157396435Y-69999088D01*
X157365383Y-69935242D01*
X157373779Y-69864744D01*
X157418956Y-69809976D01*
X157445400Y-69796307D01*
X157552052Y-69756325D01*
X157567649Y-69747786D01*
X157669724Y-69671285D01*
X157682285Y-69658724D01*
X157758786Y-69556649D01*
X157767324Y-69541054D01*
X157812478Y-69420606D01*
X157816105Y-69405351D01*
X157821631Y-69354486D01*
X157822000Y-69347672D01*
X157822000Y-68725115D01*
X157817525Y-68709876D01*
X157816135Y-68708671D01*
X157808452Y-68707000D01*
X155124116Y-68707000D01*
X155108877Y-68711475D01*
X155107672Y-68712865D01*
X155106001Y-68720548D01*
X155106001Y-69347669D01*
X155106371Y-69354490D01*
X155111895Y-69405352D01*
X155115521Y-69420604D01*
X155160676Y-69541054D01*
X155169214Y-69556649D01*
X155245715Y-69658724D01*
X155258276Y-69671285D01*
X155360351Y-69747786D01*
X155375946Y-69756324D01*
X155484827Y-69797142D01*
X155541591Y-69839784D01*
X155566291Y-69906345D01*
X155551083Y-69975694D01*
X155531691Y-70002175D01*
X155448794Y-70088922D01*
X155404629Y-70135138D01*
X155401715Y-70139410D01*
X155401714Y-70139411D01*
X155362174Y-70197375D01*
X155278743Y-70319680D01*
X155184688Y-70522305D01*
X155124989Y-70737570D01*
X155101251Y-70959695D01*
X155101548Y-70964848D01*
X155101548Y-70964851D01*
X155112243Y-71150336D01*
X155114110Y-71182715D01*
X155115247Y-71187761D01*
X155115248Y-71187767D01*
X155133464Y-71268596D01*
X155163222Y-71400639D01*
X155214253Y-71526314D01*
X155238693Y-71586502D01*
X155247266Y-71607616D01*
X155363987Y-71798088D01*
X155510250Y-71966938D01*
X155682126Y-72109632D01*
X155745898Y-72146897D01*
X155755445Y-72152476D01*
X155804169Y-72204114D01*
X155817240Y-72273897D01*
X155790509Y-72339669D01*
X155750055Y-72373027D01*
X155737607Y-72379507D01*
X155733474Y-72382610D01*
X155733471Y-72382612D01*
X155665350Y-72433759D01*
X155558965Y-72513635D01*
X155404629Y-72675138D01*
X155401715Y-72679410D01*
X155401714Y-72679411D01*
X155362174Y-72737375D01*
X155278743Y-72859680D01*
X155184688Y-73062305D01*
X155124989Y-73277570D01*
X155101251Y-73499695D01*
X155101548Y-73504848D01*
X155101548Y-73504851D01*
X155112458Y-73694069D01*
X155114110Y-73722715D01*
X155115247Y-73727761D01*
X155115248Y-73727767D01*
X155133464Y-73808596D01*
X155163222Y-73940639D01*
X155201461Y-74034811D01*
X155244268Y-74140232D01*
X155247266Y-74147616D01*
X155249965Y-74152020D01*
X155334206Y-74289489D01*
X155363987Y-74338088D01*
X155510250Y-74506938D01*
X155682126Y-74649632D01*
X155700016Y-74660086D01*
X155755445Y-74692476D01*
X155804169Y-74744114D01*
X155817240Y-74813897D01*
X155790509Y-74879669D01*
X155750055Y-74913027D01*
X155737607Y-74919507D01*
X155733474Y-74922610D01*
X155733471Y-74922612D01*
X155563100Y-75050530D01*
X155558965Y-75053635D01*
X155555393Y-75057373D01*
X155455051Y-75162375D01*
X155404629Y-75215138D01*
X155401715Y-75219410D01*
X155401714Y-75219411D01*
X155362174Y-75277375D01*
X155278743Y-75399680D01*
X155184688Y-75602305D01*
X155124989Y-75817570D01*
X155101251Y-76039695D01*
X139932803Y-76039695D01*
X139944198Y-76028300D01*
X139955199Y-76012590D01*
X140028740Y-75907562D01*
X140075523Y-75840749D01*
X140077846Y-75835767D01*
X140077849Y-75835762D01*
X140169961Y-75638225D01*
X140169961Y-75638224D01*
X140172284Y-75633243D01*
X140178593Y-75609700D01*
X140230119Y-75417402D01*
X140230119Y-75417400D01*
X140231543Y-75412087D01*
X140251498Y-75184000D01*
X140231543Y-74955913D01*
X140228846Y-74945848D01*
X140173707Y-74740067D01*
X140173706Y-74740065D01*
X140172284Y-74734757D01*
X140169374Y-74728516D01*
X140077849Y-74532238D01*
X140077846Y-74532233D01*
X140075523Y-74527251D01*
X139972373Y-74379938D01*
X139947357Y-74344211D01*
X139947355Y-74344208D01*
X139944198Y-74339700D01*
X139782300Y-74177802D01*
X139777792Y-74174645D01*
X139777789Y-74174643D01*
X139682723Y-74108077D01*
X139594749Y-74046477D01*
X139589767Y-74044154D01*
X139589762Y-74044151D01*
X139392225Y-73952039D01*
X139392224Y-73952039D01*
X139387243Y-73949716D01*
X139381935Y-73948294D01*
X139381933Y-73948293D01*
X139171402Y-73891881D01*
X139171400Y-73891881D01*
X139166087Y-73890457D01*
X138938000Y-73870502D01*
X138709913Y-73890457D01*
X138704600Y-73891881D01*
X138704598Y-73891881D01*
X138494067Y-73948293D01*
X138494065Y-73948294D01*
X138488757Y-73949716D01*
X138483776Y-73952039D01*
X138483775Y-73952039D01*
X138286238Y-74044151D01*
X138286233Y-74044154D01*
X138281251Y-74046477D01*
X138193277Y-74108077D01*
X138098211Y-74174643D01*
X138098208Y-74174645D01*
X138093700Y-74177802D01*
X137931802Y-74339700D01*
X137928645Y-74344208D01*
X137928643Y-74344211D01*
X137903627Y-74379938D01*
X137800477Y-74527251D01*
X137798154Y-74532233D01*
X137798151Y-74532238D01*
X137706626Y-74728516D01*
X137703716Y-74734757D01*
X137702294Y-74740065D01*
X137702293Y-74740067D01*
X137647154Y-74945848D01*
X137644457Y-74955913D01*
X137624502Y-75184000D01*
X116098019Y-75184000D01*
X116017312Y-75162375D01*
X116006519Y-75160472D01*
X115789475Y-75141483D01*
X115778525Y-75141483D01*
X115561481Y-75160472D01*
X115550688Y-75162375D01*
X115340239Y-75218764D01*
X115329947Y-75222510D01*
X115132489Y-75314586D01*
X115122994Y-75320069D01*
X115070952Y-75356509D01*
X115062576Y-75366988D01*
X112527393Y-75366988D01*
X109267990Y-72107585D01*
X119206698Y-72107585D01*
X119209434Y-72162550D01*
X119221012Y-72395104D01*
X119222936Y-72433759D01*
X119223577Y-72437490D01*
X119223578Y-72437498D01*
X119263770Y-72671401D01*
X119278241Y-72755619D01*
X119279329Y-72759258D01*
X119279330Y-72759261D01*
X119333472Y-72940297D01*
X119371814Y-73068504D01*
X119373327Y-73071975D01*
X119373329Y-73071981D01*
X119404929Y-73144482D01*
X119502297Y-73367881D01*
X119504220Y-73371152D01*
X119504222Y-73371156D01*
X119546584Y-73443215D01*
X119667802Y-73649414D01*
X119670103Y-73652429D01*
X119863631Y-73906012D01*
X119863636Y-73906017D01*
X119865931Y-73909025D01*
X119927931Y-73972670D01*
X120063931Y-74112277D01*
X120093814Y-74142953D01*
X120166635Y-74201607D01*
X120345196Y-74345431D01*
X120345201Y-74345435D01*
X120348149Y-74347809D01*
X120625253Y-74520627D01*
X120921112Y-74658903D01*
X121231440Y-74760634D01*
X121235154Y-74761373D01*
X121235155Y-74761373D01*
X121261532Y-74766620D01*
X121551742Y-74824346D01*
X121555514Y-74824633D01*
X121555522Y-74824634D01*
X121873602Y-74848829D01*
X121873607Y-74848829D01*
X121877379Y-74849116D01*
X122203633Y-74834586D01*
X122263425Y-74824634D01*
X122522037Y-74781590D01*
X122522042Y-74781589D01*
X122525778Y-74780967D01*
X122839149Y-74689034D01*
X122842616Y-74687544D01*
X122842620Y-74687543D01*
X123135721Y-74561616D01*
X123135723Y-74561615D01*
X123139205Y-74560119D01*
X123421601Y-74396091D01*
X123682245Y-74199324D01*
X123848086Y-74039453D01*
X123914632Y-73975303D01*
X123914635Y-73975300D01*
X123917363Y-73972670D01*
X124000601Y-73870429D01*
X124121155Y-73722351D01*
X124121158Y-73722347D01*
X124123549Y-73719410D01*
X124199150Y-73599590D01*
X124295788Y-73446428D01*
X124295790Y-73446425D01*
X124297815Y-73443215D01*
X124437638Y-73148084D01*
X124455781Y-73093702D01*
X124539790Y-72841897D01*
X124539792Y-72841891D01*
X124540992Y-72838293D01*
X124606381Y-72518329D01*
X124607016Y-72510530D01*
X124627002Y-72264797D01*
X124632856Y-72192826D01*
X124633231Y-72157059D01*
X124633428Y-72138221D01*
X124633428Y-72138214D01*
X124633451Y-72136000D01*
X124631862Y-72109632D01*
X124631739Y-72107585D01*
X145876698Y-72107585D01*
X145879434Y-72162550D01*
X145891012Y-72395104D01*
X145892936Y-72433759D01*
X145893577Y-72437490D01*
X145893578Y-72437498D01*
X145933770Y-72671401D01*
X145948241Y-72755619D01*
X145949329Y-72759258D01*
X145949330Y-72759261D01*
X146003472Y-72940297D01*
X146041814Y-73068504D01*
X146043327Y-73071975D01*
X146043329Y-73071981D01*
X146074929Y-73144482D01*
X146172297Y-73367881D01*
X146174220Y-73371152D01*
X146174222Y-73371156D01*
X146216584Y-73443215D01*
X146337802Y-73649414D01*
X146340103Y-73652429D01*
X146533631Y-73906012D01*
X146533636Y-73906017D01*
X146535931Y-73909025D01*
X146597931Y-73972670D01*
X146733931Y-74112277D01*
X146763814Y-74142953D01*
X146836635Y-74201607D01*
X147015196Y-74345431D01*
X147015201Y-74345435D01*
X147018149Y-74347809D01*
X147295253Y-74520627D01*
X147591112Y-74658903D01*
X147901440Y-74760634D01*
X147905154Y-74761373D01*
X147905155Y-74761373D01*
X147931532Y-74766620D01*
X148221742Y-74824346D01*
X148225514Y-74824633D01*
X148225522Y-74824634D01*
X148543602Y-74848829D01*
X148543607Y-74848829D01*
X148547379Y-74849116D01*
X148873633Y-74834586D01*
X148933425Y-74824634D01*
X149192037Y-74781590D01*
X149192042Y-74781589D01*
X149195778Y-74780967D01*
X149509149Y-74689034D01*
X149512616Y-74687544D01*
X149512620Y-74687543D01*
X149805721Y-74561616D01*
X149805723Y-74561615D01*
X149809205Y-74560119D01*
X150091601Y-74396091D01*
X150352245Y-74199324D01*
X150518086Y-74039453D01*
X150584632Y-73975303D01*
X150584635Y-73975300D01*
X150587363Y-73972670D01*
X150670601Y-73870429D01*
X150791155Y-73722351D01*
X150791158Y-73722347D01*
X150793549Y-73719410D01*
X150869150Y-73599590D01*
X150965788Y-73446428D01*
X150965790Y-73446425D01*
X150967815Y-73443215D01*
X151107638Y-73148084D01*
X151125781Y-73093702D01*
X151209790Y-72841897D01*
X151209792Y-72841891D01*
X151210992Y-72838293D01*
X151276381Y-72518329D01*
X151277016Y-72510530D01*
X151297002Y-72264797D01*
X151302856Y-72192826D01*
X151303231Y-72157059D01*
X151303428Y-72138221D01*
X151303428Y-72138214D01*
X151303451Y-72136000D01*
X151301862Y-72109632D01*
X151284026Y-71813793D01*
X151284026Y-71813789D01*
X151283798Y-71810015D01*
X151282333Y-71801990D01*
X151225805Y-71492473D01*
X151225804Y-71492469D01*
X151225125Y-71488751D01*
X151217722Y-71464907D01*
X151129404Y-71180477D01*
X151128282Y-71176863D01*
X150994670Y-70878869D01*
X150826226Y-70599084D01*
X150823899Y-70596100D01*
X150823894Y-70596093D01*
X150627726Y-70344558D01*
X150627724Y-70344556D01*
X150625390Y-70341563D01*
X150395070Y-70110034D01*
X150138603Y-69907852D01*
X149859705Y-69737945D01*
X149856261Y-69736379D01*
X149856257Y-69736377D01*
X149713094Y-69671285D01*
X149562414Y-69602775D01*
X149251037Y-69504300D01*
X149033492Y-69463390D01*
X148933809Y-69444645D01*
X148933807Y-69444645D01*
X148930086Y-69443945D01*
X148604208Y-69422586D01*
X148600428Y-69422794D01*
X148600427Y-69422794D01*
X148502897Y-69428162D01*
X148278124Y-69440532D01*
X148274397Y-69441193D01*
X148274393Y-69441193D01*
X148117340Y-69469027D01*
X147956557Y-69497522D01*
X147952941Y-69498624D01*
X147952933Y-69498626D01*
X147659949Y-69587921D01*
X147644167Y-69592731D01*
X147345477Y-69724781D01*
X147320041Y-69739914D01*
X147068074Y-69889817D01*
X147068068Y-69889821D01*
X147064814Y-69891757D01*
X147061812Y-69894073D01*
X146874457Y-70038617D01*
X146806244Y-70091243D01*
X146573513Y-70320347D01*
X146571149Y-70323314D01*
X146571146Y-70323317D01*
X146387561Y-70553702D01*
X146369991Y-70575751D01*
X146198626Y-70853757D01*
X146061902Y-71150336D01*
X146060741Y-71153940D01*
X146060741Y-71153941D01*
X146053139Y-71177547D01*
X145961797Y-71461192D01*
X145961079Y-71464903D01*
X145961078Y-71464907D01*
X145900482Y-71778105D01*
X145900481Y-71778114D01*
X145899763Y-71781824D01*
X145899496Y-71785600D01*
X145899495Y-71785605D01*
X145879406Y-72069334D01*
X145876698Y-72107585D01*
X124631739Y-72107585D01*
X124614026Y-71813793D01*
X124614026Y-71813789D01*
X124613798Y-71810015D01*
X124612333Y-71801990D01*
X124555805Y-71492473D01*
X124555804Y-71492469D01*
X124555125Y-71488751D01*
X124547722Y-71464907D01*
X124459404Y-71180477D01*
X124458282Y-71176863D01*
X124324670Y-70878869D01*
X124156226Y-70599084D01*
X124153899Y-70596100D01*
X124153894Y-70596093D01*
X123957726Y-70344558D01*
X123957724Y-70344556D01*
X123955390Y-70341563D01*
X123725070Y-70110034D01*
X123468603Y-69907852D01*
X123189705Y-69737945D01*
X123186261Y-69736379D01*
X123186257Y-69736377D01*
X123043094Y-69671285D01*
X122892414Y-69602775D01*
X122581037Y-69504300D01*
X122363492Y-69463390D01*
X122263809Y-69444645D01*
X122263807Y-69444645D01*
X122260086Y-69443945D01*
X121934208Y-69422586D01*
X121930428Y-69422794D01*
X121930427Y-69422794D01*
X121832897Y-69428162D01*
X121608124Y-69440532D01*
X121604397Y-69441193D01*
X121604393Y-69441193D01*
X121447341Y-69469027D01*
X121286557Y-69497522D01*
X121282941Y-69498624D01*
X121282933Y-69498626D01*
X120989949Y-69587921D01*
X120974167Y-69592731D01*
X120675477Y-69724781D01*
X120650041Y-69739914D01*
X120398074Y-69889817D01*
X120398068Y-69889821D01*
X120394814Y-69891757D01*
X120391812Y-69894073D01*
X120204457Y-70038617D01*
X120136244Y-70091243D01*
X119903513Y-70320347D01*
X119901149Y-70323314D01*
X119901146Y-70323317D01*
X119717561Y-70553702D01*
X119699991Y-70575751D01*
X119528626Y-70853757D01*
X119391902Y-71150336D01*
X119390741Y-71153940D01*
X119390741Y-71153941D01*
X119383139Y-71177547D01*
X119291797Y-71461192D01*
X119291079Y-71464903D01*
X119291078Y-71464907D01*
X119230482Y-71778105D01*
X119230481Y-71778114D01*
X119229763Y-71781824D01*
X119229496Y-71785600D01*
X119229495Y-71785605D01*
X119209406Y-72069334D01*
X119206698Y-72107585D01*
X109267990Y-72107585D01*
X108811052Y-71650647D01*
X108803512Y-71642361D01*
X108799400Y-71635882D01*
X108749748Y-71589256D01*
X108746907Y-71586502D01*
X108727170Y-71566765D01*
X108723973Y-71564285D01*
X108714951Y-71556580D01*
X108688500Y-71531741D01*
X108682721Y-71526314D01*
X108675775Y-71522495D01*
X108675772Y-71522493D01*
X108664966Y-71516552D01*
X108648447Y-71505701D01*
X108647983Y-71505341D01*
X108632441Y-71493286D01*
X108625172Y-71490141D01*
X108625168Y-71490138D01*
X108591863Y-71475726D01*
X108581213Y-71470509D01*
X108542460Y-71449205D01*
X108542459Y-71449205D01*
X108543211Y-71447837D01*
X108494350Y-71409710D01*
X108470876Y-71342706D01*
X108476152Y-71299607D01*
X108518865Y-71159023D01*
X108518865Y-71159021D01*
X108520370Y-71154069D01*
X108549529Y-70932590D01*
X108551156Y-70866000D01*
X108532852Y-70643361D01*
X108478431Y-70426702D01*
X108389354Y-70221840D01*
X108318761Y-70112720D01*
X108270822Y-70038617D01*
X108270820Y-70038614D01*
X108268014Y-70034277D01*
X108117670Y-69869051D01*
X108113619Y-69865852D01*
X108113615Y-69865848D01*
X107946414Y-69733800D01*
X107946410Y-69733798D01*
X107942359Y-69730598D01*
X107901053Y-69707796D01*
X107851084Y-69657364D01*
X107836312Y-69587921D01*
X107861428Y-69521516D01*
X107888780Y-69494909D01*
X107932603Y-69463650D01*
X108067860Y-69367173D01*
X108080588Y-69354490D01*
X108222435Y-69213137D01*
X108226096Y-69209489D01*
X108285594Y-69126689D01*
X108353435Y-69032277D01*
X108356453Y-69028077D01*
X108430874Y-68877498D01*
X108453136Y-68832453D01*
X108453137Y-68832451D01*
X108455430Y-68827811D01*
X108520370Y-68614069D01*
X108549529Y-68392590D01*
X108551156Y-68326000D01*
X108532852Y-68103361D01*
X108478431Y-67886702D01*
X108389354Y-67681840D01*
X108313120Y-67564000D01*
X137624502Y-67564000D01*
X137644457Y-67792087D01*
X137703716Y-68013243D01*
X137706039Y-68018224D01*
X137706039Y-68018225D01*
X137798151Y-68215762D01*
X137798154Y-68215767D01*
X137800477Y-68220749D01*
X137803634Y-68225257D01*
X137920802Y-68392590D01*
X137931802Y-68408300D01*
X138093700Y-68570198D01*
X138098208Y-68573355D01*
X138098211Y-68573357D01*
X138149028Y-68608939D01*
X138281251Y-68701523D01*
X138286233Y-68703846D01*
X138286238Y-68703849D01*
X138483775Y-68795961D01*
X138488757Y-68798284D01*
X138494065Y-68799706D01*
X138494067Y-68799707D01*
X138704598Y-68856119D01*
X138704600Y-68856119D01*
X138709913Y-68857543D01*
X138938000Y-68877498D01*
X139166087Y-68857543D01*
X139171400Y-68856119D01*
X139171402Y-68856119D01*
X139381933Y-68799707D01*
X139381935Y-68799706D01*
X139387243Y-68798284D01*
X139392225Y-68795961D01*
X139589762Y-68703849D01*
X139589767Y-68703846D01*
X139594749Y-68701523D01*
X139726972Y-68608939D01*
X139777789Y-68573357D01*
X139777792Y-68573355D01*
X139782300Y-68570198D01*
X139944198Y-68408300D01*
X139955199Y-68392590D01*
X140072366Y-68225257D01*
X140075523Y-68220749D01*
X140077846Y-68215767D01*
X140077849Y-68215762D01*
X140094112Y-68180885D01*
X155106000Y-68180885D01*
X155110475Y-68196124D01*
X155111865Y-68197329D01*
X155119548Y-68199000D01*
X156191885Y-68199000D01*
X156207124Y-68194525D01*
X156208329Y-68193135D01*
X156210000Y-68185452D01*
X156210000Y-68180885D01*
X156718000Y-68180885D01*
X156722475Y-68196124D01*
X156723865Y-68197329D01*
X156731548Y-68199000D01*
X157803884Y-68199000D01*
X157819123Y-68194525D01*
X157820328Y-68193135D01*
X157821999Y-68185452D01*
X157821999Y-67558331D01*
X157821629Y-67551510D01*
X157816105Y-67500648D01*
X157812479Y-67485396D01*
X157767324Y-67364946D01*
X157758786Y-67349351D01*
X157682285Y-67247276D01*
X157669724Y-67234715D01*
X157567649Y-67158214D01*
X157552054Y-67149676D01*
X157431606Y-67104522D01*
X157416351Y-67100895D01*
X157365486Y-67095369D01*
X157358672Y-67095000D01*
X156736115Y-67095000D01*
X156720876Y-67099475D01*
X156719671Y-67100865D01*
X156718000Y-67108548D01*
X156718000Y-68180885D01*
X156210000Y-68180885D01*
X156210000Y-67113116D01*
X156205525Y-67097877D01*
X156204135Y-67096672D01*
X156196452Y-67095001D01*
X155569331Y-67095001D01*
X155562510Y-67095371D01*
X155511648Y-67100895D01*
X155496396Y-67104521D01*
X155375946Y-67149676D01*
X155360351Y-67158214D01*
X155258276Y-67234715D01*
X155245715Y-67247276D01*
X155169214Y-67349351D01*
X155160676Y-67364946D01*
X155115522Y-67485394D01*
X155111895Y-67500649D01*
X155106369Y-67551514D01*
X155106000Y-67558328D01*
X155106000Y-68180885D01*
X140094112Y-68180885D01*
X140169961Y-68018225D01*
X140169961Y-68018224D01*
X140172284Y-68013243D01*
X140231543Y-67792087D01*
X140251498Y-67564000D01*
X140231543Y-67335913D01*
X140187118Y-67170118D01*
X140173707Y-67120067D01*
X140173706Y-67120065D01*
X140172284Y-67114757D01*
X140169389Y-67108548D01*
X140077849Y-66912238D01*
X140077846Y-66912233D01*
X140075523Y-66907251D01*
X139944198Y-66719700D01*
X139782300Y-66557802D01*
X139777792Y-66554645D01*
X139777789Y-66554643D01*
X139699611Y-66499902D01*
X139594749Y-66426477D01*
X139589767Y-66424154D01*
X139589762Y-66424151D01*
X139392225Y-66332039D01*
X139392224Y-66332039D01*
X139387243Y-66329716D01*
X139381935Y-66328294D01*
X139381933Y-66328293D01*
X139171402Y-66271881D01*
X139171400Y-66271881D01*
X139166087Y-66270457D01*
X138938000Y-66250502D01*
X138709913Y-66270457D01*
X138704600Y-66271881D01*
X138704598Y-66271881D01*
X138494067Y-66328293D01*
X138494065Y-66328294D01*
X138488757Y-66329716D01*
X138483776Y-66332039D01*
X138483775Y-66332039D01*
X138286238Y-66424151D01*
X138286233Y-66424154D01*
X138281251Y-66426477D01*
X138176389Y-66499902D01*
X138098211Y-66554643D01*
X138098208Y-66554645D01*
X138093700Y-66557802D01*
X137931802Y-66719700D01*
X137800477Y-66907251D01*
X137798154Y-66912233D01*
X137798151Y-66912238D01*
X137706611Y-67108548D01*
X137703716Y-67114757D01*
X137702294Y-67120065D01*
X137702293Y-67120067D01*
X137688882Y-67170118D01*
X137644457Y-67335913D01*
X137624502Y-67564000D01*
X108313120Y-67564000D01*
X108309578Y-67558525D01*
X108270822Y-67498617D01*
X108270820Y-67498614D01*
X108268014Y-67494277D01*
X108117670Y-67329051D01*
X108113619Y-67325852D01*
X108113615Y-67325848D01*
X107946414Y-67193800D01*
X107946410Y-67193798D01*
X107942359Y-67190598D01*
X107746789Y-67082638D01*
X107741920Y-67080914D01*
X107741916Y-67080912D01*
X107541087Y-67009795D01*
X107541083Y-67009794D01*
X107536212Y-67008069D01*
X107531119Y-67007162D01*
X107531116Y-67007161D01*
X107321373Y-66969800D01*
X107321367Y-66969799D01*
X107316284Y-66968894D01*
X107242452Y-66967992D01*
X107098081Y-66966228D01*
X107098079Y-66966228D01*
X107092911Y-66966165D01*
X106872091Y-66999955D01*
X106659756Y-67069357D01*
X106604970Y-67097877D01*
X106489064Y-67158214D01*
X106461607Y-67172507D01*
X106457474Y-67175610D01*
X106457471Y-67175612D01*
X106287100Y-67303530D01*
X106282965Y-67306635D01*
X106128629Y-67468138D01*
X106125715Y-67472410D01*
X106125714Y-67472411D01*
X106066971Y-67558525D01*
X106002743Y-67652680D01*
X105987003Y-67686590D01*
X105935566Y-67797402D01*
X105908688Y-67855305D01*
X105848989Y-68070570D01*
X105825251Y-68292695D01*
X105825548Y-68297848D01*
X105825548Y-68297851D01*
X105832141Y-68412197D01*
X105838110Y-68515715D01*
X105839247Y-68520761D01*
X105839248Y-68520767D01*
X105849510Y-68566301D01*
X105887222Y-68733639D01*
X105971266Y-68940616D01*
X106087987Y-69131088D01*
X106234250Y-69299938D01*
X106406126Y-69442632D01*
X106476595Y-69483811D01*
X106479445Y-69485476D01*
X106528169Y-69537114D01*
X106541240Y-69606897D01*
X106514509Y-69672669D01*
X106474055Y-69706027D01*
X106461607Y-69712507D01*
X106457474Y-69715610D01*
X106457471Y-69715612D01*
X106287100Y-69843530D01*
X106282965Y-69846635D01*
X106279393Y-69850373D01*
X106140180Y-69996051D01*
X106128629Y-70008138D01*
X106002743Y-70192680D01*
X105987003Y-70226590D01*
X105932275Y-70344492D01*
X105908688Y-70395305D01*
X105848989Y-70610570D01*
X105825251Y-70832695D01*
X105825548Y-70837848D01*
X105825548Y-70837851D01*
X105834494Y-70993000D01*
X105838110Y-71055715D01*
X105839247Y-71060761D01*
X105839248Y-71060767D01*
X105860275Y-71154069D01*
X105887222Y-71273639D01*
X105915267Y-71342706D01*
X105968323Y-71473367D01*
X105971266Y-71480616D01*
X106087987Y-71671088D01*
X106234250Y-71839938D01*
X106406126Y-71982632D01*
X106410593Y-71985242D01*
X106479445Y-72025476D01*
X106528169Y-72077114D01*
X106541240Y-72146897D01*
X106514509Y-72212669D01*
X106474055Y-72246027D01*
X106461607Y-72252507D01*
X106457474Y-72255610D01*
X106457471Y-72255612D01*
X106288323Y-72382612D01*
X106282965Y-72386635D01*
X106279393Y-72390373D01*
X106140180Y-72536051D01*
X106128629Y-72548138D01*
X106002743Y-72732680D01*
X105992095Y-72755619D01*
X105932275Y-72884492D01*
X105908688Y-72935305D01*
X105848989Y-73150570D01*
X105825251Y-73372695D01*
X105825548Y-73377848D01*
X105825548Y-73377851D01*
X105834494Y-73533000D01*
X105838110Y-73595715D01*
X105839247Y-73600761D01*
X105839248Y-73600767D01*
X105850891Y-73652429D01*
X105887222Y-73813639D01*
X105971266Y-74020616D01*
X105973965Y-74025020D01*
X106079165Y-74196691D01*
X106087987Y-74211088D01*
X106234250Y-74379938D01*
X106406126Y-74522632D01*
X106414031Y-74527251D01*
X106479445Y-74565476D01*
X106528169Y-74617114D01*
X106541240Y-74686897D01*
X106514509Y-74752669D01*
X106474055Y-74786027D01*
X106461607Y-74792507D01*
X106457474Y-74795610D01*
X106457471Y-74795612D01*
X106288323Y-74922612D01*
X106282965Y-74926635D01*
X106217346Y-74995301D01*
X106140180Y-75076051D01*
X106128629Y-75088138D01*
X106125715Y-75092410D01*
X106125714Y-75092411D01*
X106089359Y-75145705D01*
X106002743Y-75272680D01*
X105987003Y-75306590D01*
X105932275Y-75424492D01*
X105908688Y-75475305D01*
X105848989Y-75690570D01*
X105825251Y-75912695D01*
X105825548Y-75917848D01*
X105825548Y-75917851D01*
X105834494Y-76073000D01*
X105838110Y-76135715D01*
X105839247Y-76140761D01*
X105839248Y-76140767D01*
X105839731Y-76142908D01*
X105887222Y-76353639D01*
X105971266Y-76560616D01*
X106087987Y-76751088D01*
X106234250Y-76919938D01*
X106406126Y-77062632D01*
X106410593Y-77065242D01*
X106479445Y-77105476D01*
X106528169Y-77157114D01*
X106541240Y-77226897D01*
X106514509Y-77292669D01*
X106474055Y-77326027D01*
X106461607Y-77332507D01*
X106457474Y-77335610D01*
X106457471Y-77335612D01*
X106287100Y-77463530D01*
X106282965Y-77466635D01*
X106279393Y-77470373D01*
X106166496Y-77588513D01*
X106128629Y-77628138D01*
X106125715Y-77632410D01*
X106125714Y-77632411D01*
X106065443Y-77720765D01*
X106002743Y-77812680D01*
X105993770Y-77832011D01*
X105916346Y-77998808D01*
X105908688Y-78015305D01*
X105848989Y-78230570D01*
X105825251Y-78452695D01*
X105825548Y-78457848D01*
X105825548Y-78457851D01*
X105832461Y-78577739D01*
X105838110Y-78675715D01*
X105839247Y-78680761D01*
X105839248Y-78680767D01*
X105842297Y-78694295D01*
X105887222Y-78893639D01*
X105971266Y-79100616D01*
X106000906Y-79148984D01*
X106082607Y-79282308D01*
X106087987Y-79291088D01*
X106234250Y-79459938D01*
X106406126Y-79602632D01*
X106439712Y-79622258D01*
X106479445Y-79645476D01*
X106528169Y-79697114D01*
X106541240Y-79766897D01*
X106514509Y-79832669D01*
X106474055Y-79866027D01*
X106461607Y-79872507D01*
X106457474Y-79875610D01*
X106457471Y-79875612D01*
X106287100Y-80003530D01*
X106282965Y-80006635D01*
X106128629Y-80168138D01*
X106125715Y-80172410D01*
X106125714Y-80172411D01*
X106040556Y-80297249D01*
X106002743Y-80352680D01*
X106000564Y-80357375D01*
X105923842Y-80522659D01*
X105908688Y-80555305D01*
X105848989Y-80770570D01*
X105825251Y-80992695D01*
X105825548Y-80997848D01*
X105825548Y-80997851D01*
X105830455Y-81082951D01*
X105838110Y-81215715D01*
X105839247Y-81220761D01*
X105839248Y-81220767D01*
X105860961Y-81317111D01*
X105887222Y-81433639D01*
X105916571Y-81505917D01*
X105964422Y-81623760D01*
X105971266Y-81640616D01*
X105976693Y-81649472D01*
X106071918Y-81804865D01*
X106087987Y-81831088D01*
X106234250Y-81999938D01*
X106406126Y-82142632D01*
X106410593Y-82145242D01*
X106479445Y-82185476D01*
X106528169Y-82237114D01*
X106541240Y-82306897D01*
X106514509Y-82372669D01*
X106474055Y-82406027D01*
X106461607Y-82412507D01*
X106457474Y-82415610D01*
X106457471Y-82415612D01*
X106358188Y-82490156D01*
X106282965Y-82546635D01*
X106128629Y-82708138D01*
X106125715Y-82712410D01*
X106125714Y-82712411D01*
X106094406Y-82758307D01*
X106002743Y-82892680D01*
X106000564Y-82897375D01*
X105940348Y-83027100D01*
X105908688Y-83095305D01*
X105848989Y-83310570D01*
X105825251Y-83532695D01*
X105825548Y-83537848D01*
X105825548Y-83537851D01*
X105836120Y-83721198D01*
X105838110Y-83755715D01*
X105839247Y-83760761D01*
X105839248Y-83760767D01*
X105850714Y-83811643D01*
X105887222Y-83973639D01*
X105971266Y-84180616D01*
X106087987Y-84371088D01*
X106107793Y-84393953D01*
X106137276Y-84458535D01*
X106127162Y-84528808D01*
X106101651Y-84565544D01*
X105606547Y-85060648D01*
X105598261Y-85068188D01*
X105591782Y-85072300D01*
X105586357Y-85078077D01*
X105545157Y-85121951D01*
X105542402Y-85124793D01*
X105522665Y-85144530D01*
X105520185Y-85147727D01*
X105512482Y-85156747D01*
X105482214Y-85188979D01*
X105478395Y-85195925D01*
X105478393Y-85195928D01*
X105472452Y-85206734D01*
X105461601Y-85223253D01*
X105449186Y-85239259D01*
X105446041Y-85246528D01*
X105446038Y-85246532D01*
X105431626Y-85279837D01*
X105426409Y-85290487D01*
X105405105Y-85329240D01*
X105403134Y-85336916D01*
X105400216Y-85344287D01*
X105397526Y-85343222D01*
X105368231Y-85392440D01*
X105304700Y-85424131D01*
X105234120Y-85416444D01*
X105178901Y-85371819D01*
X105156500Y-85300102D01*
X105156500Y-65658500D01*
X105176502Y-65590379D01*
X105230158Y-65543886D01*
X105282500Y-65532500D01*
X160677090Y-65532500D01*
X160745211Y-65552502D01*
G37*
G04 #@! TD.AperFunction*
M02*
