G04 #@! TF.GenerationSoftware,KiCad,Pcbnew,(6.0.11)*
G04 #@! TF.CreationDate,2024-10-09T23:17:59+02:00*
G04 #@! TF.ProjectId,kicad-c128keyb,6b696361-642d-4633-9132-386b6579622e,rev?*
G04 #@! TF.SameCoordinates,Original*
G04 #@! TF.FileFunction,Soldermask,Top*
G04 #@! TF.FilePolarity,Negative*
%FSLAX46Y46*%
G04 Gerber Fmt 4.6, Leading zero omitted, Abs format (unit mm)*
G04 Created by KiCad (PCBNEW (6.0.11)) date 2024-10-09 23:17:59*
%MOMM*%
%LPD*%
G01*
G04 APERTURE LIST*
%ADD10R,1.600000X1.600000*%
%ADD11O,1.600000X1.600000*%
%ADD12O,1.700000X1.700000*%
%ADD13R,1.700000X1.700000*%
%ADD14C,1.600000*%
%ADD15R,1.050000X1.500000*%
%ADD16O,1.050000X1.500000*%
%ADD17O,1.700000X3.700000*%
%ADD18O,1.700000X3.600000*%
%ADD19R,1.700000X3.500000*%
%ADD20C,0.700000*%
%ADD21C,4.400000*%
G04 APERTURE END LIST*
D10*
X110993000Y-79741000D03*
D11*
X110993000Y-82281000D03*
X110993000Y-84821000D03*
X110993000Y-87361000D03*
X110993000Y-89901000D03*
X110993000Y-92441000D03*
X110993000Y-94981000D03*
X110993000Y-97521000D03*
X110993000Y-100061000D03*
X110993000Y-102601000D03*
X110993000Y-105141000D03*
X110993000Y-107681000D03*
X110993000Y-110221000D03*
X110993000Y-112761000D03*
X126233000Y-112761000D03*
X126233000Y-110221000D03*
X126233000Y-107681000D03*
X126233000Y-105141000D03*
X126233000Y-102601000D03*
X126233000Y-100061000D03*
X126233000Y-97521000D03*
X126233000Y-94981000D03*
X126233000Y-92441000D03*
X126233000Y-89901000D03*
X126233000Y-87361000D03*
X126233000Y-84821000D03*
X126233000Y-82281000D03*
X126233000Y-79741000D03*
D12*
X159258000Y-116586000D03*
X156718000Y-116586000D03*
X154178000Y-116586000D03*
X151638000Y-116586000D03*
X149098000Y-116586000D03*
X146558000Y-116586000D03*
X144018000Y-116586000D03*
X141478000Y-116586000D03*
X138938000Y-116586000D03*
X136398000Y-116586000D03*
X133858000Y-116586000D03*
X131318000Y-116586000D03*
X128778000Y-116586000D03*
X126238000Y-116586000D03*
X123698000Y-116586000D03*
X121158000Y-116586000D03*
X118618000Y-116586000D03*
X116078000Y-116586000D03*
X113538000Y-116586000D03*
D13*
X110998000Y-116586000D03*
X107188000Y-116586000D03*
D12*
X107188000Y-114046000D03*
X107188000Y-111506000D03*
X107188000Y-108966000D03*
X107188000Y-106426000D03*
X107188000Y-103886000D03*
X107188000Y-101346000D03*
X107188000Y-98806000D03*
X107188000Y-96266000D03*
X107188000Y-93726000D03*
X107188000Y-91186000D03*
X107188000Y-88646000D03*
X107188000Y-86106000D03*
X107188000Y-83566000D03*
X107188000Y-81026000D03*
X107188000Y-78486000D03*
X107188000Y-75946000D03*
X107188000Y-73406000D03*
X107188000Y-70866000D03*
X107188000Y-68326000D03*
D14*
X110784000Y-76454000D03*
X115784000Y-76454000D03*
X138938000Y-75184000D03*
D11*
X138938000Y-67564000D03*
D10*
X131074000Y-94986000D03*
D11*
X131074000Y-97526000D03*
X131074000Y-100066000D03*
X131074000Y-102606000D03*
X131074000Y-105146000D03*
X131074000Y-107686000D03*
X131074000Y-110226000D03*
X131074000Y-112766000D03*
X138694000Y-112766000D03*
X138694000Y-110226000D03*
X138694000Y-107686000D03*
X138694000Y-105146000D03*
X138694000Y-102606000D03*
X138694000Y-100066000D03*
X138694000Y-97526000D03*
X138694000Y-94986000D03*
D13*
X156464000Y-68453000D03*
D12*
X156464000Y-70993000D03*
X156464000Y-73533000D03*
X156464000Y-76073000D03*
D14*
X138898000Y-91440000D03*
X133898000Y-91440000D03*
D15*
X137414000Y-80243000D03*
D16*
X138684000Y-80243000D03*
X139954000Y-80243000D03*
D17*
X159512000Y-106923000D03*
X156972000Y-106923000D03*
X154432000Y-106923000D03*
X151892000Y-106923000D03*
D18*
X149352000Y-106923000D03*
X146812000Y-106923000D03*
X144272000Y-106923000D03*
X144272000Y-89673000D03*
X146812000Y-89673000D03*
X149352000Y-89673000D03*
X151892000Y-89673000D03*
X154432000Y-89673000D03*
X156972000Y-89673000D03*
D19*
X159512000Y-89673000D03*
D20*
X121920000Y-70486000D03*
X123086726Y-70969274D03*
X123570000Y-72136000D03*
D21*
X121920000Y-72136000D03*
D20*
X123086726Y-73302726D03*
X121920000Y-73786000D03*
X120753274Y-70969274D03*
X120753274Y-73302726D03*
X120270000Y-72136000D03*
X149756726Y-70969274D03*
X147423274Y-73302726D03*
X148590000Y-70486000D03*
X148590000Y-73786000D03*
X146940000Y-72136000D03*
X147423274Y-70969274D03*
X149756726Y-73302726D03*
X150240000Y-72136000D03*
D21*
X148590000Y-72136000D03*
D13*
X155453000Y-112014000D03*
D12*
X152913000Y-112014000D03*
M02*
