G04 #@! TF.GenerationSoftware,KiCad,Pcbnew,(6.0.11)*
G04 #@! TF.CreationDate,2024-10-09T23:17:59+02:00*
G04 #@! TF.ProjectId,kicad-c128keyb,6b696361-642d-4633-9132-386b6579622e,rev?*
G04 #@! TF.SameCoordinates,Original*
G04 #@! TF.FileFunction,Legend,Top*
G04 #@! TF.FilePolarity,Positive*
%FSLAX46Y46*%
G04 Gerber Fmt 4.6, Leading zero omitted, Abs format (unit mm)*
G04 Created by KiCad (PCBNEW (6.0.11)) date 2024-10-09 23:17:59*
%MOMM*%
%LPD*%
G01*
G04 APERTURE LIST*
%ADD10C,0.150000*%
%ADD11C,0.101600*%
%ADD12C,0.120000*%
%ADD13C,0.025400*%
%ADD14C,0.254000*%
%ADD15C,0.127000*%
%ADD16R,1.600000X1.600000*%
%ADD17O,1.600000X1.600000*%
%ADD18O,1.700000X1.700000*%
%ADD19R,1.700000X1.700000*%
%ADD20C,1.600000*%
%ADD21R,1.050000X1.500000*%
%ADD22O,1.050000X1.500000*%
%ADD23O,1.700000X3.700000*%
%ADD24O,1.700000X3.600000*%
%ADD25R,1.700000X3.500000*%
%ADD26C,0.700000*%
%ADD27C,4.400000*%
G04 APERTURE END LIST*
D10*
X158529976Y-114101619D02*
X158577595Y-114054000D01*
X158672833Y-114006380D01*
X158910928Y-114006380D01*
X159006166Y-114054000D01*
X159053785Y-114101619D01*
X159101404Y-114196857D01*
X159101404Y-114292095D01*
X159053785Y-114434952D01*
X158482357Y-115006380D01*
X159101404Y-115006380D01*
X159720452Y-114006380D02*
X159815690Y-114006380D01*
X159910928Y-114054000D01*
X159958547Y-114101619D01*
X160006166Y-114196857D01*
X160053785Y-114387333D01*
X160053785Y-114625428D01*
X160006166Y-114815904D01*
X159958547Y-114911142D01*
X159910928Y-114958761D01*
X159815690Y-115006380D01*
X159720452Y-115006380D01*
X159625214Y-114958761D01*
X159577595Y-114911142D01*
X159529976Y-114815904D01*
X159482357Y-114625428D01*
X159482357Y-114387333D01*
X159529976Y-114196857D01*
X159577595Y-114101619D01*
X159625214Y-114054000D01*
X159720452Y-114006380D01*
X113270357Y-114260380D02*
X113937023Y-115260380D01*
X113937023Y-114260380D02*
X113270357Y-115260380D01*
X108758357Y-113498380D02*
X109425023Y-114498380D01*
X109425023Y-113498380D02*
X108758357Y-114498380D01*
X109377404Y-117038380D02*
X108805976Y-117038380D01*
X109091690Y-117038380D02*
X109091690Y-116038380D01*
X108996452Y-116181238D01*
X108901214Y-116276476D01*
X108805976Y-116324095D01*
X109253976Y-67873619D02*
X109301595Y-67826000D01*
X109396833Y-67778380D01*
X109634928Y-67778380D01*
X109730166Y-67826000D01*
X109777785Y-67873619D01*
X109825404Y-67968857D01*
X109825404Y-68064095D01*
X109777785Y-68206952D01*
X109206357Y-68778380D01*
X109825404Y-68778380D01*
X110444452Y-67778380D02*
X110539690Y-67778380D01*
X110634928Y-67826000D01*
X110682547Y-67873619D01*
X110730166Y-67968857D01*
X110777785Y-68159333D01*
X110777785Y-68397428D01*
X110730166Y-68587904D01*
X110682547Y-68683142D01*
X110634928Y-68730761D01*
X110539690Y-68778380D01*
X110444452Y-68778380D01*
X110349214Y-68730761D01*
X110301595Y-68683142D01*
X110253976Y-68587904D01*
X110206357Y-68397428D01*
X110206357Y-68159333D01*
X110253976Y-67968857D01*
X110301595Y-67873619D01*
X110349214Y-67826000D01*
X110444452Y-67778380D01*
X157696142Y-114228285D02*
X157696142Y-114028285D01*
X158010428Y-113942571D02*
X158010428Y-114228285D01*
X157410428Y-114228285D01*
X157410428Y-113942571D01*
X158010428Y-113742571D02*
X157610428Y-113428285D01*
X157610428Y-113742571D02*
X158010428Y-113428285D01*
X157610428Y-113285428D02*
X157610428Y-113056857D01*
X157410428Y-113199714D02*
X157924714Y-113199714D01*
X157981857Y-113171142D01*
X158010428Y-113114000D01*
X158010428Y-113056857D01*
X157953285Y-112856857D02*
X157981857Y-112828285D01*
X158010428Y-112856857D01*
X157981857Y-112885428D01*
X157953285Y-112856857D01*
X158010428Y-112856857D01*
X157610428Y-112114000D02*
X158210428Y-112114000D01*
X157639000Y-112114000D02*
X157610428Y-112056857D01*
X157610428Y-111942571D01*
X157639000Y-111885428D01*
X157667571Y-111856857D01*
X157724714Y-111828285D01*
X157896142Y-111828285D01*
X157953285Y-111856857D01*
X157981857Y-111885428D01*
X158010428Y-111942571D01*
X158010428Y-112056857D01*
X157981857Y-112114000D01*
X158010428Y-111485428D02*
X157981857Y-111542571D01*
X157953285Y-111571142D01*
X157896142Y-111599714D01*
X157724714Y-111599714D01*
X157667571Y-111571142D01*
X157639000Y-111542571D01*
X157610428Y-111485428D01*
X157610428Y-111399714D01*
X157639000Y-111342571D01*
X157667571Y-111314000D01*
X157724714Y-111285428D01*
X157896142Y-111285428D01*
X157953285Y-111314000D01*
X157981857Y-111342571D01*
X158010428Y-111399714D01*
X158010428Y-111485428D01*
X157610428Y-111085428D02*
X158010428Y-110971142D01*
X157724714Y-110856857D01*
X158010428Y-110742571D01*
X157610428Y-110628285D01*
X157981857Y-110171142D02*
X158010428Y-110228285D01*
X158010428Y-110342571D01*
X157981857Y-110399714D01*
X157924714Y-110428285D01*
X157696142Y-110428285D01*
X157639000Y-110399714D01*
X157610428Y-110342571D01*
X157610428Y-110228285D01*
X157639000Y-110171142D01*
X157696142Y-110142571D01*
X157753285Y-110142571D01*
X157810428Y-110428285D01*
X158010428Y-109885428D02*
X157610428Y-109885428D01*
X157724714Y-109885428D02*
X157667571Y-109856857D01*
X157639000Y-109828285D01*
X157610428Y-109771142D01*
X157610428Y-109714000D01*
X137266000Y-85075285D02*
X137237428Y-85103857D01*
X137151714Y-85132428D01*
X137094571Y-85132428D01*
X137008857Y-85103857D01*
X136951714Y-85046714D01*
X136923142Y-84989571D01*
X136894571Y-84875285D01*
X136894571Y-84789571D01*
X136923142Y-84675285D01*
X136951714Y-84618142D01*
X137008857Y-84561000D01*
X137094571Y-84532428D01*
X137151714Y-84532428D01*
X137237428Y-84561000D01*
X137266000Y-84589571D01*
X137837428Y-85132428D02*
X137494571Y-85132428D01*
X137666000Y-85132428D02*
X137666000Y-84532428D01*
X137608857Y-84618142D01*
X137551714Y-84675285D01*
X137494571Y-84703857D01*
X138351714Y-84532428D02*
X138237428Y-84532428D01*
X138180285Y-84561000D01*
X138151714Y-84589571D01*
X138094571Y-84675285D01*
X138066000Y-84789571D01*
X138066000Y-85018142D01*
X138094571Y-85075285D01*
X138123142Y-85103857D01*
X138180285Y-85132428D01*
X138294571Y-85132428D01*
X138351714Y-85103857D01*
X138380285Y-85075285D01*
X138408857Y-85018142D01*
X138408857Y-84875285D01*
X138380285Y-84818142D01*
X138351714Y-84789571D01*
X138294571Y-84761000D01*
X138180285Y-84761000D01*
X138123142Y-84789571D01*
X138094571Y-84818142D01*
X138066000Y-84875285D01*
X139094571Y-84503857D02*
X138580285Y-85275285D01*
X139551714Y-84532428D02*
X139437428Y-84532428D01*
X139380285Y-84561000D01*
X139351714Y-84589571D01*
X139294571Y-84675285D01*
X139266000Y-84789571D01*
X139266000Y-85018142D01*
X139294571Y-85075285D01*
X139323142Y-85103857D01*
X139380285Y-85132428D01*
X139494571Y-85132428D01*
X139551714Y-85103857D01*
X139580285Y-85075285D01*
X139608857Y-85018142D01*
X139608857Y-84875285D01*
X139580285Y-84818142D01*
X139551714Y-84789571D01*
X139494571Y-84761000D01*
X139380285Y-84761000D01*
X139323142Y-84789571D01*
X139294571Y-84818142D01*
X139266000Y-84875285D01*
X140123142Y-84732428D02*
X140123142Y-85132428D01*
X139980285Y-84503857D02*
X139837428Y-84932428D01*
X140208857Y-84932428D01*
X140894571Y-84532428D02*
X140894571Y-85018142D01*
X140923142Y-85075285D01*
X140951714Y-85103857D01*
X141008857Y-85132428D01*
X141123142Y-85132428D01*
X141180285Y-85103857D01*
X141208857Y-85075285D01*
X141237428Y-85018142D01*
X141237428Y-84532428D01*
X141494571Y-85103857D02*
X141580285Y-85132428D01*
X141723142Y-85132428D01*
X141780285Y-85103857D01*
X141808857Y-85075285D01*
X141837428Y-85018142D01*
X141837428Y-84961000D01*
X141808857Y-84903857D01*
X141780285Y-84875285D01*
X141723142Y-84846714D01*
X141608857Y-84818142D01*
X141551714Y-84789571D01*
X141523142Y-84761000D01*
X141494571Y-84703857D01*
X141494571Y-84646714D01*
X141523142Y-84589571D01*
X141551714Y-84561000D01*
X141608857Y-84532428D01*
X141751714Y-84532428D01*
X141837428Y-84561000D01*
X142294571Y-84818142D02*
X142380285Y-84846714D01*
X142408857Y-84875285D01*
X142437428Y-84932428D01*
X142437428Y-85018142D01*
X142408857Y-85075285D01*
X142380285Y-85103857D01*
X142323142Y-85132428D01*
X142094571Y-85132428D01*
X142094571Y-84532428D01*
X142294571Y-84532428D01*
X142351714Y-84561000D01*
X142380285Y-84589571D01*
X142408857Y-84646714D01*
X142408857Y-84703857D01*
X142380285Y-84761000D01*
X142351714Y-84789571D01*
X142294571Y-84818142D01*
X142094571Y-84818142D01*
X143151714Y-85132428D02*
X143151714Y-84532428D01*
X143494571Y-85132428D02*
X143237428Y-84789571D01*
X143494571Y-84532428D02*
X143151714Y-84875285D01*
X143980285Y-85103857D02*
X143923142Y-85132428D01*
X143808857Y-85132428D01*
X143751714Y-85103857D01*
X143723142Y-85046714D01*
X143723142Y-84818142D01*
X143751714Y-84761000D01*
X143808857Y-84732428D01*
X143923142Y-84732428D01*
X143980285Y-84761000D01*
X144008857Y-84818142D01*
X144008857Y-84875285D01*
X143723142Y-84932428D01*
X144208857Y-84732428D02*
X144351714Y-85132428D01*
X144494571Y-84732428D02*
X144351714Y-85132428D01*
X144294571Y-85275285D01*
X144266000Y-85303857D01*
X144208857Y-85332428D01*
X144723142Y-85132428D02*
X144723142Y-84532428D01*
X144723142Y-84761000D02*
X144780285Y-84732428D01*
X144894571Y-84732428D01*
X144951714Y-84761000D01*
X144980285Y-84789571D01*
X145008857Y-84846714D01*
X145008857Y-85018142D01*
X144980285Y-85075285D01*
X144951714Y-85103857D01*
X144894571Y-85132428D01*
X144780285Y-85132428D01*
X144723142Y-85103857D01*
X145351714Y-85132428D02*
X145294571Y-85103857D01*
X145266000Y-85075285D01*
X145237428Y-85018142D01*
X145237428Y-84846714D01*
X145266000Y-84789571D01*
X145294571Y-84761000D01*
X145351714Y-84732428D01*
X145437428Y-84732428D01*
X145494571Y-84761000D01*
X145523142Y-84789571D01*
X145551714Y-84846714D01*
X145551714Y-85018142D01*
X145523142Y-85075285D01*
X145494571Y-85103857D01*
X145437428Y-85132428D01*
X145351714Y-85132428D01*
X146066000Y-85132428D02*
X146066000Y-84818142D01*
X146037428Y-84761000D01*
X145980285Y-84732428D01*
X145866000Y-84732428D01*
X145808857Y-84761000D01*
X146066000Y-85103857D02*
X146008857Y-85132428D01*
X145866000Y-85132428D01*
X145808857Y-85103857D01*
X145780285Y-85046714D01*
X145780285Y-84989571D01*
X145808857Y-84932428D01*
X145866000Y-84903857D01*
X146008857Y-84903857D01*
X146066000Y-84875285D01*
X146351714Y-85132428D02*
X146351714Y-84732428D01*
X146351714Y-84846714D02*
X146380285Y-84789571D01*
X146408857Y-84761000D01*
X146466000Y-84732428D01*
X146523142Y-84732428D01*
X146980285Y-85132428D02*
X146980285Y-84532428D01*
X146980285Y-85103857D02*
X146923142Y-85132428D01*
X146808857Y-85132428D01*
X146751714Y-85103857D01*
X146723142Y-85075285D01*
X146694571Y-85018142D01*
X146694571Y-84846714D01*
X146723142Y-84789571D01*
X146751714Y-84761000D01*
X146808857Y-84732428D01*
X146923142Y-84732428D01*
X146980285Y-84761000D01*
X147694571Y-84961000D02*
X147980285Y-84961000D01*
X147637428Y-85132428D02*
X147837428Y-84532428D01*
X148037428Y-85132428D01*
X148494571Y-85132428D02*
X148494571Y-84532428D01*
X148494571Y-85103857D02*
X148437428Y-85132428D01*
X148323142Y-85132428D01*
X148266000Y-85103857D01*
X148237428Y-85075285D01*
X148208857Y-85018142D01*
X148208857Y-84846714D01*
X148237428Y-84789571D01*
X148266000Y-84761000D01*
X148323142Y-84732428D01*
X148437428Y-84732428D01*
X148494571Y-84761000D01*
X149037428Y-85132428D02*
X149037428Y-84818142D01*
X149008857Y-84761000D01*
X148951714Y-84732428D01*
X148837428Y-84732428D01*
X148780285Y-84761000D01*
X149037428Y-85103857D02*
X148980285Y-85132428D01*
X148837428Y-85132428D01*
X148780285Y-85103857D01*
X148751714Y-85046714D01*
X148751714Y-84989571D01*
X148780285Y-84932428D01*
X148837428Y-84903857D01*
X148980285Y-84903857D01*
X149037428Y-84875285D01*
X149323142Y-84732428D02*
X149323142Y-85332428D01*
X149323142Y-84761000D02*
X149380285Y-84732428D01*
X149494571Y-84732428D01*
X149551714Y-84761000D01*
X149580285Y-84789571D01*
X149608857Y-84846714D01*
X149608857Y-85018142D01*
X149580285Y-85075285D01*
X149551714Y-85103857D01*
X149494571Y-85132428D01*
X149380285Y-85132428D01*
X149323142Y-85103857D01*
X149780285Y-84732428D02*
X150008857Y-84732428D01*
X149866000Y-84532428D02*
X149866000Y-85046714D01*
X149894571Y-85103857D01*
X149951714Y-85132428D01*
X150008857Y-85132428D01*
X150437428Y-85103857D02*
X150380285Y-85132428D01*
X150266000Y-85132428D01*
X150208857Y-85103857D01*
X150180285Y-85046714D01*
X150180285Y-84818142D01*
X150208857Y-84761000D01*
X150266000Y-84732428D01*
X150380285Y-84732428D01*
X150437428Y-84761000D01*
X150466000Y-84818142D01*
X150466000Y-84875285D01*
X150180285Y-84932428D01*
X150723142Y-85132428D02*
X150723142Y-84732428D01*
X150723142Y-84846714D02*
X150751714Y-84789571D01*
X150780285Y-84761000D01*
X150837428Y-84732428D01*
X150894571Y-84732428D01*
X151494571Y-84732428D02*
X151637428Y-85132428D01*
X151780285Y-84732428D01*
X152323142Y-85132428D02*
X151980285Y-85132428D01*
X152151714Y-85132428D02*
X152151714Y-84532428D01*
X152094571Y-84618142D01*
X152037428Y-84675285D01*
X151980285Y-84703857D01*
X152580285Y-85075285D02*
X152608857Y-85103857D01*
X152580285Y-85132428D01*
X152551714Y-85103857D01*
X152580285Y-85075285D01*
X152580285Y-85132428D01*
X152980285Y-84532428D02*
X153037428Y-84532428D01*
X153094571Y-84561000D01*
X153123142Y-84589571D01*
X153151714Y-84646714D01*
X153180285Y-84761000D01*
X153180285Y-84903857D01*
X153151714Y-85018142D01*
X153123142Y-85075285D01*
X153094571Y-85103857D01*
X153037428Y-85132428D01*
X152980285Y-85132428D01*
X152923142Y-85103857D01*
X152894571Y-85075285D01*
X152866000Y-85018142D01*
X152837428Y-84903857D01*
X152837428Y-84761000D01*
X152866000Y-84646714D01*
X152894571Y-84589571D01*
X152923142Y-84561000D01*
X152980285Y-84532428D01*
X153466000Y-85103857D02*
X153466000Y-85132428D01*
X153437428Y-85189571D01*
X153408857Y-85218142D01*
X154123142Y-84532428D02*
X154523142Y-85132428D01*
X154523142Y-84532428D02*
X154123142Y-85132428D01*
X155180285Y-84589571D02*
X155208857Y-84561000D01*
X155266000Y-84532428D01*
X155408857Y-84532428D01*
X155466000Y-84561000D01*
X155494571Y-84589571D01*
X155523142Y-84646714D01*
X155523142Y-84703857D01*
X155494571Y-84789571D01*
X155151714Y-85132428D01*
X155523142Y-85132428D01*
X155894571Y-84532428D02*
X155951714Y-84532428D01*
X156008857Y-84561000D01*
X156037428Y-84589571D01*
X156066000Y-84646714D01*
X156094571Y-84761000D01*
X156094571Y-84903857D01*
X156066000Y-85018142D01*
X156037428Y-85075285D01*
X156008857Y-85103857D01*
X155951714Y-85132428D01*
X155894571Y-85132428D01*
X155837428Y-85103857D01*
X155808857Y-85075285D01*
X155780285Y-85018142D01*
X155751714Y-84903857D01*
X155751714Y-84761000D01*
X155780285Y-84646714D01*
X155808857Y-84589571D01*
X155837428Y-84561000D01*
X155894571Y-84532428D01*
X156323142Y-84589571D02*
X156351714Y-84561000D01*
X156408857Y-84532428D01*
X156551714Y-84532428D01*
X156608857Y-84561000D01*
X156637428Y-84589571D01*
X156666000Y-84646714D01*
X156666000Y-84703857D01*
X156637428Y-84789571D01*
X156294571Y-85132428D01*
X156666000Y-85132428D01*
X157180285Y-84732428D02*
X157180285Y-85132428D01*
X157037428Y-84503857D02*
X156894571Y-84932428D01*
X157266000Y-84932428D01*
X138994571Y-86098428D02*
X138994571Y-85498428D01*
X139194571Y-85927000D01*
X139394571Y-85498428D01*
X139394571Y-86098428D01*
X139937428Y-86098428D02*
X139937428Y-85784142D01*
X139908857Y-85727000D01*
X139851714Y-85698428D01*
X139737428Y-85698428D01*
X139680285Y-85727000D01*
X139937428Y-86069857D02*
X139880285Y-86098428D01*
X139737428Y-86098428D01*
X139680285Y-86069857D01*
X139651714Y-86012714D01*
X139651714Y-85955571D01*
X139680285Y-85898428D01*
X139737428Y-85869857D01*
X139880285Y-85869857D01*
X139937428Y-85841285D01*
X140480285Y-86069857D02*
X140423142Y-86098428D01*
X140308857Y-86098428D01*
X140251714Y-86069857D01*
X140223142Y-86041285D01*
X140194571Y-85984142D01*
X140194571Y-85812714D01*
X140223142Y-85755571D01*
X140251714Y-85727000D01*
X140308857Y-85698428D01*
X140423142Y-85698428D01*
X140480285Y-85727000D01*
X140737428Y-86098428D02*
X140737428Y-85698428D01*
X140737428Y-85498428D02*
X140708857Y-85527000D01*
X140737428Y-85555571D01*
X140766000Y-85527000D01*
X140737428Y-85498428D01*
X140737428Y-85555571D01*
X141251714Y-86069857D02*
X141194571Y-86098428D01*
X141080285Y-86098428D01*
X141023142Y-86069857D01*
X140994571Y-86012714D01*
X140994571Y-85784142D01*
X141023142Y-85727000D01*
X141080285Y-85698428D01*
X141194571Y-85698428D01*
X141251714Y-85727000D01*
X141280285Y-85784142D01*
X141280285Y-85841285D01*
X140994571Y-85898428D01*
X141537428Y-85698428D02*
X141537428Y-86212714D01*
X141508857Y-86269857D01*
X141451714Y-86298428D01*
X141423142Y-86298428D01*
X141537428Y-85498428D02*
X141508857Y-85527000D01*
X141537428Y-85555571D01*
X141566000Y-85527000D01*
X141537428Y-85498428D01*
X141537428Y-85555571D01*
X142223142Y-85498428D02*
X142366000Y-86098428D01*
X142480285Y-85669857D01*
X142594571Y-86098428D01*
X142737428Y-85498428D01*
X142966000Y-86098428D02*
X142966000Y-85698428D01*
X142966000Y-85498428D02*
X142937428Y-85527000D01*
X142966000Y-85555571D01*
X142994571Y-85527000D01*
X142966000Y-85498428D01*
X142966000Y-85555571D01*
X143166000Y-85698428D02*
X143394571Y-85698428D01*
X143251714Y-85498428D02*
X143251714Y-86012714D01*
X143280285Y-86069857D01*
X143337428Y-86098428D01*
X143394571Y-86098428D01*
X143594571Y-86098428D02*
X143594571Y-85498428D01*
X143651714Y-85869857D02*
X143823142Y-86098428D01*
X143823142Y-85698428D02*
X143594571Y-85927000D01*
X144166000Y-86098428D02*
X144108857Y-86069857D01*
X144080285Y-86041285D01*
X144051714Y-85984142D01*
X144051714Y-85812714D01*
X144080285Y-85755571D01*
X144108857Y-85727000D01*
X144166000Y-85698428D01*
X144251714Y-85698428D01*
X144308857Y-85727000D01*
X144337428Y-85755571D01*
X144366000Y-85812714D01*
X144366000Y-85984142D01*
X144337428Y-86041285D01*
X144308857Y-86069857D01*
X144251714Y-86098428D01*
X144166000Y-86098428D01*
X144566000Y-85698428D02*
X144680285Y-86098428D01*
X144794571Y-85812714D01*
X144908857Y-86098428D01*
X145023142Y-85698428D01*
X145251714Y-86098428D02*
X145251714Y-85698428D01*
X145251714Y-85498428D02*
X145223142Y-85527000D01*
X145251714Y-85555571D01*
X145280285Y-85527000D01*
X145251714Y-85498428D01*
X145251714Y-85555571D01*
X145794571Y-86098428D02*
X145794571Y-85784142D01*
X145766000Y-85727000D01*
X145708857Y-85698428D01*
X145594571Y-85698428D01*
X145537428Y-85727000D01*
X145794571Y-86069857D02*
X145737428Y-86098428D01*
X145594571Y-86098428D01*
X145537428Y-86069857D01*
X145508857Y-86012714D01*
X145508857Y-85955571D01*
X145537428Y-85898428D01*
X145594571Y-85869857D01*
X145737428Y-85869857D01*
X145794571Y-85841285D01*
X146080285Y-86098428D02*
X146080285Y-85498428D01*
X146137428Y-85869857D02*
X146308857Y-86098428D01*
X146308857Y-85698428D02*
X146080285Y-85927000D01*
X147480285Y-85698428D02*
X147023142Y-85869857D01*
X147480285Y-86041285D01*
X147708857Y-85698428D02*
X147851714Y-86098428D01*
X147994571Y-85698428D02*
X147851714Y-86098428D01*
X147794571Y-86241285D01*
X147766000Y-86269857D01*
X147708857Y-86298428D01*
X148137428Y-85698428D02*
X148366000Y-85698428D01*
X148223142Y-85498428D02*
X148223142Y-86012714D01*
X148251714Y-86069857D01*
X148308857Y-86098428D01*
X148366000Y-86098428D01*
X148566000Y-86098428D02*
X148566000Y-85698428D01*
X148566000Y-85755571D02*
X148594571Y-85727000D01*
X148651714Y-85698428D01*
X148737428Y-85698428D01*
X148794571Y-85727000D01*
X148823142Y-85784142D01*
X148823142Y-86098428D01*
X148823142Y-85784142D02*
X148851714Y-85727000D01*
X148908857Y-85698428D01*
X148994571Y-85698428D01*
X149051714Y-85727000D01*
X149080285Y-85784142D01*
X149080285Y-86098428D01*
X149737428Y-85812714D02*
X149708857Y-85784142D01*
X149651714Y-85755571D01*
X149594571Y-85755571D01*
X149537428Y-85784142D01*
X149508857Y-85812714D01*
X149480285Y-85869857D01*
X149480285Y-85927000D01*
X149508857Y-85984142D01*
X149537428Y-86012714D01*
X149594571Y-86041285D01*
X149651714Y-86041285D01*
X149708857Y-86012714D01*
X149737428Y-85984142D01*
X149737428Y-85755571D02*
X149737428Y-85984142D01*
X149766000Y-86012714D01*
X149794571Y-86012714D01*
X149851714Y-85984142D01*
X149880285Y-85927000D01*
X149880285Y-85784142D01*
X149823142Y-85698428D01*
X149737428Y-85641285D01*
X149623142Y-85612714D01*
X149508857Y-85641285D01*
X149423142Y-85698428D01*
X149366000Y-85784142D01*
X149337428Y-85898428D01*
X149366000Y-86012714D01*
X149423142Y-86098428D01*
X149508857Y-86155571D01*
X149623142Y-86184142D01*
X149737428Y-86155571D01*
X149823142Y-86098428D01*
X150366000Y-86069857D02*
X150308857Y-86098428D01*
X150194571Y-86098428D01*
X150137428Y-86069857D01*
X150108857Y-86012714D01*
X150108857Y-85784142D01*
X150137428Y-85727000D01*
X150194571Y-85698428D01*
X150308857Y-85698428D01*
X150366000Y-85727000D01*
X150394571Y-85784142D01*
X150394571Y-85841285D01*
X150108857Y-85898428D01*
X150737428Y-86098428D02*
X150680285Y-86069857D01*
X150651714Y-86012714D01*
X150651714Y-85498428D01*
X150908857Y-85698428D02*
X151051714Y-86098428D01*
X151194571Y-85698428D02*
X151051714Y-86098428D01*
X150994571Y-86241285D01*
X150966000Y-86269857D01*
X150908857Y-86298428D01*
X151394571Y-86069857D02*
X151451714Y-86098428D01*
X151566000Y-86098428D01*
X151623142Y-86069857D01*
X151651714Y-86012714D01*
X151651714Y-85984142D01*
X151623142Y-85927000D01*
X151566000Y-85898428D01*
X151480285Y-85898428D01*
X151423142Y-85869857D01*
X151394571Y-85812714D01*
X151394571Y-85784142D01*
X151423142Y-85727000D01*
X151480285Y-85698428D01*
X151566000Y-85698428D01*
X151623142Y-85727000D01*
X151908857Y-86098428D02*
X151908857Y-85698428D01*
X151908857Y-85498428D02*
X151880285Y-85527000D01*
X151908857Y-85555571D01*
X151937428Y-85527000D01*
X151908857Y-85498428D01*
X151908857Y-85555571D01*
X152451714Y-85698428D02*
X152451714Y-86098428D01*
X152194571Y-85698428D02*
X152194571Y-86012714D01*
X152223142Y-86069857D01*
X152280285Y-86098428D01*
X152366000Y-86098428D01*
X152423142Y-86069857D01*
X152451714Y-86041285D01*
X152737428Y-86098428D02*
X152737428Y-85698428D01*
X152737428Y-85755571D02*
X152766000Y-85727000D01*
X152823142Y-85698428D01*
X152908857Y-85698428D01*
X152966000Y-85727000D01*
X152994571Y-85784142D01*
X152994571Y-86098428D01*
X152994571Y-85784142D02*
X153023142Y-85727000D01*
X153080285Y-85698428D01*
X153166000Y-85698428D01*
X153223142Y-85727000D01*
X153251714Y-85784142D01*
X153251714Y-86098428D01*
X153537428Y-86041285D02*
X153566000Y-86069857D01*
X153537428Y-86098428D01*
X153508857Y-86069857D01*
X153537428Y-86041285D01*
X153537428Y-86098428D01*
X153823142Y-85698428D02*
X153823142Y-86298428D01*
X153823142Y-85727000D02*
X153880285Y-85698428D01*
X153994571Y-85698428D01*
X154051714Y-85727000D01*
X154080285Y-85755571D01*
X154108857Y-85812714D01*
X154108857Y-85984142D01*
X154080285Y-86041285D01*
X154051714Y-86069857D01*
X153994571Y-86098428D01*
X153880285Y-86098428D01*
X153823142Y-86069857D01*
X154451714Y-86098428D02*
X154394571Y-86069857D01*
X154366000Y-86012714D01*
X154366000Y-85498428D01*
X154680285Y-85698428D02*
X155137428Y-85869857D01*
X154680285Y-86041285D01*
X152455857Y-109936000D02*
X152398714Y-109907428D01*
X152313000Y-109907428D01*
X152227285Y-109936000D01*
X152170142Y-109993142D01*
X152141571Y-110050285D01*
X152113000Y-110164571D01*
X152113000Y-110250285D01*
X152141571Y-110364571D01*
X152170142Y-110421714D01*
X152227285Y-110478857D01*
X152313000Y-110507428D01*
X152370142Y-110507428D01*
X152455857Y-110478857D01*
X152484428Y-110450285D01*
X152484428Y-110250285D01*
X152370142Y-110250285D01*
X152741571Y-110507428D02*
X152741571Y-109907428D01*
X153084428Y-110507428D01*
X153084428Y-109907428D01*
X153370142Y-110507428D02*
X153370142Y-109907428D01*
X153513000Y-109907428D01*
X153598714Y-109936000D01*
X153655857Y-109993142D01*
X153684428Y-110050285D01*
X153713000Y-110164571D01*
X153713000Y-110250285D01*
X153684428Y-110364571D01*
X153655857Y-110421714D01*
X153598714Y-110478857D01*
X153513000Y-110507428D01*
X153370142Y-110507428D01*
X158472833Y-76229333D02*
X158572833Y-76262666D01*
X158739500Y-76262666D01*
X158806166Y-76229333D01*
X158839500Y-76196000D01*
X158872833Y-76129333D01*
X158872833Y-76062666D01*
X158839500Y-75996000D01*
X158806166Y-75962666D01*
X158739500Y-75929333D01*
X158606166Y-75896000D01*
X158539500Y-75862666D01*
X158506166Y-75829333D01*
X158472833Y-75762666D01*
X158472833Y-75696000D01*
X158506166Y-75629333D01*
X158539500Y-75596000D01*
X158606166Y-75562666D01*
X158772833Y-75562666D01*
X158872833Y-75596000D01*
X159172833Y-76262666D02*
X159172833Y-75562666D01*
X159339500Y-75562666D01*
X159439500Y-75596000D01*
X159506166Y-75662666D01*
X159539500Y-75729333D01*
X159572833Y-75862666D01*
X159572833Y-75962666D01*
X159539500Y-76096000D01*
X159506166Y-76162666D01*
X159439500Y-76229333D01*
X159339500Y-76262666D01*
X159172833Y-76262666D01*
X159839500Y-76062666D02*
X160172833Y-76062666D01*
X159772833Y-76262666D02*
X160006166Y-75562666D01*
X160239500Y-76262666D01*
X158506166Y-70916000D02*
X159039500Y-70916000D01*
X158772833Y-71182666D02*
X158772833Y-70649333D01*
X159306166Y-70482666D02*
X159739500Y-70482666D01*
X159506166Y-70749333D01*
X159606166Y-70749333D01*
X159672833Y-70782666D01*
X159706166Y-70816000D01*
X159739500Y-70882666D01*
X159739500Y-71049333D01*
X159706166Y-71116000D01*
X159672833Y-71149333D01*
X159606166Y-71182666D01*
X159406166Y-71182666D01*
X159339500Y-71149333D01*
X159306166Y-71116000D01*
X159939500Y-70482666D02*
X160172833Y-71182666D01*
X160406166Y-70482666D01*
X160572833Y-70482666D02*
X161006166Y-70482666D01*
X160772833Y-70749333D01*
X160872833Y-70749333D01*
X160939500Y-70782666D01*
X160972833Y-70816000D01*
X161006166Y-70882666D01*
X161006166Y-71049333D01*
X160972833Y-71116000D01*
X160939500Y-71149333D01*
X160872833Y-71182666D01*
X160672833Y-71182666D01*
X160606166Y-71149333D01*
X160572833Y-71116000D01*
X158472833Y-73689333D02*
X158572833Y-73722666D01*
X158739500Y-73722666D01*
X158806166Y-73689333D01*
X158839500Y-73656000D01*
X158872833Y-73589333D01*
X158872833Y-73522666D01*
X158839500Y-73456000D01*
X158806166Y-73422666D01*
X158739500Y-73389333D01*
X158606166Y-73356000D01*
X158539500Y-73322666D01*
X158506166Y-73289333D01*
X158472833Y-73222666D01*
X158472833Y-73156000D01*
X158506166Y-73089333D01*
X158539500Y-73056000D01*
X158606166Y-73022666D01*
X158772833Y-73022666D01*
X158872833Y-73056000D01*
X159572833Y-73656000D02*
X159539500Y-73689333D01*
X159439500Y-73722666D01*
X159372833Y-73722666D01*
X159272833Y-73689333D01*
X159206166Y-73622666D01*
X159172833Y-73556000D01*
X159139500Y-73422666D01*
X159139500Y-73322666D01*
X159172833Y-73189333D01*
X159206166Y-73122666D01*
X159272833Y-73056000D01*
X159372833Y-73022666D01*
X159439500Y-73022666D01*
X159539500Y-73056000D01*
X159572833Y-73089333D01*
X160206166Y-73722666D02*
X159872833Y-73722666D01*
X159872833Y-73022666D01*
X158872833Y-67976000D02*
X158806166Y-67942666D01*
X158706166Y-67942666D01*
X158606166Y-67976000D01*
X158539500Y-68042666D01*
X158506166Y-68109333D01*
X158472833Y-68242666D01*
X158472833Y-68342666D01*
X158506166Y-68476000D01*
X158539500Y-68542666D01*
X158606166Y-68609333D01*
X158706166Y-68642666D01*
X158772833Y-68642666D01*
X158872833Y-68609333D01*
X158906166Y-68576000D01*
X158906166Y-68342666D01*
X158772833Y-68342666D01*
X159206166Y-68642666D02*
X159206166Y-67942666D01*
X159606166Y-68642666D01*
X159606166Y-67942666D01*
X159939500Y-68642666D02*
X159939500Y-67942666D01*
X160106166Y-67942666D01*
X160206166Y-67976000D01*
X160272833Y-68042666D01*
X160306166Y-68109333D01*
X160339500Y-68242666D01*
X160339500Y-68342666D01*
X160306166Y-68476000D01*
X160272833Y-68542666D01*
X160206166Y-68609333D01*
X160106166Y-68642666D01*
X159939500Y-68642666D01*
X154681571Y-110278857D02*
X155138714Y-110278857D01*
X154910142Y-110507428D02*
X154910142Y-110050285D01*
X155710142Y-109907428D02*
X155424428Y-109907428D01*
X155395857Y-110193142D01*
X155424428Y-110164571D01*
X155481571Y-110136000D01*
X155624428Y-110136000D01*
X155681571Y-110164571D01*
X155710142Y-110193142D01*
X155738714Y-110250285D01*
X155738714Y-110393142D01*
X155710142Y-110450285D01*
X155681571Y-110478857D01*
X155624428Y-110507428D01*
X155481571Y-110507428D01*
X155424428Y-110478857D01*
X155395857Y-110450285D01*
X155910142Y-109907428D02*
X156110142Y-110507428D01*
X156310142Y-109907428D01*
X117851095Y-79970380D02*
X117851095Y-80779904D01*
X117898714Y-80875142D01*
X117946333Y-80922761D01*
X118041571Y-80970380D01*
X118232047Y-80970380D01*
X118327285Y-80922761D01*
X118374904Y-80875142D01*
X118422523Y-80779904D01*
X118422523Y-79970380D01*
X119422523Y-80970380D02*
X118851095Y-80970380D01*
X119136809Y-80970380D02*
X119136809Y-79970380D01*
X119041571Y-80113238D01*
X118946333Y-80208476D01*
X118851095Y-80256095D01*
X118086142Y-76493666D02*
X118133761Y-76541285D01*
X118181380Y-76684142D01*
X118181380Y-76779380D01*
X118133761Y-76922238D01*
X118038523Y-77017476D01*
X117943285Y-77065095D01*
X117752809Y-77112714D01*
X117609952Y-77112714D01*
X117419476Y-77065095D01*
X117324238Y-77017476D01*
X117229000Y-76922238D01*
X117181380Y-76779380D01*
X117181380Y-76684142D01*
X117229000Y-76541285D01*
X117276619Y-76493666D01*
X118181380Y-75541285D02*
X118181380Y-76112714D01*
X118181380Y-75827000D02*
X117181380Y-75827000D01*
X117324238Y-75922238D01*
X117419476Y-76017476D01*
X117467095Y-76112714D01*
X137020380Y-71540666D02*
X136544190Y-71874000D01*
X137020380Y-72112095D02*
X136020380Y-72112095D01*
X136020380Y-71731142D01*
X136068000Y-71635904D01*
X136115619Y-71588285D01*
X136210857Y-71540666D01*
X136353714Y-71540666D01*
X136448952Y-71588285D01*
X136496571Y-71635904D01*
X136544190Y-71731142D01*
X136544190Y-72112095D01*
X137020380Y-70588285D02*
X137020380Y-71159714D01*
X137020380Y-70874000D02*
X136020380Y-70874000D01*
X136163238Y-70969238D01*
X136258476Y-71064476D01*
X136306095Y-71159714D01*
X134112095Y-112482380D02*
X134112095Y-113291904D01*
X134159714Y-113387142D01*
X134207333Y-113434761D01*
X134302571Y-113482380D01*
X134493047Y-113482380D01*
X134588285Y-113434761D01*
X134635904Y-113387142D01*
X134683523Y-113291904D01*
X134683523Y-112482380D01*
X135112095Y-112577619D02*
X135159714Y-112530000D01*
X135254952Y-112482380D01*
X135493047Y-112482380D01*
X135588285Y-112530000D01*
X135635904Y-112577619D01*
X135683523Y-112672857D01*
X135683523Y-112768095D01*
X135635904Y-112910952D01*
X135064476Y-113482380D01*
X135683523Y-113482380D01*
X156130666Y-65575380D02*
X156130666Y-66289666D01*
X156083047Y-66432523D01*
X155987809Y-66527761D01*
X155844952Y-66575380D01*
X155749714Y-66575380D01*
X156511619Y-65575380D02*
X157130666Y-65575380D01*
X156797333Y-65956333D01*
X156940190Y-65956333D01*
X157035428Y-66003952D01*
X157083047Y-66051571D01*
X157130666Y-66146809D01*
X157130666Y-66384904D01*
X157083047Y-66480142D01*
X157035428Y-66527761D01*
X156940190Y-66575380D01*
X156654476Y-66575380D01*
X156559238Y-66527761D01*
X156511619Y-66480142D01*
X132310142Y-91606666D02*
X132357761Y-91654285D01*
X132405380Y-91797142D01*
X132405380Y-91892380D01*
X132357761Y-92035238D01*
X132262523Y-92130476D01*
X132167285Y-92178095D01*
X131976809Y-92225714D01*
X131833952Y-92225714D01*
X131643476Y-92178095D01*
X131548238Y-92130476D01*
X131453000Y-92035238D01*
X131405380Y-91892380D01*
X131405380Y-91797142D01*
X131453000Y-91654285D01*
X131500619Y-91606666D01*
X131500619Y-91225714D02*
X131453000Y-91178095D01*
X131405380Y-91082857D01*
X131405380Y-90844761D01*
X131453000Y-90749523D01*
X131500619Y-90701904D01*
X131595857Y-90654285D01*
X131691095Y-90654285D01*
X131833952Y-90701904D01*
X132405380Y-91273333D01*
X132405380Y-90654285D01*
X140366761Y-77255619D02*
X140271523Y-77208000D01*
X140176285Y-77112761D01*
X140033428Y-76969904D01*
X139938190Y-76922285D01*
X139842952Y-76922285D01*
X139890571Y-77160380D02*
X139795333Y-77112761D01*
X139700095Y-77017523D01*
X139652476Y-76827047D01*
X139652476Y-76493714D01*
X139700095Y-76303238D01*
X139795333Y-76208000D01*
X139890571Y-76160380D01*
X140081047Y-76160380D01*
X140176285Y-76208000D01*
X140271523Y-76303238D01*
X140319142Y-76493714D01*
X140319142Y-76827047D01*
X140271523Y-77017523D01*
X140176285Y-77112761D01*
X140081047Y-77160380D01*
X139890571Y-77160380D01*
X141271523Y-77160380D02*
X140700095Y-77160380D01*
X140985809Y-77160380D02*
X140985809Y-76160380D01*
X140890571Y-76303238D01*
X140795333Y-76398476D01*
X140700095Y-76446095D01*
D11*
X148865166Y-98975333D02*
X149584833Y-98975333D01*
X149669500Y-98933000D01*
X149711833Y-98890666D01*
X149754166Y-98806000D01*
X149754166Y-98636666D01*
X149711833Y-98552000D01*
X149669500Y-98509666D01*
X149584833Y-98467333D01*
X148865166Y-98467333D01*
X148865166Y-98128666D02*
X148865166Y-97578333D01*
X149203833Y-97874666D01*
X149203833Y-97747666D01*
X149246166Y-97663000D01*
X149288500Y-97620666D01*
X149373166Y-97578333D01*
X149584833Y-97578333D01*
X149669500Y-97620666D01*
X149711833Y-97663000D01*
X149754166Y-97747666D01*
X149754166Y-98001666D01*
X149711833Y-98086333D01*
X149669500Y-98128666D01*
D10*
X151939619Y-96774190D02*
X150939619Y-97440857D01*
X151939619Y-97440857D02*
X150939619Y-96774190D01*
X150939619Y-97821809D02*
X151939619Y-97821809D01*
X151225333Y-98250380D02*
X151225333Y-98726571D01*
X150939619Y-98155142D02*
X151939619Y-98488476D01*
X150939619Y-98821809D01*
X151939619Y-99345619D02*
X151939619Y-99536095D01*
X151892000Y-99631333D01*
X151796761Y-99726571D01*
X151606285Y-99774190D01*
X151272952Y-99774190D01*
X151082476Y-99726571D01*
X150987238Y-99631333D01*
X150939619Y-99536095D01*
X150939619Y-99345619D01*
X150987238Y-99250380D01*
X151082476Y-99155142D01*
X151272952Y-99107523D01*
X151606285Y-99107523D01*
X151796761Y-99155142D01*
X151892000Y-99250380D01*
X151939619Y-99345619D01*
X152987238Y-93536095D02*
X152939619Y-93678952D01*
X152939619Y-93917047D01*
X152987238Y-94012285D01*
X153034857Y-94059904D01*
X153130095Y-94107523D01*
X153225333Y-94107523D01*
X153320571Y-94059904D01*
X153368190Y-94012285D01*
X153415809Y-93917047D01*
X153463428Y-93726571D01*
X153511047Y-93631333D01*
X153558666Y-93583714D01*
X153653904Y-93536095D01*
X153749142Y-93536095D01*
X153844380Y-93583714D01*
X153892000Y-93631333D01*
X153939619Y-93726571D01*
X153939619Y-93964666D01*
X153892000Y-94107523D01*
X152987238Y-94917047D02*
X152939619Y-94821809D01*
X152939619Y-94631333D01*
X152987238Y-94536095D01*
X153082476Y-94488476D01*
X153463428Y-94488476D01*
X153558666Y-94536095D01*
X153606285Y-94631333D01*
X153606285Y-94821809D01*
X153558666Y-94917047D01*
X153463428Y-94964666D01*
X153368190Y-94964666D01*
X153272952Y-94488476D01*
X152987238Y-95774190D02*
X152939619Y-95678952D01*
X152939619Y-95488476D01*
X152987238Y-95393238D01*
X153082476Y-95345619D01*
X153463428Y-95345619D01*
X153558666Y-95393238D01*
X153606285Y-95488476D01*
X153606285Y-95678952D01*
X153558666Y-95774190D01*
X153463428Y-95821809D01*
X153368190Y-95821809D01*
X153272952Y-95345619D01*
X152987238Y-96631333D02*
X152939619Y-96536095D01*
X152939619Y-96345619D01*
X152987238Y-96250380D01*
X153082476Y-96202761D01*
X153463428Y-96202761D01*
X153558666Y-96250380D01*
X153606285Y-96345619D01*
X153606285Y-96536095D01*
X153558666Y-96631333D01*
X153463428Y-96678952D01*
X153368190Y-96678952D01*
X153272952Y-96202761D01*
X152939619Y-97536095D02*
X153939619Y-97536095D01*
X152987238Y-97536095D02*
X152939619Y-97440857D01*
X152939619Y-97250380D01*
X152987238Y-97155142D01*
X153034857Y-97107523D01*
X153130095Y-97059904D01*
X153415809Y-97059904D01*
X153511047Y-97107523D01*
X153558666Y-97155142D01*
X153606285Y-97250380D01*
X153606285Y-97440857D01*
X153558666Y-97536095D01*
X152987238Y-98726571D02*
X152939619Y-98869428D01*
X152939619Y-99107523D01*
X152987238Y-99202761D01*
X153034857Y-99250380D01*
X153130095Y-99298000D01*
X153225333Y-99298000D01*
X153320571Y-99250380D01*
X153368190Y-99202761D01*
X153415809Y-99107523D01*
X153463428Y-98917047D01*
X153511047Y-98821809D01*
X153558666Y-98774190D01*
X153653904Y-98726571D01*
X153749142Y-98726571D01*
X153844380Y-98774190D01*
X153892000Y-98821809D01*
X153939619Y-98917047D01*
X153939619Y-99155142D01*
X153892000Y-99298000D01*
X153606285Y-99583714D02*
X153606285Y-99964666D01*
X153939619Y-99726571D02*
X153082476Y-99726571D01*
X152987238Y-99774190D01*
X152939619Y-99869428D01*
X152939619Y-99964666D01*
X153606285Y-100726571D02*
X152939619Y-100726571D01*
X153606285Y-100298000D02*
X153082476Y-100298000D01*
X152987238Y-100345619D01*
X152939619Y-100440857D01*
X152939619Y-100583714D01*
X152987238Y-100678952D01*
X153034857Y-100726571D01*
X152939619Y-101631333D02*
X153939619Y-101631333D01*
X152987238Y-101631333D02*
X152939619Y-101536095D01*
X152939619Y-101345619D01*
X152987238Y-101250380D01*
X153034857Y-101202761D01*
X153130095Y-101155142D01*
X153415809Y-101155142D01*
X153511047Y-101202761D01*
X153558666Y-101250380D01*
X153606285Y-101345619D01*
X153606285Y-101536095D01*
X153558666Y-101631333D01*
X152939619Y-102107523D02*
X153606285Y-102107523D01*
X153939619Y-102107523D02*
X153892000Y-102059904D01*
X153844380Y-102107523D01*
X153892000Y-102155142D01*
X153939619Y-102107523D01*
X153844380Y-102107523D01*
X152939619Y-102726571D02*
X152987238Y-102631333D01*
X153034857Y-102583714D01*
X153130095Y-102536095D01*
X153415809Y-102536095D01*
X153511047Y-102583714D01*
X153558666Y-102631333D01*
X153606285Y-102726571D01*
X153606285Y-102869428D01*
X153558666Y-102964666D01*
X153511047Y-103012285D01*
X153415809Y-103059904D01*
X153130095Y-103059904D01*
X153034857Y-103012285D01*
X152987238Y-102964666D01*
X152939619Y-102869428D01*
X152939619Y-102726571D01*
D12*
X109663000Y-78351000D02*
X109663000Y-114151000D01*
X127563000Y-78351000D02*
X109663000Y-78351000D01*
X112153000Y-114091000D02*
X125073000Y-114091000D01*
X117613000Y-78411000D02*
X112153000Y-78411000D01*
X125073000Y-114091000D02*
X125073000Y-78411000D01*
X112153000Y-78411000D02*
X112153000Y-114091000D01*
X125073000Y-78411000D02*
X119613000Y-78411000D01*
X127563000Y-114151000D02*
X127563000Y-78351000D01*
X109663000Y-114151000D02*
X127563000Y-114151000D01*
X117613000Y-78411000D02*
G75*
G03*
X119613000Y-78411000I1000000J0D01*
G01*
X112268000Y-117916000D02*
X112268000Y-115256000D01*
X109668000Y-117916000D02*
X109668000Y-116586000D01*
X112268000Y-117916000D02*
X160588000Y-117916000D01*
X160588000Y-117916000D02*
X160588000Y-115256000D01*
X112268000Y-115256000D02*
X160588000Y-115256000D01*
X110998000Y-117916000D02*
X109668000Y-117916000D01*
X108518000Y-116586000D02*
X108518000Y-117916000D01*
X105858000Y-115316000D02*
X105858000Y-66996000D01*
X108518000Y-66996000D02*
X105858000Y-66996000D01*
X108518000Y-115316000D02*
X108518000Y-66996000D01*
X108518000Y-117916000D02*
X107188000Y-117916000D01*
X108518000Y-115316000D02*
X105858000Y-115316000D01*
X111014000Y-75384000D02*
X111014000Y-75399000D01*
X115554000Y-77509000D02*
X115554000Y-77524000D01*
X115554000Y-75384000D02*
X115554000Y-75399000D01*
X111014000Y-75384000D02*
X115554000Y-75384000D01*
X111014000Y-77524000D02*
X115554000Y-77524000D01*
X111014000Y-77509000D02*
X111014000Y-77524000D01*
X137898000Y-74644000D02*
X137568000Y-74644000D01*
X137568000Y-74644000D02*
X137568000Y-68104000D01*
X139978000Y-74644000D02*
X140308000Y-74644000D01*
X140308000Y-68104000D02*
X139978000Y-68104000D01*
X137568000Y-68104000D02*
X137898000Y-68104000D01*
X140308000Y-74644000D02*
X140308000Y-68104000D01*
X137534000Y-93656000D02*
X135884000Y-93656000D01*
X129744000Y-114156000D02*
X140024000Y-114156000D01*
X133884000Y-93656000D02*
X132234000Y-93656000D01*
X129744000Y-93596000D02*
X129744000Y-114156000D01*
X132234000Y-114096000D02*
X137534000Y-114096000D01*
X137534000Y-114096000D02*
X137534000Y-93656000D01*
X132234000Y-93656000D02*
X132234000Y-114096000D01*
X140024000Y-93596000D02*
X129744000Y-93596000D01*
X140024000Y-114156000D02*
X140024000Y-93596000D01*
X133884000Y-93656000D02*
G75*
G03*
X135884000Y-93656000I1000000J0D01*
G01*
X155134000Y-69723000D02*
X157794000Y-69723000D01*
X155134000Y-67123000D02*
X156464000Y-67123000D01*
X155134000Y-68453000D02*
X155134000Y-67123000D01*
X155134000Y-69723000D02*
X155134000Y-77403000D01*
X155134000Y-77403000D02*
X157794000Y-77403000D01*
X157794000Y-69723000D02*
X157794000Y-77403000D01*
X134128000Y-90385000D02*
X134128000Y-90370000D01*
X138668000Y-90370000D02*
X134128000Y-90370000D01*
X138668000Y-92510000D02*
X138668000Y-92495000D01*
X134128000Y-92510000D02*
X134128000Y-92495000D01*
X138668000Y-90385000D02*
X138668000Y-90370000D01*
X138668000Y-92510000D02*
X134128000Y-92510000D01*
X136884000Y-82093000D02*
X140484000Y-82093000D01*
X138684000Y-77642999D02*
G75*
G03*
X136845522Y-82081478I0J-2600001D01*
G01*
X140522478Y-82081478D02*
G75*
G03*
X138684000Y-77643000I-1838478J1838478D01*
G01*
D13*
X160502473Y-89413333D02*
X160551494Y-89417397D01*
X160453705Y-89410285D01*
X160502473Y-89413333D01*
X143370426Y-107187492D02*
X143321150Y-107185713D01*
X143272382Y-107182665D01*
X143223361Y-107178601D01*
X143174593Y-107173268D01*
X143125825Y-107166664D01*
X143077310Y-107159044D01*
X143029050Y-107150153D01*
X142981045Y-107140248D01*
X143370426Y-107187492D01*
D14*
X160819000Y-87298000D02*
G75*
G03*
X160819000Y-87298000I-127000J0D01*
G01*
D12*
X162392000Y-91398000D02*
G75*
G03*
X160392000Y-89398000I-2044612J-44612D01*
G01*
X143392000Y-89398000D02*
G75*
G03*
X141392000Y-91398000I44857J-2044857D01*
G01*
X141392000Y-105198000D02*
G75*
G03*
X143392000Y-107198000I2000000J0D01*
G01*
X160392000Y-107198000D02*
G75*
G03*
X162392000Y-105198000I-44600J2044600D01*
G01*
D15*
X143392000Y-107198000D02*
X160392000Y-107198000D01*
X156462730Y-93798000D02*
X163816030Y-93798000D01*
X162391090Y-105198000D02*
X162391090Y-91398000D01*
X156462730Y-102798000D02*
X156462730Y-93798000D01*
X163816030Y-102798000D02*
X156462730Y-102798000D01*
X163816030Y-93798000D02*
X163816030Y-102798000D01*
X160392000Y-89398000D02*
X143392000Y-89398000D01*
X141392000Y-91398000D02*
X141392000Y-105198000D01*
D12*
X151583000Y-110684000D02*
X151583000Y-113344000D01*
X156783000Y-110684000D02*
X156783000Y-112014000D01*
X154183000Y-110684000D02*
X154183000Y-113344000D01*
X155453000Y-110684000D02*
X156783000Y-110684000D01*
X154183000Y-110684000D02*
X151583000Y-110684000D01*
X154183000Y-113344000D02*
X151583000Y-113344000D01*
%LPC*%
D16*
X110993000Y-79741000D03*
D17*
X110993000Y-82281000D03*
X110993000Y-84821000D03*
X110993000Y-87361000D03*
X110993000Y-89901000D03*
X110993000Y-92441000D03*
X110993000Y-94981000D03*
X110993000Y-97521000D03*
X110993000Y-100061000D03*
X110993000Y-102601000D03*
X110993000Y-105141000D03*
X110993000Y-107681000D03*
X110993000Y-110221000D03*
X110993000Y-112761000D03*
X126233000Y-112761000D03*
X126233000Y-110221000D03*
X126233000Y-107681000D03*
X126233000Y-105141000D03*
X126233000Y-102601000D03*
X126233000Y-100061000D03*
X126233000Y-97521000D03*
X126233000Y-94981000D03*
X126233000Y-92441000D03*
X126233000Y-89901000D03*
X126233000Y-87361000D03*
X126233000Y-84821000D03*
X126233000Y-82281000D03*
X126233000Y-79741000D03*
D18*
X159258000Y-116586000D03*
X156718000Y-116586000D03*
X154178000Y-116586000D03*
X151638000Y-116586000D03*
X149098000Y-116586000D03*
X146558000Y-116586000D03*
X144018000Y-116586000D03*
X141478000Y-116586000D03*
X138938000Y-116586000D03*
X136398000Y-116586000D03*
X133858000Y-116586000D03*
X131318000Y-116586000D03*
X128778000Y-116586000D03*
X126238000Y-116586000D03*
X123698000Y-116586000D03*
X121158000Y-116586000D03*
X118618000Y-116586000D03*
X116078000Y-116586000D03*
X113538000Y-116586000D03*
D19*
X110998000Y-116586000D03*
X107188000Y-116586000D03*
D18*
X107188000Y-114046000D03*
X107188000Y-111506000D03*
X107188000Y-108966000D03*
X107188000Y-106426000D03*
X107188000Y-103886000D03*
X107188000Y-101346000D03*
X107188000Y-98806000D03*
X107188000Y-96266000D03*
X107188000Y-93726000D03*
X107188000Y-91186000D03*
X107188000Y-88646000D03*
X107188000Y-86106000D03*
X107188000Y-83566000D03*
X107188000Y-81026000D03*
X107188000Y-78486000D03*
X107188000Y-75946000D03*
X107188000Y-73406000D03*
X107188000Y-70866000D03*
X107188000Y-68326000D03*
D20*
X110784000Y-76454000D03*
X115784000Y-76454000D03*
X138938000Y-75184000D03*
D17*
X138938000Y-67564000D03*
D16*
X131074000Y-94986000D03*
D17*
X131074000Y-97526000D03*
X131074000Y-100066000D03*
X131074000Y-102606000D03*
X131074000Y-105146000D03*
X131074000Y-107686000D03*
X131074000Y-110226000D03*
X131074000Y-112766000D03*
X138694000Y-112766000D03*
X138694000Y-110226000D03*
X138694000Y-107686000D03*
X138694000Y-105146000D03*
X138694000Y-102606000D03*
X138694000Y-100066000D03*
X138694000Y-97526000D03*
X138694000Y-94986000D03*
D19*
X156464000Y-68453000D03*
D18*
X156464000Y-70993000D03*
X156464000Y-73533000D03*
X156464000Y-76073000D03*
D20*
X138898000Y-91440000D03*
X133898000Y-91440000D03*
D21*
X137414000Y-80243000D03*
D22*
X138684000Y-80243000D03*
X139954000Y-80243000D03*
D23*
X159512000Y-106923000D03*
X156972000Y-106923000D03*
X154432000Y-106923000D03*
X151892000Y-106923000D03*
D24*
X149352000Y-106923000D03*
X146812000Y-106923000D03*
X144272000Y-106923000D03*
X144272000Y-89673000D03*
X146812000Y-89673000D03*
X149352000Y-89673000D03*
X151892000Y-89673000D03*
X154432000Y-89673000D03*
X156972000Y-89673000D03*
D25*
X159512000Y-89673000D03*
D26*
X121920000Y-70486000D03*
X123086726Y-70969274D03*
X123570000Y-72136000D03*
D27*
X121920000Y-72136000D03*
D26*
X123086726Y-73302726D03*
X121920000Y-73786000D03*
X120753274Y-70969274D03*
X120753274Y-73302726D03*
X120270000Y-72136000D03*
X149756726Y-70969274D03*
X147423274Y-73302726D03*
X148590000Y-70486000D03*
X148590000Y-73786000D03*
X146940000Y-72136000D03*
X147423274Y-70969274D03*
X149756726Y-73302726D03*
X150240000Y-72136000D03*
D27*
X148590000Y-72136000D03*
D19*
X155453000Y-112014000D03*
D18*
X152913000Y-112014000D03*
M02*
