%TF.GenerationSoftware,KiCad,Pcbnew,(6.0.11)*%
%TF.CreationDate,2024-10-09T23:18:14+02:00*%
%TF.ProjectId,kicad-c128keyb,6b696361-642d-4633-9132-386b6579622e,rev?*%
%TF.SameCoordinates,Original*%
%TF.FileFunction,Drillmap*%
%TF.FilePolarity,Positive*%
%FSLAX45Y45*%
G04 Gerber Fmt 4.5, Leading zero omitted, Abs format (unit mm)*
G04 Created by KiCad (PCBNEW (6.0.11)) date 2024-10-09 23:18:14*
%MOMM*%
%LPD*%
G01*
G04 APERTURE LIST*
%ADD10C,0.050000*%
%ADD11C,0.200000*%
%ADD12C,0.040000*%
%ADD13C,0.075000*%
%ADD14C,0.080000*%
%ADD15C,0.100000*%
%ADD16C,0.220000*%
G04 APERTURE END LIST*
D10*
X16131159Y-11906831D02*
X10464800Y-11906831D01*
X10464800Y-11906831D02*
X10464800Y-6502400D01*
X10464800Y-6502400D02*
X16131159Y-6502400D01*
X16131159Y-6502400D02*
X16131159Y-11906831D01*
D11*
D12*
X11382550Y-9060820D02*
X11422550Y-9100820D01*
X11422550Y-9060820D02*
X11382550Y-9100820D01*
X11392970Y-10271590D02*
X11432970Y-10311590D01*
X11432970Y-10271590D02*
X11392970Y-10311590D01*
X11500790Y-11405150D02*
X11540790Y-11445150D01*
X11540790Y-11405150D02*
X11500790Y-11445150D01*
X11590180Y-10676850D02*
X11630180Y-10716850D01*
X11630180Y-10676850D02*
X11590180Y-10716850D01*
X11630310Y-8282710D02*
X11670310Y-8322710D01*
X11670310Y-8282710D02*
X11630310Y-8322710D01*
X11800390Y-11323520D02*
X11840390Y-11363520D01*
X11840390Y-11323520D02*
X11800390Y-11363520D01*
X11821850Y-9732100D02*
X11861850Y-9772100D01*
X11861850Y-9732100D02*
X11821850Y-9772100D01*
X11867110Y-11018440D02*
X11907110Y-11058440D01*
X11907110Y-11018440D02*
X11867110Y-11058440D01*
X11883510Y-10046980D02*
X11923510Y-10086980D01*
X11923510Y-10046980D02*
X11883510Y-10086980D01*
X11939740Y-9836100D02*
X11979740Y-9876100D01*
X11979740Y-9836100D02*
X11939740Y-9876100D01*
X12047630Y-8854590D02*
X12087630Y-8894590D01*
X12087630Y-8854590D02*
X12047630Y-8894590D01*
X12071420Y-8444970D02*
X12111420Y-8484970D01*
X12111420Y-8444970D02*
X12071420Y-8484970D01*
X12117050Y-10091900D02*
X12157050Y-10131900D01*
X12157050Y-10091900D02*
X12117050Y-10131900D01*
X12195510Y-8492780D02*
X12235510Y-8532780D01*
X12235510Y-8492780D02*
X12195510Y-8532780D01*
X12338140Y-10106180D02*
X12378140Y-10146180D01*
X12378140Y-10106180D02*
X12338140Y-10146180D01*
X12390150Y-11309000D02*
X12430150Y-11349000D01*
X12430150Y-11309000D02*
X12390150Y-11349000D01*
X12481300Y-10087340D02*
X12521300Y-10127340D01*
X12521300Y-10087340D02*
X12481300Y-10127340D01*
X12783770Y-9822440D02*
X12823770Y-9862440D01*
X12823770Y-9822440D02*
X12783770Y-9862440D01*
X12835630Y-10494100D02*
X12875630Y-10534100D01*
X12875630Y-10494100D02*
X12835630Y-10534100D01*
X12845510Y-11116020D02*
X12885510Y-11156020D01*
X12885510Y-11116020D02*
X12845510Y-11156020D01*
X12884610Y-8850230D02*
X12924610Y-8890230D01*
X12924610Y-8850230D02*
X12884610Y-8890230D01*
X12949680Y-11477840D02*
X12989680Y-11517840D01*
X12989680Y-11477840D02*
X12949680Y-11517840D01*
X13231800Y-10984050D02*
X13271800Y-11024050D01*
X13271800Y-10984050D02*
X13231800Y-11024050D01*
X13344530Y-11165090D02*
X13384530Y-11205090D01*
X13384530Y-11165090D02*
X13344530Y-11205090D01*
X13423080Y-9605250D02*
X13463080Y-9645250D01*
X13463080Y-9605250D02*
X13423080Y-9645250D01*
X13521650Y-11092400D02*
X13561650Y-11132400D01*
X13561650Y-11092400D02*
X13521650Y-11132400D01*
X13534570Y-10184430D02*
X13574570Y-10224430D01*
X13574570Y-10184430D02*
X13534570Y-10224430D01*
X13686510Y-10875810D02*
X13726510Y-10915810D01*
X13726510Y-10875810D02*
X13686510Y-10915810D01*
X13734460Y-10111660D02*
X13774460Y-10151660D01*
X13774460Y-10111660D02*
X13734460Y-10151660D01*
X14113390Y-10502000D02*
X14153390Y-10542000D01*
X14153390Y-10502000D02*
X14113390Y-10542000D01*
X14480260Y-10147940D02*
X14520260Y-10187940D01*
X14520260Y-10147940D02*
X14480260Y-10187940D01*
X14556750Y-9974340D02*
X14596750Y-10014340D01*
X14596750Y-9974340D02*
X14556750Y-10014340D01*
X14621330Y-9461650D02*
X14661330Y-9501650D01*
X14661330Y-9461650D02*
X14621330Y-9501650D01*
X14646610Y-9765770D02*
X14686610Y-9805770D01*
X14686610Y-9765770D02*
X14646610Y-9805770D01*
X12047000Y-7213600D02*
G75*
G03*
X12047000Y-7213600I-20000J0D01*
G01*
X12095327Y-7096927D02*
G75*
G03*
X12095327Y-7096927I-20000J0D01*
G01*
X12095327Y-7330273D02*
G75*
G03*
X12095327Y-7330273I-20000J0D01*
G01*
X12212000Y-7048600D02*
G75*
G03*
X12212000Y-7048600I-20000J0D01*
G01*
X12212000Y-7378600D02*
G75*
G03*
X12212000Y-7378600I-20000J0D01*
G01*
X12328673Y-7096927D02*
G75*
G03*
X12328673Y-7096927I-20000J0D01*
G01*
X12328673Y-7330273D02*
G75*
G03*
X12328673Y-7330273I-20000J0D01*
G01*
X12377000Y-7213600D02*
G75*
G03*
X12377000Y-7213600I-20000J0D01*
G01*
X14714000Y-7213600D02*
G75*
G03*
X14714000Y-7213600I-20000J0D01*
G01*
X14762327Y-7096927D02*
G75*
G03*
X14762327Y-7096927I-20000J0D01*
G01*
X14762327Y-7330273D02*
G75*
G03*
X14762327Y-7330273I-20000J0D01*
G01*
X14879000Y-7048600D02*
G75*
G03*
X14879000Y-7048600I-20000J0D01*
G01*
X14879000Y-7378600D02*
G75*
G03*
X14879000Y-7378600I-20000J0D01*
G01*
X14995673Y-7096927D02*
G75*
G03*
X14995673Y-7096927I-20000J0D01*
G01*
X14995673Y-7330273D02*
G75*
G03*
X14995673Y-7330273I-20000J0D01*
G01*
X15044000Y-7213600D02*
G75*
G03*
X15044000Y-7213600I-20000J0D01*
G01*
D13*
X13741400Y-7986800D02*
X13741400Y-8061800D01*
X13703900Y-8024300D02*
X13778900Y-8024300D01*
X13868400Y-7986800D02*
X13868400Y-8061800D01*
X13830900Y-8024300D02*
X13905900Y-8024300D01*
X13995400Y-7986800D02*
X13995400Y-8061800D01*
X13957900Y-8024300D02*
X14032900Y-8024300D01*
D14*
X11106685Y-7673684D02*
X11106685Y-7617115D01*
X11050116Y-7617115D01*
X11050116Y-7673684D01*
X11106685Y-7673684D01*
X11127585Y-8002384D02*
X11127585Y-7945815D01*
X11071016Y-7945815D01*
X11071016Y-8002384D01*
X11127585Y-8002384D01*
X11127585Y-8256384D02*
X11127585Y-8199815D01*
X11071016Y-8199815D01*
X11071016Y-8256384D01*
X11127585Y-8256384D01*
X11127585Y-8510385D02*
X11127585Y-8453816D01*
X11071016Y-8453816D01*
X11071016Y-8510385D01*
X11127585Y-8510385D01*
X11127585Y-8764385D02*
X11127585Y-8707816D01*
X11071016Y-8707816D01*
X11071016Y-8764385D01*
X11127585Y-8764385D01*
X11127585Y-9018385D02*
X11127585Y-8961816D01*
X11071016Y-8961816D01*
X11071016Y-9018385D01*
X11127585Y-9018385D01*
X11127585Y-9272385D02*
X11127585Y-9215816D01*
X11071016Y-9215816D01*
X11071016Y-9272385D01*
X11127585Y-9272385D01*
X11127585Y-9526385D02*
X11127585Y-9469816D01*
X11071016Y-9469816D01*
X11071016Y-9526385D01*
X11127585Y-9526385D01*
X11127585Y-9780385D02*
X11127585Y-9723816D01*
X11071016Y-9723816D01*
X11071016Y-9780385D01*
X11127585Y-9780385D01*
X11127585Y-10034385D02*
X11127585Y-9977816D01*
X11071016Y-9977816D01*
X11071016Y-10034385D01*
X11127585Y-10034385D01*
X11127585Y-10288385D02*
X11127585Y-10231816D01*
X11071016Y-10231816D01*
X11071016Y-10288385D01*
X11127585Y-10288385D01*
X11127585Y-10542385D02*
X11127585Y-10485816D01*
X11071016Y-10485816D01*
X11071016Y-10542385D01*
X11127585Y-10542385D01*
X11127585Y-10796385D02*
X11127585Y-10739816D01*
X11071016Y-10739816D01*
X11071016Y-10796385D01*
X11127585Y-10796385D01*
X11127585Y-11050385D02*
X11127585Y-10993816D01*
X11071016Y-10993816D01*
X11071016Y-11050385D01*
X11127585Y-11050385D01*
X11127585Y-11304384D02*
X11127585Y-11247815D01*
X11071016Y-11247815D01*
X11071016Y-11304384D01*
X11127585Y-11304384D01*
X11606684Y-7673684D02*
X11606684Y-7617115D01*
X11550115Y-7617115D01*
X11550115Y-7673684D01*
X11606684Y-7673684D01*
X12651584Y-8002384D02*
X12651584Y-7945815D01*
X12595015Y-7945815D01*
X12595015Y-8002384D01*
X12651584Y-8002384D01*
X12651584Y-8256384D02*
X12651584Y-8199815D01*
X12595015Y-8199815D01*
X12595015Y-8256384D01*
X12651584Y-8256384D01*
X12651584Y-8510385D02*
X12651584Y-8453816D01*
X12595015Y-8453816D01*
X12595015Y-8510385D01*
X12651584Y-8510385D01*
X12651584Y-8764385D02*
X12651584Y-8707816D01*
X12595015Y-8707816D01*
X12595015Y-8764385D01*
X12651584Y-8764385D01*
X12651584Y-9018385D02*
X12651584Y-8961816D01*
X12595015Y-8961816D01*
X12595015Y-9018385D01*
X12651584Y-9018385D01*
X12651584Y-9272385D02*
X12651584Y-9215816D01*
X12595015Y-9215816D01*
X12595015Y-9272385D01*
X12651584Y-9272385D01*
X12651584Y-9526385D02*
X12651584Y-9469816D01*
X12595015Y-9469816D01*
X12595015Y-9526385D01*
X12651584Y-9526385D01*
X12651584Y-9780385D02*
X12651584Y-9723816D01*
X12595015Y-9723816D01*
X12595015Y-9780385D01*
X12651584Y-9780385D01*
X12651584Y-10034385D02*
X12651584Y-9977816D01*
X12595015Y-9977816D01*
X12595015Y-10034385D01*
X12651584Y-10034385D01*
X12651584Y-10288385D02*
X12651584Y-10231816D01*
X12595015Y-10231816D01*
X12595015Y-10288385D01*
X12651584Y-10288385D01*
X12651584Y-10542385D02*
X12651584Y-10485816D01*
X12595015Y-10485816D01*
X12595015Y-10542385D01*
X12651584Y-10542385D01*
X12651584Y-10796385D02*
X12651584Y-10739816D01*
X12595015Y-10739816D01*
X12595015Y-10796385D01*
X12651584Y-10796385D01*
X12651584Y-11050385D02*
X12651584Y-10993816D01*
X12595015Y-10993816D01*
X12595015Y-11050385D01*
X12651584Y-11050385D01*
X12651584Y-11304384D02*
X12651584Y-11247815D01*
X12595015Y-11247815D01*
X12595015Y-11304384D01*
X12651584Y-11304384D01*
X13135684Y-9526885D02*
X13135684Y-9470316D01*
X13079115Y-9470316D01*
X13079115Y-9526885D01*
X13135684Y-9526885D01*
X13135684Y-9780885D02*
X13135684Y-9724316D01*
X13079115Y-9724316D01*
X13079115Y-9780885D01*
X13135684Y-9780885D01*
X13135684Y-10034885D02*
X13135684Y-9978316D01*
X13079115Y-9978316D01*
X13079115Y-10034885D01*
X13135684Y-10034885D01*
X13135684Y-10288885D02*
X13135684Y-10232316D01*
X13079115Y-10232316D01*
X13079115Y-10288885D01*
X13135684Y-10288885D01*
X13135684Y-10542885D02*
X13135684Y-10486316D01*
X13079115Y-10486316D01*
X13079115Y-10542885D01*
X13135684Y-10542885D01*
X13135684Y-10796885D02*
X13135684Y-10740316D01*
X13079115Y-10740316D01*
X13079115Y-10796885D01*
X13135684Y-10796885D01*
X13135684Y-11050885D02*
X13135684Y-10994316D01*
X13079115Y-10994316D01*
X13079115Y-11050885D01*
X13135684Y-11050885D01*
X13135684Y-11304884D02*
X13135684Y-11248315D01*
X13079115Y-11248315D01*
X13079115Y-11304884D01*
X13135684Y-11304884D01*
X13418084Y-9172285D02*
X13418084Y-9115716D01*
X13361515Y-9115716D01*
X13361515Y-9172285D01*
X13418084Y-9172285D01*
X13897684Y-9526885D02*
X13897684Y-9470316D01*
X13841115Y-9470316D01*
X13841115Y-9526885D01*
X13897684Y-9526885D01*
X13897684Y-9780885D02*
X13897684Y-9724316D01*
X13841115Y-9724316D01*
X13841115Y-9780885D01*
X13897684Y-9780885D01*
X13897684Y-10034885D02*
X13897684Y-9978316D01*
X13841115Y-9978316D01*
X13841115Y-10034885D01*
X13897684Y-10034885D01*
X13897684Y-10288885D02*
X13897684Y-10232316D01*
X13841115Y-10232316D01*
X13841115Y-10288885D01*
X13897684Y-10288885D01*
X13897684Y-10542885D02*
X13897684Y-10486316D01*
X13841115Y-10486316D01*
X13841115Y-10542885D01*
X13897684Y-10542885D01*
X13897684Y-10796885D02*
X13897684Y-10740316D01*
X13841115Y-10740316D01*
X13841115Y-10796885D01*
X13897684Y-10796885D01*
X13897684Y-11050885D02*
X13897684Y-10994316D01*
X13841115Y-10994316D01*
X13841115Y-11050885D01*
X13897684Y-11050885D01*
X13897684Y-11304884D02*
X13897684Y-11248315D01*
X13841115Y-11248315D01*
X13841115Y-11304884D01*
X13897684Y-11304884D01*
X13918084Y-9172285D02*
X13918084Y-9115716D01*
X13861515Y-9115716D01*
X13861515Y-9172285D01*
X13918084Y-9172285D01*
X13922084Y-6784684D02*
X13922084Y-6728115D01*
X13865515Y-6728115D01*
X13865515Y-6784684D01*
X13922084Y-6784684D01*
X13922084Y-7546684D02*
X13922084Y-7490115D01*
X13865515Y-7490115D01*
X13865515Y-7546684D01*
X13922084Y-7546684D01*
D15*
X10718800Y-6882600D02*
X10768800Y-6832600D01*
X10718800Y-6782600D01*
X10668800Y-6832600D01*
X10718800Y-6882600D01*
X10718800Y-7136600D02*
X10768800Y-7086600D01*
X10718800Y-7036600D01*
X10668800Y-7086600D01*
X10718800Y-7136600D01*
X10718800Y-7390600D02*
X10768800Y-7340600D01*
X10718800Y-7290600D01*
X10668800Y-7340600D01*
X10718800Y-7390600D01*
X10718800Y-7644600D02*
X10768800Y-7594600D01*
X10718800Y-7544600D01*
X10668800Y-7594600D01*
X10718800Y-7644600D01*
X10718800Y-7898600D02*
X10768800Y-7848600D01*
X10718800Y-7798600D01*
X10668800Y-7848600D01*
X10718800Y-7898600D01*
X10718800Y-8152600D02*
X10768800Y-8102600D01*
X10718800Y-8052600D01*
X10668800Y-8102600D01*
X10718800Y-8152600D01*
X10718800Y-8406600D02*
X10768800Y-8356600D01*
X10718800Y-8306600D01*
X10668800Y-8356600D01*
X10718800Y-8406600D01*
X10718800Y-8660600D02*
X10768800Y-8610600D01*
X10718800Y-8560600D01*
X10668800Y-8610600D01*
X10718800Y-8660600D01*
X10718800Y-8914600D02*
X10768800Y-8864600D01*
X10718800Y-8814600D01*
X10668800Y-8864600D01*
X10718800Y-8914600D01*
X10718800Y-9168600D02*
X10768800Y-9118600D01*
X10718800Y-9068600D01*
X10668800Y-9118600D01*
X10718800Y-9168600D01*
X10718800Y-9422600D02*
X10768800Y-9372600D01*
X10718800Y-9322600D01*
X10668800Y-9372600D01*
X10718800Y-9422600D01*
X10718800Y-9676600D02*
X10768800Y-9626600D01*
X10718800Y-9576600D01*
X10668800Y-9626600D01*
X10718800Y-9676600D01*
X10718800Y-9930600D02*
X10768800Y-9880600D01*
X10718800Y-9830600D01*
X10668800Y-9880600D01*
X10718800Y-9930600D01*
X10718800Y-10184600D02*
X10768800Y-10134600D01*
X10718800Y-10084600D01*
X10668800Y-10134600D01*
X10718800Y-10184600D01*
X10718800Y-10438600D02*
X10768800Y-10388600D01*
X10718800Y-10338600D01*
X10668800Y-10388600D01*
X10718800Y-10438600D01*
X10718800Y-10692600D02*
X10768800Y-10642600D01*
X10718800Y-10592600D01*
X10668800Y-10642600D01*
X10718800Y-10692600D01*
X10718800Y-10946600D02*
X10768800Y-10896600D01*
X10718800Y-10846600D01*
X10668800Y-10896600D01*
X10718800Y-10946600D01*
X10718800Y-11200600D02*
X10768800Y-11150600D01*
X10718800Y-11100600D01*
X10668800Y-11150600D01*
X10718800Y-11200600D01*
X10718800Y-11454600D02*
X10768800Y-11404600D01*
X10718800Y-11354600D01*
X10668800Y-11404600D01*
X10718800Y-11454600D01*
X10718800Y-11708600D02*
X10768800Y-11658600D01*
X10718800Y-11608600D01*
X10668800Y-11658600D01*
X10718800Y-11708600D01*
X11099800Y-11708600D02*
X11149800Y-11658600D01*
X11099800Y-11608600D01*
X11049800Y-11658600D01*
X11099800Y-11708600D01*
X11353800Y-11708600D02*
X11403800Y-11658600D01*
X11353800Y-11608600D01*
X11303800Y-11658600D01*
X11353800Y-11708600D01*
X11607800Y-11708600D02*
X11657800Y-11658600D01*
X11607800Y-11608600D01*
X11557800Y-11658600D01*
X11607800Y-11708600D01*
X11861800Y-11708600D02*
X11911800Y-11658600D01*
X11861800Y-11608600D01*
X11811800Y-11658600D01*
X11861800Y-11708600D01*
X12115800Y-11708600D02*
X12165800Y-11658600D01*
X12115800Y-11608600D01*
X12065800Y-11658600D01*
X12115800Y-11708600D01*
X12369800Y-11708600D02*
X12419800Y-11658600D01*
X12369800Y-11608600D01*
X12319800Y-11658600D01*
X12369800Y-11708600D01*
X12623800Y-11708600D02*
X12673800Y-11658600D01*
X12623800Y-11608600D01*
X12573800Y-11658600D01*
X12623800Y-11708600D01*
X12877800Y-11708600D02*
X12927800Y-11658600D01*
X12877800Y-11608600D01*
X12827800Y-11658600D01*
X12877800Y-11708600D01*
X13131800Y-11708600D02*
X13181800Y-11658600D01*
X13131800Y-11608600D01*
X13081800Y-11658600D01*
X13131800Y-11708600D01*
X13385800Y-11708600D02*
X13435800Y-11658600D01*
X13385800Y-11608600D01*
X13335800Y-11658600D01*
X13385800Y-11708600D01*
X13639800Y-11708600D02*
X13689800Y-11658600D01*
X13639800Y-11608600D01*
X13589800Y-11658600D01*
X13639800Y-11708600D01*
X13893800Y-11708600D02*
X13943800Y-11658600D01*
X13893800Y-11608600D01*
X13843800Y-11658600D01*
X13893800Y-11708600D01*
X14147800Y-11708600D02*
X14197800Y-11658600D01*
X14147800Y-11608600D01*
X14097800Y-11658600D01*
X14147800Y-11708600D01*
X14401800Y-11708600D02*
X14451800Y-11658600D01*
X14401800Y-11608600D01*
X14351800Y-11658600D01*
X14401800Y-11708600D01*
X14427200Y-9117300D02*
X14477200Y-9067300D01*
X14427200Y-9017300D01*
X14377200Y-9067300D01*
X14427200Y-9117300D01*
X14427200Y-10642300D02*
X14477200Y-10592300D01*
X14427200Y-10542300D01*
X14377200Y-10592300D01*
X14427200Y-10642300D01*
X14655800Y-11708600D02*
X14705800Y-11658600D01*
X14655800Y-11608600D01*
X14605800Y-11658600D01*
X14655800Y-11708600D01*
X14681200Y-9117300D02*
X14731200Y-9067300D01*
X14681200Y-9017300D01*
X14631200Y-9067300D01*
X14681200Y-9117300D01*
X14681200Y-10642300D02*
X14731200Y-10592300D01*
X14681200Y-10542300D01*
X14631200Y-10592300D01*
X14681200Y-10642300D01*
X14909800Y-11708600D02*
X14959800Y-11658600D01*
X14909800Y-11608600D01*
X14859800Y-11658600D01*
X14909800Y-11708600D01*
X14935200Y-9117300D02*
X14985200Y-9067300D01*
X14935200Y-9017300D01*
X14885200Y-9067300D01*
X14935200Y-9117300D01*
X14935200Y-10642300D02*
X14985200Y-10592300D01*
X14935200Y-10542300D01*
X14885200Y-10592300D01*
X14935200Y-10642300D01*
X15163800Y-11708600D02*
X15213800Y-11658600D01*
X15163800Y-11608600D01*
X15113800Y-11658600D01*
X15163800Y-11708600D01*
X15189200Y-9117300D02*
X15239200Y-9067300D01*
X15189200Y-9017300D01*
X15139200Y-9067300D01*
X15189200Y-9117300D01*
X15189200Y-10642300D02*
X15239200Y-10592300D01*
X15189200Y-10542300D01*
X15139200Y-10592300D01*
X15189200Y-10642300D01*
X15291300Y-11251400D02*
X15341300Y-11201400D01*
X15291300Y-11151400D01*
X15241300Y-11201400D01*
X15291300Y-11251400D01*
X15417800Y-11708600D02*
X15467800Y-11658600D01*
X15417800Y-11608600D01*
X15367800Y-11658600D01*
X15417800Y-11708600D01*
X15443200Y-9117300D02*
X15493200Y-9067300D01*
X15443200Y-9017300D01*
X15393200Y-9067300D01*
X15443200Y-9117300D01*
X15443200Y-10642300D02*
X15493200Y-10592300D01*
X15443200Y-10542300D01*
X15393200Y-10592300D01*
X15443200Y-10642300D01*
X15545300Y-11251400D02*
X15595300Y-11201400D01*
X15545300Y-11151400D01*
X15495300Y-11201400D01*
X15545300Y-11251400D01*
X15646400Y-6895300D02*
X15696400Y-6845300D01*
X15646400Y-6795300D01*
X15596400Y-6845300D01*
X15646400Y-6895300D01*
X15646400Y-7149300D02*
X15696400Y-7099300D01*
X15646400Y-7049300D01*
X15596400Y-7099300D01*
X15646400Y-7149300D01*
X15646400Y-7403300D02*
X15696400Y-7353300D01*
X15646400Y-7303300D01*
X15596400Y-7353300D01*
X15646400Y-7403300D01*
X15646400Y-7657300D02*
X15696400Y-7607300D01*
X15646400Y-7557300D01*
X15596400Y-7607300D01*
X15646400Y-7657300D01*
X15671800Y-11708600D02*
X15721800Y-11658600D01*
X15671800Y-11608600D01*
X15621800Y-11658600D01*
X15671800Y-11708600D01*
X15697200Y-9117300D02*
X15747200Y-9067300D01*
X15697200Y-9017300D01*
X15647200Y-9067300D01*
X15697200Y-9117300D01*
X15697200Y-10642300D02*
X15747200Y-10592300D01*
X15697200Y-10542300D01*
X15647200Y-10592300D01*
X15697200Y-10642300D01*
X15925800Y-11708600D02*
X15975800Y-11658600D01*
X15925800Y-11608600D01*
X15875800Y-11658600D01*
X15925800Y-11708600D01*
X15951200Y-9117300D02*
X16001200Y-9067300D01*
X15951200Y-9017300D01*
X15901200Y-9067300D01*
X15951200Y-9117300D01*
X15951200Y-10642300D02*
X16001200Y-10592300D01*
X15951200Y-10542300D01*
X15901200Y-10592300D01*
X15951200Y-10642300D01*
D16*
X12082000Y-7103600D02*
X12302000Y-7323600D01*
X12302000Y-7103600D02*
X12082000Y-7323600D01*
X12302000Y-7213600D02*
G75*
G03*
X12302000Y-7213600I-110000J0D01*
G01*
X14749000Y-7103600D02*
X14969000Y-7323600D01*
X14969000Y-7103600D02*
X14749000Y-7323600D01*
X14969000Y-7213600D02*
G75*
G03*
X14969000Y-7213600I-110000J0D01*
G01*
D11*
X10719919Y-12219807D02*
X10719919Y-12019807D01*
X10767538Y-12019807D01*
X10796110Y-12029331D01*
X10815157Y-12048379D01*
X10824681Y-12067426D01*
X10834205Y-12105521D01*
X10834205Y-12134093D01*
X10824681Y-12172188D01*
X10815157Y-12191236D01*
X10796110Y-12210283D01*
X10767538Y-12219807D01*
X10719919Y-12219807D01*
X10919919Y-12219807D02*
X10919919Y-12086474D01*
X10919919Y-12124569D02*
X10929443Y-12105521D01*
X10938967Y-12095998D01*
X10958014Y-12086474D01*
X10977062Y-12086474D01*
X11043729Y-12219807D02*
X11043729Y-12086474D01*
X11043729Y-12019807D02*
X11034205Y-12029331D01*
X11043729Y-12038855D01*
X11053252Y-12029331D01*
X11043729Y-12019807D01*
X11043729Y-12038855D01*
X11167538Y-12219807D02*
X11148490Y-12210283D01*
X11138967Y-12191236D01*
X11138967Y-12019807D01*
X11272300Y-12219807D02*
X11253252Y-12210283D01*
X11243728Y-12191236D01*
X11243728Y-12019807D01*
X11500871Y-12219807D02*
X11500871Y-12019807D01*
X11567538Y-12162664D01*
X11634205Y-12019807D01*
X11634205Y-12219807D01*
X11815157Y-12219807D02*
X11815157Y-12115045D01*
X11805633Y-12095998D01*
X11786586Y-12086474D01*
X11748490Y-12086474D01*
X11729443Y-12095998D01*
X11815157Y-12210283D02*
X11796109Y-12219807D01*
X11748490Y-12219807D01*
X11729443Y-12210283D01*
X11719919Y-12191236D01*
X11719919Y-12172188D01*
X11729443Y-12153140D01*
X11748490Y-12143617D01*
X11796109Y-12143617D01*
X11815157Y-12134093D01*
X11910395Y-12086474D02*
X11910395Y-12286474D01*
X11910395Y-12095998D02*
X11929443Y-12086474D01*
X11967538Y-12086474D01*
X11986586Y-12095998D01*
X11996109Y-12105521D01*
X12005633Y-12124569D01*
X12005633Y-12181712D01*
X11996109Y-12200759D01*
X11986586Y-12210283D01*
X11967538Y-12219807D01*
X11929443Y-12219807D01*
X11910395Y-12210283D01*
X12091348Y-12200759D02*
X12100871Y-12210283D01*
X12091348Y-12219807D01*
X12081824Y-12210283D01*
X12091348Y-12200759D01*
X12091348Y-12219807D01*
X12091348Y-12095998D02*
X12100871Y-12105521D01*
X12091348Y-12115045D01*
X12081824Y-12105521D01*
X12091348Y-12095998D01*
X12091348Y-12115045D01*
D12*
X10422300Y-12529331D02*
X10462300Y-12569331D01*
X10462300Y-12529331D02*
X10422300Y-12569331D01*
D11*
X10758014Y-12439807D02*
X10777062Y-12439807D01*
X10796110Y-12449331D01*
X10805633Y-12458855D01*
X10815157Y-12477902D01*
X10824681Y-12515998D01*
X10824681Y-12563617D01*
X10815157Y-12601712D01*
X10805633Y-12620759D01*
X10796110Y-12630283D01*
X10777062Y-12639807D01*
X10758014Y-12639807D01*
X10738967Y-12630283D01*
X10729443Y-12620759D01*
X10719919Y-12601712D01*
X10710395Y-12563617D01*
X10710395Y-12515998D01*
X10719919Y-12477902D01*
X10729443Y-12458855D01*
X10738967Y-12449331D01*
X10758014Y-12439807D01*
X10910395Y-12620759D02*
X10919919Y-12630283D01*
X10910395Y-12639807D01*
X10900871Y-12630283D01*
X10910395Y-12620759D01*
X10910395Y-12639807D01*
X11091348Y-12506474D02*
X11091348Y-12639807D01*
X11043729Y-12430283D02*
X10996110Y-12573140D01*
X11119919Y-12573140D01*
X11234205Y-12439807D02*
X11253252Y-12439807D01*
X11272300Y-12449331D01*
X11281824Y-12458855D01*
X11291348Y-12477902D01*
X11300871Y-12515998D01*
X11300871Y-12563617D01*
X11291348Y-12601712D01*
X11281824Y-12620759D01*
X11272300Y-12630283D01*
X11253252Y-12639807D01*
X11234205Y-12639807D01*
X11215157Y-12630283D01*
X11205633Y-12620759D01*
X11196109Y-12601712D01*
X11186586Y-12563617D01*
X11186586Y-12515998D01*
X11196109Y-12477902D01*
X11205633Y-12458855D01*
X11215157Y-12449331D01*
X11234205Y-12439807D01*
X11424681Y-12439807D02*
X11443728Y-12439807D01*
X11462776Y-12449331D01*
X11472300Y-12458855D01*
X11481824Y-12477902D01*
X11491348Y-12515998D01*
X11491348Y-12563617D01*
X11481824Y-12601712D01*
X11472300Y-12620759D01*
X11462776Y-12630283D01*
X11443728Y-12639807D01*
X11424681Y-12639807D01*
X11405633Y-12630283D01*
X11396109Y-12620759D01*
X11386586Y-12601712D01*
X11377062Y-12563617D01*
X11377062Y-12515998D01*
X11386586Y-12477902D01*
X11396109Y-12458855D01*
X11405633Y-12449331D01*
X11424681Y-12439807D01*
X11577062Y-12639807D02*
X11577062Y-12506474D01*
X11577062Y-12525521D02*
X11586586Y-12515998D01*
X11605633Y-12506474D01*
X11634205Y-12506474D01*
X11653252Y-12515998D01*
X11662776Y-12535045D01*
X11662776Y-12639807D01*
X11662776Y-12535045D02*
X11672300Y-12515998D01*
X11691348Y-12506474D01*
X11719919Y-12506474D01*
X11738967Y-12515998D01*
X11748490Y-12535045D01*
X11748490Y-12639807D01*
X11843728Y-12639807D02*
X11843728Y-12506474D01*
X11843728Y-12525521D02*
X11853252Y-12515998D01*
X11872300Y-12506474D01*
X11900871Y-12506474D01*
X11919919Y-12515998D01*
X11929443Y-12535045D01*
X11929443Y-12639807D01*
X11929443Y-12535045D02*
X11938967Y-12515998D01*
X11958014Y-12506474D01*
X11986586Y-12506474D01*
X12005633Y-12515998D01*
X12015157Y-12535045D01*
X12015157Y-12639807D01*
X12405633Y-12430283D02*
X12234205Y-12687426D01*
X12662776Y-12439807D02*
X12681824Y-12439807D01*
X12700871Y-12449331D01*
X12710395Y-12458855D01*
X12719919Y-12477902D01*
X12729443Y-12515998D01*
X12729443Y-12563617D01*
X12719919Y-12601712D01*
X12710395Y-12620759D01*
X12700871Y-12630283D01*
X12681824Y-12639807D01*
X12662776Y-12639807D01*
X12643728Y-12630283D01*
X12634205Y-12620759D01*
X12624681Y-12601712D01*
X12615157Y-12563617D01*
X12615157Y-12515998D01*
X12624681Y-12477902D01*
X12634205Y-12458855D01*
X12643728Y-12449331D01*
X12662776Y-12439807D01*
X12815157Y-12620759D02*
X12824681Y-12630283D01*
X12815157Y-12639807D01*
X12805633Y-12630283D01*
X12815157Y-12620759D01*
X12815157Y-12639807D01*
X12948490Y-12439807D02*
X12967538Y-12439807D01*
X12986586Y-12449331D01*
X12996109Y-12458855D01*
X13005633Y-12477902D01*
X13015157Y-12515998D01*
X13015157Y-12563617D01*
X13005633Y-12601712D01*
X12996109Y-12620759D01*
X12986586Y-12630283D01*
X12967538Y-12639807D01*
X12948490Y-12639807D01*
X12929443Y-12630283D01*
X12919919Y-12620759D01*
X12910395Y-12601712D01*
X12900871Y-12563617D01*
X12900871Y-12515998D01*
X12910395Y-12477902D01*
X12919919Y-12458855D01*
X12929443Y-12449331D01*
X12948490Y-12439807D01*
X13205633Y-12639807D02*
X13091348Y-12639807D01*
X13148490Y-12639807D02*
X13148490Y-12439807D01*
X13129443Y-12468379D01*
X13110395Y-12487426D01*
X13091348Y-12496950D01*
X13386586Y-12439807D02*
X13291348Y-12439807D01*
X13281824Y-12535045D01*
X13291348Y-12525521D01*
X13310395Y-12515998D01*
X13358014Y-12515998D01*
X13377062Y-12525521D01*
X13386586Y-12535045D01*
X13396109Y-12554093D01*
X13396109Y-12601712D01*
X13386586Y-12620759D01*
X13377062Y-12630283D01*
X13358014Y-12639807D01*
X13310395Y-12639807D01*
X13291348Y-12630283D01*
X13281824Y-12620759D01*
X13462776Y-12439807D02*
X13596109Y-12439807D01*
X13510395Y-12639807D01*
X13662776Y-12439807D02*
X13662776Y-12477902D01*
X13738967Y-12439807D02*
X13738967Y-12477902D01*
X14034205Y-12715998D02*
X14024681Y-12706474D01*
X14005633Y-12677902D01*
X13996109Y-12658855D01*
X13986586Y-12630283D01*
X13977062Y-12582664D01*
X13977062Y-12544569D01*
X13986586Y-12496950D01*
X13996109Y-12468379D01*
X14005633Y-12449331D01*
X14024681Y-12420759D01*
X14034205Y-12411236D01*
X14091348Y-12439807D02*
X14215157Y-12439807D01*
X14148490Y-12515998D01*
X14177062Y-12515998D01*
X14196109Y-12525521D01*
X14205633Y-12535045D01*
X14215157Y-12554093D01*
X14215157Y-12601712D01*
X14205633Y-12620759D01*
X14196109Y-12630283D01*
X14177062Y-12639807D01*
X14119919Y-12639807D01*
X14100871Y-12630283D01*
X14091348Y-12620759D01*
X14386586Y-12506474D02*
X14386586Y-12639807D01*
X14338967Y-12430283D02*
X14291348Y-12573140D01*
X14415157Y-12573140D01*
X14643728Y-12639807D02*
X14643728Y-12439807D01*
X14729443Y-12639807D02*
X14729443Y-12535045D01*
X14719919Y-12515998D01*
X14700871Y-12506474D01*
X14672300Y-12506474D01*
X14653252Y-12515998D01*
X14643728Y-12525521D01*
X14853252Y-12639807D02*
X14834205Y-12630283D01*
X14824681Y-12620759D01*
X14815157Y-12601712D01*
X14815157Y-12544569D01*
X14824681Y-12525521D01*
X14834205Y-12515998D01*
X14853252Y-12506474D01*
X14881824Y-12506474D01*
X14900871Y-12515998D01*
X14910395Y-12525521D01*
X14919919Y-12544569D01*
X14919919Y-12601712D01*
X14910395Y-12620759D01*
X14900871Y-12630283D01*
X14881824Y-12639807D01*
X14853252Y-12639807D01*
X15034205Y-12639807D02*
X15015157Y-12630283D01*
X15005633Y-12611236D01*
X15005633Y-12439807D01*
X15186586Y-12630283D02*
X15167538Y-12639807D01*
X15129443Y-12639807D01*
X15110395Y-12630283D01*
X15100871Y-12611236D01*
X15100871Y-12535045D01*
X15110395Y-12515998D01*
X15129443Y-12506474D01*
X15167538Y-12506474D01*
X15186586Y-12515998D01*
X15196109Y-12535045D01*
X15196109Y-12554093D01*
X15100871Y-12573140D01*
X15272300Y-12630283D02*
X15291348Y-12639807D01*
X15329443Y-12639807D01*
X15348490Y-12630283D01*
X15358014Y-12611236D01*
X15358014Y-12601712D01*
X15348490Y-12582664D01*
X15329443Y-12573140D01*
X15300871Y-12573140D01*
X15281824Y-12563617D01*
X15272300Y-12544569D01*
X15272300Y-12535045D01*
X15281824Y-12515998D01*
X15300871Y-12506474D01*
X15329443Y-12506474D01*
X15348490Y-12515998D01*
X15424681Y-12715998D02*
X15434205Y-12706474D01*
X15453252Y-12677902D01*
X15462776Y-12658855D01*
X15472300Y-12630283D01*
X15481824Y-12582664D01*
X15481824Y-12544569D01*
X15472300Y-12496950D01*
X15462776Y-12468379D01*
X15453252Y-12449331D01*
X15434205Y-12420759D01*
X15424681Y-12411236D01*
D12*
X10462300Y-12813331D02*
G75*
G03*
X10462300Y-12813331I-20000J0D01*
G01*
D11*
X10758014Y-12703807D02*
X10777062Y-12703807D01*
X10796110Y-12713331D01*
X10805633Y-12722855D01*
X10815157Y-12741902D01*
X10824681Y-12779998D01*
X10824681Y-12827617D01*
X10815157Y-12865712D01*
X10805633Y-12884759D01*
X10796110Y-12894283D01*
X10777062Y-12903807D01*
X10758014Y-12903807D01*
X10738967Y-12894283D01*
X10729443Y-12884759D01*
X10719919Y-12865712D01*
X10710395Y-12827617D01*
X10710395Y-12779998D01*
X10719919Y-12741902D01*
X10729443Y-12722855D01*
X10738967Y-12713331D01*
X10758014Y-12703807D01*
X10910395Y-12884759D02*
X10919919Y-12894283D01*
X10910395Y-12903807D01*
X10900871Y-12894283D01*
X10910395Y-12884759D01*
X10910395Y-12903807D01*
X11091348Y-12770474D02*
X11091348Y-12903807D01*
X11043729Y-12694283D02*
X10996110Y-12837140D01*
X11119919Y-12837140D01*
X11234205Y-12703807D02*
X11253252Y-12703807D01*
X11272300Y-12713331D01*
X11281824Y-12722855D01*
X11291348Y-12741902D01*
X11300871Y-12779998D01*
X11300871Y-12827617D01*
X11291348Y-12865712D01*
X11281824Y-12884759D01*
X11272300Y-12894283D01*
X11253252Y-12903807D01*
X11234205Y-12903807D01*
X11215157Y-12894283D01*
X11205633Y-12884759D01*
X11196109Y-12865712D01*
X11186586Y-12827617D01*
X11186586Y-12779998D01*
X11196109Y-12741902D01*
X11205633Y-12722855D01*
X11215157Y-12713331D01*
X11234205Y-12703807D01*
X11424681Y-12703807D02*
X11443728Y-12703807D01*
X11462776Y-12713331D01*
X11472300Y-12722855D01*
X11481824Y-12741902D01*
X11491348Y-12779998D01*
X11491348Y-12827617D01*
X11481824Y-12865712D01*
X11472300Y-12884759D01*
X11462776Y-12894283D01*
X11443728Y-12903807D01*
X11424681Y-12903807D01*
X11405633Y-12894283D01*
X11396109Y-12884759D01*
X11386586Y-12865712D01*
X11377062Y-12827617D01*
X11377062Y-12779998D01*
X11386586Y-12741902D01*
X11396109Y-12722855D01*
X11405633Y-12713331D01*
X11424681Y-12703807D01*
X11577062Y-12903807D02*
X11577062Y-12770474D01*
X11577062Y-12789521D02*
X11586586Y-12779998D01*
X11605633Y-12770474D01*
X11634205Y-12770474D01*
X11653252Y-12779998D01*
X11662776Y-12799045D01*
X11662776Y-12903807D01*
X11662776Y-12799045D02*
X11672300Y-12779998D01*
X11691348Y-12770474D01*
X11719919Y-12770474D01*
X11738967Y-12779998D01*
X11748490Y-12799045D01*
X11748490Y-12903807D01*
X11843728Y-12903807D02*
X11843728Y-12770474D01*
X11843728Y-12789521D02*
X11853252Y-12779998D01*
X11872300Y-12770474D01*
X11900871Y-12770474D01*
X11919919Y-12779998D01*
X11929443Y-12799045D01*
X11929443Y-12903807D01*
X11929443Y-12799045D02*
X11938967Y-12779998D01*
X11958014Y-12770474D01*
X11986586Y-12770474D01*
X12005633Y-12779998D01*
X12015157Y-12799045D01*
X12015157Y-12903807D01*
X12405633Y-12694283D02*
X12234205Y-12951426D01*
X12662776Y-12703807D02*
X12681824Y-12703807D01*
X12700871Y-12713331D01*
X12710395Y-12722855D01*
X12719919Y-12741902D01*
X12729443Y-12779998D01*
X12729443Y-12827617D01*
X12719919Y-12865712D01*
X12710395Y-12884759D01*
X12700871Y-12894283D01*
X12681824Y-12903807D01*
X12662776Y-12903807D01*
X12643728Y-12894283D01*
X12634205Y-12884759D01*
X12624681Y-12865712D01*
X12615157Y-12827617D01*
X12615157Y-12779998D01*
X12624681Y-12741902D01*
X12634205Y-12722855D01*
X12643728Y-12713331D01*
X12662776Y-12703807D01*
X12815157Y-12884759D02*
X12824681Y-12894283D01*
X12815157Y-12903807D01*
X12805633Y-12894283D01*
X12815157Y-12884759D01*
X12815157Y-12903807D01*
X12948490Y-12703807D02*
X12967538Y-12703807D01*
X12986586Y-12713331D01*
X12996109Y-12722855D01*
X13005633Y-12741902D01*
X13015157Y-12779998D01*
X13015157Y-12827617D01*
X13005633Y-12865712D01*
X12996109Y-12884759D01*
X12986586Y-12894283D01*
X12967538Y-12903807D01*
X12948490Y-12903807D01*
X12929443Y-12894283D01*
X12919919Y-12884759D01*
X12910395Y-12865712D01*
X12900871Y-12827617D01*
X12900871Y-12779998D01*
X12910395Y-12741902D01*
X12919919Y-12722855D01*
X12929443Y-12713331D01*
X12948490Y-12703807D01*
X13205633Y-12903807D02*
X13091348Y-12903807D01*
X13148490Y-12903807D02*
X13148490Y-12703807D01*
X13129443Y-12732379D01*
X13110395Y-12751426D01*
X13091348Y-12760950D01*
X13386586Y-12703807D02*
X13291348Y-12703807D01*
X13281824Y-12799045D01*
X13291348Y-12789521D01*
X13310395Y-12779998D01*
X13358014Y-12779998D01*
X13377062Y-12789521D01*
X13386586Y-12799045D01*
X13396109Y-12818093D01*
X13396109Y-12865712D01*
X13386586Y-12884759D01*
X13377062Y-12894283D01*
X13358014Y-12903807D01*
X13310395Y-12903807D01*
X13291348Y-12894283D01*
X13281824Y-12884759D01*
X13462776Y-12703807D02*
X13596109Y-12703807D01*
X13510395Y-12903807D01*
X13662776Y-12703807D02*
X13662776Y-12741902D01*
X13738967Y-12703807D02*
X13738967Y-12741902D01*
X14034205Y-12979998D02*
X14024681Y-12970474D01*
X14005633Y-12941902D01*
X13996109Y-12922855D01*
X13986586Y-12894283D01*
X13977062Y-12846664D01*
X13977062Y-12808569D01*
X13986586Y-12760950D01*
X13996109Y-12732379D01*
X14005633Y-12713331D01*
X14024681Y-12684759D01*
X14034205Y-12675236D01*
X14215157Y-12903807D02*
X14100871Y-12903807D01*
X14158014Y-12903807D02*
X14158014Y-12703807D01*
X14138967Y-12732379D01*
X14119919Y-12751426D01*
X14100871Y-12760950D01*
X14386586Y-12703807D02*
X14348490Y-12703807D01*
X14329443Y-12713331D01*
X14319919Y-12722855D01*
X14300871Y-12751426D01*
X14291348Y-12789521D01*
X14291348Y-12865712D01*
X14300871Y-12884759D01*
X14310395Y-12894283D01*
X14329443Y-12903807D01*
X14367538Y-12903807D01*
X14386586Y-12894283D01*
X14396109Y-12884759D01*
X14405633Y-12865712D01*
X14405633Y-12818093D01*
X14396109Y-12799045D01*
X14386586Y-12789521D01*
X14367538Y-12779998D01*
X14329443Y-12779998D01*
X14310395Y-12789521D01*
X14300871Y-12799045D01*
X14291348Y-12818093D01*
X14643728Y-12903807D02*
X14643728Y-12703807D01*
X14729443Y-12903807D02*
X14729443Y-12799045D01*
X14719919Y-12779998D01*
X14700871Y-12770474D01*
X14672300Y-12770474D01*
X14653252Y-12779998D01*
X14643728Y-12789521D01*
X14853252Y-12903807D02*
X14834205Y-12894283D01*
X14824681Y-12884759D01*
X14815157Y-12865712D01*
X14815157Y-12808569D01*
X14824681Y-12789521D01*
X14834205Y-12779998D01*
X14853252Y-12770474D01*
X14881824Y-12770474D01*
X14900871Y-12779998D01*
X14910395Y-12789521D01*
X14919919Y-12808569D01*
X14919919Y-12865712D01*
X14910395Y-12884759D01*
X14900871Y-12894283D01*
X14881824Y-12903807D01*
X14853252Y-12903807D01*
X15034205Y-12903807D02*
X15015157Y-12894283D01*
X15005633Y-12875236D01*
X15005633Y-12703807D01*
X15186586Y-12894283D02*
X15167538Y-12903807D01*
X15129443Y-12903807D01*
X15110395Y-12894283D01*
X15100871Y-12875236D01*
X15100871Y-12799045D01*
X15110395Y-12779998D01*
X15129443Y-12770474D01*
X15167538Y-12770474D01*
X15186586Y-12779998D01*
X15196109Y-12799045D01*
X15196109Y-12818093D01*
X15100871Y-12837140D01*
X15272300Y-12894283D02*
X15291348Y-12903807D01*
X15329443Y-12903807D01*
X15348490Y-12894283D01*
X15358014Y-12875236D01*
X15358014Y-12865712D01*
X15348490Y-12846664D01*
X15329443Y-12837140D01*
X15300871Y-12837140D01*
X15281824Y-12827617D01*
X15272300Y-12808569D01*
X15272300Y-12799045D01*
X15281824Y-12779998D01*
X15300871Y-12770474D01*
X15329443Y-12770474D01*
X15348490Y-12779998D01*
X15424681Y-12979998D02*
X15434205Y-12970474D01*
X15453252Y-12941902D01*
X15462776Y-12922855D01*
X15472300Y-12894283D01*
X15481824Y-12846664D01*
X15481824Y-12808569D01*
X15472300Y-12760950D01*
X15462776Y-12732379D01*
X15453252Y-12713331D01*
X15434205Y-12684759D01*
X15424681Y-12675236D01*
D13*
X10424800Y-13039831D02*
X10424800Y-13114831D01*
X10387300Y-13077331D02*
X10462300Y-13077331D01*
D11*
X10758014Y-12967807D02*
X10777062Y-12967807D01*
X10796110Y-12977331D01*
X10805633Y-12986855D01*
X10815157Y-13005902D01*
X10824681Y-13043998D01*
X10824681Y-13091617D01*
X10815157Y-13129712D01*
X10805633Y-13148759D01*
X10796110Y-13158283D01*
X10777062Y-13167807D01*
X10758014Y-13167807D01*
X10738967Y-13158283D01*
X10729443Y-13148759D01*
X10719919Y-13129712D01*
X10710395Y-13091617D01*
X10710395Y-13043998D01*
X10719919Y-13005902D01*
X10729443Y-12986855D01*
X10738967Y-12977331D01*
X10758014Y-12967807D01*
X10910395Y-13148759D02*
X10919919Y-13158283D01*
X10910395Y-13167807D01*
X10900871Y-13158283D01*
X10910395Y-13148759D01*
X10910395Y-13167807D01*
X10986586Y-12967807D02*
X11119919Y-12967807D01*
X11034205Y-13167807D01*
X11291348Y-12967807D02*
X11196109Y-12967807D01*
X11186586Y-13063045D01*
X11196109Y-13053521D01*
X11215157Y-13043998D01*
X11262776Y-13043998D01*
X11281824Y-13053521D01*
X11291348Y-13063045D01*
X11300871Y-13082093D01*
X11300871Y-13129712D01*
X11291348Y-13148759D01*
X11281824Y-13158283D01*
X11262776Y-13167807D01*
X11215157Y-13167807D01*
X11196109Y-13158283D01*
X11186586Y-13148759D01*
X11424681Y-12967807D02*
X11443728Y-12967807D01*
X11462776Y-12977331D01*
X11472300Y-12986855D01*
X11481824Y-13005902D01*
X11491348Y-13043998D01*
X11491348Y-13091617D01*
X11481824Y-13129712D01*
X11472300Y-13148759D01*
X11462776Y-13158283D01*
X11443728Y-13167807D01*
X11424681Y-13167807D01*
X11405633Y-13158283D01*
X11396109Y-13148759D01*
X11386586Y-13129712D01*
X11377062Y-13091617D01*
X11377062Y-13043998D01*
X11386586Y-13005902D01*
X11396109Y-12986855D01*
X11405633Y-12977331D01*
X11424681Y-12967807D01*
X11577062Y-13167807D02*
X11577062Y-13034474D01*
X11577062Y-13053521D02*
X11586586Y-13043998D01*
X11605633Y-13034474D01*
X11634205Y-13034474D01*
X11653252Y-13043998D01*
X11662776Y-13063045D01*
X11662776Y-13167807D01*
X11662776Y-13063045D02*
X11672300Y-13043998D01*
X11691348Y-13034474D01*
X11719919Y-13034474D01*
X11738967Y-13043998D01*
X11748490Y-13063045D01*
X11748490Y-13167807D01*
X11843728Y-13167807D02*
X11843728Y-13034474D01*
X11843728Y-13053521D02*
X11853252Y-13043998D01*
X11872300Y-13034474D01*
X11900871Y-13034474D01*
X11919919Y-13043998D01*
X11929443Y-13063045D01*
X11929443Y-13167807D01*
X11929443Y-13063045D02*
X11938967Y-13043998D01*
X11958014Y-13034474D01*
X11986586Y-13034474D01*
X12005633Y-13043998D01*
X12015157Y-13063045D01*
X12015157Y-13167807D01*
X12405633Y-12958283D02*
X12234205Y-13215426D01*
X12662776Y-12967807D02*
X12681824Y-12967807D01*
X12700871Y-12977331D01*
X12710395Y-12986855D01*
X12719919Y-13005902D01*
X12729443Y-13043998D01*
X12729443Y-13091617D01*
X12719919Y-13129712D01*
X12710395Y-13148759D01*
X12700871Y-13158283D01*
X12681824Y-13167807D01*
X12662776Y-13167807D01*
X12643728Y-13158283D01*
X12634205Y-13148759D01*
X12624681Y-13129712D01*
X12615157Y-13091617D01*
X12615157Y-13043998D01*
X12624681Y-13005902D01*
X12634205Y-12986855D01*
X12643728Y-12977331D01*
X12662776Y-12967807D01*
X12815157Y-13148759D02*
X12824681Y-13158283D01*
X12815157Y-13167807D01*
X12805633Y-13158283D01*
X12815157Y-13148759D01*
X12815157Y-13167807D01*
X12948490Y-12967807D02*
X12967538Y-12967807D01*
X12986586Y-12977331D01*
X12996109Y-12986855D01*
X13005633Y-13005902D01*
X13015157Y-13043998D01*
X13015157Y-13091617D01*
X13005633Y-13129712D01*
X12996109Y-13148759D01*
X12986586Y-13158283D01*
X12967538Y-13167807D01*
X12948490Y-13167807D01*
X12929443Y-13158283D01*
X12919919Y-13148759D01*
X12910395Y-13129712D01*
X12900871Y-13091617D01*
X12900871Y-13043998D01*
X12910395Y-13005902D01*
X12919919Y-12986855D01*
X12929443Y-12977331D01*
X12948490Y-12967807D01*
X13091348Y-12986855D02*
X13100871Y-12977331D01*
X13119919Y-12967807D01*
X13167538Y-12967807D01*
X13186586Y-12977331D01*
X13196109Y-12986855D01*
X13205633Y-13005902D01*
X13205633Y-13024950D01*
X13196109Y-13053521D01*
X13081824Y-13167807D01*
X13205633Y-13167807D01*
X13300871Y-13167807D02*
X13338967Y-13167807D01*
X13358014Y-13158283D01*
X13367538Y-13148759D01*
X13386586Y-13120188D01*
X13396109Y-13082093D01*
X13396109Y-13005902D01*
X13386586Y-12986855D01*
X13377062Y-12977331D01*
X13358014Y-12967807D01*
X13319919Y-12967807D01*
X13300871Y-12977331D01*
X13291348Y-12986855D01*
X13281824Y-13005902D01*
X13281824Y-13053521D01*
X13291348Y-13072569D01*
X13300871Y-13082093D01*
X13319919Y-13091617D01*
X13358014Y-13091617D01*
X13377062Y-13082093D01*
X13386586Y-13072569D01*
X13396109Y-13053521D01*
X13577062Y-12967807D02*
X13481824Y-12967807D01*
X13472300Y-13063045D01*
X13481824Y-13053521D01*
X13500871Y-13043998D01*
X13548490Y-13043998D01*
X13567538Y-13053521D01*
X13577062Y-13063045D01*
X13586586Y-13082093D01*
X13586586Y-13129712D01*
X13577062Y-13148759D01*
X13567538Y-13158283D01*
X13548490Y-13167807D01*
X13500871Y-13167807D01*
X13481824Y-13158283D01*
X13472300Y-13148759D01*
X13662776Y-12967807D02*
X13662776Y-13005902D01*
X13738967Y-12967807D02*
X13738967Y-13005902D01*
X14034205Y-13243998D02*
X14024681Y-13234474D01*
X14005633Y-13205902D01*
X13996109Y-13186855D01*
X13986586Y-13158283D01*
X13977062Y-13110664D01*
X13977062Y-13072569D01*
X13986586Y-13024950D01*
X13996109Y-12996379D01*
X14005633Y-12977331D01*
X14024681Y-12948759D01*
X14034205Y-12939236D01*
X14091348Y-12967807D02*
X14215157Y-12967807D01*
X14148490Y-13043998D01*
X14177062Y-13043998D01*
X14196109Y-13053521D01*
X14205633Y-13063045D01*
X14215157Y-13082093D01*
X14215157Y-13129712D01*
X14205633Y-13148759D01*
X14196109Y-13158283D01*
X14177062Y-13167807D01*
X14119919Y-13167807D01*
X14100871Y-13158283D01*
X14091348Y-13148759D01*
X14453252Y-13167807D02*
X14453252Y-12967807D01*
X14538967Y-13167807D02*
X14538967Y-13063045D01*
X14529443Y-13043998D01*
X14510395Y-13034474D01*
X14481824Y-13034474D01*
X14462776Y-13043998D01*
X14453252Y-13053521D01*
X14662776Y-13167807D02*
X14643728Y-13158283D01*
X14634205Y-13148759D01*
X14624681Y-13129712D01*
X14624681Y-13072569D01*
X14634205Y-13053521D01*
X14643728Y-13043998D01*
X14662776Y-13034474D01*
X14691348Y-13034474D01*
X14710395Y-13043998D01*
X14719919Y-13053521D01*
X14729443Y-13072569D01*
X14729443Y-13129712D01*
X14719919Y-13148759D01*
X14710395Y-13158283D01*
X14691348Y-13167807D01*
X14662776Y-13167807D01*
X14843728Y-13167807D02*
X14824681Y-13158283D01*
X14815157Y-13139236D01*
X14815157Y-12967807D01*
X14996109Y-13158283D02*
X14977062Y-13167807D01*
X14938967Y-13167807D01*
X14919919Y-13158283D01*
X14910395Y-13139236D01*
X14910395Y-13063045D01*
X14919919Y-13043998D01*
X14938967Y-13034474D01*
X14977062Y-13034474D01*
X14996109Y-13043998D01*
X15005633Y-13063045D01*
X15005633Y-13082093D01*
X14910395Y-13101140D01*
X15081824Y-13158283D02*
X15100871Y-13167807D01*
X15138967Y-13167807D01*
X15158014Y-13158283D01*
X15167538Y-13139236D01*
X15167538Y-13129712D01*
X15158014Y-13110664D01*
X15138967Y-13101140D01*
X15110395Y-13101140D01*
X15091348Y-13091617D01*
X15081824Y-13072569D01*
X15081824Y-13063045D01*
X15091348Y-13043998D01*
X15110395Y-13034474D01*
X15138967Y-13034474D01*
X15158014Y-13043998D01*
X15234205Y-13243998D02*
X15243728Y-13234474D01*
X15262776Y-13205902D01*
X15272300Y-13186855D01*
X15281824Y-13158283D01*
X15291348Y-13110664D01*
X15291348Y-13072569D01*
X15281824Y-13024950D01*
X15272300Y-12996379D01*
X15262776Y-12977331D01*
X15243728Y-12948759D01*
X15234205Y-12939236D01*
D14*
X10450585Y-13369615D02*
X10450585Y-13313046D01*
X10394016Y-13313046D01*
X10394016Y-13369615D01*
X10450585Y-13369615D01*
D11*
X10758014Y-13231807D02*
X10777062Y-13231807D01*
X10796110Y-13241331D01*
X10805633Y-13250855D01*
X10815157Y-13269902D01*
X10824681Y-13307998D01*
X10824681Y-13355617D01*
X10815157Y-13393712D01*
X10805633Y-13412759D01*
X10796110Y-13422283D01*
X10777062Y-13431807D01*
X10758014Y-13431807D01*
X10738967Y-13422283D01*
X10729443Y-13412759D01*
X10719919Y-13393712D01*
X10710395Y-13355617D01*
X10710395Y-13307998D01*
X10719919Y-13269902D01*
X10729443Y-13250855D01*
X10738967Y-13241331D01*
X10758014Y-13231807D01*
X10910395Y-13412759D02*
X10919919Y-13422283D01*
X10910395Y-13431807D01*
X10900871Y-13422283D01*
X10910395Y-13412759D01*
X10910395Y-13431807D01*
X11034205Y-13317521D02*
X11015157Y-13307998D01*
X11005633Y-13298474D01*
X10996110Y-13279426D01*
X10996110Y-13269902D01*
X11005633Y-13250855D01*
X11015157Y-13241331D01*
X11034205Y-13231807D01*
X11072300Y-13231807D01*
X11091348Y-13241331D01*
X11100871Y-13250855D01*
X11110395Y-13269902D01*
X11110395Y-13279426D01*
X11100871Y-13298474D01*
X11091348Y-13307998D01*
X11072300Y-13317521D01*
X11034205Y-13317521D01*
X11015157Y-13327045D01*
X11005633Y-13336569D01*
X10996110Y-13355617D01*
X10996110Y-13393712D01*
X11005633Y-13412759D01*
X11015157Y-13422283D01*
X11034205Y-13431807D01*
X11072300Y-13431807D01*
X11091348Y-13422283D01*
X11100871Y-13412759D01*
X11110395Y-13393712D01*
X11110395Y-13355617D01*
X11100871Y-13336569D01*
X11091348Y-13327045D01*
X11072300Y-13317521D01*
X11234205Y-13231807D02*
X11253252Y-13231807D01*
X11272300Y-13241331D01*
X11281824Y-13250855D01*
X11291348Y-13269902D01*
X11300871Y-13307998D01*
X11300871Y-13355617D01*
X11291348Y-13393712D01*
X11281824Y-13412759D01*
X11272300Y-13422283D01*
X11253252Y-13431807D01*
X11234205Y-13431807D01*
X11215157Y-13422283D01*
X11205633Y-13412759D01*
X11196109Y-13393712D01*
X11186586Y-13355617D01*
X11186586Y-13307998D01*
X11196109Y-13269902D01*
X11205633Y-13250855D01*
X11215157Y-13241331D01*
X11234205Y-13231807D01*
X11424681Y-13231807D02*
X11443728Y-13231807D01*
X11462776Y-13241331D01*
X11472300Y-13250855D01*
X11481824Y-13269902D01*
X11491348Y-13307998D01*
X11491348Y-13355617D01*
X11481824Y-13393712D01*
X11472300Y-13412759D01*
X11462776Y-13422283D01*
X11443728Y-13431807D01*
X11424681Y-13431807D01*
X11405633Y-13422283D01*
X11396109Y-13412759D01*
X11386586Y-13393712D01*
X11377062Y-13355617D01*
X11377062Y-13307998D01*
X11386586Y-13269902D01*
X11396109Y-13250855D01*
X11405633Y-13241331D01*
X11424681Y-13231807D01*
X11577062Y-13431807D02*
X11577062Y-13298474D01*
X11577062Y-13317521D02*
X11586586Y-13307998D01*
X11605633Y-13298474D01*
X11634205Y-13298474D01*
X11653252Y-13307998D01*
X11662776Y-13327045D01*
X11662776Y-13431807D01*
X11662776Y-13327045D02*
X11672300Y-13307998D01*
X11691348Y-13298474D01*
X11719919Y-13298474D01*
X11738967Y-13307998D01*
X11748490Y-13327045D01*
X11748490Y-13431807D01*
X11843728Y-13431807D02*
X11843728Y-13298474D01*
X11843728Y-13317521D02*
X11853252Y-13307998D01*
X11872300Y-13298474D01*
X11900871Y-13298474D01*
X11919919Y-13307998D01*
X11929443Y-13327045D01*
X11929443Y-13431807D01*
X11929443Y-13327045D02*
X11938967Y-13307998D01*
X11958014Y-13298474D01*
X11986586Y-13298474D01*
X12005633Y-13307998D01*
X12015157Y-13327045D01*
X12015157Y-13431807D01*
X12405633Y-13222283D02*
X12234205Y-13479426D01*
X12662776Y-13231807D02*
X12681824Y-13231807D01*
X12700871Y-13241331D01*
X12710395Y-13250855D01*
X12719919Y-13269902D01*
X12729443Y-13307998D01*
X12729443Y-13355617D01*
X12719919Y-13393712D01*
X12710395Y-13412759D01*
X12700871Y-13422283D01*
X12681824Y-13431807D01*
X12662776Y-13431807D01*
X12643728Y-13422283D01*
X12634205Y-13412759D01*
X12624681Y-13393712D01*
X12615157Y-13355617D01*
X12615157Y-13307998D01*
X12624681Y-13269902D01*
X12634205Y-13250855D01*
X12643728Y-13241331D01*
X12662776Y-13231807D01*
X12815157Y-13412759D02*
X12824681Y-13422283D01*
X12815157Y-13431807D01*
X12805633Y-13422283D01*
X12815157Y-13412759D01*
X12815157Y-13431807D01*
X12948490Y-13231807D02*
X12967538Y-13231807D01*
X12986586Y-13241331D01*
X12996109Y-13250855D01*
X13005633Y-13269902D01*
X13015157Y-13307998D01*
X13015157Y-13355617D01*
X13005633Y-13393712D01*
X12996109Y-13412759D01*
X12986586Y-13422283D01*
X12967538Y-13431807D01*
X12948490Y-13431807D01*
X12929443Y-13422283D01*
X12919919Y-13412759D01*
X12910395Y-13393712D01*
X12900871Y-13355617D01*
X12900871Y-13307998D01*
X12910395Y-13269902D01*
X12919919Y-13250855D01*
X12929443Y-13241331D01*
X12948490Y-13231807D01*
X13081824Y-13231807D02*
X13205633Y-13231807D01*
X13138967Y-13307998D01*
X13167538Y-13307998D01*
X13186586Y-13317521D01*
X13196109Y-13327045D01*
X13205633Y-13346093D01*
X13205633Y-13393712D01*
X13196109Y-13412759D01*
X13186586Y-13422283D01*
X13167538Y-13431807D01*
X13110395Y-13431807D01*
X13091348Y-13422283D01*
X13081824Y-13412759D01*
X13396109Y-13431807D02*
X13281824Y-13431807D01*
X13338967Y-13431807D02*
X13338967Y-13231807D01*
X13319919Y-13260379D01*
X13300871Y-13279426D01*
X13281824Y-13288950D01*
X13577062Y-13231807D02*
X13481824Y-13231807D01*
X13472300Y-13327045D01*
X13481824Y-13317521D01*
X13500871Y-13307998D01*
X13548490Y-13307998D01*
X13567538Y-13317521D01*
X13577062Y-13327045D01*
X13586586Y-13346093D01*
X13586586Y-13393712D01*
X13577062Y-13412759D01*
X13567538Y-13422283D01*
X13548490Y-13431807D01*
X13500871Y-13431807D01*
X13481824Y-13422283D01*
X13472300Y-13412759D01*
X13662776Y-13231807D02*
X13662776Y-13269902D01*
X13738967Y-13231807D02*
X13738967Y-13269902D01*
X14034205Y-13507998D02*
X14024681Y-13498474D01*
X14005633Y-13469902D01*
X13996109Y-13450855D01*
X13986586Y-13422283D01*
X13977062Y-13374664D01*
X13977062Y-13336569D01*
X13986586Y-13288950D01*
X13996109Y-13260379D01*
X14005633Y-13241331D01*
X14024681Y-13212759D01*
X14034205Y-13203236D01*
X14205633Y-13231807D02*
X14110395Y-13231807D01*
X14100871Y-13327045D01*
X14110395Y-13317521D01*
X14129443Y-13307998D01*
X14177062Y-13307998D01*
X14196109Y-13317521D01*
X14205633Y-13327045D01*
X14215157Y-13346093D01*
X14215157Y-13393712D01*
X14205633Y-13412759D01*
X14196109Y-13422283D01*
X14177062Y-13431807D01*
X14129443Y-13431807D01*
X14110395Y-13422283D01*
X14100871Y-13412759D01*
X14338967Y-13231807D02*
X14358014Y-13231807D01*
X14377062Y-13241331D01*
X14386586Y-13250855D01*
X14396109Y-13269902D01*
X14405633Y-13307998D01*
X14405633Y-13355617D01*
X14396109Y-13393712D01*
X14386586Y-13412759D01*
X14377062Y-13422283D01*
X14358014Y-13431807D01*
X14338967Y-13431807D01*
X14319919Y-13422283D01*
X14310395Y-13412759D01*
X14300871Y-13393712D01*
X14291348Y-13355617D01*
X14291348Y-13307998D01*
X14300871Y-13269902D01*
X14310395Y-13250855D01*
X14319919Y-13241331D01*
X14338967Y-13231807D01*
X14643728Y-13431807D02*
X14643728Y-13231807D01*
X14729443Y-13431807D02*
X14729443Y-13327045D01*
X14719919Y-13307998D01*
X14700871Y-13298474D01*
X14672300Y-13298474D01*
X14653252Y-13307998D01*
X14643728Y-13317521D01*
X14853252Y-13431807D02*
X14834205Y-13422283D01*
X14824681Y-13412759D01*
X14815157Y-13393712D01*
X14815157Y-13336569D01*
X14824681Y-13317521D01*
X14834205Y-13307998D01*
X14853252Y-13298474D01*
X14881824Y-13298474D01*
X14900871Y-13307998D01*
X14910395Y-13317521D01*
X14919919Y-13336569D01*
X14919919Y-13393712D01*
X14910395Y-13412759D01*
X14900871Y-13422283D01*
X14881824Y-13431807D01*
X14853252Y-13431807D01*
X15034205Y-13431807D02*
X15015157Y-13422283D01*
X15005633Y-13403236D01*
X15005633Y-13231807D01*
X15186586Y-13422283D02*
X15167538Y-13431807D01*
X15129443Y-13431807D01*
X15110395Y-13422283D01*
X15100871Y-13403236D01*
X15100871Y-13327045D01*
X15110395Y-13307998D01*
X15129443Y-13298474D01*
X15167538Y-13298474D01*
X15186586Y-13307998D01*
X15196109Y-13327045D01*
X15196109Y-13346093D01*
X15100871Y-13365140D01*
X15272300Y-13422283D02*
X15291348Y-13431807D01*
X15329443Y-13431807D01*
X15348490Y-13422283D01*
X15358014Y-13403236D01*
X15358014Y-13393712D01*
X15348490Y-13374664D01*
X15329443Y-13365140D01*
X15300871Y-13365140D01*
X15281824Y-13355617D01*
X15272300Y-13336569D01*
X15272300Y-13327045D01*
X15281824Y-13307998D01*
X15300871Y-13298474D01*
X15329443Y-13298474D01*
X15348490Y-13307998D01*
X15424681Y-13507998D02*
X15434205Y-13498474D01*
X15453252Y-13469902D01*
X15462776Y-13450855D01*
X15472300Y-13422283D01*
X15481824Y-13374664D01*
X15481824Y-13336569D01*
X15472300Y-13288950D01*
X15462776Y-13260379D01*
X15453252Y-13241331D01*
X15434205Y-13212759D01*
X15424681Y-13203236D01*
D15*
X10412300Y-13655331D02*
X10462300Y-13605331D01*
X10412300Y-13555331D01*
X10362300Y-13605331D01*
X10412300Y-13655331D01*
D11*
X10824681Y-13695807D02*
X10710395Y-13695807D01*
X10767538Y-13695807D02*
X10767538Y-13495807D01*
X10748490Y-13524379D01*
X10729443Y-13543426D01*
X10710395Y-13552950D01*
X10910395Y-13676759D02*
X10919919Y-13686283D01*
X10910395Y-13695807D01*
X10900871Y-13686283D01*
X10910395Y-13676759D01*
X10910395Y-13695807D01*
X11043729Y-13495807D02*
X11062776Y-13495807D01*
X11081824Y-13505331D01*
X11091348Y-13514855D01*
X11100871Y-13533902D01*
X11110395Y-13571998D01*
X11110395Y-13619617D01*
X11100871Y-13657712D01*
X11091348Y-13676759D01*
X11081824Y-13686283D01*
X11062776Y-13695807D01*
X11043729Y-13695807D01*
X11024681Y-13686283D01*
X11015157Y-13676759D01*
X11005633Y-13657712D01*
X10996110Y-13619617D01*
X10996110Y-13571998D01*
X11005633Y-13533902D01*
X11015157Y-13514855D01*
X11024681Y-13505331D01*
X11043729Y-13495807D01*
X11234205Y-13495807D02*
X11253252Y-13495807D01*
X11272300Y-13505331D01*
X11281824Y-13514855D01*
X11291348Y-13533902D01*
X11300871Y-13571998D01*
X11300871Y-13619617D01*
X11291348Y-13657712D01*
X11281824Y-13676759D01*
X11272300Y-13686283D01*
X11253252Y-13695807D01*
X11234205Y-13695807D01*
X11215157Y-13686283D01*
X11205633Y-13676759D01*
X11196109Y-13657712D01*
X11186586Y-13619617D01*
X11186586Y-13571998D01*
X11196109Y-13533902D01*
X11205633Y-13514855D01*
X11215157Y-13505331D01*
X11234205Y-13495807D01*
X11424681Y-13495807D02*
X11443728Y-13495807D01*
X11462776Y-13505331D01*
X11472300Y-13514855D01*
X11481824Y-13533902D01*
X11491348Y-13571998D01*
X11491348Y-13619617D01*
X11481824Y-13657712D01*
X11472300Y-13676759D01*
X11462776Y-13686283D01*
X11443728Y-13695807D01*
X11424681Y-13695807D01*
X11405633Y-13686283D01*
X11396109Y-13676759D01*
X11386586Y-13657712D01*
X11377062Y-13619617D01*
X11377062Y-13571998D01*
X11386586Y-13533902D01*
X11396109Y-13514855D01*
X11405633Y-13505331D01*
X11424681Y-13495807D01*
X11577062Y-13695807D02*
X11577062Y-13562474D01*
X11577062Y-13581521D02*
X11586586Y-13571998D01*
X11605633Y-13562474D01*
X11634205Y-13562474D01*
X11653252Y-13571998D01*
X11662776Y-13591045D01*
X11662776Y-13695807D01*
X11662776Y-13591045D02*
X11672300Y-13571998D01*
X11691348Y-13562474D01*
X11719919Y-13562474D01*
X11738967Y-13571998D01*
X11748490Y-13591045D01*
X11748490Y-13695807D01*
X11843728Y-13695807D02*
X11843728Y-13562474D01*
X11843728Y-13581521D02*
X11853252Y-13571998D01*
X11872300Y-13562474D01*
X11900871Y-13562474D01*
X11919919Y-13571998D01*
X11929443Y-13591045D01*
X11929443Y-13695807D01*
X11929443Y-13591045D02*
X11938967Y-13571998D01*
X11958014Y-13562474D01*
X11986586Y-13562474D01*
X12005633Y-13571998D01*
X12015157Y-13591045D01*
X12015157Y-13695807D01*
X12405633Y-13486283D02*
X12234205Y-13743426D01*
X12662776Y-13495807D02*
X12681824Y-13495807D01*
X12700871Y-13505331D01*
X12710395Y-13514855D01*
X12719919Y-13533902D01*
X12729443Y-13571998D01*
X12729443Y-13619617D01*
X12719919Y-13657712D01*
X12710395Y-13676759D01*
X12700871Y-13686283D01*
X12681824Y-13695807D01*
X12662776Y-13695807D01*
X12643728Y-13686283D01*
X12634205Y-13676759D01*
X12624681Y-13657712D01*
X12615157Y-13619617D01*
X12615157Y-13571998D01*
X12624681Y-13533902D01*
X12634205Y-13514855D01*
X12643728Y-13505331D01*
X12662776Y-13495807D01*
X12815157Y-13676759D02*
X12824681Y-13686283D01*
X12815157Y-13695807D01*
X12805633Y-13686283D01*
X12815157Y-13676759D01*
X12815157Y-13695807D01*
X12948490Y-13495807D02*
X12967538Y-13495807D01*
X12986586Y-13505331D01*
X12996109Y-13514855D01*
X13005633Y-13533902D01*
X13015157Y-13571998D01*
X13015157Y-13619617D01*
X13005633Y-13657712D01*
X12996109Y-13676759D01*
X12986586Y-13686283D01*
X12967538Y-13695807D01*
X12948490Y-13695807D01*
X12929443Y-13686283D01*
X12919919Y-13676759D01*
X12910395Y-13657712D01*
X12900871Y-13619617D01*
X12900871Y-13571998D01*
X12910395Y-13533902D01*
X12919919Y-13514855D01*
X12929443Y-13505331D01*
X12948490Y-13495807D01*
X13081824Y-13495807D02*
X13205633Y-13495807D01*
X13138967Y-13571998D01*
X13167538Y-13571998D01*
X13186586Y-13581521D01*
X13196109Y-13591045D01*
X13205633Y-13610093D01*
X13205633Y-13657712D01*
X13196109Y-13676759D01*
X13186586Y-13686283D01*
X13167538Y-13695807D01*
X13110395Y-13695807D01*
X13091348Y-13686283D01*
X13081824Y-13676759D01*
X13300871Y-13695807D02*
X13338967Y-13695807D01*
X13358014Y-13686283D01*
X13367538Y-13676759D01*
X13386586Y-13648188D01*
X13396109Y-13610093D01*
X13396109Y-13533902D01*
X13386586Y-13514855D01*
X13377062Y-13505331D01*
X13358014Y-13495807D01*
X13319919Y-13495807D01*
X13300871Y-13505331D01*
X13291348Y-13514855D01*
X13281824Y-13533902D01*
X13281824Y-13581521D01*
X13291348Y-13600569D01*
X13300871Y-13610093D01*
X13319919Y-13619617D01*
X13358014Y-13619617D01*
X13377062Y-13610093D01*
X13386586Y-13600569D01*
X13396109Y-13581521D01*
X13567538Y-13562474D02*
X13567538Y-13695807D01*
X13519919Y-13486283D02*
X13472300Y-13629140D01*
X13596109Y-13629140D01*
X13662776Y-13495807D02*
X13662776Y-13533902D01*
X13738967Y-13495807D02*
X13738967Y-13533902D01*
X14034205Y-13771998D02*
X14024681Y-13762474D01*
X14005633Y-13733902D01*
X13996109Y-13714855D01*
X13986586Y-13686283D01*
X13977062Y-13638664D01*
X13977062Y-13600569D01*
X13986586Y-13552950D01*
X13996109Y-13524379D01*
X14005633Y-13505331D01*
X14024681Y-13476759D01*
X14034205Y-13467236D01*
X14196109Y-13495807D02*
X14158014Y-13495807D01*
X14138967Y-13505331D01*
X14129443Y-13514855D01*
X14110395Y-13543426D01*
X14100871Y-13581521D01*
X14100871Y-13657712D01*
X14110395Y-13676759D01*
X14119919Y-13686283D01*
X14138967Y-13695807D01*
X14177062Y-13695807D01*
X14196109Y-13686283D01*
X14205633Y-13676759D01*
X14215157Y-13657712D01*
X14215157Y-13610093D01*
X14205633Y-13591045D01*
X14196109Y-13581521D01*
X14177062Y-13571998D01*
X14138967Y-13571998D01*
X14119919Y-13581521D01*
X14110395Y-13591045D01*
X14100871Y-13610093D01*
X14338967Y-13495807D02*
X14358014Y-13495807D01*
X14377062Y-13505331D01*
X14386586Y-13514855D01*
X14396109Y-13533902D01*
X14405633Y-13571998D01*
X14405633Y-13619617D01*
X14396109Y-13657712D01*
X14386586Y-13676759D01*
X14377062Y-13686283D01*
X14358014Y-13695807D01*
X14338967Y-13695807D01*
X14319919Y-13686283D01*
X14310395Y-13676759D01*
X14300871Y-13657712D01*
X14291348Y-13619617D01*
X14291348Y-13571998D01*
X14300871Y-13533902D01*
X14310395Y-13514855D01*
X14319919Y-13505331D01*
X14338967Y-13495807D01*
X14643728Y-13695807D02*
X14643728Y-13495807D01*
X14729443Y-13695807D02*
X14729443Y-13591045D01*
X14719919Y-13571998D01*
X14700871Y-13562474D01*
X14672300Y-13562474D01*
X14653252Y-13571998D01*
X14643728Y-13581521D01*
X14853252Y-13695807D02*
X14834205Y-13686283D01*
X14824681Y-13676759D01*
X14815157Y-13657712D01*
X14815157Y-13600569D01*
X14824681Y-13581521D01*
X14834205Y-13571998D01*
X14853252Y-13562474D01*
X14881824Y-13562474D01*
X14900871Y-13571998D01*
X14910395Y-13581521D01*
X14919919Y-13600569D01*
X14919919Y-13657712D01*
X14910395Y-13676759D01*
X14900871Y-13686283D01*
X14881824Y-13695807D01*
X14853252Y-13695807D01*
X15034205Y-13695807D02*
X15015157Y-13686283D01*
X15005633Y-13667236D01*
X15005633Y-13495807D01*
X15186586Y-13686283D02*
X15167538Y-13695807D01*
X15129443Y-13695807D01*
X15110395Y-13686283D01*
X15100871Y-13667236D01*
X15100871Y-13591045D01*
X15110395Y-13571998D01*
X15129443Y-13562474D01*
X15167538Y-13562474D01*
X15186586Y-13571998D01*
X15196109Y-13591045D01*
X15196109Y-13610093D01*
X15100871Y-13629140D01*
X15272300Y-13686283D02*
X15291348Y-13695807D01*
X15329443Y-13695807D01*
X15348490Y-13686283D01*
X15358014Y-13667236D01*
X15358014Y-13657712D01*
X15348490Y-13638664D01*
X15329443Y-13629140D01*
X15300871Y-13629140D01*
X15281824Y-13619617D01*
X15272300Y-13600569D01*
X15272300Y-13591045D01*
X15281824Y-13571998D01*
X15300871Y-13562474D01*
X15329443Y-13562474D01*
X15348490Y-13571998D01*
X15424681Y-13771998D02*
X15434205Y-13762474D01*
X15453252Y-13733902D01*
X15462776Y-13714855D01*
X15472300Y-13686283D01*
X15481824Y-13638664D01*
X15481824Y-13600569D01*
X15472300Y-13552950D01*
X15462776Y-13524379D01*
X15453252Y-13505331D01*
X15434205Y-13476759D01*
X15424681Y-13467236D01*
X10262300Y-13769331D02*
X10462300Y-13969331D01*
X10462300Y-13769331D02*
X10262300Y-13969331D01*
X10462300Y-13869331D02*
G75*
G03*
X10462300Y-13869331I-100000J0D01*
G01*
X10710395Y-13778855D02*
X10719919Y-13769331D01*
X10738967Y-13759807D01*
X10786586Y-13759807D01*
X10805633Y-13769331D01*
X10815157Y-13778855D01*
X10824681Y-13797902D01*
X10824681Y-13816950D01*
X10815157Y-13845521D01*
X10700871Y-13959807D01*
X10824681Y-13959807D01*
X10910395Y-13940759D02*
X10919919Y-13950283D01*
X10910395Y-13959807D01*
X10900871Y-13950283D01*
X10910395Y-13940759D01*
X10910395Y-13959807D01*
X10996110Y-13778855D02*
X11005633Y-13769331D01*
X11024681Y-13759807D01*
X11072300Y-13759807D01*
X11091348Y-13769331D01*
X11100871Y-13778855D01*
X11110395Y-13797902D01*
X11110395Y-13816950D01*
X11100871Y-13845521D01*
X10986586Y-13959807D01*
X11110395Y-13959807D01*
X11234205Y-13759807D02*
X11253252Y-13759807D01*
X11272300Y-13769331D01*
X11281824Y-13778855D01*
X11291348Y-13797902D01*
X11300871Y-13835998D01*
X11300871Y-13883617D01*
X11291348Y-13921712D01*
X11281824Y-13940759D01*
X11272300Y-13950283D01*
X11253252Y-13959807D01*
X11234205Y-13959807D01*
X11215157Y-13950283D01*
X11205633Y-13940759D01*
X11196109Y-13921712D01*
X11186586Y-13883617D01*
X11186586Y-13835998D01*
X11196109Y-13797902D01*
X11205633Y-13778855D01*
X11215157Y-13769331D01*
X11234205Y-13759807D01*
X11424681Y-13759807D02*
X11443728Y-13759807D01*
X11462776Y-13769331D01*
X11472300Y-13778855D01*
X11481824Y-13797902D01*
X11491348Y-13835998D01*
X11491348Y-13883617D01*
X11481824Y-13921712D01*
X11472300Y-13940759D01*
X11462776Y-13950283D01*
X11443728Y-13959807D01*
X11424681Y-13959807D01*
X11405633Y-13950283D01*
X11396109Y-13940759D01*
X11386586Y-13921712D01*
X11377062Y-13883617D01*
X11377062Y-13835998D01*
X11386586Y-13797902D01*
X11396109Y-13778855D01*
X11405633Y-13769331D01*
X11424681Y-13759807D01*
X11577062Y-13959807D02*
X11577062Y-13826474D01*
X11577062Y-13845521D02*
X11586586Y-13835998D01*
X11605633Y-13826474D01*
X11634205Y-13826474D01*
X11653252Y-13835998D01*
X11662776Y-13855045D01*
X11662776Y-13959807D01*
X11662776Y-13855045D02*
X11672300Y-13835998D01*
X11691348Y-13826474D01*
X11719919Y-13826474D01*
X11738967Y-13835998D01*
X11748490Y-13855045D01*
X11748490Y-13959807D01*
X11843728Y-13959807D02*
X11843728Y-13826474D01*
X11843728Y-13845521D02*
X11853252Y-13835998D01*
X11872300Y-13826474D01*
X11900871Y-13826474D01*
X11919919Y-13835998D01*
X11929443Y-13855045D01*
X11929443Y-13959807D01*
X11929443Y-13855045D02*
X11938967Y-13835998D01*
X11958014Y-13826474D01*
X11986586Y-13826474D01*
X12005633Y-13835998D01*
X12015157Y-13855045D01*
X12015157Y-13959807D01*
X12405633Y-13750283D02*
X12234205Y-14007426D01*
X12662776Y-13759807D02*
X12681824Y-13759807D01*
X12700871Y-13769331D01*
X12710395Y-13778855D01*
X12719919Y-13797902D01*
X12729443Y-13835998D01*
X12729443Y-13883617D01*
X12719919Y-13921712D01*
X12710395Y-13940759D01*
X12700871Y-13950283D01*
X12681824Y-13959807D01*
X12662776Y-13959807D01*
X12643728Y-13950283D01*
X12634205Y-13940759D01*
X12624681Y-13921712D01*
X12615157Y-13883617D01*
X12615157Y-13835998D01*
X12624681Y-13797902D01*
X12634205Y-13778855D01*
X12643728Y-13769331D01*
X12662776Y-13759807D01*
X12815157Y-13940759D02*
X12824681Y-13950283D01*
X12815157Y-13959807D01*
X12805633Y-13950283D01*
X12815157Y-13940759D01*
X12815157Y-13959807D01*
X12948490Y-13759807D02*
X12967538Y-13759807D01*
X12986586Y-13769331D01*
X12996109Y-13778855D01*
X13005633Y-13797902D01*
X13015157Y-13835998D01*
X13015157Y-13883617D01*
X13005633Y-13921712D01*
X12996109Y-13940759D01*
X12986586Y-13950283D01*
X12967538Y-13959807D01*
X12948490Y-13959807D01*
X12929443Y-13950283D01*
X12919919Y-13940759D01*
X12910395Y-13921712D01*
X12900871Y-13883617D01*
X12900871Y-13835998D01*
X12910395Y-13797902D01*
X12919919Y-13778855D01*
X12929443Y-13769331D01*
X12948490Y-13759807D01*
X13129443Y-13845521D02*
X13110395Y-13835998D01*
X13100871Y-13826474D01*
X13091348Y-13807426D01*
X13091348Y-13797902D01*
X13100871Y-13778855D01*
X13110395Y-13769331D01*
X13129443Y-13759807D01*
X13167538Y-13759807D01*
X13186586Y-13769331D01*
X13196109Y-13778855D01*
X13205633Y-13797902D01*
X13205633Y-13807426D01*
X13196109Y-13826474D01*
X13186586Y-13835998D01*
X13167538Y-13845521D01*
X13129443Y-13845521D01*
X13110395Y-13855045D01*
X13100871Y-13864569D01*
X13091348Y-13883617D01*
X13091348Y-13921712D01*
X13100871Y-13940759D01*
X13110395Y-13950283D01*
X13129443Y-13959807D01*
X13167538Y-13959807D01*
X13186586Y-13950283D01*
X13196109Y-13940759D01*
X13205633Y-13921712D01*
X13205633Y-13883617D01*
X13196109Y-13864569D01*
X13186586Y-13855045D01*
X13167538Y-13845521D01*
X13377062Y-13759807D02*
X13338967Y-13759807D01*
X13319919Y-13769331D01*
X13310395Y-13778855D01*
X13291348Y-13807426D01*
X13281824Y-13845521D01*
X13281824Y-13921712D01*
X13291348Y-13940759D01*
X13300871Y-13950283D01*
X13319919Y-13959807D01*
X13358014Y-13959807D01*
X13377062Y-13950283D01*
X13386586Y-13940759D01*
X13396109Y-13921712D01*
X13396109Y-13874093D01*
X13386586Y-13855045D01*
X13377062Y-13845521D01*
X13358014Y-13835998D01*
X13319919Y-13835998D01*
X13300871Y-13845521D01*
X13291348Y-13855045D01*
X13281824Y-13874093D01*
X13567538Y-13759807D02*
X13529443Y-13759807D01*
X13510395Y-13769331D01*
X13500871Y-13778855D01*
X13481824Y-13807426D01*
X13472300Y-13845521D01*
X13472300Y-13921712D01*
X13481824Y-13940759D01*
X13491348Y-13950283D01*
X13510395Y-13959807D01*
X13548490Y-13959807D01*
X13567538Y-13950283D01*
X13577062Y-13940759D01*
X13586586Y-13921712D01*
X13586586Y-13874093D01*
X13577062Y-13855045D01*
X13567538Y-13845521D01*
X13548490Y-13835998D01*
X13510395Y-13835998D01*
X13491348Y-13845521D01*
X13481824Y-13855045D01*
X13472300Y-13874093D01*
X13662776Y-13759807D02*
X13662776Y-13797902D01*
X13738967Y-13759807D02*
X13738967Y-13797902D01*
X14034205Y-14035998D02*
X14024681Y-14026474D01*
X14005633Y-13997902D01*
X13996109Y-13978855D01*
X13986586Y-13950283D01*
X13977062Y-13902664D01*
X13977062Y-13864569D01*
X13986586Y-13816950D01*
X13996109Y-13788379D01*
X14005633Y-13769331D01*
X14024681Y-13740759D01*
X14034205Y-13731236D01*
X14100871Y-13778855D02*
X14110395Y-13769331D01*
X14129443Y-13759807D01*
X14177062Y-13759807D01*
X14196109Y-13769331D01*
X14205633Y-13778855D01*
X14215157Y-13797902D01*
X14215157Y-13816950D01*
X14205633Y-13845521D01*
X14091348Y-13959807D01*
X14215157Y-13959807D01*
X14453252Y-13959807D02*
X14453252Y-13759807D01*
X14538967Y-13959807D02*
X14538967Y-13855045D01*
X14529443Y-13835998D01*
X14510395Y-13826474D01*
X14481824Y-13826474D01*
X14462776Y-13835998D01*
X14453252Y-13845521D01*
X14662776Y-13959807D02*
X14643728Y-13950283D01*
X14634205Y-13940759D01*
X14624681Y-13921712D01*
X14624681Y-13864569D01*
X14634205Y-13845521D01*
X14643728Y-13835998D01*
X14662776Y-13826474D01*
X14691348Y-13826474D01*
X14710395Y-13835998D01*
X14719919Y-13845521D01*
X14729443Y-13864569D01*
X14729443Y-13921712D01*
X14719919Y-13940759D01*
X14710395Y-13950283D01*
X14691348Y-13959807D01*
X14662776Y-13959807D01*
X14843728Y-13959807D02*
X14824681Y-13950283D01*
X14815157Y-13931236D01*
X14815157Y-13759807D01*
X14996109Y-13950283D02*
X14977062Y-13959807D01*
X14938967Y-13959807D01*
X14919919Y-13950283D01*
X14910395Y-13931236D01*
X14910395Y-13855045D01*
X14919919Y-13835998D01*
X14938967Y-13826474D01*
X14977062Y-13826474D01*
X14996109Y-13835998D01*
X15005633Y-13855045D01*
X15005633Y-13874093D01*
X14910395Y-13893140D01*
X15081824Y-13950283D02*
X15100871Y-13959807D01*
X15138967Y-13959807D01*
X15158014Y-13950283D01*
X15167538Y-13931236D01*
X15167538Y-13921712D01*
X15158014Y-13902664D01*
X15138967Y-13893140D01*
X15110395Y-13893140D01*
X15091348Y-13883617D01*
X15081824Y-13864569D01*
X15081824Y-13855045D01*
X15091348Y-13835998D01*
X15110395Y-13826474D01*
X15138967Y-13826474D01*
X15158014Y-13835998D01*
X15234205Y-14035998D02*
X15243728Y-14026474D01*
X15262776Y-13997902D01*
X15272300Y-13978855D01*
X15281824Y-13950283D01*
X15291348Y-13902664D01*
X15291348Y-13864569D01*
X15281824Y-13816950D01*
X15272300Y-13788379D01*
X15262776Y-13769331D01*
X15243728Y-13740759D01*
X15234205Y-13731236D01*
M02*
