%TF.GenerationSoftware,KiCad,Pcbnew,(6.0.11)*%
%TF.CreationDate,2024-10-09T23:18:14+02:00*%
%TF.ProjectId,kicad-c128keyb,6b696361-642d-4633-9132-386b6579622e,rev?*%
%TF.SameCoordinates,Original*%
%TF.FileFunction,Drillmap*%
%TF.FilePolarity,Positive*%
%FSLAX45Y45*%
G04 Gerber Fmt 4.5, Leading zero omitted, Abs format (unit mm)*
G04 Created by KiCad (PCBNEW (6.0.11)) date 2024-10-09 23:18:14*
%MOMM*%
%LPD*%
G01*
G04 APERTURE LIST*
%ADD10C,0.050000*%
%ADD11C,0.200000*%
G04 APERTURE END LIST*
D10*
X16131159Y-11906831D02*
X10464800Y-11906831D01*
X10464800Y-11906831D02*
X10464800Y-6502400D01*
X10464800Y-6502400D02*
X16131159Y-6502400D01*
X16131159Y-6502400D02*
X16131159Y-11906831D01*
D11*
X10719919Y-12219807D02*
X10719919Y-12019807D01*
X10767538Y-12019807D01*
X10796110Y-12029331D01*
X10815157Y-12048379D01*
X10824681Y-12067426D01*
X10834205Y-12105521D01*
X10834205Y-12134093D01*
X10824681Y-12172188D01*
X10815157Y-12191236D01*
X10796110Y-12210283D01*
X10767538Y-12219807D01*
X10719919Y-12219807D01*
X10919919Y-12219807D02*
X10919919Y-12086474D01*
X10919919Y-12124569D02*
X10929443Y-12105521D01*
X10938967Y-12095998D01*
X10958014Y-12086474D01*
X10977062Y-12086474D01*
X11043729Y-12219807D02*
X11043729Y-12086474D01*
X11043729Y-12019807D02*
X11034205Y-12029331D01*
X11043729Y-12038855D01*
X11053252Y-12029331D01*
X11043729Y-12019807D01*
X11043729Y-12038855D01*
X11167538Y-12219807D02*
X11148490Y-12210283D01*
X11138967Y-12191236D01*
X11138967Y-12019807D01*
X11272300Y-12219807D02*
X11253252Y-12210283D01*
X11243728Y-12191236D01*
X11243728Y-12019807D01*
X11500871Y-12219807D02*
X11500871Y-12019807D01*
X11567538Y-12162664D01*
X11634205Y-12019807D01*
X11634205Y-12219807D01*
X11815157Y-12219807D02*
X11815157Y-12115045D01*
X11805633Y-12095998D01*
X11786586Y-12086474D01*
X11748490Y-12086474D01*
X11729443Y-12095998D01*
X11815157Y-12210283D02*
X11796109Y-12219807D01*
X11748490Y-12219807D01*
X11729443Y-12210283D01*
X11719919Y-12191236D01*
X11719919Y-12172188D01*
X11729443Y-12153140D01*
X11748490Y-12143617D01*
X11796109Y-12143617D01*
X11815157Y-12134093D01*
X11910395Y-12086474D02*
X11910395Y-12286474D01*
X11910395Y-12095998D02*
X11929443Y-12086474D01*
X11967538Y-12086474D01*
X11986586Y-12095998D01*
X11996109Y-12105521D01*
X12005633Y-12124569D01*
X12005633Y-12181712D01*
X11996109Y-12200759D01*
X11986586Y-12210283D01*
X11967538Y-12219807D01*
X11929443Y-12219807D01*
X11910395Y-12210283D01*
X12091348Y-12200759D02*
X12100871Y-12210283D01*
X12091348Y-12219807D01*
X12081824Y-12210283D01*
X12091348Y-12200759D01*
X12091348Y-12219807D01*
X12091348Y-12095998D02*
X12100871Y-12105521D01*
X12091348Y-12115045D01*
X12081824Y-12105521D01*
X12091348Y-12095998D01*
X12091348Y-12115045D01*
M02*
