G04 #@! TF.GenerationSoftware,KiCad,Pcbnew,(6.0.11)*
G04 #@! TF.CreationDate,2024-10-09T23:17:59+02:00*
G04 #@! TF.ProjectId,kicad-c128keyb,6b696361-642d-4633-9132-386b6579622e,rev?*
G04 #@! TF.SameCoordinates,Original*
G04 #@! TF.FileFunction,Copper,L2,Bot*
G04 #@! TF.FilePolarity,Positive*
%FSLAX46Y46*%
G04 Gerber Fmt 4.6, Leading zero omitted, Abs format (unit mm)*
G04 Created by KiCad (PCBNEW (6.0.11)) date 2024-10-09 23:17:59*
%MOMM*%
%LPD*%
G01*
G04 APERTURE LIST*
G04 #@! TA.AperFunction,ComponentPad*
%ADD10R,1.600000X1.600000*%
G04 #@! TD*
G04 #@! TA.AperFunction,ComponentPad*
%ADD11O,1.600000X1.600000*%
G04 #@! TD*
G04 #@! TA.AperFunction,ComponentPad*
%ADD12O,1.700000X1.700000*%
G04 #@! TD*
G04 #@! TA.AperFunction,ComponentPad*
%ADD13R,1.700000X1.700000*%
G04 #@! TD*
G04 #@! TA.AperFunction,ComponentPad*
%ADD14C,1.600000*%
G04 #@! TD*
G04 #@! TA.AperFunction,ComponentPad*
%ADD15R,1.050000X1.500000*%
G04 #@! TD*
G04 #@! TA.AperFunction,ComponentPad*
%ADD16O,1.050000X1.500000*%
G04 #@! TD*
G04 #@! TA.AperFunction,ComponentPad*
%ADD17O,1.700000X3.700000*%
G04 #@! TD*
G04 #@! TA.AperFunction,ComponentPad*
%ADD18O,1.700000X3.600000*%
G04 #@! TD*
G04 #@! TA.AperFunction,ComponentPad*
%ADD19R,1.700000X3.500000*%
G04 #@! TD*
G04 #@! TA.AperFunction,ComponentPad*
%ADD20C,0.700000*%
G04 #@! TD*
G04 #@! TA.AperFunction,ComponentPad*
%ADD21C,4.400000*%
G04 #@! TD*
G04 #@! TA.AperFunction,ViaPad*
%ADD22C,0.800000*%
G04 #@! TD*
G04 #@! TA.AperFunction,Conductor*
%ADD23C,0.250000*%
G04 #@! TD*
G04 APERTURE END LIST*
D10*
X110993000Y-79741000D03*
D11*
X110993000Y-82281000D03*
X110993000Y-84821000D03*
X110993000Y-87361000D03*
X110993000Y-89901000D03*
X110993000Y-92441000D03*
X110993000Y-94981000D03*
X110993000Y-97521000D03*
X110993000Y-100061000D03*
X110993000Y-102601000D03*
X110993000Y-105141000D03*
X110993000Y-107681000D03*
X110993000Y-110221000D03*
X110993000Y-112761000D03*
X126233000Y-112761000D03*
X126233000Y-110221000D03*
X126233000Y-107681000D03*
X126233000Y-105141000D03*
X126233000Y-102601000D03*
X126233000Y-100061000D03*
X126233000Y-97521000D03*
X126233000Y-94981000D03*
X126233000Y-92441000D03*
X126233000Y-89901000D03*
X126233000Y-87361000D03*
X126233000Y-84821000D03*
X126233000Y-82281000D03*
X126233000Y-79741000D03*
D12*
X159258000Y-116586000D03*
X156718000Y-116586000D03*
X154178000Y-116586000D03*
X151638000Y-116586000D03*
X149098000Y-116586000D03*
X146558000Y-116586000D03*
X144018000Y-116586000D03*
X141478000Y-116586000D03*
X138938000Y-116586000D03*
X136398000Y-116586000D03*
X133858000Y-116586000D03*
X131318000Y-116586000D03*
X128778000Y-116586000D03*
X126238000Y-116586000D03*
X123698000Y-116586000D03*
X121158000Y-116586000D03*
X118618000Y-116586000D03*
X116078000Y-116586000D03*
X113538000Y-116586000D03*
D13*
X110998000Y-116586000D03*
X107188000Y-116586000D03*
D12*
X107188000Y-114046000D03*
X107188000Y-111506000D03*
X107188000Y-108966000D03*
X107188000Y-106426000D03*
X107188000Y-103886000D03*
X107188000Y-101346000D03*
X107188000Y-98806000D03*
X107188000Y-96266000D03*
X107188000Y-93726000D03*
X107188000Y-91186000D03*
X107188000Y-88646000D03*
X107188000Y-86106000D03*
X107188000Y-83566000D03*
X107188000Y-81026000D03*
X107188000Y-78486000D03*
X107188000Y-75946000D03*
X107188000Y-73406000D03*
X107188000Y-70866000D03*
X107188000Y-68326000D03*
D14*
X110784000Y-76454000D03*
X115784000Y-76454000D03*
X138938000Y-75184000D03*
D11*
X138938000Y-67564000D03*
D10*
X131074000Y-94986000D03*
D11*
X131074000Y-97526000D03*
X131074000Y-100066000D03*
X131074000Y-102606000D03*
X131074000Y-105146000D03*
X131074000Y-107686000D03*
X131074000Y-110226000D03*
X131074000Y-112766000D03*
X138694000Y-112766000D03*
X138694000Y-110226000D03*
X138694000Y-107686000D03*
X138694000Y-105146000D03*
X138694000Y-102606000D03*
X138694000Y-100066000D03*
X138694000Y-97526000D03*
X138694000Y-94986000D03*
D13*
X156464000Y-68453000D03*
D12*
X156464000Y-70993000D03*
X156464000Y-73533000D03*
X156464000Y-76073000D03*
D14*
X138898000Y-91440000D03*
X133898000Y-91440000D03*
D15*
X137414000Y-80243000D03*
D16*
X138684000Y-80243000D03*
X139954000Y-80243000D03*
D17*
X159512000Y-106923000D03*
X156972000Y-106923000D03*
X154432000Y-106923000D03*
X151892000Y-106923000D03*
D18*
X149352000Y-106923000D03*
X146812000Y-106923000D03*
X144272000Y-106923000D03*
X144272000Y-89673000D03*
X146812000Y-89673000D03*
X149352000Y-89673000D03*
X151892000Y-89673000D03*
X154432000Y-89673000D03*
X156972000Y-89673000D03*
D19*
X159512000Y-89673000D03*
D20*
X121920000Y-70486000D03*
X123086726Y-70969274D03*
X123570000Y-72136000D03*
D21*
X121920000Y-72136000D03*
D20*
X123086726Y-73302726D03*
X121920000Y-73786000D03*
X120753274Y-70969274D03*
X120753274Y-73302726D03*
X120270000Y-72136000D03*
X149756726Y-70969274D03*
X147423274Y-73302726D03*
X148590000Y-70486000D03*
X148590000Y-73786000D03*
X146940000Y-72136000D03*
X147423274Y-70969274D03*
X149756726Y-73302726D03*
X150240000Y-72136000D03*
D21*
X148590000Y-72136000D03*
D13*
X155453000Y-112014000D03*
D12*
X152913000Y-112014000D03*
D22*
X122155100Y-85127800D03*
X146413300Y-94816500D03*
X146666100Y-97857700D03*
X145767500Y-99943400D03*
X129046100Y-88702300D03*
X120914200Y-84649700D03*
X120676300Y-88745900D03*
X128037700Y-98424400D03*
X118418500Y-97521000D03*
X114025500Y-90808200D03*
X118203900Y-113435200D03*
X141333900Y-105220000D03*
X145002600Y-101679400D03*
X128556300Y-105141000D03*
X132518000Y-110040500D03*
X119597400Y-98561000D03*
X121370500Y-101119000D03*
X137065100Y-108958100D03*
X114129700Y-102915900D03*
X116101800Y-106968500D03*
X135416500Y-111124000D03*
X124101500Y-113290000D03*
X115207900Y-114251500D03*
X128655100Y-111360200D03*
X123581400Y-101261800D03*
X119035100Y-100669800D03*
X116503100Y-83027100D03*
X137544600Y-101316600D03*
X134430800Y-96252500D03*
X125013000Y-101073400D03*
X118871100Y-110384400D03*
X135545700Y-102044300D03*
X129696800Y-114978400D03*
X133645300Y-111850900D03*
D23*
X131074000Y-105146000D02*
X131074000Y-104019100D01*
X125658300Y-88631000D02*
X122155100Y-85127800D01*
X126562600Y-88631000D02*
X125658300Y-88631000D01*
X127751800Y-89820200D02*
X126562600Y-88631000D01*
X127751800Y-94184900D02*
X127751800Y-89820200D01*
X128140800Y-94573900D02*
X127751800Y-94184900D01*
X128140800Y-95535600D02*
X128140800Y-94573900D01*
X128764600Y-96159400D02*
X128140800Y-95535600D01*
X128764600Y-101991500D02*
X128764600Y-96159400D01*
X130792200Y-104019100D02*
X128764600Y-101991500D01*
X131074000Y-104019100D02*
X130792200Y-104019100D01*
X131307500Y-101479100D02*
X131074000Y-101479100D01*
X132660800Y-100125800D02*
X131307500Y-101479100D01*
X132660800Y-87014000D02*
X132660800Y-100125800D01*
X126514700Y-80867900D02*
X132660800Y-87014000D01*
X126233000Y-80867900D02*
X126514700Y-80867900D01*
X126233000Y-79741000D02*
X126233000Y-80867900D01*
X131074000Y-102606000D02*
X131074000Y-101479100D01*
X126466500Y-83407900D02*
X126233000Y-83407900D01*
X132200900Y-89142300D02*
X126466500Y-83407900D01*
X132200900Y-98094000D02*
X132200900Y-89142300D01*
X131355800Y-98939100D02*
X132200900Y-98094000D01*
X131074000Y-98939100D02*
X131355800Y-98939100D01*
X131074000Y-100066000D02*
X131074000Y-98939100D01*
X126233000Y-82281000D02*
X126233000Y-83407900D01*
X131074000Y-97526000D02*
X131074000Y-96399100D01*
X126233000Y-84821000D02*
X126233000Y-85947900D01*
X130390100Y-96399100D02*
X131074000Y-96399100D01*
X128977600Y-94986600D02*
X130390100Y-96399100D01*
X128977600Y-94349700D02*
X128977600Y-94986600D01*
X128319100Y-93691200D02*
X128977600Y-94349700D01*
X128319100Y-87805900D02*
X128319100Y-93691200D01*
X126461100Y-85947900D02*
X128319100Y-87805900D01*
X126233000Y-85947900D02*
X126461100Y-85947900D01*
X149352000Y-84361900D02*
X156464000Y-77249900D01*
X149352000Y-90673000D02*
X149352000Y-84361900D01*
X156464000Y-76073000D02*
X156464000Y-77249900D01*
X156098200Y-74709900D02*
X156464000Y-74709900D01*
X146812000Y-83996100D02*
X156098200Y-74709900D01*
X146812000Y-90673000D02*
X146812000Y-83996100D01*
X156464000Y-73533000D02*
X156464000Y-74709900D01*
X154432000Y-105923000D02*
X154432000Y-104746100D01*
X156464000Y-70993000D02*
X156464000Y-72169900D01*
X156829800Y-72169900D02*
X156464000Y-72169900D01*
X157658000Y-72998100D02*
X156829800Y-72169900D01*
X157658000Y-78490700D02*
X157658000Y-72998100D01*
X155608900Y-80539800D02*
X157658000Y-78490700D01*
X155608900Y-103569200D02*
X155608900Y-80539800D01*
X154432000Y-104746100D02*
X155608900Y-103569200D01*
X145070400Y-94816500D02*
X139820900Y-100066000D01*
X146413300Y-94816500D02*
X145070400Y-94816500D01*
X138694000Y-100066000D02*
X139820900Y-100066000D01*
X139820900Y-104702900D02*
X139820900Y-105146000D01*
X146666100Y-97857700D02*
X139820900Y-104702900D01*
X138694000Y-105146000D02*
X139820900Y-105146000D01*
X138694000Y-107686000D02*
X138694000Y-106559100D01*
X139059300Y-106559100D02*
X138694000Y-106559100D01*
X140607000Y-105011400D02*
X139059300Y-106559100D01*
X140607000Y-104919000D02*
X140607000Y-105011400D01*
X145582600Y-99943400D02*
X140607000Y-104919000D01*
X145767500Y-99943400D02*
X145582600Y-99943400D01*
X146812000Y-105923000D02*
X146812000Y-104796100D01*
X138938000Y-67564000D02*
X138938000Y-68690900D01*
X145598500Y-75351400D02*
X138938000Y-68690900D01*
X145598500Y-91309700D02*
X145598500Y-75351400D01*
X147393000Y-93104200D02*
X145598500Y-91309700D01*
X147393000Y-104215100D02*
X147393000Y-93104200D01*
X146812000Y-104796100D02*
X147393000Y-104215100D01*
X131074000Y-94986000D02*
X131074000Y-93859100D01*
X129046100Y-91831200D02*
X129046100Y-88702300D01*
X131074000Y-93859100D02*
X129046100Y-91831200D01*
X138684000Y-75438000D02*
X138938000Y-75184000D01*
X138684000Y-80243000D02*
X138684000Y-75438000D01*
X126233000Y-100061000D02*
X126233000Y-101187900D01*
X123698000Y-116586000D02*
X123698000Y-115409100D01*
X126233000Y-100061000D02*
X126233000Y-98934100D01*
X109295800Y-68326000D02*
X107188000Y-68326000D01*
X119948200Y-78978400D02*
X109295800Y-68326000D01*
X119948200Y-92845400D02*
X119948200Y-78978400D01*
X126036900Y-98934100D02*
X119948200Y-92845400D01*
X126233000Y-98934100D02*
X126036900Y-98934100D01*
X126032500Y-101187900D02*
X126233000Y-101187900D01*
X123374600Y-103845800D02*
X126032500Y-101187900D01*
X123374600Y-115085700D02*
X123374600Y-103845800D01*
X123698000Y-115409100D02*
X123374600Y-115085700D01*
X126233000Y-92441000D02*
X126233000Y-93567900D01*
X128778000Y-116586000D02*
X128778000Y-115409100D01*
X125999500Y-91314100D02*
X126233000Y-91314100D01*
X120914200Y-86228800D02*
X125999500Y-91314100D01*
X120914200Y-84649700D02*
X120914200Y-86228800D01*
X126233000Y-92441000D02*
X126233000Y-91314100D01*
X127457900Y-114089000D02*
X128778000Y-115409100D01*
X127457900Y-99168100D02*
X127457900Y-114089000D01*
X127298400Y-99008600D02*
X127457900Y-99168100D01*
X127298400Y-98135800D02*
X127298400Y-99008600D01*
X127378100Y-98056100D02*
X127298400Y-98135800D01*
X127378100Y-94450300D02*
X127378100Y-98056100D01*
X126495700Y-93567900D02*
X127378100Y-94450300D01*
X126233000Y-93567900D02*
X126495700Y-93567900D01*
X107553800Y-74582900D02*
X107188000Y-74582900D01*
X109182200Y-76211300D02*
X107553800Y-74582900D01*
X109182200Y-88542200D02*
X109182200Y-76211300D01*
X109866100Y-89226100D02*
X109182200Y-88542200D01*
X109866100Y-93009000D02*
X109866100Y-89226100D01*
X110711200Y-93854100D02*
X109866100Y-93009000D01*
X110993000Y-93854100D02*
X110711200Y-93854100D01*
X107188000Y-73406000D02*
X107188000Y-74582900D01*
X110993000Y-94417500D02*
X110993000Y-93854100D01*
X110993000Y-94417500D02*
X110993000Y-94981000D01*
X137761100Y-116951800D02*
X137761100Y-116586000D01*
X136930400Y-117782500D02*
X137761100Y-116951800D01*
X123182100Y-117782500D02*
X136930400Y-117782500D01*
X122428000Y-117028400D02*
X123182100Y-117782500D01*
X122428000Y-116157500D02*
X122428000Y-117028400D01*
X120700900Y-114430400D02*
X122428000Y-116157500D01*
X118136900Y-114430400D02*
X120700900Y-114430400D01*
X117280700Y-113574200D02*
X118136900Y-114430400D01*
X117280700Y-101268700D02*
X117280700Y-113574200D01*
X110993000Y-94981000D02*
X117280700Y-101268700D01*
X138938000Y-116586000D02*
X137761100Y-116586000D01*
X126233000Y-94302600D02*
X126233000Y-94981000D01*
X120676300Y-88745900D02*
X126233000Y-94302600D01*
X136150900Y-115409100D02*
X136398000Y-115409100D01*
X132918300Y-112176500D02*
X136150900Y-115409100D01*
X132918300Y-111363200D02*
X132918300Y-112176500D01*
X133245000Y-111036500D02*
X132918300Y-111363200D01*
X133245000Y-108181400D02*
X133245000Y-111036500D01*
X131479600Y-106416000D02*
X133245000Y-108181400D01*
X130703900Y-106416000D02*
X131479600Y-106416000D01*
X129674400Y-105386500D02*
X130703900Y-106416000D01*
X129674400Y-104918400D02*
X129674400Y-105386500D01*
X128037700Y-103281700D02*
X129674400Y-104918400D01*
X128037700Y-98424400D02*
X128037700Y-103281700D01*
X136398000Y-116586000D02*
X136398000Y-115409100D01*
X141478000Y-116586000D02*
X140301100Y-116586000D01*
X110993000Y-97521000D02*
X110993000Y-98647900D01*
X107188000Y-78486000D02*
X107188000Y-79662900D01*
X110993000Y-97521000D02*
X110993000Y-96394100D01*
X110759500Y-96394100D02*
X110993000Y-96394100D01*
X109360700Y-94995300D02*
X110759500Y-96394100D01*
X109360700Y-90503100D02*
X109360700Y-94995300D01*
X108364900Y-89507300D02*
X109360700Y-90503100D01*
X108364900Y-80471900D02*
X108364900Y-89507300D01*
X107555900Y-79662900D02*
X108364900Y-80471900D01*
X107188000Y-79662900D02*
X107555900Y-79662900D01*
X140301100Y-116953800D02*
X140301100Y-116586000D01*
X139020500Y-118234400D02*
X140301100Y-116953800D01*
X121068300Y-118234400D02*
X139020500Y-118234400D01*
X119794900Y-116961000D02*
X121068300Y-118234400D01*
X119794900Y-116088500D02*
X119794900Y-116961000D01*
X118590100Y-114883700D02*
X119794900Y-116088500D01*
X117951100Y-114883700D02*
X118590100Y-114883700D01*
X116828800Y-113761400D02*
X117951100Y-114883700D01*
X116828800Y-104261900D02*
X116828800Y-113761400D01*
X111214800Y-98647900D02*
X116828800Y-104261900D01*
X110993000Y-98647900D02*
X111214800Y-98647900D01*
X118418500Y-95201200D02*
X118418500Y-97521000D01*
X114025500Y-90808200D02*
X118418500Y-95201200D01*
X118144200Y-113375500D02*
X118203900Y-113435200D01*
X118144200Y-97795300D02*
X118144200Y-113375500D01*
X118418500Y-97521000D02*
X118144200Y-97795300D01*
X141333900Y-107645000D02*
X149098000Y-115409100D01*
X141333900Y-105220000D02*
X141333900Y-107645000D01*
X149098000Y-116586000D02*
X149098000Y-115409100D01*
X155541100Y-116220200D02*
X155541100Y-116586000D01*
X153899100Y-114578200D02*
X155541100Y-116220200D01*
X151852800Y-114578200D02*
X153899100Y-114578200D01*
X145635100Y-108360500D02*
X151852800Y-114578200D01*
X145635100Y-102311900D02*
X145635100Y-108360500D01*
X145002600Y-101679400D02*
X145635100Y-102311900D01*
X156718000Y-116586000D02*
X155541100Y-116586000D01*
X121370500Y-100334100D02*
X119597400Y-98561000D01*
X121370500Y-101119000D02*
X121370500Y-100334100D01*
X131290400Y-108812900D02*
X132518000Y-110040500D01*
X130583100Y-108812900D02*
X131290400Y-108812900D01*
X128556300Y-106786100D02*
X130583100Y-108812900D01*
X128556300Y-105141000D02*
X128556300Y-106786100D01*
X146558000Y-116586000D02*
X145381100Y-116586000D01*
X112544800Y-101331000D02*
X114129700Y-102915900D01*
X110661500Y-101331000D02*
X112544800Y-101331000D01*
X109760300Y-100429800D02*
X110661500Y-101331000D01*
X109760300Y-97955400D02*
X109760300Y-100429800D01*
X108908700Y-97103800D02*
X109760300Y-97955400D01*
X108908700Y-93715800D02*
X108908700Y-97103800D01*
X107555800Y-92362900D02*
X108908700Y-93715800D01*
X107188000Y-92362900D02*
X107555800Y-92362900D01*
X107188000Y-91186000D02*
X107188000Y-92362900D01*
X137065100Y-110219100D02*
X137065100Y-108958100D01*
X138485100Y-111639100D02*
X137065100Y-110219100D01*
X140798700Y-111639100D02*
X138485100Y-111639100D01*
X145381100Y-116221500D02*
X140798700Y-111639100D01*
X145381100Y-116586000D02*
X145381100Y-116221500D01*
X107188000Y-93726000D02*
X107188000Y-94902900D01*
X144018000Y-116586000D02*
X142841100Y-116586000D01*
X113004300Y-103871000D02*
X116101800Y-106968500D01*
X110650000Y-103871000D02*
X113004300Y-103871000D01*
X108816800Y-102037800D02*
X110650000Y-103871000D01*
X108816800Y-97651100D02*
X108816800Y-102037800D01*
X108364900Y-97199200D02*
X108816800Y-97651100D01*
X108364900Y-95711900D02*
X108364900Y-97199200D01*
X107555900Y-94902900D02*
X108364900Y-95711900D01*
X107188000Y-94902900D02*
X107555900Y-94902900D01*
X138878300Y-114585800D02*
X135416500Y-111124000D01*
X141206700Y-114585800D02*
X138878300Y-114585800D01*
X142841100Y-116220200D02*
X141206700Y-114585800D01*
X142841100Y-116586000D02*
X142841100Y-116220200D01*
X107188000Y-96266000D02*
X107188000Y-97442900D01*
X116078000Y-111071200D02*
X116078000Y-115409100D01*
X111274700Y-106267900D02*
X116078000Y-111071200D01*
X110993000Y-106267900D02*
X111274700Y-106267900D01*
X110993000Y-105141000D02*
X110993000Y-106267900D01*
X116078000Y-116586000D02*
X116078000Y-115409100D01*
X107489300Y-97442900D02*
X107188000Y-97442900D01*
X108364900Y-98318500D02*
X107489300Y-97442900D01*
X108364900Y-102512900D02*
X108364900Y-98318500D01*
X110993000Y-105141000D02*
X108364900Y-102512900D01*
X107188000Y-98806000D02*
X107188000Y-99982900D01*
X110993000Y-112761000D02*
X110993000Y-111634100D01*
X110759500Y-111634100D02*
X110993000Y-111634100D01*
X108745000Y-109619600D02*
X110759500Y-111634100D01*
X108745000Y-108858600D02*
X108745000Y-109619600D01*
X107489300Y-107602900D02*
X108745000Y-108858600D01*
X106645400Y-107602900D02*
X107489300Y-107602900D01*
X105989200Y-106946700D02*
X106645400Y-107602900D01*
X105989200Y-100813900D02*
X105989200Y-106946700D01*
X106820200Y-99982900D02*
X105989200Y-100813900D01*
X107188000Y-99982900D02*
X106820200Y-99982900D01*
X126220600Y-115409100D02*
X126238000Y-115409100D01*
X124101500Y-113290000D02*
X126220600Y-115409100D01*
X126238000Y-116586000D02*
X126238000Y-115409100D01*
X107188000Y-101346000D02*
X107188000Y-102522900D01*
X110759500Y-109094100D02*
X110993000Y-109094100D01*
X109817100Y-108151700D02*
X110759500Y-109094100D01*
X109817100Y-104833200D02*
X109817100Y-108151700D01*
X107506800Y-102522900D02*
X109817100Y-104833200D01*
X107188000Y-102522900D02*
X107506800Y-102522900D01*
X112119900Y-111163500D02*
X112119900Y-110221000D01*
X115207900Y-114251500D02*
X112119900Y-111163500D01*
X110993000Y-110221000D02*
X112119900Y-110221000D01*
X110993000Y-110221000D02*
X110993000Y-109094100D01*
X133858000Y-116586000D02*
X133858000Y-115409100D01*
X133858000Y-113943600D02*
X133858000Y-115409100D01*
X131274700Y-111360300D02*
X133858000Y-113943600D01*
X128655100Y-111360300D02*
X131274700Y-111360300D01*
X128655100Y-111360200D02*
X128655100Y-111360300D01*
X122997300Y-101845900D02*
X123581400Y-101261800D01*
X120211200Y-101845900D02*
X122997300Y-101845900D01*
X119035100Y-100669800D02*
X120211200Y-101845900D01*
X119172800Y-85696800D02*
X116503100Y-83027100D01*
X119172800Y-97891500D02*
X119172800Y-85696800D01*
X118862000Y-98202300D02*
X119172800Y-97891500D01*
X118862000Y-100496700D02*
X118862000Y-98202300D01*
X119035100Y-100669800D02*
X118862000Y-100496700D01*
X138694000Y-110226000D02*
X138694000Y-109099100D01*
X138694000Y-94986000D02*
X138694000Y-96112900D01*
X137544600Y-97028800D02*
X137544600Y-101316600D01*
X138460500Y-96112900D02*
X137544600Y-97028800D01*
X138694000Y-96112900D02*
X138460500Y-96112900D01*
X138513400Y-109099100D02*
X138694000Y-109099100D01*
X137544600Y-108130300D02*
X138513400Y-109099100D01*
X137544600Y-101316600D02*
X137544600Y-108130300D01*
X118871100Y-107215300D02*
X125013000Y-101073400D01*
X118871100Y-110384400D02*
X118871100Y-107215300D01*
X134430800Y-94167000D02*
X134430800Y-96252500D01*
X139954000Y-88643800D02*
X134430800Y-94167000D01*
X139954000Y-80243000D02*
X139954000Y-88643800D01*
X110993000Y-89901000D02*
X110993000Y-88774100D01*
X110993000Y-84821000D02*
X110993000Y-85947900D01*
X110993000Y-84821000D02*
X110993000Y-83694100D01*
X130782300Y-113892900D02*
X129696800Y-114978400D01*
X131074000Y-113892900D02*
X130782300Y-113892900D01*
X131074000Y-112766000D02*
X131074000Y-113892900D01*
X110993000Y-85948000D02*
X110993000Y-85947900D01*
X111173700Y-85948000D02*
X110993000Y-85948000D01*
X112119900Y-86894200D02*
X111173700Y-85948000D01*
X112119900Y-87827800D02*
X112119900Y-86894200D01*
X111173600Y-88774100D02*
X112119900Y-87827800D01*
X110993000Y-88774100D02*
X111173600Y-88774100D01*
X155234800Y-110837100D02*
X156972000Y-109099900D01*
X152913000Y-110837100D02*
X155234800Y-110837100D01*
X152913000Y-112014000D02*
X152913000Y-110837100D01*
X156972000Y-105923000D02*
X156972000Y-109099900D01*
X111186200Y-83694100D02*
X110993000Y-83694100D01*
X114690000Y-80190300D02*
X111186200Y-83694100D01*
X114690000Y-77548000D02*
X114690000Y-80190300D01*
X115784000Y-76454000D02*
X114690000Y-77548000D01*
X137414000Y-87924000D02*
X137414000Y-80243000D01*
X133898000Y-91440000D02*
X137414000Y-87924000D01*
X133703900Y-100202500D02*
X135545700Y-102044300D01*
X133703900Y-91634100D02*
X133703900Y-100202500D01*
X133898000Y-91440000D02*
X133703900Y-91634100D01*
X135545700Y-109950500D02*
X133645300Y-111850900D01*
X135545700Y-102044300D02*
X135545700Y-109950500D01*
G04 #@! TA.AperFunction,Conductor*
G36*
X105365012Y-107140949D02*
G01*
X105398137Y-107186133D01*
X105400971Y-107192682D01*
X105403182Y-107200293D01*
X105407215Y-107207112D01*
X105407217Y-107207117D01*
X105413493Y-107217728D01*
X105422188Y-107235476D01*
X105429648Y-107254317D01*
X105434310Y-107260733D01*
X105434310Y-107260734D01*
X105455636Y-107290087D01*
X105462152Y-107300007D01*
X105480130Y-107330405D01*
X105484658Y-107338062D01*
X105498979Y-107352383D01*
X105511819Y-107367416D01*
X105523728Y-107383807D01*
X105551377Y-107406680D01*
X105557793Y-107411988D01*
X105566574Y-107419978D01*
X106105931Y-107959336D01*
X106139956Y-108021648D01*
X106134891Y-108092464D01*
X106120924Y-108119433D01*
X106002743Y-108292680D01*
X105994473Y-108310497D01*
X105923713Y-108462937D01*
X105908688Y-108495305D01*
X105848989Y-108710570D01*
X105825251Y-108932695D01*
X105825548Y-108937848D01*
X105825548Y-108937851D01*
X105837667Y-109148028D01*
X105838110Y-109155715D01*
X105839247Y-109160762D01*
X105839248Y-109160766D01*
X105843583Y-109180002D01*
X105887222Y-109373639D01*
X105971266Y-109580616D01*
X105990640Y-109612231D01*
X106084984Y-109766187D01*
X106087987Y-109771088D01*
X106234250Y-109939938D01*
X106406126Y-110082632D01*
X106438158Y-110101350D01*
X106479445Y-110125476D01*
X106528169Y-110177114D01*
X106541240Y-110246897D01*
X106514509Y-110312669D01*
X106474055Y-110346027D01*
X106461607Y-110352507D01*
X106457474Y-110355610D01*
X106457471Y-110355612D01*
X106301534Y-110472693D01*
X106282965Y-110486635D01*
X106234088Y-110537782D01*
X106150948Y-110624783D01*
X106128629Y-110648138D01*
X106125715Y-110652410D01*
X106125714Y-110652411D01*
X106080446Y-110718771D01*
X106002743Y-110832680D01*
X105979730Y-110882257D01*
X105911584Y-111029067D01*
X105908688Y-111035305D01*
X105848989Y-111250570D01*
X105825251Y-111472695D01*
X105825548Y-111477848D01*
X105825548Y-111477851D01*
X105835775Y-111655226D01*
X105838110Y-111695715D01*
X105839247Y-111700761D01*
X105839248Y-111700767D01*
X105851426Y-111754802D01*
X105887222Y-111913639D01*
X105971266Y-112120616D01*
X106004519Y-112174880D01*
X106072684Y-112286115D01*
X106087987Y-112311088D01*
X106234250Y-112479938D01*
X106406126Y-112622632D01*
X106457703Y-112652771D01*
X106479445Y-112665476D01*
X106528169Y-112717114D01*
X106541240Y-112786897D01*
X106514509Y-112852669D01*
X106474055Y-112886027D01*
X106461607Y-112892507D01*
X106457474Y-112895610D01*
X106457471Y-112895612D01*
X106287100Y-113023530D01*
X106282965Y-113026635D01*
X106128629Y-113188138D01*
X106125715Y-113192410D01*
X106125714Y-113192411D01*
X106110139Y-113215243D01*
X106002743Y-113372680D01*
X105908688Y-113575305D01*
X105848989Y-113790570D01*
X105825251Y-114012695D01*
X105825548Y-114017848D01*
X105825548Y-114017851D01*
X105836842Y-114213724D01*
X105838110Y-114235715D01*
X105839247Y-114240761D01*
X105839248Y-114240767D01*
X105851342Y-114294431D01*
X105887222Y-114453639D01*
X105948673Y-114604976D01*
X105953463Y-114616771D01*
X105971266Y-114660616D01*
X105973965Y-114665020D01*
X106084902Y-114846053D01*
X106087987Y-114851088D01*
X106234250Y-115019938D01*
X106238225Y-115023238D01*
X106238231Y-115023244D01*
X106243425Y-115027556D01*
X106283059Y-115086460D01*
X106284555Y-115157441D01*
X106247439Y-115217962D01*
X106207168Y-115242480D01*
X106099946Y-115282676D01*
X106084351Y-115291214D01*
X105982276Y-115367715D01*
X105969715Y-115380276D01*
X105893214Y-115482351D01*
X105884676Y-115497946D01*
X105839522Y-115618394D01*
X105835895Y-115633649D01*
X105830369Y-115684514D01*
X105830000Y-115691328D01*
X105830000Y-116313885D01*
X105834475Y-116329124D01*
X105835865Y-116330329D01*
X105843548Y-116332000D01*
X108527884Y-116332000D01*
X108543123Y-116327525D01*
X108544328Y-116326135D01*
X108545999Y-116318452D01*
X108545999Y-115691331D01*
X108545629Y-115684510D01*
X108540105Y-115633648D01*
X108536479Y-115618396D01*
X108491324Y-115497946D01*
X108482786Y-115482351D01*
X108406285Y-115380276D01*
X108393724Y-115367715D01*
X108291649Y-115291214D01*
X108276054Y-115282676D01*
X108165813Y-115241348D01*
X108109049Y-115198706D01*
X108084349Y-115132145D01*
X108099557Y-115062796D01*
X108121104Y-115034115D01*
X108222430Y-114933144D01*
X108222440Y-114933132D01*
X108226096Y-114929489D01*
X108285594Y-114846689D01*
X108353435Y-114752277D01*
X108356453Y-114748077D01*
X108361591Y-114737682D01*
X108453136Y-114552453D01*
X108453137Y-114552451D01*
X108455430Y-114547811D01*
X108503606Y-114389246D01*
X108518865Y-114339023D01*
X108518865Y-114339021D01*
X108520370Y-114334069D01*
X108549529Y-114112590D01*
X108549786Y-114102065D01*
X108551074Y-114049365D01*
X108551074Y-114049361D01*
X108551156Y-114046000D01*
X108532852Y-113823361D01*
X108478431Y-113606702D01*
X108389354Y-113401840D01*
X108327304Y-113305925D01*
X108270822Y-113218617D01*
X108270820Y-113218614D01*
X108268014Y-113214277D01*
X108117670Y-113049051D01*
X108113619Y-113045852D01*
X108113615Y-113045848D01*
X107946414Y-112913800D01*
X107946410Y-112913798D01*
X107942359Y-112910598D01*
X107901053Y-112887796D01*
X107851084Y-112837364D01*
X107836312Y-112767921D01*
X107861428Y-112701516D01*
X107888780Y-112674909D01*
X107947823Y-112632794D01*
X108067860Y-112547173D01*
X108077153Y-112537913D01*
X108184227Y-112431212D01*
X108226096Y-112389489D01*
X108246210Y-112361498D01*
X108353435Y-112212277D01*
X108356453Y-112208077D01*
X108373765Y-112173050D01*
X108453136Y-112012453D01*
X108453137Y-112012451D01*
X108455430Y-112007811D01*
X108520370Y-111794069D01*
X108549529Y-111572590D01*
X108550118Y-111548470D01*
X108551074Y-111509365D01*
X108551074Y-111509361D01*
X108551156Y-111506000D01*
X108532852Y-111283361D01*
X108478431Y-111066702D01*
X108389354Y-110861840D01*
X108323606Y-110760209D01*
X108270822Y-110678617D01*
X108270820Y-110678614D01*
X108268014Y-110674277D01*
X108117670Y-110509051D01*
X108113619Y-110505852D01*
X108113615Y-110505848D01*
X107946414Y-110373800D01*
X107946410Y-110373798D01*
X107942359Y-110370598D01*
X107901053Y-110347796D01*
X107851084Y-110297364D01*
X107836312Y-110227921D01*
X107861428Y-110161516D01*
X107888780Y-110134909D01*
X108063650Y-110010176D01*
X108067860Y-110007173D01*
X108070820Y-110004223D01*
X108135497Y-109975648D01*
X108205641Y-109986621D01*
X108240979Y-110011483D01*
X108254779Y-110025283D01*
X108267619Y-110040316D01*
X108279528Y-110056707D01*
X108304664Y-110077501D01*
X108313605Y-110084898D01*
X108322384Y-110092888D01*
X109978226Y-111748730D01*
X110012252Y-111811042D01*
X110007187Y-111881857D01*
X109986998Y-111916504D01*
X109986802Y-111916700D01*
X109855477Y-112104251D01*
X109853154Y-112109233D01*
X109853151Y-112109238D01*
X109822542Y-112174880D01*
X109758716Y-112311757D01*
X109757294Y-112317065D01*
X109757293Y-112317067D01*
X109707536Y-112502763D01*
X109699457Y-112532913D01*
X109679502Y-112761000D01*
X109699457Y-112989087D01*
X109700881Y-112994400D01*
X109700881Y-112994402D01*
X109751792Y-113184401D01*
X109758716Y-113210243D01*
X109761039Y-113215224D01*
X109761039Y-113215225D01*
X109853151Y-113412762D01*
X109853154Y-113412767D01*
X109855477Y-113417749D01*
X109928902Y-113522611D01*
X109969295Y-113580297D01*
X109986802Y-113605300D01*
X110148700Y-113767198D01*
X110153208Y-113770355D01*
X110153211Y-113770357D01*
X110206821Y-113807895D01*
X110336251Y-113898523D01*
X110341233Y-113900846D01*
X110341238Y-113900849D01*
X110538775Y-113992961D01*
X110543757Y-113995284D01*
X110549065Y-113996706D01*
X110549067Y-113996707D01*
X110759598Y-114053119D01*
X110759600Y-114053119D01*
X110764913Y-114054543D01*
X110993000Y-114074498D01*
X111221087Y-114054543D01*
X111226400Y-114053119D01*
X111226402Y-114053119D01*
X111436933Y-113996707D01*
X111436935Y-113996706D01*
X111442243Y-113995284D01*
X111447225Y-113992961D01*
X111644762Y-113900849D01*
X111644767Y-113900846D01*
X111649749Y-113898523D01*
X111779179Y-113807895D01*
X111832789Y-113770357D01*
X111832792Y-113770355D01*
X111837300Y-113767198D01*
X111999198Y-113605300D01*
X112016706Y-113580297D01*
X112057098Y-113522611D01*
X112130523Y-113417749D01*
X112132846Y-113412767D01*
X112132849Y-113412762D01*
X112224961Y-113215225D01*
X112224961Y-113215224D01*
X112227284Y-113210243D01*
X112234209Y-113184401D01*
X112285119Y-112994402D01*
X112285119Y-112994400D01*
X112286543Y-112989087D01*
X112306498Y-112761000D01*
X112287293Y-112541489D01*
X112301282Y-112471885D01*
X112350681Y-112420893D01*
X112419807Y-112404702D01*
X112486713Y-112428454D01*
X112501909Y-112441413D01*
X114260778Y-114200282D01*
X114294804Y-114262594D01*
X114296992Y-114276203D01*
X114299648Y-114301470D01*
X114308874Y-114389246D01*
X114314358Y-114441428D01*
X114373373Y-114623056D01*
X114376676Y-114628778D01*
X114376677Y-114628779D01*
X114395058Y-114660616D01*
X114468860Y-114788444D01*
X114473278Y-114793351D01*
X114473279Y-114793352D01*
X114558991Y-114888545D01*
X114596647Y-114930366D01*
X114687533Y-114996399D01*
X114739445Y-115034115D01*
X114751148Y-115042618D01*
X114757176Y-115045302D01*
X114757178Y-115045303D01*
X114899926Y-115108858D01*
X114925612Y-115120294D01*
X115005266Y-115137225D01*
X115105956Y-115158628D01*
X115105961Y-115158628D01*
X115112413Y-115160000D01*
X115303387Y-115160000D01*
X115306558Y-115159326D01*
X115375171Y-115171876D01*
X115427016Y-115220379D01*
X115444500Y-115284412D01*
X115444500Y-115307692D01*
X115424498Y-115375813D01*
X115376683Y-115419453D01*
X115351607Y-115432507D01*
X115347474Y-115435610D01*
X115347471Y-115435612D01*
X115177100Y-115563530D01*
X115172965Y-115566635D01*
X115157345Y-115582980D01*
X115061729Y-115683037D01*
X115018629Y-115728138D01*
X114911201Y-115885621D01*
X114856293Y-115930621D01*
X114785768Y-115938792D01*
X114722021Y-115907538D01*
X114701324Y-115883054D01*
X114620822Y-115758617D01*
X114620820Y-115758614D01*
X114618014Y-115754277D01*
X114467670Y-115589051D01*
X114463619Y-115585852D01*
X114463615Y-115585848D01*
X114296414Y-115453800D01*
X114296410Y-115453798D01*
X114292359Y-115450598D01*
X114287831Y-115448098D01*
X114227549Y-115414821D01*
X114096789Y-115342638D01*
X114091920Y-115340914D01*
X114091916Y-115340912D01*
X113891087Y-115269795D01*
X113891083Y-115269794D01*
X113886212Y-115268069D01*
X113881119Y-115267162D01*
X113881116Y-115267161D01*
X113671373Y-115229800D01*
X113671367Y-115229799D01*
X113666284Y-115228894D01*
X113592452Y-115227992D01*
X113448081Y-115226228D01*
X113448079Y-115226228D01*
X113442911Y-115226165D01*
X113222091Y-115259955D01*
X113009756Y-115329357D01*
X112979443Y-115345137D01*
X112835975Y-115419822D01*
X112811607Y-115432507D01*
X112807474Y-115435610D01*
X112807471Y-115435612D01*
X112637100Y-115563530D01*
X112632965Y-115566635D01*
X112576537Y-115625684D01*
X112552283Y-115651064D01*
X112490759Y-115686494D01*
X112419846Y-115683037D01*
X112362060Y-115641791D01*
X112343207Y-115608243D01*
X112301767Y-115497703D01*
X112298615Y-115489295D01*
X112211261Y-115372739D01*
X112094705Y-115285385D01*
X111958316Y-115234255D01*
X111896134Y-115227500D01*
X110099866Y-115227500D01*
X110037684Y-115234255D01*
X109901295Y-115285385D01*
X109784739Y-115372739D01*
X109697385Y-115489295D01*
X109646255Y-115625684D01*
X109639500Y-115687866D01*
X109639500Y-117484134D01*
X109646255Y-117546316D01*
X109697385Y-117682705D01*
X109784739Y-117799261D01*
X109901295Y-117886615D01*
X110037684Y-117937745D01*
X110099866Y-117944500D01*
X111896134Y-117944500D01*
X111958316Y-117937745D01*
X112094705Y-117886615D01*
X112211261Y-117799261D01*
X112298615Y-117682705D01*
X112306852Y-117660733D01*
X112342598Y-117565382D01*
X112385240Y-117508618D01*
X112451802Y-117483918D01*
X112521150Y-117499126D01*
X112555817Y-117527114D01*
X112584250Y-117559938D01*
X112756126Y-117702632D01*
X112949000Y-117815338D01*
X113157692Y-117895030D01*
X113162760Y-117896061D01*
X113162763Y-117896062D01*
X113257862Y-117915410D01*
X113376597Y-117939567D01*
X113381772Y-117939757D01*
X113381774Y-117939757D01*
X113594673Y-117947564D01*
X113594677Y-117947564D01*
X113599837Y-117947753D01*
X113604957Y-117947097D01*
X113604959Y-117947097D01*
X113816288Y-117920025D01*
X113816289Y-117920025D01*
X113821416Y-117919368D01*
X113826366Y-117917883D01*
X114030429Y-117856661D01*
X114030434Y-117856659D01*
X114035384Y-117855174D01*
X114235994Y-117756896D01*
X114417860Y-117627173D01*
X114576096Y-117469489D01*
X114706453Y-117288077D01*
X114707776Y-117289028D01*
X114754645Y-117245857D01*
X114824580Y-117233625D01*
X114890026Y-117261144D01*
X114917875Y-117292994D01*
X114977987Y-117391088D01*
X115124250Y-117559938D01*
X115296126Y-117702632D01*
X115489000Y-117815338D01*
X115697692Y-117895030D01*
X115702760Y-117896061D01*
X115702763Y-117896062D01*
X115797862Y-117915410D01*
X115916597Y-117939567D01*
X115921772Y-117939757D01*
X115921774Y-117939757D01*
X116134673Y-117947564D01*
X116134677Y-117947564D01*
X116139837Y-117947753D01*
X116144957Y-117947097D01*
X116144959Y-117947097D01*
X116356288Y-117920025D01*
X116356289Y-117920025D01*
X116361416Y-117919368D01*
X116366366Y-117917883D01*
X116570429Y-117856661D01*
X116570434Y-117856659D01*
X116575384Y-117855174D01*
X116775994Y-117756896D01*
X116957860Y-117627173D01*
X117116096Y-117469489D01*
X117246453Y-117288077D01*
X117247640Y-117288930D01*
X117294960Y-117245362D01*
X117364897Y-117233145D01*
X117430338Y-117260678D01*
X117458166Y-117292511D01*
X117515694Y-117386388D01*
X117521777Y-117394699D01*
X117661213Y-117555667D01*
X117668580Y-117562883D01*
X117832434Y-117698916D01*
X117840881Y-117704831D01*
X118024756Y-117812279D01*
X118034042Y-117816729D01*
X118233001Y-117892703D01*
X118242899Y-117895579D01*
X118346250Y-117916606D01*
X118360299Y-117915410D01*
X118364000Y-117905065D01*
X118364000Y-116458000D01*
X118384002Y-116389879D01*
X118437658Y-116343386D01*
X118490000Y-116332000D01*
X118746000Y-116332000D01*
X118814121Y-116352002D01*
X118860614Y-116405658D01*
X118872000Y-116458000D01*
X118872000Y-117904517D01*
X118876064Y-117918359D01*
X118889478Y-117920393D01*
X118896184Y-117919534D01*
X118906262Y-117917392D01*
X119110255Y-117856191D01*
X119119842Y-117852433D01*
X119311095Y-117758739D01*
X119319945Y-117753464D01*
X119449950Y-117660733D01*
X119517024Y-117637459D01*
X119586032Y-117654143D01*
X119612213Y-117674217D01*
X120282711Y-118344715D01*
X120316737Y-118407027D01*
X120311672Y-118477842D01*
X120269125Y-118534678D01*
X120202605Y-118559489D01*
X120193616Y-118559810D01*
X105282500Y-118559810D01*
X105214379Y-118539808D01*
X105167886Y-118486152D01*
X105156500Y-118433810D01*
X105156500Y-117480669D01*
X105830001Y-117480669D01*
X105830371Y-117487490D01*
X105835895Y-117538352D01*
X105839521Y-117553604D01*
X105884676Y-117674054D01*
X105893214Y-117689649D01*
X105969715Y-117791724D01*
X105982276Y-117804285D01*
X106084351Y-117880786D01*
X106099946Y-117889324D01*
X106220394Y-117934478D01*
X106235649Y-117938105D01*
X106286514Y-117943631D01*
X106293328Y-117944000D01*
X106915885Y-117944000D01*
X106931124Y-117939525D01*
X106932329Y-117938135D01*
X106934000Y-117930452D01*
X106934000Y-117925884D01*
X107442000Y-117925884D01*
X107446475Y-117941123D01*
X107447865Y-117942328D01*
X107455548Y-117943999D01*
X108082669Y-117943999D01*
X108089490Y-117943629D01*
X108140352Y-117938105D01*
X108155604Y-117934479D01*
X108276054Y-117889324D01*
X108291649Y-117880786D01*
X108393724Y-117804285D01*
X108406285Y-117791724D01*
X108482786Y-117689649D01*
X108491324Y-117674054D01*
X108536478Y-117553606D01*
X108540105Y-117538351D01*
X108545631Y-117487486D01*
X108546000Y-117480672D01*
X108546000Y-116858115D01*
X108541525Y-116842876D01*
X108540135Y-116841671D01*
X108532452Y-116840000D01*
X107460115Y-116840000D01*
X107444876Y-116844475D01*
X107443671Y-116845865D01*
X107442000Y-116853548D01*
X107442000Y-117925884D01*
X106934000Y-117925884D01*
X106934000Y-116858115D01*
X106929525Y-116842876D01*
X106928135Y-116841671D01*
X106920452Y-116840000D01*
X105848116Y-116840000D01*
X105832877Y-116844475D01*
X105831672Y-116845865D01*
X105830001Y-116853548D01*
X105830001Y-117480669D01*
X105156500Y-117480669D01*
X105156500Y-107236173D01*
X105176502Y-107168052D01*
X105230158Y-107121559D01*
X105300432Y-107111455D01*
X105365012Y-107140949D01*
G37*
G04 #@! TD.AperFunction*
G04 #@! TA.AperFunction,Conductor*
G36*
X158156180Y-91548392D02*
G01*
X158181218Y-91589235D01*
X158200353Y-91640278D01*
X158211385Y-91669705D01*
X158298739Y-91786261D01*
X158415295Y-91873615D01*
X158551684Y-91924745D01*
X158613866Y-91931500D01*
X160410134Y-91931500D01*
X160472316Y-91924745D01*
X160558927Y-91892276D01*
X160600303Y-91876765D01*
X160600304Y-91876764D01*
X160608705Y-91873615D01*
X160615887Y-91868233D01*
X160616580Y-91867853D01*
X160685937Y-91852683D01*
X160752485Y-91877419D01*
X160795096Y-91934206D01*
X160803090Y-91978372D01*
X160803090Y-104995840D01*
X160783088Y-105063961D01*
X160729432Y-105110454D01*
X160659158Y-105120558D01*
X160594578Y-105091064D01*
X160578891Y-105074789D01*
X160577539Y-105073107D01*
X160574559Y-105068681D01*
X160570057Y-105063961D01*
X160460085Y-104948682D01*
X160415424Y-104901865D01*
X160405187Y-104894248D01*
X160234740Y-104767432D01*
X160234741Y-104767432D01*
X160230458Y-104764246D01*
X160225707Y-104761830D01*
X160225703Y-104761828D01*
X160106697Y-104701323D01*
X160024949Y-104659760D01*
X160019855Y-104658178D01*
X160019852Y-104658177D01*
X159809871Y-104592976D01*
X159804773Y-104591393D01*
X159797439Y-104590421D01*
X159581511Y-104561802D01*
X159581506Y-104561802D01*
X159576226Y-104561102D01*
X159570897Y-104561302D01*
X159570895Y-104561302D01*
X159461034Y-104565427D01*
X159345842Y-104569751D01*
X159340623Y-104570846D01*
X159313700Y-104576495D01*
X159120209Y-104617093D01*
X159115250Y-104619051D01*
X159115248Y-104619052D01*
X158910744Y-104699815D01*
X158910742Y-104699816D01*
X158905779Y-104701776D01*
X158901220Y-104704543D01*
X158901217Y-104704544D01*
X158788180Y-104773137D01*
X158708683Y-104821377D01*
X158704653Y-104824874D01*
X158553864Y-104955722D01*
X158534555Y-104972477D01*
X158531168Y-104976608D01*
X158391760Y-105146627D01*
X158391756Y-105146633D01*
X158388376Y-105150755D01*
X158351860Y-105214906D01*
X158351847Y-105214928D01*
X158300765Y-105264234D01*
X158231135Y-105278096D01*
X158165064Y-105252113D01*
X158137825Y-105222963D01*
X158037150Y-105073425D01*
X158030481Y-105065130D01*
X157878772Y-104906100D01*
X157870814Y-104899059D01*
X157694475Y-104767859D01*
X157685438Y-104762255D01*
X157489516Y-104662643D01*
X157479665Y-104658643D01*
X157269760Y-104593466D01*
X157259376Y-104591183D01*
X157243957Y-104589139D01*
X157229793Y-104591335D01*
X157226000Y-104604522D01*
X157226000Y-109239192D01*
X157229973Y-109252723D01*
X157240580Y-109254248D01*
X157358421Y-109229523D01*
X157368617Y-109226463D01*
X157573029Y-109145737D01*
X157582561Y-109141006D01*
X157770462Y-109026984D01*
X157779052Y-109020720D01*
X157945052Y-108876673D01*
X157952472Y-108869042D01*
X158091826Y-108699089D01*
X158097850Y-108690322D01*
X158131565Y-108631094D01*
X158182647Y-108581788D01*
X158252277Y-108567926D01*
X158318348Y-108593909D01*
X158345587Y-108623059D01*
X158449441Y-108777319D01*
X158453120Y-108781176D01*
X158453122Y-108781178D01*
X158512474Y-108843394D01*
X158608576Y-108944135D01*
X158612854Y-108947318D01*
X158623565Y-108955287D01*
X158793542Y-109081754D01*
X158798293Y-109084170D01*
X158798297Y-109084172D01*
X158892369Y-109132000D01*
X158999051Y-109186240D01*
X159004145Y-109187822D01*
X159004148Y-109187823D01*
X159153500Y-109234198D01*
X159219227Y-109254607D01*
X159224516Y-109255308D01*
X159442489Y-109284198D01*
X159442494Y-109284198D01*
X159447774Y-109284898D01*
X159453103Y-109284698D01*
X159453105Y-109284698D01*
X159562966Y-109280574D01*
X159678158Y-109276249D01*
X159903791Y-109228907D01*
X159908750Y-109226949D01*
X159908752Y-109226948D01*
X160113256Y-109146185D01*
X160113258Y-109146184D01*
X160118221Y-109144224D01*
X160123525Y-109141006D01*
X160310757Y-109027390D01*
X160310756Y-109027390D01*
X160315317Y-109024623D01*
X160359001Y-108986716D01*
X160485412Y-108877023D01*
X160485414Y-108877021D01*
X160489445Y-108873523D01*
X160565416Y-108780870D01*
X160579656Y-108763503D01*
X160638316Y-108723508D01*
X160709286Y-108721577D01*
X160770034Y-108758321D01*
X160801273Y-108822076D01*
X160803090Y-108843394D01*
X160803090Y-116141704D01*
X160783088Y-116209825D01*
X160729432Y-116256318D01*
X160659158Y-116266422D01*
X160594578Y-116236928D01*
X160554886Y-116172400D01*
X160549691Y-116151720D01*
X160548431Y-116146702D01*
X160459354Y-115941840D01*
X160338014Y-115754277D01*
X160187670Y-115589051D01*
X160183619Y-115585852D01*
X160183615Y-115585848D01*
X160016414Y-115453800D01*
X160016410Y-115453798D01*
X160012359Y-115450598D01*
X160007831Y-115448098D01*
X159947549Y-115414821D01*
X159816789Y-115342638D01*
X159811920Y-115340914D01*
X159811916Y-115340912D01*
X159611087Y-115269795D01*
X159611083Y-115269794D01*
X159606212Y-115268069D01*
X159601119Y-115267162D01*
X159601116Y-115267161D01*
X159391373Y-115229800D01*
X159391367Y-115229799D01*
X159386284Y-115228894D01*
X159312452Y-115227992D01*
X159168081Y-115226228D01*
X159168079Y-115226228D01*
X159162911Y-115226165D01*
X158942091Y-115259955D01*
X158729756Y-115329357D01*
X158699443Y-115345137D01*
X158555975Y-115419822D01*
X158531607Y-115432507D01*
X158527474Y-115435610D01*
X158527471Y-115435612D01*
X158357100Y-115563530D01*
X158352965Y-115566635D01*
X158337345Y-115582980D01*
X158241729Y-115683037D01*
X158198629Y-115728138D01*
X158091201Y-115885621D01*
X158036293Y-115930621D01*
X157965768Y-115938792D01*
X157902021Y-115907538D01*
X157881324Y-115883054D01*
X157800822Y-115758617D01*
X157800820Y-115758614D01*
X157798014Y-115754277D01*
X157647670Y-115589051D01*
X157643619Y-115585852D01*
X157643615Y-115585848D01*
X157476414Y-115453800D01*
X157476410Y-115453798D01*
X157472359Y-115450598D01*
X157467831Y-115448098D01*
X157407549Y-115414821D01*
X157276789Y-115342638D01*
X157271920Y-115340914D01*
X157271916Y-115340912D01*
X157071087Y-115269795D01*
X157071083Y-115269794D01*
X157066212Y-115268069D01*
X157061119Y-115267162D01*
X157061116Y-115267161D01*
X156851373Y-115229800D01*
X156851367Y-115229799D01*
X156846284Y-115228894D01*
X156772452Y-115227992D01*
X156628081Y-115226228D01*
X156628079Y-115226228D01*
X156622911Y-115226165D01*
X156402091Y-115259955D01*
X156189756Y-115329357D01*
X156159443Y-115345137D01*
X156015975Y-115419822D01*
X155991607Y-115432507D01*
X155987474Y-115435610D01*
X155987471Y-115435612D01*
X155883536Y-115513649D01*
X155817051Y-115538555D01*
X155747656Y-115523563D01*
X155718788Y-115501984D01*
X155092024Y-114875219D01*
X154402752Y-114185947D01*
X154395212Y-114177661D01*
X154391100Y-114171182D01*
X154341448Y-114124556D01*
X154338607Y-114121802D01*
X154318870Y-114102065D01*
X154315673Y-114099585D01*
X154306651Y-114091880D01*
X154280200Y-114067041D01*
X154274421Y-114061614D01*
X154267475Y-114057795D01*
X154267472Y-114057793D01*
X154256666Y-114051852D01*
X154240147Y-114041001D01*
X154231078Y-114033967D01*
X154224141Y-114028586D01*
X154216872Y-114025441D01*
X154216868Y-114025438D01*
X154183563Y-114011026D01*
X154172913Y-114005809D01*
X154134160Y-113984505D01*
X154114537Y-113979467D01*
X154095834Y-113973063D01*
X154084520Y-113968167D01*
X154084519Y-113968167D01*
X154077245Y-113965019D01*
X154069422Y-113963780D01*
X154069412Y-113963777D01*
X154033576Y-113958101D01*
X154021956Y-113955695D01*
X153986811Y-113946672D01*
X153986810Y-113946672D01*
X153979130Y-113944700D01*
X153958876Y-113944700D01*
X153939165Y-113943149D01*
X153926986Y-113941220D01*
X153919157Y-113939980D01*
X153911265Y-113940726D01*
X153875139Y-113944141D01*
X153863281Y-113944700D01*
X152167394Y-113944700D01*
X152099273Y-113924698D01*
X152078299Y-113907795D01*
X150452470Y-112281966D01*
X151581257Y-112281966D01*
X151611565Y-112416446D01*
X151614645Y-112426275D01*
X151694770Y-112623603D01*
X151699413Y-112632794D01*
X151810694Y-112814388D01*
X151816777Y-112822699D01*
X151956213Y-112983667D01*
X151963580Y-112990883D01*
X152127434Y-113126916D01*
X152135881Y-113132831D01*
X152319756Y-113240279D01*
X152329042Y-113244729D01*
X152528001Y-113320703D01*
X152537899Y-113323579D01*
X152641250Y-113344606D01*
X152655299Y-113343410D01*
X152659000Y-113333065D01*
X152659000Y-113332517D01*
X153167000Y-113332517D01*
X153171064Y-113346359D01*
X153184478Y-113348393D01*
X153191184Y-113347534D01*
X153201262Y-113345392D01*
X153405255Y-113284191D01*
X153414842Y-113280433D01*
X153606095Y-113186739D01*
X153614945Y-113181464D01*
X153788328Y-113057792D01*
X153796193Y-113051145D01*
X153900897Y-112946805D01*
X153963268Y-112912889D01*
X154034075Y-112918077D01*
X154090837Y-112960723D01*
X154107819Y-112991826D01*
X154122270Y-113030373D01*
X154152385Y-113110705D01*
X154239739Y-113227261D01*
X154356295Y-113314615D01*
X154492684Y-113365745D01*
X154554866Y-113372500D01*
X156351134Y-113372500D01*
X156413316Y-113365745D01*
X156549705Y-113314615D01*
X156666261Y-113227261D01*
X156753615Y-113110705D01*
X156804745Y-112974316D01*
X156811500Y-112912134D01*
X156811500Y-111115866D01*
X156804745Y-111053684D01*
X156753615Y-110917295D01*
X156666261Y-110800739D01*
X156549705Y-110713385D01*
X156413316Y-110662255D01*
X156351134Y-110655500D01*
X154554866Y-110655500D01*
X154492684Y-110662255D01*
X154356295Y-110713385D01*
X154239739Y-110800739D01*
X154152385Y-110917295D01*
X154149233Y-110925703D01*
X154149232Y-110925705D01*
X154107722Y-111036433D01*
X154065081Y-111093198D01*
X153998519Y-111117898D01*
X153929170Y-111102691D01*
X153896546Y-111077004D01*
X153845799Y-111021234D01*
X153838273Y-111014215D01*
X153671139Y-110882222D01*
X153662552Y-110876517D01*
X153476117Y-110773599D01*
X153466705Y-110769369D01*
X153265959Y-110698280D01*
X153255988Y-110695646D01*
X153184837Y-110682972D01*
X153171540Y-110684432D01*
X153167000Y-110698989D01*
X153167000Y-113332517D01*
X152659000Y-113332517D01*
X152659000Y-112286115D01*
X152654525Y-112270876D01*
X152653135Y-112269671D01*
X152645452Y-112268000D01*
X151596225Y-112268000D01*
X151582694Y-112271973D01*
X151581257Y-112281966D01*
X150452470Y-112281966D01*
X149918687Y-111748183D01*
X151577389Y-111748183D01*
X151578912Y-111756607D01*
X151591292Y-111760000D01*
X152640885Y-111760000D01*
X152656124Y-111755525D01*
X152657329Y-111754135D01*
X152659000Y-111746452D01*
X152659000Y-110697102D01*
X152655082Y-110683758D01*
X152640806Y-110681771D01*
X152602324Y-110687660D01*
X152592288Y-110690051D01*
X152389868Y-110756212D01*
X152380359Y-110760209D01*
X152191463Y-110858542D01*
X152182738Y-110864036D01*
X152012433Y-110991905D01*
X152004726Y-110998748D01*
X151857590Y-111152717D01*
X151851104Y-111160727D01*
X151731098Y-111336649D01*
X151726000Y-111345623D01*
X151636338Y-111538783D01*
X151632775Y-111548470D01*
X151577389Y-111748183D01*
X149918687Y-111748183D01*
X147436221Y-109265716D01*
X147402195Y-109203404D01*
X147407260Y-109132589D01*
X147449807Y-109075753D01*
X147459951Y-109068902D01*
X147610752Y-108977394D01*
X147610759Y-108977389D01*
X147615317Y-108974623D01*
X147647218Y-108946941D01*
X147785412Y-108827023D01*
X147785414Y-108827021D01*
X147789445Y-108823523D01*
X147842907Y-108758321D01*
X147932240Y-108649373D01*
X147932244Y-108649367D01*
X147935624Y-108645245D01*
X147971878Y-108581556D01*
X148022959Y-108532251D01*
X148092589Y-108518389D01*
X148158660Y-108544372D01*
X148185898Y-108573521D01*
X148289441Y-108727319D01*
X148293120Y-108731176D01*
X148293122Y-108731178D01*
X148334674Y-108774735D01*
X148448576Y-108894135D01*
X148452854Y-108897318D01*
X148500402Y-108932695D01*
X148633542Y-109031754D01*
X148638293Y-109034170D01*
X148638297Y-109034172D01*
X148725618Y-109078568D01*
X148839051Y-109136240D01*
X148844145Y-109137822D01*
X148844148Y-109137823D01*
X148990791Y-109183357D01*
X149059227Y-109204607D01*
X149064516Y-109205308D01*
X149282489Y-109234198D01*
X149282494Y-109234198D01*
X149287774Y-109234898D01*
X149293103Y-109234698D01*
X149293105Y-109234698D01*
X149418189Y-109230002D01*
X149518158Y-109226249D01*
X149530312Y-109223699D01*
X149738572Y-109180002D01*
X149743791Y-109178907D01*
X149748750Y-109176949D01*
X149748752Y-109176948D01*
X149953256Y-109096185D01*
X149953258Y-109096184D01*
X149958221Y-109094224D01*
X149974787Y-109084172D01*
X150110276Y-109001955D01*
X150155317Y-108974623D01*
X150187218Y-108946941D01*
X150325412Y-108827023D01*
X150325414Y-108827021D01*
X150329445Y-108823523D01*
X150382907Y-108758321D01*
X150472240Y-108649373D01*
X150472244Y-108649367D01*
X150475624Y-108645245D01*
X150496455Y-108608650D01*
X150547537Y-108559344D01*
X150617167Y-108545482D01*
X150683238Y-108571465D01*
X150710477Y-108600615D01*
X150829441Y-108777319D01*
X150833120Y-108781176D01*
X150833122Y-108781178D01*
X150892474Y-108843394D01*
X150988576Y-108944135D01*
X150992854Y-108947318D01*
X151003565Y-108955287D01*
X151173542Y-109081754D01*
X151178293Y-109084170D01*
X151178297Y-109084172D01*
X151272369Y-109132000D01*
X151379051Y-109186240D01*
X151384145Y-109187822D01*
X151384148Y-109187823D01*
X151533500Y-109234198D01*
X151599227Y-109254607D01*
X151604516Y-109255308D01*
X151822489Y-109284198D01*
X151822494Y-109284198D01*
X151827774Y-109284898D01*
X151833103Y-109284698D01*
X151833105Y-109284698D01*
X151942966Y-109280574D01*
X152058158Y-109276249D01*
X152283791Y-109228907D01*
X152288750Y-109226949D01*
X152288752Y-109226948D01*
X152493256Y-109146185D01*
X152493258Y-109146184D01*
X152498221Y-109144224D01*
X152503525Y-109141006D01*
X152690757Y-109027390D01*
X152690756Y-109027390D01*
X152695317Y-109024623D01*
X152739001Y-108986716D01*
X152865412Y-108877023D01*
X152865414Y-108877021D01*
X152869445Y-108873523D01*
X152908257Y-108826189D01*
X153012240Y-108699373D01*
X153012244Y-108699367D01*
X153015624Y-108695245D01*
X153051878Y-108631556D01*
X153102959Y-108582251D01*
X153172589Y-108568389D01*
X153238660Y-108594372D01*
X153265898Y-108623521D01*
X153369441Y-108777319D01*
X153373120Y-108781176D01*
X153373122Y-108781178D01*
X153432474Y-108843394D01*
X153528576Y-108944135D01*
X153532854Y-108947318D01*
X153543565Y-108955287D01*
X153713542Y-109081754D01*
X153718293Y-109084170D01*
X153718297Y-109084172D01*
X153812369Y-109132000D01*
X153919051Y-109186240D01*
X153924145Y-109187822D01*
X153924148Y-109187823D01*
X154073500Y-109234198D01*
X154139227Y-109254607D01*
X154144516Y-109255308D01*
X154362489Y-109284198D01*
X154362494Y-109284198D01*
X154367774Y-109284898D01*
X154373103Y-109284698D01*
X154373105Y-109284698D01*
X154482966Y-109280574D01*
X154598158Y-109276249D01*
X154823791Y-109228907D01*
X154828750Y-109226949D01*
X154828752Y-109226948D01*
X155033256Y-109146185D01*
X155033258Y-109146184D01*
X155038221Y-109144224D01*
X155043525Y-109141006D01*
X155230757Y-109027390D01*
X155230756Y-109027390D01*
X155235317Y-109024623D01*
X155279001Y-108986716D01*
X155405412Y-108877023D01*
X155405414Y-108877021D01*
X155409445Y-108873523D01*
X155448257Y-108826189D01*
X155552240Y-108699373D01*
X155552244Y-108699367D01*
X155555624Y-108695245D01*
X155592154Y-108631071D01*
X155643235Y-108581766D01*
X155712865Y-108567904D01*
X155778936Y-108593887D01*
X155806175Y-108623037D01*
X155906850Y-108772575D01*
X155913519Y-108780870D01*
X156065228Y-108939900D01*
X156073186Y-108946941D01*
X156249525Y-109078141D01*
X156258562Y-109083745D01*
X156454484Y-109183357D01*
X156464335Y-109187357D01*
X156674240Y-109252534D01*
X156684624Y-109254817D01*
X156700043Y-109256861D01*
X156714207Y-109254665D01*
X156718000Y-109241478D01*
X156718000Y-104606808D01*
X156714027Y-104593277D01*
X156703420Y-104591752D01*
X156585579Y-104616477D01*
X156575383Y-104619537D01*
X156370971Y-104700263D01*
X156361439Y-104704994D01*
X156173538Y-104819016D01*
X156164948Y-104825280D01*
X155998948Y-104969327D01*
X155991528Y-104976958D01*
X155852174Y-105146911D01*
X155846150Y-105155678D01*
X155812435Y-105214906D01*
X155761353Y-105264212D01*
X155691723Y-105278074D01*
X155625652Y-105252091D01*
X155598413Y-105222941D01*
X155553129Y-105155678D01*
X155494559Y-105068681D01*
X155490878Y-105064822D01*
X155340652Y-104907345D01*
X155308105Y-104844248D01*
X155314836Y-104773571D01*
X155342727Y-104731278D01*
X156001153Y-104072852D01*
X156009439Y-104065312D01*
X156015918Y-104061200D01*
X156062544Y-104011548D01*
X156065298Y-104008707D01*
X156085035Y-103988970D01*
X156087515Y-103985773D01*
X156095220Y-103976751D01*
X156120059Y-103950300D01*
X156125486Y-103944521D01*
X156129305Y-103937575D01*
X156129307Y-103937572D01*
X156135248Y-103926766D01*
X156146099Y-103910247D01*
X156153658Y-103900501D01*
X156158514Y-103894241D01*
X156161659Y-103886972D01*
X156161662Y-103886968D01*
X156176074Y-103853663D01*
X156181291Y-103843013D01*
X156202595Y-103804260D01*
X156207633Y-103784637D01*
X156214037Y-103765934D01*
X156218933Y-103754620D01*
X156218933Y-103754619D01*
X156222081Y-103747345D01*
X156223320Y-103739522D01*
X156223323Y-103739512D01*
X156228999Y-103703676D01*
X156231405Y-103692056D01*
X156240428Y-103656911D01*
X156240428Y-103656910D01*
X156242400Y-103649230D01*
X156242400Y-103628976D01*
X156243951Y-103609265D01*
X156245880Y-103597086D01*
X156247120Y-103589257D01*
X156242959Y-103545238D01*
X156242400Y-103533381D01*
X156242400Y-91981501D01*
X156262402Y-91913380D01*
X156316058Y-91866887D01*
X156386332Y-91856783D01*
X156425506Y-91869185D01*
X156454292Y-91883821D01*
X156454298Y-91883823D01*
X156459051Y-91886240D01*
X156464145Y-91887822D01*
X156464148Y-91887823D01*
X156638781Y-91942048D01*
X156679227Y-91954607D01*
X156684516Y-91955308D01*
X156902489Y-91984198D01*
X156902494Y-91984198D01*
X156907774Y-91984898D01*
X156913103Y-91984698D01*
X156913105Y-91984698D01*
X157022966Y-91980574D01*
X157138158Y-91976249D01*
X157229547Y-91957074D01*
X157301161Y-91942048D01*
X157363791Y-91928907D01*
X157368750Y-91926949D01*
X157368752Y-91926948D01*
X157573256Y-91846185D01*
X157573258Y-91846184D01*
X157578221Y-91844224D01*
X157657974Y-91795829D01*
X157738759Y-91746807D01*
X157775317Y-91724623D01*
X157779347Y-91721126D01*
X157945412Y-91577023D01*
X157945414Y-91577021D01*
X157949445Y-91573523D01*
X157965804Y-91553572D01*
X158024461Y-91513580D01*
X158095431Y-91511648D01*
X158156180Y-91548392D01*
G37*
G04 #@! TD.AperFunction*
G04 #@! TA.AperFunction,Conductor*
G36*
X129861205Y-112013802D02*
G01*
X129907698Y-112067458D01*
X129917802Y-112137732D01*
X129907279Y-112173050D01*
X129842510Y-112311947D01*
X129838764Y-112322239D01*
X129792606Y-112494503D01*
X129792942Y-112508599D01*
X129800884Y-112512000D01*
X131202000Y-112512000D01*
X131270121Y-112532002D01*
X131316614Y-112585658D01*
X131328000Y-112638000D01*
X131328000Y-114033967D01*
X131331973Y-114047498D01*
X131340522Y-114048727D01*
X131517761Y-114001236D01*
X131528053Y-113997490D01*
X131725511Y-113905414D01*
X131735007Y-113899931D01*
X131913467Y-113774972D01*
X131921875Y-113767916D01*
X132075916Y-113613875D01*
X132082972Y-113605467D01*
X132207937Y-113426999D01*
X132212789Y-113418595D01*
X132264174Y-113369604D01*
X132333888Y-113356171D01*
X132399798Y-113382561D01*
X132411000Y-113392505D01*
X133187595Y-114169100D01*
X133221621Y-114231412D01*
X133224500Y-114258195D01*
X133224500Y-115307692D01*
X133204498Y-115375813D01*
X133156683Y-115419453D01*
X133131607Y-115432507D01*
X133127474Y-115435610D01*
X133127471Y-115435612D01*
X132957100Y-115563530D01*
X132952965Y-115566635D01*
X132937345Y-115582980D01*
X132841729Y-115683037D01*
X132798629Y-115728138D01*
X132691201Y-115885621D01*
X132636293Y-115930621D01*
X132565768Y-115938792D01*
X132502021Y-115907538D01*
X132481324Y-115883054D01*
X132400822Y-115758617D01*
X132400820Y-115758614D01*
X132398014Y-115754277D01*
X132247670Y-115589051D01*
X132243619Y-115585852D01*
X132243615Y-115585848D01*
X132076414Y-115453800D01*
X132076410Y-115453798D01*
X132072359Y-115450598D01*
X132067831Y-115448098D01*
X132007549Y-115414821D01*
X131876789Y-115342638D01*
X131871920Y-115340914D01*
X131871916Y-115340912D01*
X131671087Y-115269795D01*
X131671083Y-115269794D01*
X131666212Y-115268069D01*
X131661119Y-115267162D01*
X131661116Y-115267161D01*
X131451373Y-115229800D01*
X131451367Y-115229799D01*
X131446284Y-115228894D01*
X131372452Y-115227992D01*
X131228081Y-115226228D01*
X131228079Y-115226228D01*
X131222911Y-115226165D01*
X131002091Y-115259955D01*
X130789756Y-115329357D01*
X130759443Y-115345137D01*
X130615975Y-115419822D01*
X130591607Y-115432507D01*
X130587474Y-115435610D01*
X130587471Y-115435612D01*
X130417100Y-115563530D01*
X130412965Y-115566635D01*
X130397345Y-115582980D01*
X130301729Y-115683037D01*
X130258629Y-115728138D01*
X130151201Y-115885621D01*
X130096293Y-115930621D01*
X130025768Y-115938792D01*
X129962021Y-115907538D01*
X129941324Y-115883054D01*
X129860822Y-115758617D01*
X129860820Y-115758614D01*
X129858014Y-115754277D01*
X129707670Y-115589051D01*
X129703619Y-115585852D01*
X129703615Y-115585848D01*
X129536414Y-115453800D01*
X129536410Y-115453798D01*
X129532359Y-115450598D01*
X129527831Y-115448098D01*
X129501049Y-115433314D01*
X129473802Y-115418273D01*
X129423832Y-115367842D01*
X129412189Y-115324644D01*
X129410162Y-115324965D01*
X129408922Y-115317137D01*
X129408673Y-115309210D01*
X129403022Y-115289758D01*
X129399014Y-115270406D01*
X129397917Y-115261728D01*
X129396474Y-115250303D01*
X129393557Y-115242934D01*
X129393556Y-115242932D01*
X129380200Y-115209197D01*
X129376355Y-115197970D01*
X129374225Y-115190639D01*
X129364018Y-115155507D01*
X129359983Y-115148684D01*
X129359981Y-115148679D01*
X129353706Y-115138068D01*
X129345010Y-115120318D01*
X129340472Y-115108856D01*
X129340469Y-115108851D01*
X129337552Y-115101483D01*
X129316217Y-115072117D01*
X129311573Y-115065725D01*
X129305057Y-115055807D01*
X129286575Y-115024557D01*
X129282542Y-115017737D01*
X129268218Y-115003413D01*
X129255376Y-114988378D01*
X129243472Y-114971993D01*
X129209406Y-114943811D01*
X129200627Y-114935822D01*
X128128305Y-113863500D01*
X128094279Y-113801188D01*
X128091400Y-113774405D01*
X128091400Y-113032522D01*
X129791273Y-113032522D01*
X129838764Y-113209761D01*
X129842510Y-113220053D01*
X129934586Y-113417511D01*
X129940069Y-113427007D01*
X130065028Y-113605467D01*
X130072084Y-113613875D01*
X130226125Y-113767916D01*
X130234533Y-113774972D01*
X130412993Y-113899931D01*
X130422489Y-113905414D01*
X130619947Y-113997490D01*
X130630239Y-114001236D01*
X130802503Y-114047394D01*
X130816599Y-114047058D01*
X130820000Y-114039116D01*
X130820000Y-113038115D01*
X130815525Y-113022876D01*
X130814135Y-113021671D01*
X130806452Y-113020000D01*
X129806033Y-113020000D01*
X129792502Y-113023973D01*
X129791273Y-113032522D01*
X128091400Y-113032522D01*
X128091400Y-112297725D01*
X128111402Y-112229604D01*
X128165058Y-112183111D01*
X128235332Y-112173007D01*
X128268648Y-112182618D01*
X128366777Y-112226308D01*
X128366785Y-112226311D01*
X128372812Y-112228994D01*
X128466213Y-112248847D01*
X128553156Y-112267328D01*
X128553161Y-112267328D01*
X128559613Y-112268700D01*
X128750587Y-112268700D01*
X128757039Y-112267328D01*
X128757044Y-112267328D01*
X128843987Y-112248847D01*
X128937388Y-112228994D01*
X128943421Y-112226308D01*
X129105822Y-112154003D01*
X129105824Y-112154002D01*
X129111852Y-112151318D01*
X129130552Y-112137732D01*
X129261014Y-112042945D01*
X129266353Y-112039066D01*
X129270768Y-112034163D01*
X129275680Y-112029740D01*
X129276830Y-112031018D01*
X129330025Y-111998249D01*
X129363210Y-111993800D01*
X129793084Y-111993800D01*
X129861205Y-112013802D01*
G37*
G04 #@! TD.AperFunction*
G04 #@! TA.AperFunction,Conductor*
G36*
X160745211Y-65552502D02*
G01*
X160791704Y-65606158D01*
X160803090Y-65658500D01*
X160803090Y-87367628D01*
X160783088Y-87435749D01*
X160729432Y-87482242D01*
X160659158Y-87492346D01*
X160616580Y-87478147D01*
X160615887Y-87477767D01*
X160608705Y-87472385D01*
X160600304Y-87469236D01*
X160600303Y-87469235D01*
X160532353Y-87443762D01*
X160472316Y-87421255D01*
X160410134Y-87414500D01*
X158613866Y-87414500D01*
X158551684Y-87421255D01*
X158415295Y-87472385D01*
X158298739Y-87559739D01*
X158211385Y-87676295D01*
X158208233Y-87684704D01*
X158208232Y-87684705D01*
X158180232Y-87759395D01*
X158137591Y-87816160D01*
X158071029Y-87840860D01*
X158001680Y-87825653D01*
X157971080Y-87802138D01*
X157930305Y-87759395D01*
X157875424Y-87701865D01*
X157831399Y-87669109D01*
X157694740Y-87567432D01*
X157694741Y-87567432D01*
X157690458Y-87564246D01*
X157685707Y-87561830D01*
X157685703Y-87561828D01*
X157560718Y-87498283D01*
X157484949Y-87459760D01*
X157479855Y-87458178D01*
X157479852Y-87458177D01*
X157269871Y-87392976D01*
X157264773Y-87391393D01*
X157259484Y-87390692D01*
X157041511Y-87361802D01*
X157041506Y-87361802D01*
X157036226Y-87361102D01*
X157030897Y-87361302D01*
X157030895Y-87361302D01*
X156925176Y-87365271D01*
X156805842Y-87369751D01*
X156800623Y-87370846D01*
X156732293Y-87385183D01*
X156580209Y-87417093D01*
X156575253Y-87419050D01*
X156575247Y-87419052D01*
X156414682Y-87482463D01*
X156343976Y-87488881D01*
X156281024Y-87456054D01*
X156245814Y-87394403D01*
X156242400Y-87365271D01*
X156242400Y-80854394D01*
X156262402Y-80786273D01*
X156279305Y-80765299D01*
X158050253Y-78994352D01*
X158058539Y-78986812D01*
X158065018Y-78982700D01*
X158111644Y-78933048D01*
X158114398Y-78930207D01*
X158134135Y-78910470D01*
X158136615Y-78907273D01*
X158144320Y-78898251D01*
X158174586Y-78866021D01*
X158178405Y-78859075D01*
X158178407Y-78859072D01*
X158184348Y-78848266D01*
X158195199Y-78831747D01*
X158198518Y-78827468D01*
X158207614Y-78815741D01*
X158210759Y-78808472D01*
X158210762Y-78808468D01*
X158225174Y-78775163D01*
X158230391Y-78764513D01*
X158251695Y-78725760D01*
X158256733Y-78706137D01*
X158263137Y-78687434D01*
X158268033Y-78676120D01*
X158268033Y-78676119D01*
X158271181Y-78668845D01*
X158272420Y-78661022D01*
X158272423Y-78661012D01*
X158278099Y-78625176D01*
X158280505Y-78613556D01*
X158289528Y-78578411D01*
X158289528Y-78578410D01*
X158291500Y-78570730D01*
X158291500Y-78550476D01*
X158293051Y-78530765D01*
X158294980Y-78518586D01*
X158296220Y-78510757D01*
X158292059Y-78466738D01*
X158291500Y-78454881D01*
X158291500Y-73076868D01*
X158292027Y-73065685D01*
X158293702Y-73058192D01*
X158291562Y-72990101D01*
X158291500Y-72986144D01*
X158291500Y-72958244D01*
X158290996Y-72954253D01*
X158290063Y-72942411D01*
X158288923Y-72906136D01*
X158288674Y-72898211D01*
X158283021Y-72878752D01*
X158279012Y-72859393D01*
X158278846Y-72858083D01*
X158276474Y-72839303D01*
X158273558Y-72831937D01*
X158273556Y-72831931D01*
X158260200Y-72798198D01*
X158256355Y-72786968D01*
X158246230Y-72752117D01*
X158246230Y-72752116D01*
X158244019Y-72744507D01*
X158233705Y-72727066D01*
X158225008Y-72709313D01*
X158220472Y-72697858D01*
X158217552Y-72690483D01*
X158191563Y-72654712D01*
X158185047Y-72644792D01*
X158166578Y-72613563D01*
X158162542Y-72606738D01*
X158148221Y-72592417D01*
X158135380Y-72577383D01*
X158128131Y-72567406D01*
X158123472Y-72560993D01*
X158117367Y-72555942D01*
X158117362Y-72555937D01*
X158089396Y-72532801D01*
X158080618Y-72524813D01*
X157548603Y-71992798D01*
X157514577Y-71930486D01*
X157519642Y-71859671D01*
X157535375Y-71830177D01*
X157629435Y-71699277D01*
X157632453Y-71695077D01*
X157731430Y-71494811D01*
X157796370Y-71281069D01*
X157825529Y-71059590D01*
X157827156Y-70993000D01*
X157808852Y-70770361D01*
X157754431Y-70553702D01*
X157665354Y-70348840D01*
X157564330Y-70192680D01*
X157546822Y-70165617D01*
X157546820Y-70165614D01*
X157544014Y-70161277D01*
X157540540Y-70157459D01*
X157540533Y-70157450D01*
X157396435Y-69999088D01*
X157365383Y-69935242D01*
X157373779Y-69864744D01*
X157418956Y-69809976D01*
X157445400Y-69796307D01*
X157552052Y-69756325D01*
X157567649Y-69747786D01*
X157669724Y-69671285D01*
X157682285Y-69658724D01*
X157758786Y-69556649D01*
X157767324Y-69541054D01*
X157812478Y-69420606D01*
X157816105Y-69405351D01*
X157821631Y-69354486D01*
X157822000Y-69347672D01*
X157822000Y-68725115D01*
X157817525Y-68709876D01*
X157816135Y-68708671D01*
X157808452Y-68707000D01*
X155124116Y-68707000D01*
X155108877Y-68711475D01*
X155107672Y-68712865D01*
X155106001Y-68720548D01*
X155106001Y-69347669D01*
X155106371Y-69354490D01*
X155111895Y-69405352D01*
X155115521Y-69420604D01*
X155160676Y-69541054D01*
X155169214Y-69556649D01*
X155245715Y-69658724D01*
X155258276Y-69671285D01*
X155360351Y-69747786D01*
X155375946Y-69756324D01*
X155484827Y-69797142D01*
X155541591Y-69839784D01*
X155566291Y-69906345D01*
X155551083Y-69975694D01*
X155531691Y-70002175D01*
X155448794Y-70088922D01*
X155404629Y-70135138D01*
X155401715Y-70139410D01*
X155401714Y-70139411D01*
X155362174Y-70197375D01*
X155278743Y-70319680D01*
X155184688Y-70522305D01*
X155124989Y-70737570D01*
X155101251Y-70959695D01*
X155101548Y-70964848D01*
X155101548Y-70964851D01*
X155112243Y-71150336D01*
X155114110Y-71182715D01*
X155115247Y-71187761D01*
X155115248Y-71187767D01*
X155133464Y-71268596D01*
X155163222Y-71400639D01*
X155247266Y-71607616D01*
X155249965Y-71612020D01*
X155334206Y-71749489D01*
X155363987Y-71798088D01*
X155510250Y-71966938D01*
X155682126Y-72109632D01*
X155686593Y-72112242D01*
X155755445Y-72152476D01*
X155804169Y-72204114D01*
X155817240Y-72273897D01*
X155790509Y-72339669D01*
X155750055Y-72373027D01*
X155737607Y-72379507D01*
X155733474Y-72382610D01*
X155733471Y-72382612D01*
X155665350Y-72433759D01*
X155558965Y-72513635D01*
X155555393Y-72517373D01*
X155424149Y-72654712D01*
X155404629Y-72675138D01*
X155401715Y-72679410D01*
X155401714Y-72679411D01*
X155362174Y-72737375D01*
X155278743Y-72859680D01*
X155276564Y-72864375D01*
X155190277Y-73050265D01*
X155184688Y-73062305D01*
X155124989Y-73277570D01*
X155101251Y-73499695D01*
X155101548Y-73504848D01*
X155101548Y-73504851D01*
X155112458Y-73694069D01*
X155114110Y-73722715D01*
X155115247Y-73727761D01*
X155115248Y-73727767D01*
X155133464Y-73808596D01*
X155163222Y-73940639D01*
X155205254Y-74044151D01*
X155244268Y-74140232D01*
X155247266Y-74147616D01*
X155249965Y-74152020D01*
X155355556Y-74324329D01*
X155363987Y-74338088D01*
X155367365Y-74341988D01*
X155367366Y-74341989D01*
X155384722Y-74362025D01*
X155414204Y-74426610D01*
X155404089Y-74496883D01*
X155378579Y-74533617D01*
X150912562Y-78999633D01*
X146447095Y-83465100D01*
X146384783Y-83499126D01*
X146313968Y-83494061D01*
X146257132Y-83451514D01*
X146232321Y-83384994D01*
X146232000Y-83376005D01*
X146232000Y-75430163D01*
X146232527Y-75418979D01*
X146234201Y-75411491D01*
X146232062Y-75343432D01*
X146232000Y-75339475D01*
X146232000Y-75311544D01*
X146231494Y-75307538D01*
X146230561Y-75295692D01*
X146229422Y-75259437D01*
X146229173Y-75251510D01*
X146223522Y-75232058D01*
X146219514Y-75212706D01*
X146217968Y-75200468D01*
X146217967Y-75200466D01*
X146216974Y-75192603D01*
X146200694Y-75151486D01*
X146196859Y-75140285D01*
X146184518Y-75097806D01*
X146180485Y-75090987D01*
X146180483Y-75090982D01*
X146174207Y-75080371D01*
X146165510Y-75062621D01*
X146158052Y-75043783D01*
X146132071Y-75008023D01*
X146125553Y-74998101D01*
X146107078Y-74966860D01*
X146107074Y-74966855D01*
X146103042Y-74960037D01*
X146088718Y-74945713D01*
X146075876Y-74930678D01*
X146063972Y-74914293D01*
X146029906Y-74886111D01*
X146021127Y-74878122D01*
X143250590Y-72107585D01*
X145876698Y-72107585D01*
X145881504Y-72204114D01*
X145890390Y-72382612D01*
X145892936Y-72433759D01*
X145893577Y-72437490D01*
X145893578Y-72437498D01*
X145946332Y-72744507D01*
X145948241Y-72755619D01*
X145949329Y-72759258D01*
X145949330Y-72759261D01*
X146018367Y-72990102D01*
X146041814Y-73068504D01*
X146043327Y-73071975D01*
X146043329Y-73071981D01*
X146130764Y-73272588D01*
X146172297Y-73367881D01*
X146174220Y-73371152D01*
X146174222Y-73371156D01*
X146216584Y-73443215D01*
X146337802Y-73649414D01*
X146340103Y-73652429D01*
X146533631Y-73906012D01*
X146533636Y-73906017D01*
X146535931Y-73909025D01*
X146597931Y-73972670D01*
X146733931Y-74112277D01*
X146763814Y-74142953D01*
X146836635Y-74201607D01*
X147015196Y-74345431D01*
X147015201Y-74345435D01*
X147018149Y-74347809D01*
X147295253Y-74520627D01*
X147591112Y-74658903D01*
X147901440Y-74760634D01*
X148221742Y-74824346D01*
X148225514Y-74824633D01*
X148225522Y-74824634D01*
X148543602Y-74848829D01*
X148543607Y-74848829D01*
X148547379Y-74849116D01*
X148873633Y-74834586D01*
X148933425Y-74824634D01*
X149192037Y-74781590D01*
X149192042Y-74781589D01*
X149195778Y-74780967D01*
X149509149Y-74689034D01*
X149512616Y-74687544D01*
X149512620Y-74687543D01*
X149805721Y-74561616D01*
X149805723Y-74561615D01*
X149809205Y-74560119D01*
X150091601Y-74396091D01*
X150352245Y-74199324D01*
X150537627Y-74020616D01*
X150584632Y-73975303D01*
X150584635Y-73975300D01*
X150587363Y-73972670D01*
X150720940Y-73808596D01*
X150791155Y-73722351D01*
X150791158Y-73722347D01*
X150793549Y-73719410D01*
X150871595Y-73595715D01*
X150965788Y-73446428D01*
X150965790Y-73446425D01*
X150967815Y-73443215D01*
X151107638Y-73148084D01*
X151108840Y-73144482D01*
X151209790Y-72841897D01*
X151209792Y-72841891D01*
X151210992Y-72838293D01*
X151276381Y-72518329D01*
X151277016Y-72510530D01*
X151298529Y-72246027D01*
X151302856Y-72192826D01*
X151303231Y-72157059D01*
X151303428Y-72138221D01*
X151303428Y-72138214D01*
X151303451Y-72136000D01*
X151301862Y-72109632D01*
X151284026Y-71813793D01*
X151284026Y-71813789D01*
X151283798Y-71810015D01*
X151282333Y-71801990D01*
X151225805Y-71492473D01*
X151225804Y-71492469D01*
X151225125Y-71488751D01*
X151217722Y-71464907D01*
X151129404Y-71180477D01*
X151128282Y-71176863D01*
X150994670Y-70878869D01*
X150826226Y-70599084D01*
X150823899Y-70596100D01*
X150823894Y-70596093D01*
X150627726Y-70344558D01*
X150627724Y-70344556D01*
X150625390Y-70341563D01*
X150395070Y-70110034D01*
X150138603Y-69907852D01*
X149859705Y-69737945D01*
X149856261Y-69736379D01*
X149856257Y-69736377D01*
X149713094Y-69671285D01*
X149562414Y-69602775D01*
X149251037Y-69504300D01*
X149033492Y-69463390D01*
X148933809Y-69444645D01*
X148933807Y-69444645D01*
X148930086Y-69443945D01*
X148604208Y-69422586D01*
X148600428Y-69422794D01*
X148600427Y-69422794D01*
X148502897Y-69428162D01*
X148278124Y-69440532D01*
X148274397Y-69441193D01*
X148274393Y-69441193D01*
X148117340Y-69469027D01*
X147956557Y-69497522D01*
X147952941Y-69498624D01*
X147952933Y-69498626D01*
X147659949Y-69587921D01*
X147644167Y-69592731D01*
X147345477Y-69724781D01*
X147320041Y-69739914D01*
X147068074Y-69889817D01*
X147068068Y-69889821D01*
X147064814Y-69891757D01*
X147061812Y-69894073D01*
X146874457Y-70038617D01*
X146806244Y-70091243D01*
X146573513Y-70320347D01*
X146571149Y-70323314D01*
X146571146Y-70323317D01*
X146387561Y-70553702D01*
X146369991Y-70575751D01*
X146198626Y-70853757D01*
X146061902Y-71150336D01*
X146060741Y-71153940D01*
X146060741Y-71153941D01*
X146053139Y-71177547D01*
X145961797Y-71461192D01*
X145961079Y-71464903D01*
X145961078Y-71464907D01*
X145900482Y-71778105D01*
X145900481Y-71778114D01*
X145899763Y-71781824D01*
X145899496Y-71785600D01*
X145899495Y-71785605D01*
X145881703Y-72036896D01*
X145876698Y-72107585D01*
X143250590Y-72107585D01*
X139836847Y-68693842D01*
X139802821Y-68631530D01*
X139807886Y-68560715D01*
X139836846Y-68515652D01*
X139944198Y-68408300D01*
X140075523Y-68220749D01*
X140077846Y-68215767D01*
X140077849Y-68215762D01*
X140094112Y-68180885D01*
X155106000Y-68180885D01*
X155110475Y-68196124D01*
X155111865Y-68197329D01*
X155119548Y-68199000D01*
X156191885Y-68199000D01*
X156207124Y-68194525D01*
X156208329Y-68193135D01*
X156210000Y-68185452D01*
X156210000Y-68180885D01*
X156718000Y-68180885D01*
X156722475Y-68196124D01*
X156723865Y-68197329D01*
X156731548Y-68199000D01*
X157803884Y-68199000D01*
X157819123Y-68194525D01*
X157820328Y-68193135D01*
X157821999Y-68185452D01*
X157821999Y-67558331D01*
X157821629Y-67551510D01*
X157816105Y-67500648D01*
X157812479Y-67485396D01*
X157767324Y-67364946D01*
X157758786Y-67349351D01*
X157682285Y-67247276D01*
X157669724Y-67234715D01*
X157567649Y-67158214D01*
X157552054Y-67149676D01*
X157431606Y-67104522D01*
X157416351Y-67100895D01*
X157365486Y-67095369D01*
X157358672Y-67095000D01*
X156736115Y-67095000D01*
X156720876Y-67099475D01*
X156719671Y-67100865D01*
X156718000Y-67108548D01*
X156718000Y-68180885D01*
X156210000Y-68180885D01*
X156210000Y-67113116D01*
X156205525Y-67097877D01*
X156204135Y-67096672D01*
X156196452Y-67095001D01*
X155569331Y-67095001D01*
X155562510Y-67095371D01*
X155511648Y-67100895D01*
X155496396Y-67104521D01*
X155375946Y-67149676D01*
X155360351Y-67158214D01*
X155258276Y-67234715D01*
X155245715Y-67247276D01*
X155169214Y-67349351D01*
X155160676Y-67364946D01*
X155115522Y-67485394D01*
X155111895Y-67500649D01*
X155106369Y-67551514D01*
X155106000Y-67558328D01*
X155106000Y-68180885D01*
X140094112Y-68180885D01*
X140169961Y-68018225D01*
X140169961Y-68018224D01*
X140172284Y-68013243D01*
X140195259Y-67927502D01*
X140230119Y-67797402D01*
X140230119Y-67797400D01*
X140231543Y-67792087D01*
X140251498Y-67564000D01*
X140231543Y-67335913D01*
X140187118Y-67170118D01*
X140173707Y-67120067D01*
X140173706Y-67120065D01*
X140172284Y-67114757D01*
X140169389Y-67108548D01*
X140077849Y-66912238D01*
X140077846Y-66912233D01*
X140075523Y-66907251D01*
X139944198Y-66719700D01*
X139782300Y-66557802D01*
X139777792Y-66554645D01*
X139777789Y-66554643D01*
X139699611Y-66499902D01*
X139594749Y-66426477D01*
X139589767Y-66424154D01*
X139589762Y-66424151D01*
X139392225Y-66332039D01*
X139392224Y-66332039D01*
X139387243Y-66329716D01*
X139381935Y-66328294D01*
X139381933Y-66328293D01*
X139171402Y-66271881D01*
X139171400Y-66271881D01*
X139166087Y-66270457D01*
X138938000Y-66250502D01*
X138709913Y-66270457D01*
X138704600Y-66271881D01*
X138704598Y-66271881D01*
X138494067Y-66328293D01*
X138494065Y-66328294D01*
X138488757Y-66329716D01*
X138483776Y-66332039D01*
X138483775Y-66332039D01*
X138286238Y-66424151D01*
X138286233Y-66424154D01*
X138281251Y-66426477D01*
X138176389Y-66499902D01*
X138098211Y-66554643D01*
X138098208Y-66554645D01*
X138093700Y-66557802D01*
X137931802Y-66719700D01*
X137800477Y-66907251D01*
X137798154Y-66912233D01*
X137798151Y-66912238D01*
X137706611Y-67108548D01*
X137703716Y-67114757D01*
X137702294Y-67120065D01*
X137702293Y-67120067D01*
X137688882Y-67170118D01*
X137644457Y-67335913D01*
X137624502Y-67564000D01*
X137644457Y-67792087D01*
X137645881Y-67797400D01*
X137645881Y-67797402D01*
X137680742Y-67927502D01*
X137703716Y-68013243D01*
X137706039Y-68018224D01*
X137706039Y-68018225D01*
X137798151Y-68215762D01*
X137798154Y-68215767D01*
X137800477Y-68220749D01*
X137931802Y-68408300D01*
X138093700Y-68570198D01*
X138098208Y-68573355D01*
X138098211Y-68573357D01*
X138166128Y-68620913D01*
X138253361Y-68681994D01*
X138297688Y-68737450D01*
X138305707Y-68775056D01*
X138305837Y-68775035D01*
X138306226Y-68777490D01*
X138307027Y-68781247D01*
X138307327Y-68790789D01*
X138312978Y-68810239D01*
X138316987Y-68829600D01*
X138319526Y-68849697D01*
X138322445Y-68857068D01*
X138322445Y-68857070D01*
X138335804Y-68890812D01*
X138339649Y-68902042D01*
X138351982Y-68944493D01*
X138356015Y-68951312D01*
X138356017Y-68951317D01*
X138362293Y-68961928D01*
X138370988Y-68979676D01*
X138378448Y-68998517D01*
X138383110Y-69004933D01*
X138383110Y-69004934D01*
X138404436Y-69034287D01*
X138410952Y-69044207D01*
X138433458Y-69082262D01*
X138447779Y-69096583D01*
X138460619Y-69111616D01*
X138472528Y-69128007D01*
X138478634Y-69133058D01*
X138506605Y-69156198D01*
X138515384Y-69164188D01*
X144928095Y-75576899D01*
X144962121Y-75639211D01*
X144965000Y-75665994D01*
X144965000Y-87346203D01*
X144944998Y-87414324D01*
X144891342Y-87460817D01*
X144821068Y-87470921D01*
X144791599Y-87462947D01*
X144789704Y-87462178D01*
X144784949Y-87459760D01*
X144745157Y-87447404D01*
X144569871Y-87392976D01*
X144564773Y-87391393D01*
X144559484Y-87390692D01*
X144341511Y-87361802D01*
X144341506Y-87361802D01*
X144336226Y-87361102D01*
X144330897Y-87361302D01*
X144330895Y-87361302D01*
X144225176Y-87365271D01*
X144105842Y-87369751D01*
X144100623Y-87370846D01*
X144032293Y-87385183D01*
X143880209Y-87417093D01*
X143875250Y-87419051D01*
X143875248Y-87419052D01*
X143670744Y-87499815D01*
X143670742Y-87499816D01*
X143665779Y-87501776D01*
X143661220Y-87504543D01*
X143661217Y-87504544D01*
X143530926Y-87583607D01*
X143468683Y-87621377D01*
X143464653Y-87624874D01*
X143309631Y-87759395D01*
X143294555Y-87772477D01*
X143267943Y-87804933D01*
X143151760Y-87946627D01*
X143151756Y-87946633D01*
X143148376Y-87950755D01*
X143145737Y-87955391D01*
X143145735Y-87955394D01*
X143107549Y-88022478D01*
X143034325Y-88151114D01*
X142955663Y-88367825D01*
X142954714Y-88373074D01*
X142954713Y-88373077D01*
X142915377Y-88590608D01*
X142915376Y-88590615D01*
X142914639Y-88594692D01*
X142913500Y-88618844D01*
X142913500Y-90680890D01*
X142917408Y-90726952D01*
X142925654Y-90824125D01*
X142928080Y-90852720D01*
X142929418Y-90857875D01*
X142929419Y-90857881D01*
X142984657Y-91070703D01*
X142985999Y-91075872D01*
X142988191Y-91080738D01*
X142988192Y-91080741D01*
X143028276Y-91169725D01*
X143080688Y-91286075D01*
X143209441Y-91477319D01*
X143368576Y-91644135D01*
X143372854Y-91647318D01*
X143412740Y-91676994D01*
X143553542Y-91781754D01*
X143558293Y-91784170D01*
X143558297Y-91784172D01*
X143656297Y-91833997D01*
X143759051Y-91886240D01*
X143764145Y-91887822D01*
X143764148Y-91887823D01*
X143938781Y-91942048D01*
X143979227Y-91954607D01*
X143984516Y-91955308D01*
X144202489Y-91984198D01*
X144202494Y-91984198D01*
X144207774Y-91984898D01*
X144213103Y-91984698D01*
X144213105Y-91984698D01*
X144322966Y-91980574D01*
X144438158Y-91976249D01*
X144529547Y-91957074D01*
X144601161Y-91942048D01*
X144663791Y-91928907D01*
X144668750Y-91926949D01*
X144668752Y-91926948D01*
X144873256Y-91846185D01*
X144873258Y-91846184D01*
X144878221Y-91844224D01*
X145016517Y-91760304D01*
X145085130Y-91742065D01*
X145152712Y-91763816D01*
X145162204Y-91770944D01*
X145167111Y-91775004D01*
X145175884Y-91782988D01*
X146722595Y-93329699D01*
X146756621Y-93392011D01*
X146759500Y-93418794D01*
X146759500Y-93805693D01*
X146739498Y-93873814D01*
X146685842Y-93920307D01*
X146615568Y-93930411D01*
X146607303Y-93928940D01*
X146515244Y-93909372D01*
X146515239Y-93909372D01*
X146508787Y-93908000D01*
X146317813Y-93908000D01*
X146311361Y-93909372D01*
X146311356Y-93909372D01*
X146237839Y-93924999D01*
X146131012Y-93947706D01*
X146124982Y-93950391D01*
X146124981Y-93950391D01*
X145962578Y-94022697D01*
X145962576Y-94022698D01*
X145956548Y-94025382D01*
X145951207Y-94029262D01*
X145951206Y-94029263D01*
X145882352Y-94079289D01*
X145802047Y-94137634D01*
X145797632Y-94142537D01*
X145792720Y-94146960D01*
X145791595Y-94145711D01*
X145738286Y-94178551D01*
X145705100Y-94183000D01*
X145149167Y-94183000D01*
X145137984Y-94182473D01*
X145130491Y-94180798D01*
X145122565Y-94181047D01*
X145122564Y-94181047D01*
X145062414Y-94182938D01*
X145058455Y-94183000D01*
X145030544Y-94183000D01*
X145026610Y-94183497D01*
X145026609Y-94183497D01*
X145026544Y-94183505D01*
X145014707Y-94184438D01*
X144982890Y-94185438D01*
X144978429Y-94185578D01*
X144970510Y-94185827D01*
X144956056Y-94190026D01*
X144951058Y-94191478D01*
X144931706Y-94195486D01*
X144924635Y-94196380D01*
X144911603Y-94198026D01*
X144904234Y-94200943D01*
X144904232Y-94200944D01*
X144870497Y-94214300D01*
X144859269Y-94218145D01*
X144816807Y-94230482D01*
X144809984Y-94234517D01*
X144809982Y-94234518D01*
X144799372Y-94240793D01*
X144781624Y-94249488D01*
X144762783Y-94256948D01*
X144756367Y-94261610D01*
X144756366Y-94261610D01*
X144727013Y-94282936D01*
X144717093Y-94289452D01*
X144685865Y-94307920D01*
X144685862Y-94307922D01*
X144679038Y-94311958D01*
X144664717Y-94326279D01*
X144649684Y-94339119D01*
X144633293Y-94351028D01*
X144628242Y-94357134D01*
X144605102Y-94385105D01*
X144597112Y-94393884D01*
X139823840Y-99167155D01*
X139761530Y-99201180D01*
X139690715Y-99196115D01*
X139645652Y-99167154D01*
X139538300Y-99059802D01*
X139533792Y-99056645D01*
X139533789Y-99056643D01*
X139453990Y-99000767D01*
X139350749Y-98928477D01*
X139345767Y-98926154D01*
X139345762Y-98926151D01*
X139311543Y-98910195D01*
X139258258Y-98863278D01*
X139238797Y-98795001D01*
X139259339Y-98727041D01*
X139311543Y-98681805D01*
X139345762Y-98665849D01*
X139345767Y-98665846D01*
X139350749Y-98663523D01*
X139455611Y-98590098D01*
X139533789Y-98535357D01*
X139533792Y-98535355D01*
X139538300Y-98532198D01*
X139700198Y-98370300D01*
X139704054Y-98364794D01*
X139828366Y-98187257D01*
X139831523Y-98182749D01*
X139833846Y-98177767D01*
X139833849Y-98177762D01*
X139925961Y-97980225D01*
X139925961Y-97980224D01*
X139928284Y-97975243D01*
X139955513Y-97873626D01*
X139986119Y-97759402D01*
X139986119Y-97759400D01*
X139987543Y-97754087D01*
X140007498Y-97526000D01*
X139987543Y-97297913D01*
X139950857Y-97161000D01*
X139929707Y-97082067D01*
X139929706Y-97082065D01*
X139928284Y-97076757D01*
X139912831Y-97043618D01*
X139833849Y-96874238D01*
X139833846Y-96874233D01*
X139831523Y-96869251D01*
X139711261Y-96697499D01*
X139703357Y-96686211D01*
X139703355Y-96686208D01*
X139700198Y-96681700D01*
X139538300Y-96519802D01*
X139533792Y-96516645D01*
X139533789Y-96516643D01*
X139360713Y-96395454D01*
X139316385Y-96339997D01*
X139309215Y-96268638D01*
X139311804Y-96255062D01*
X139313532Y-96247329D01*
X139315966Y-96237851D01*
X139327500Y-96192930D01*
X139327500Y-96189127D01*
X139355152Y-96125731D01*
X139379502Y-96103390D01*
X139533789Y-95995357D01*
X139533792Y-95995355D01*
X139538300Y-95992198D01*
X139700198Y-95830300D01*
X139708169Y-95818917D01*
X139800772Y-95686666D01*
X139831523Y-95642749D01*
X139833846Y-95637767D01*
X139833849Y-95637762D01*
X139925961Y-95440225D01*
X139925961Y-95440224D01*
X139928284Y-95435243D01*
X139930574Y-95426699D01*
X139986119Y-95219402D01*
X139986119Y-95219400D01*
X139987543Y-95214087D01*
X140007498Y-94986000D01*
X139987543Y-94757913D01*
X139928284Y-94536757D01*
X139925961Y-94531775D01*
X139833849Y-94334238D01*
X139833846Y-94334233D01*
X139831523Y-94329251D01*
X139738832Y-94196875D01*
X139703357Y-94146211D01*
X139703355Y-94146208D01*
X139700198Y-94141700D01*
X139538300Y-93979802D01*
X139533792Y-93976645D01*
X139533789Y-93976643D01*
X139451476Y-93919007D01*
X139350749Y-93848477D01*
X139345767Y-93846154D01*
X139345762Y-93846151D01*
X139148225Y-93754039D01*
X139148224Y-93754039D01*
X139143243Y-93751716D01*
X139137935Y-93750294D01*
X139137933Y-93750293D01*
X138927402Y-93693881D01*
X138927400Y-93693881D01*
X138922087Y-93692457D01*
X138694000Y-93672502D01*
X138465913Y-93692457D01*
X138460600Y-93693881D01*
X138460598Y-93693881D01*
X138250067Y-93750293D01*
X138250065Y-93750294D01*
X138244757Y-93751716D01*
X138239776Y-93754039D01*
X138239775Y-93754039D01*
X138042238Y-93846151D01*
X138042233Y-93846154D01*
X138037251Y-93848477D01*
X137936524Y-93919007D01*
X137854211Y-93976643D01*
X137854208Y-93976645D01*
X137849700Y-93979802D01*
X137687802Y-94141700D01*
X137684645Y-94146208D01*
X137684643Y-94146211D01*
X137649168Y-94196875D01*
X137556477Y-94329251D01*
X137554154Y-94334233D01*
X137554151Y-94334238D01*
X137462039Y-94531775D01*
X137459716Y-94536757D01*
X137400457Y-94757913D01*
X137380502Y-94986000D01*
X137400457Y-95214087D01*
X137401881Y-95219400D01*
X137401881Y-95219402D01*
X137457427Y-95426699D01*
X137459716Y-95435243D01*
X137462039Y-95440224D01*
X137462039Y-95440225D01*
X137554151Y-95637762D01*
X137554154Y-95637767D01*
X137556477Y-95642749D01*
X137587228Y-95686666D01*
X137679832Y-95818917D01*
X137687203Y-95829444D01*
X137687802Y-95830300D01*
X137687630Y-95830420D01*
X137715116Y-95893219D01*
X137703901Y-95963324D01*
X137679225Y-95998269D01*
X137152342Y-96525152D01*
X137144062Y-96532687D01*
X137137582Y-96536800D01*
X137105427Y-96571042D01*
X137090957Y-96586451D01*
X137088202Y-96589293D01*
X137068465Y-96609030D01*
X137065985Y-96612227D01*
X137058282Y-96621247D01*
X137028014Y-96653479D01*
X137024195Y-96660425D01*
X137024193Y-96660428D01*
X137018252Y-96671234D01*
X137007401Y-96687753D01*
X136994986Y-96703759D01*
X136991841Y-96711028D01*
X136991838Y-96711032D01*
X136977426Y-96744337D01*
X136972209Y-96754987D01*
X136950905Y-96793740D01*
X136948934Y-96801415D01*
X136948934Y-96801416D01*
X136945867Y-96813362D01*
X136939463Y-96832066D01*
X136931419Y-96850655D01*
X136930180Y-96858478D01*
X136930177Y-96858488D01*
X136924501Y-96894324D01*
X136922095Y-96905944D01*
X136911100Y-96948770D01*
X136911100Y-96969024D01*
X136909549Y-96988734D01*
X136906380Y-97008743D01*
X136909931Y-97046303D01*
X136910541Y-97052761D01*
X136911100Y-97064619D01*
X136911100Y-100614076D01*
X136891098Y-100682197D01*
X136878742Y-100698379D01*
X136805560Y-100779656D01*
X136786774Y-100812194D01*
X136727883Y-100914197D01*
X136710073Y-100945044D01*
X136651058Y-101126672D01*
X136650368Y-101133233D01*
X136650368Y-101133235D01*
X136637885Y-101252003D01*
X136631096Y-101316600D01*
X136631786Y-101323165D01*
X136648606Y-101483194D01*
X136651058Y-101506528D01*
X136710073Y-101688156D01*
X136713376Y-101693878D01*
X136713377Y-101693879D01*
X136733709Y-101729095D01*
X136805560Y-101853544D01*
X136878737Y-101934815D01*
X136909453Y-101998821D01*
X136911100Y-102019124D01*
X136911100Y-107960004D01*
X136891098Y-108028125D01*
X136837442Y-108074618D01*
X136811298Y-108083250D01*
X136789276Y-108087931D01*
X136789267Y-108087934D01*
X136782812Y-108089306D01*
X136776782Y-108091991D01*
X136776781Y-108091991D01*
X136614378Y-108164297D01*
X136614376Y-108164298D01*
X136608348Y-108166982D01*
X136603007Y-108170862D01*
X136603006Y-108170863D01*
X136584769Y-108184113D01*
X136453847Y-108279234D01*
X136449426Y-108284144D01*
X136449425Y-108284145D01*
X136382106Y-108358911D01*
X136326060Y-108421156D01*
X136285961Y-108490610D01*
X136243360Y-108564397D01*
X136230573Y-108586544D01*
X136171558Y-108768172D01*
X136170868Y-108774733D01*
X136170868Y-108774735D01*
X136160956Y-108869042D01*
X136151596Y-108958100D01*
X136152286Y-108964665D01*
X136166188Y-109096931D01*
X136171558Y-109148028D01*
X136230573Y-109329656D01*
X136326060Y-109495044D01*
X136399237Y-109576315D01*
X136429953Y-109640321D01*
X136431600Y-109660624D01*
X136431600Y-110140333D01*
X136431073Y-110151516D01*
X136429398Y-110159009D01*
X136429647Y-110166935D01*
X136429647Y-110166936D01*
X136431538Y-110227086D01*
X136431600Y-110231045D01*
X136431600Y-110258956D01*
X136432097Y-110262890D01*
X136432097Y-110262891D01*
X136432105Y-110262956D01*
X136433038Y-110274793D01*
X136434427Y-110318989D01*
X136439591Y-110336763D01*
X136440078Y-110338439D01*
X136444087Y-110357800D01*
X136446626Y-110377897D01*
X136449545Y-110385268D01*
X136449545Y-110385270D01*
X136462904Y-110419012D01*
X136466749Y-110430242D01*
X136473768Y-110454402D01*
X136479082Y-110472693D01*
X136483115Y-110479512D01*
X136483117Y-110479517D01*
X136489393Y-110490128D01*
X136498088Y-110507876D01*
X136505548Y-110526717D01*
X136510210Y-110533133D01*
X136510210Y-110533134D01*
X136531536Y-110562487D01*
X136538052Y-110572407D01*
X136546716Y-110587056D01*
X136560558Y-110610462D01*
X136574879Y-110624783D01*
X136587719Y-110639816D01*
X136599628Y-110656207D01*
X136631981Y-110682972D01*
X136633705Y-110684398D01*
X136642484Y-110692388D01*
X137690704Y-111740608D01*
X137724730Y-111802920D01*
X137719665Y-111873735D01*
X137694459Y-111912956D01*
X137695226Y-111913600D01*
X137691699Y-111917803D01*
X137687802Y-111921700D01*
X137556477Y-112109251D01*
X137554153Y-112114235D01*
X137554150Y-112114240D01*
X137550215Y-112122679D01*
X137503296Y-112175963D01*
X137435019Y-112195423D01*
X137367059Y-112174880D01*
X137346926Y-112158522D01*
X136891818Y-111703413D01*
X136363622Y-111175217D01*
X136329596Y-111112905D01*
X136327407Y-111099292D01*
X136323105Y-111058355D01*
X136316840Y-110998748D01*
X136310732Y-110940635D01*
X136310732Y-110940633D01*
X136310042Y-110934072D01*
X136251027Y-110752444D01*
X136236222Y-110726800D01*
X136190806Y-110648138D01*
X136155540Y-110587056D01*
X136149733Y-110580606D01*
X136032175Y-110450045D01*
X136032174Y-110450044D01*
X136027753Y-110445134D01*
X135904537Y-110355612D01*
X135878594Y-110336763D01*
X135878593Y-110336762D01*
X135873252Y-110332882D01*
X135867224Y-110330198D01*
X135867222Y-110330197D01*
X135704819Y-110257891D01*
X135704818Y-110257891D01*
X135698788Y-110255206D01*
X135604404Y-110235144D01*
X135518444Y-110216872D01*
X135518439Y-110216872D01*
X135511987Y-110215500D01*
X135321013Y-110215500D01*
X135314561Y-110216872D01*
X135314556Y-110216872D01*
X135228596Y-110235144D01*
X135134212Y-110255206D01*
X135128182Y-110257891D01*
X135128181Y-110257891D01*
X134965778Y-110330197D01*
X134965776Y-110330198D01*
X134959748Y-110332882D01*
X134954407Y-110336762D01*
X134954406Y-110336763D01*
X134928463Y-110355612D01*
X134805247Y-110445134D01*
X134800826Y-110450044D01*
X134800825Y-110450045D01*
X134683268Y-110580606D01*
X134677460Y-110587056D01*
X134642194Y-110648138D01*
X134596779Y-110726800D01*
X134581973Y-110752444D01*
X134522958Y-110934072D01*
X134522268Y-110940633D01*
X134522268Y-110940635D01*
X134506233Y-111093198D01*
X134502996Y-111124000D01*
X134503686Y-111130565D01*
X134521945Y-111304286D01*
X134522958Y-111313928D01*
X134581973Y-111495556D01*
X134585276Y-111501278D01*
X134585277Y-111501279D01*
X134597658Y-111522723D01*
X134677460Y-111660944D01*
X134681878Y-111665851D01*
X134681879Y-111665852D01*
X134708768Y-111695715D01*
X134805247Y-111802866D01*
X134959748Y-111915118D01*
X134965776Y-111917802D01*
X134965778Y-111917803D01*
X135128141Y-111990091D01*
X135134212Y-111992794D01*
X135226700Y-112012453D01*
X135314556Y-112031128D01*
X135314561Y-112031128D01*
X135321013Y-112032500D01*
X135376906Y-112032500D01*
X135445027Y-112052502D01*
X135466001Y-112069405D01*
X138374643Y-114978047D01*
X138382187Y-114986337D01*
X138386300Y-114992818D01*
X138392077Y-114998243D01*
X138435967Y-115039458D01*
X138438809Y-115042213D01*
X138458531Y-115061935D01*
X138461655Y-115064358D01*
X138461659Y-115064362D01*
X138461724Y-115064412D01*
X138470745Y-115072117D01*
X138502979Y-115102386D01*
X138500596Y-115104923D01*
X138534330Y-115148512D01*
X138540529Y-115219238D01*
X138507507Y-115282087D01*
X138456141Y-115314196D01*
X138409756Y-115329357D01*
X138379443Y-115345137D01*
X138235975Y-115419822D01*
X138211607Y-115432507D01*
X138207474Y-115435610D01*
X138207471Y-115435612D01*
X138037100Y-115563530D01*
X138032965Y-115566635D01*
X138017345Y-115582980D01*
X137921729Y-115683037D01*
X137878629Y-115728138D01*
X137771201Y-115885621D01*
X137716293Y-115930621D01*
X137645768Y-115938792D01*
X137582021Y-115907538D01*
X137561324Y-115883054D01*
X137480822Y-115758617D01*
X137480820Y-115758614D01*
X137478014Y-115754277D01*
X137327670Y-115589051D01*
X137323619Y-115585852D01*
X137323615Y-115585848D01*
X137156414Y-115453800D01*
X137156410Y-115453798D01*
X137152359Y-115450598D01*
X137147831Y-115448098D01*
X137111082Y-115427812D01*
X137091671Y-115417097D01*
X137041700Y-115366665D01*
X137026814Y-115314703D01*
X137025225Y-115289450D01*
X137022679Y-115281613D01*
X137017506Y-115258469D01*
X137017468Y-115258165D01*
X137017467Y-115258160D01*
X137016474Y-115250303D01*
X137013558Y-115242938D01*
X137013557Y-115242934D01*
X136995801Y-115198089D01*
X136993129Y-115190670D01*
X136975764Y-115137225D01*
X136971514Y-115130528D01*
X136971350Y-115130269D01*
X136960585Y-115109142D01*
X136960471Y-115108854D01*
X136960468Y-115108849D01*
X136957552Y-115101483D01*
X136952896Y-115095075D01*
X136952893Y-115095069D01*
X136924542Y-115056048D01*
X136920092Y-115049501D01*
X136915467Y-115042213D01*
X136890000Y-115002082D01*
X136883993Y-114996441D01*
X136868312Y-114978654D01*
X136868134Y-114978409D01*
X136868131Y-114978406D01*
X136863472Y-114971993D01*
X136857362Y-114966938D01*
X136820204Y-114936197D01*
X136814270Y-114930966D01*
X136779102Y-114897942D01*
X136779099Y-114897940D01*
X136773321Y-114892514D01*
X136766097Y-114888542D01*
X136746494Y-114875219D01*
X136746254Y-114875020D01*
X136746247Y-114875016D01*
X136740144Y-114869967D01*
X136700024Y-114851088D01*
X136689324Y-114846053D01*
X136682292Y-114842471D01*
X136633060Y-114815405D01*
X136625385Y-114813435D01*
X136625379Y-114813432D01*
X136625081Y-114813356D01*
X136602772Y-114805324D01*
X136602497Y-114805194D01*
X136602489Y-114805191D01*
X136595318Y-114801817D01*
X136540151Y-114791294D01*
X136532442Y-114789571D01*
X136498449Y-114780843D01*
X136485707Y-114777571D01*
X136485706Y-114777571D01*
X136478030Y-114775600D01*
X136469793Y-114775600D01*
X136446196Y-114773371D01*
X136440875Y-114772356D01*
X136375386Y-114737682D01*
X133588705Y-111951000D01*
X133554679Y-111888688D01*
X133551800Y-111861905D01*
X133551800Y-111677794D01*
X133571802Y-111609673D01*
X133588705Y-111588699D01*
X133637247Y-111540157D01*
X133645537Y-111532613D01*
X133652018Y-111528500D01*
X133698659Y-111478832D01*
X133701413Y-111475991D01*
X133721135Y-111456269D01*
X133723612Y-111453076D01*
X133731317Y-111444055D01*
X133761586Y-111411821D01*
X133765407Y-111404871D01*
X133771346Y-111394068D01*
X133782202Y-111377541D01*
X133789757Y-111367802D01*
X133789758Y-111367800D01*
X133794614Y-111361540D01*
X133812174Y-111320960D01*
X133817391Y-111310312D01*
X133834875Y-111278509D01*
X133834876Y-111278507D01*
X133838695Y-111271560D01*
X133843733Y-111251937D01*
X133850137Y-111233234D01*
X133855033Y-111221920D01*
X133855033Y-111221919D01*
X133858181Y-111214645D01*
X133859420Y-111206822D01*
X133859423Y-111206812D01*
X133865099Y-111170976D01*
X133867505Y-111159356D01*
X133876528Y-111124211D01*
X133876528Y-111124210D01*
X133878500Y-111116530D01*
X133878500Y-111096276D01*
X133880051Y-111076565D01*
X133881980Y-111064386D01*
X133883220Y-111056557D01*
X133879059Y-111012538D01*
X133878500Y-111000681D01*
X133878500Y-108260168D01*
X133879027Y-108248985D01*
X133880702Y-108241492D01*
X133879840Y-108214049D01*
X133878562Y-108173402D01*
X133878500Y-108169444D01*
X133878500Y-108141544D01*
X133877996Y-108137553D01*
X133877063Y-108125711D01*
X133876698Y-108114077D01*
X133875674Y-108081511D01*
X133873182Y-108072933D01*
X133870021Y-108062052D01*
X133866012Y-108042693D01*
X133865212Y-108036362D01*
X133863474Y-108022603D01*
X133860558Y-108015237D01*
X133860556Y-108015231D01*
X133847200Y-107981498D01*
X133843355Y-107970268D01*
X133833230Y-107935417D01*
X133833230Y-107935416D01*
X133831019Y-107927807D01*
X133820705Y-107910366D01*
X133812008Y-107892613D01*
X133807472Y-107881158D01*
X133804552Y-107873783D01*
X133778563Y-107838012D01*
X133772047Y-107828092D01*
X133749542Y-107790038D01*
X133735221Y-107775717D01*
X133722380Y-107760683D01*
X133721606Y-107759618D01*
X133710472Y-107744293D01*
X133676395Y-107716102D01*
X133667616Y-107708112D01*
X132101257Y-106141753D01*
X132067231Y-106079441D01*
X132072296Y-106008626D01*
X132087139Y-105980387D01*
X132211523Y-105802749D01*
X132213846Y-105797767D01*
X132213849Y-105797762D01*
X132305961Y-105600225D01*
X132305961Y-105600224D01*
X132308284Y-105595243D01*
X132357940Y-105409928D01*
X132366119Y-105379402D01*
X132366119Y-105379400D01*
X132367543Y-105374087D01*
X132387498Y-105146000D01*
X132367543Y-104917913D01*
X132364378Y-104906100D01*
X132309707Y-104702067D01*
X132309706Y-104702065D01*
X132308284Y-104696757D01*
X132305961Y-104691775D01*
X132213849Y-104494238D01*
X132213846Y-104494233D01*
X132211523Y-104489251D01*
X132117645Y-104355179D01*
X132083357Y-104306211D01*
X132083355Y-104306208D01*
X132080198Y-104301700D01*
X131918300Y-104139802D01*
X131913792Y-104136645D01*
X131913789Y-104136643D01*
X131806045Y-104061200D01*
X131756711Y-104026656D01*
X131712384Y-103971200D01*
X131703232Y-103931354D01*
X131701723Y-103907364D01*
X131701723Y-103907363D01*
X131701225Y-103899450D01*
X131698679Y-103891613D01*
X131693506Y-103868469D01*
X131692474Y-103860300D01*
X131694031Y-103860103D01*
X131696151Y-103798199D01*
X131736556Y-103739821D01*
X131743478Y-103734610D01*
X131908503Y-103619058D01*
X131913789Y-103615357D01*
X131913792Y-103615355D01*
X131918300Y-103612198D01*
X132080198Y-103450300D01*
X132092086Y-103433323D01*
X132154840Y-103343701D01*
X132211523Y-103262749D01*
X132213846Y-103257767D01*
X132213849Y-103257762D01*
X132305961Y-103060225D01*
X132305961Y-103060224D01*
X132308284Y-103055243D01*
X132324475Y-102994820D01*
X132366119Y-102839402D01*
X132366119Y-102839400D01*
X132367543Y-102834087D01*
X132387498Y-102606000D01*
X132367543Y-102377913D01*
X132363832Y-102364064D01*
X132309707Y-102162067D01*
X132309706Y-102162065D01*
X132308284Y-102156757D01*
X132305961Y-102151775D01*
X132213849Y-101954238D01*
X132213846Y-101954233D01*
X132211523Y-101949251D01*
X132115629Y-101812300D01*
X132083352Y-101766204D01*
X132083350Y-101766202D01*
X132080198Y-101761700D01*
X132080371Y-101761579D01*
X132052884Y-101698782D01*
X132064097Y-101628677D01*
X132088774Y-101593730D01*
X133053047Y-100629457D01*
X133061337Y-100621913D01*
X133067818Y-100617800D01*
X133091062Y-100593048D01*
X133114458Y-100568133D01*
X133117213Y-100565291D01*
X133136934Y-100545570D01*
X133139412Y-100542375D01*
X133147118Y-100533353D01*
X133171958Y-100506901D01*
X133177386Y-100501121D01*
X133187146Y-100483368D01*
X133197999Y-100466845D01*
X133205553Y-100457106D01*
X133210413Y-100450841D01*
X133227976Y-100410257D01*
X133233183Y-100399627D01*
X133254495Y-100360860D01*
X133256466Y-100353183D01*
X133256468Y-100353178D01*
X133259532Y-100341242D01*
X133265938Y-100322530D01*
X133266101Y-100322155D01*
X133273981Y-100303945D01*
X133275221Y-100296117D01*
X133275223Y-100296110D01*
X133280899Y-100260276D01*
X133283305Y-100248656D01*
X133292328Y-100213511D01*
X133292328Y-100213510D01*
X133294300Y-100205830D01*
X133294300Y-100185576D01*
X133295851Y-100165865D01*
X133297780Y-100153686D01*
X133299020Y-100145857D01*
X133294859Y-100101838D01*
X133294300Y-100089981D01*
X133294300Y-96490212D01*
X133314302Y-96422091D01*
X133367958Y-96375598D01*
X133438232Y-96365494D01*
X133502812Y-96394988D01*
X133540133Y-96451276D01*
X133596273Y-96624056D01*
X133599576Y-96629778D01*
X133599577Y-96629779D01*
X133629554Y-96681700D01*
X133691760Y-96789444D01*
X133696178Y-96794351D01*
X133696179Y-96794352D01*
X133777817Y-96885020D01*
X133819547Y-96931366D01*
X133974048Y-97043618D01*
X133980076Y-97046302D01*
X133980078Y-97046303D01*
X134060406Y-97082067D01*
X134148512Y-97121294D01*
X134241912Y-97141147D01*
X134328856Y-97159628D01*
X134328861Y-97159628D01*
X134335313Y-97161000D01*
X134526287Y-97161000D01*
X134532739Y-97159628D01*
X134532744Y-97159628D01*
X134619688Y-97141147D01*
X134713088Y-97121294D01*
X134801194Y-97082067D01*
X134881522Y-97046303D01*
X134881524Y-97046302D01*
X134887552Y-97043618D01*
X135042053Y-96931366D01*
X135083783Y-96885020D01*
X135165421Y-96794352D01*
X135165422Y-96794351D01*
X135169840Y-96789444D01*
X135232046Y-96681700D01*
X135262023Y-96629779D01*
X135262024Y-96629778D01*
X135265327Y-96624056D01*
X135324342Y-96442428D01*
X135326480Y-96422091D01*
X135343614Y-96259065D01*
X135344304Y-96252500D01*
X135341683Y-96227562D01*
X135325032Y-96069135D01*
X135325032Y-96069133D01*
X135324342Y-96062572D01*
X135265327Y-95880944D01*
X135169840Y-95715556D01*
X135096663Y-95634285D01*
X135065947Y-95570279D01*
X135064300Y-95549976D01*
X135064300Y-94481594D01*
X135084302Y-94413473D01*
X135101205Y-94392499D01*
X137517630Y-91976074D01*
X137579942Y-91942048D01*
X137650757Y-91947113D01*
X137707593Y-91989660D01*
X137720920Y-92011919D01*
X137758151Y-92091762D01*
X137758154Y-92091767D01*
X137760477Y-92096749D01*
X137891802Y-92284300D01*
X138053700Y-92446198D01*
X138058208Y-92449355D01*
X138058211Y-92449357D01*
X138071873Y-92458923D01*
X138241251Y-92577523D01*
X138246233Y-92579846D01*
X138246238Y-92579849D01*
X138437612Y-92669087D01*
X138448757Y-92674284D01*
X138454065Y-92675706D01*
X138454067Y-92675707D01*
X138664598Y-92732119D01*
X138664600Y-92732119D01*
X138669913Y-92733543D01*
X138898000Y-92753498D01*
X139126087Y-92733543D01*
X139131400Y-92732119D01*
X139131402Y-92732119D01*
X139341933Y-92675707D01*
X139341935Y-92675706D01*
X139347243Y-92674284D01*
X139358388Y-92669087D01*
X139549762Y-92579849D01*
X139549767Y-92579846D01*
X139554749Y-92577523D01*
X139724127Y-92458923D01*
X139737789Y-92449357D01*
X139737792Y-92449355D01*
X139742300Y-92446198D01*
X139904198Y-92284300D01*
X140035523Y-92096749D01*
X140037846Y-92091767D01*
X140037849Y-92091762D01*
X140129961Y-91894225D01*
X140129961Y-91894224D01*
X140132284Y-91889243D01*
X140133840Y-91883438D01*
X140190119Y-91673402D01*
X140190119Y-91673400D01*
X140191543Y-91668087D01*
X140211498Y-91440000D01*
X140191543Y-91211913D01*
X140184460Y-91185479D01*
X140133707Y-90996067D01*
X140133706Y-90996065D01*
X140132284Y-90990757D01*
X140104219Y-90930570D01*
X140037849Y-90788238D01*
X140037846Y-90788233D01*
X140035523Y-90783251D01*
X139920003Y-90618272D01*
X139907357Y-90600211D01*
X139907355Y-90600208D01*
X139904198Y-90595700D01*
X139742300Y-90433802D01*
X139737792Y-90430645D01*
X139737789Y-90430643D01*
X139628243Y-90353938D01*
X139554749Y-90302477D01*
X139549767Y-90300154D01*
X139549762Y-90300151D01*
X139469919Y-90262920D01*
X139416634Y-90216003D01*
X139397173Y-90147725D01*
X139417715Y-90079765D01*
X139434074Y-90059630D01*
X140346247Y-89147457D01*
X140354537Y-89139913D01*
X140361018Y-89135800D01*
X140407659Y-89086132D01*
X140410413Y-89083291D01*
X140430134Y-89063570D01*
X140432612Y-89060375D01*
X140440318Y-89051353D01*
X140465158Y-89024901D01*
X140470586Y-89019121D01*
X140480346Y-89001368D01*
X140491199Y-88984845D01*
X140498753Y-88975106D01*
X140503613Y-88968841D01*
X140521176Y-88928257D01*
X140526383Y-88917627D01*
X140547695Y-88878860D01*
X140549666Y-88871183D01*
X140549668Y-88871178D01*
X140552732Y-88859242D01*
X140559138Y-88840530D01*
X140564034Y-88829217D01*
X140567181Y-88821945D01*
X140571114Y-88797117D01*
X140574097Y-88778281D01*
X140576504Y-88766660D01*
X140585528Y-88731511D01*
X140585528Y-88731510D01*
X140587500Y-88723830D01*
X140587500Y-88703569D01*
X140589051Y-88683858D01*
X140590534Y-88674498D01*
X140592219Y-88663857D01*
X140588059Y-88619846D01*
X140587500Y-88607989D01*
X140587500Y-81345206D01*
X140607502Y-81277085D01*
X140634547Y-81247010D01*
X140675800Y-81213842D01*
X140675805Y-81213837D01*
X140680601Y-81209981D01*
X140810881Y-81054719D01*
X140813845Y-81049327D01*
X140813848Y-81049323D01*
X140905556Y-80882506D01*
X140908523Y-80877109D01*
X140969807Y-80683916D01*
X140971401Y-80669713D01*
X140982621Y-80569675D01*
X140987500Y-80526183D01*
X140987500Y-79966996D01*
X140972723Y-79816287D01*
X140914142Y-79622258D01*
X140818990Y-79443302D01*
X140786350Y-79403281D01*
X140694785Y-79291013D01*
X140690890Y-79286237D01*
X140635971Y-79240804D01*
X140539472Y-79160973D01*
X140539469Y-79160971D01*
X140534722Y-79157044D01*
X140356435Y-79060644D01*
X140259266Y-79030565D01*
X140168707Y-79002532D01*
X140168704Y-79002531D01*
X140162820Y-79000710D01*
X140156695Y-79000066D01*
X140156694Y-79000066D01*
X139967378Y-78980168D01*
X139967377Y-78980168D01*
X139961250Y-78979524D01*
X139882709Y-78986672D01*
X139765543Y-78997335D01*
X139765540Y-78997336D01*
X139759404Y-78997894D01*
X139753498Y-78999632D01*
X139753494Y-78999633D01*
X139689965Y-79018331D01*
X139564971Y-79055119D01*
X139559511Y-79057973D01*
X139559507Y-79057975D01*
X139501874Y-79088104D01*
X139432238Y-79101938D01*
X139366178Y-79075927D01*
X139324667Y-79018331D01*
X139317500Y-78976442D01*
X139317500Y-76531077D01*
X139337502Y-76462956D01*
X139390250Y-76416882D01*
X139589762Y-76323849D01*
X139589767Y-76323846D01*
X139594749Y-76321523D01*
X139738756Y-76220688D01*
X139777789Y-76193357D01*
X139777792Y-76193355D01*
X139782300Y-76190198D01*
X139944198Y-76028300D01*
X139956845Y-76010239D01*
X140072366Y-75845257D01*
X140075523Y-75840749D01*
X140077846Y-75835767D01*
X140077849Y-75835762D01*
X140169961Y-75638225D01*
X140169961Y-75638224D01*
X140172284Y-75633243D01*
X140178593Y-75609700D01*
X140230119Y-75417402D01*
X140230119Y-75417400D01*
X140231543Y-75412087D01*
X140251498Y-75184000D01*
X140231543Y-74955913D01*
X140228810Y-74945713D01*
X140173707Y-74740067D01*
X140173706Y-74740065D01*
X140172284Y-74734757D01*
X140129285Y-74642544D01*
X140077849Y-74532238D01*
X140077846Y-74532233D01*
X140075523Y-74527251D01*
X140002098Y-74422389D01*
X139947357Y-74344211D01*
X139947355Y-74344208D01*
X139944198Y-74339700D01*
X139782300Y-74177802D01*
X139777792Y-74174645D01*
X139777789Y-74174643D01*
X139682723Y-74108077D01*
X139594749Y-74046477D01*
X139589767Y-74044154D01*
X139589762Y-74044151D01*
X139392225Y-73952039D01*
X139392224Y-73952039D01*
X139387243Y-73949716D01*
X139381935Y-73948294D01*
X139381933Y-73948293D01*
X139171402Y-73891881D01*
X139171400Y-73891881D01*
X139166087Y-73890457D01*
X138938000Y-73870502D01*
X138709913Y-73890457D01*
X138704600Y-73891881D01*
X138704598Y-73891881D01*
X138494067Y-73948293D01*
X138494065Y-73948294D01*
X138488757Y-73949716D01*
X138483776Y-73952039D01*
X138483775Y-73952039D01*
X138286238Y-74044151D01*
X138286233Y-74044154D01*
X138281251Y-74046477D01*
X138193277Y-74108077D01*
X138098211Y-74174643D01*
X138098208Y-74174645D01*
X138093700Y-74177802D01*
X137931802Y-74339700D01*
X137928645Y-74344208D01*
X137928643Y-74344211D01*
X137873902Y-74422389D01*
X137800477Y-74527251D01*
X137798154Y-74532233D01*
X137798151Y-74532238D01*
X137746715Y-74642544D01*
X137703716Y-74734757D01*
X137702294Y-74740065D01*
X137702293Y-74740067D01*
X137647190Y-74945713D01*
X137644457Y-74955913D01*
X137624502Y-75184000D01*
X137644457Y-75412087D01*
X137645881Y-75417400D01*
X137645881Y-75417402D01*
X137697408Y-75609700D01*
X137703716Y-75633243D01*
X137706039Y-75638224D01*
X137706039Y-75638225D01*
X137798151Y-75835762D01*
X137798154Y-75835767D01*
X137800477Y-75840749D01*
X137803634Y-75845257D01*
X137919156Y-76010239D01*
X137931802Y-76028300D01*
X138013595Y-76110093D01*
X138047621Y-76172405D01*
X138050500Y-76199188D01*
X138050500Y-78859000D01*
X138030498Y-78927121D01*
X137976842Y-78973614D01*
X137924500Y-78985000D01*
X137686115Y-78985000D01*
X137670876Y-78989475D01*
X137669671Y-78990865D01*
X137668000Y-78998548D01*
X137668000Y-79796758D01*
X137667215Y-79810803D01*
X137650500Y-79959817D01*
X137650500Y-80519004D01*
X137665277Y-80669713D01*
X137665968Y-80672002D01*
X137668000Y-80692724D01*
X137668000Y-81482884D01*
X137672475Y-81498123D01*
X137673865Y-81499328D01*
X137681548Y-81500999D01*
X137983669Y-81500999D01*
X137990490Y-81500629D01*
X138041352Y-81495105D01*
X138056604Y-81491479D01*
X138177056Y-81446323D01*
X138192466Y-81437886D01*
X138261823Y-81422716D01*
X138290235Y-81428040D01*
X138475180Y-81485290D01*
X138481305Y-81485934D01*
X138481306Y-81485934D01*
X138670622Y-81505832D01*
X138670623Y-81505832D01*
X138676750Y-81506476D01*
X138786090Y-81496525D01*
X138872457Y-81488665D01*
X138872460Y-81488664D01*
X138878596Y-81488106D01*
X138884502Y-81486368D01*
X138884506Y-81486367D01*
X139063658Y-81433639D01*
X139073029Y-81430881D01*
X139078489Y-81428027D01*
X139078493Y-81428025D01*
X139136126Y-81397896D01*
X139205762Y-81384062D01*
X139271822Y-81410073D01*
X139313333Y-81467669D01*
X139320500Y-81509558D01*
X139320500Y-88329205D01*
X139300498Y-88397326D01*
X139283595Y-88418300D01*
X134038547Y-93663348D01*
X134030261Y-93670888D01*
X134023782Y-93675000D01*
X134018357Y-93680777D01*
X133977157Y-93724651D01*
X133974402Y-93727493D01*
X133954665Y-93747230D01*
X133952185Y-93750427D01*
X133944482Y-93759447D01*
X133914214Y-93791679D01*
X133910395Y-93798625D01*
X133910393Y-93798628D01*
X133904452Y-93809434D01*
X133893601Y-93825953D01*
X133881186Y-93841959D01*
X133878041Y-93849228D01*
X133878038Y-93849232D01*
X133863626Y-93882537D01*
X133858409Y-93893187D01*
X133837105Y-93931940D01*
X133835134Y-93939615D01*
X133835134Y-93939616D01*
X133832067Y-93951562D01*
X133825663Y-93970266D01*
X133821537Y-93979802D01*
X133817619Y-93988855D01*
X133816380Y-93996678D01*
X133816377Y-93996688D01*
X133810701Y-94032524D01*
X133808295Y-94044144D01*
X133797300Y-94086970D01*
X133797300Y-94107224D01*
X133795749Y-94126934D01*
X133792580Y-94146943D01*
X133796736Y-94190903D01*
X133796741Y-94190961D01*
X133797300Y-94202819D01*
X133797300Y-95549976D01*
X133777298Y-95618097D01*
X133764942Y-95634279D01*
X133691760Y-95715556D01*
X133596273Y-95880944D01*
X133540133Y-96053724D01*
X133500059Y-96112330D01*
X133434663Y-96139967D01*
X133364706Y-96127860D01*
X133312400Y-96079854D01*
X133294300Y-96014788D01*
X133294300Y-92796587D01*
X133314302Y-92728466D01*
X133367958Y-92681973D01*
X133438232Y-92671869D01*
X133452911Y-92674880D01*
X133664688Y-92731625D01*
X133675481Y-92733528D01*
X133892525Y-92752517D01*
X133903475Y-92752517D01*
X134120519Y-92733528D01*
X134131312Y-92731625D01*
X134341761Y-92675236D01*
X134352053Y-92671490D01*
X134549511Y-92579414D01*
X134559006Y-92573931D01*
X134611048Y-92537491D01*
X134619424Y-92527012D01*
X134612356Y-92513566D01*
X133627885Y-91529095D01*
X133593859Y-91466783D01*
X133595694Y-91441132D01*
X134262408Y-91441132D01*
X134262539Y-91442965D01*
X134266790Y-91449580D01*
X134972287Y-92155077D01*
X134984062Y-92161507D01*
X134996077Y-92152211D01*
X135031931Y-92101006D01*
X135037414Y-92091511D01*
X135129490Y-91894053D01*
X135133236Y-91883761D01*
X135189625Y-91673312D01*
X135191528Y-91662519D01*
X135210517Y-91445475D01*
X135210517Y-91434525D01*
X135191528Y-91217481D01*
X135189625Y-91206688D01*
X135133236Y-90996239D01*
X135129490Y-90985947D01*
X135037414Y-90788489D01*
X135031931Y-90778994D01*
X134995491Y-90726952D01*
X134985012Y-90718576D01*
X134971566Y-90725644D01*
X134270022Y-91427188D01*
X134262408Y-91441132D01*
X133595694Y-91441132D01*
X133598924Y-91395968D01*
X133627885Y-91350905D01*
X134613077Y-90365713D01*
X134619507Y-90353938D01*
X134610211Y-90341923D01*
X134559006Y-90306069D01*
X134549511Y-90300586D01*
X134352053Y-90208510D01*
X134341761Y-90204764D01*
X134131312Y-90148375D01*
X134120519Y-90146472D01*
X133903475Y-90127483D01*
X133892525Y-90127483D01*
X133675481Y-90146472D01*
X133664688Y-90148375D01*
X133452911Y-90205120D01*
X133381935Y-90203430D01*
X133323139Y-90163636D01*
X133295191Y-90098372D01*
X133294300Y-90083413D01*
X133294300Y-87092767D01*
X133294827Y-87081584D01*
X133296502Y-87074091D01*
X133294362Y-87006000D01*
X133294300Y-87002043D01*
X133294300Y-86974144D01*
X133293796Y-86970153D01*
X133292863Y-86958311D01*
X133291723Y-86922036D01*
X133291474Y-86914111D01*
X133289262Y-86906497D01*
X133289261Y-86906492D01*
X133285823Y-86894659D01*
X133281812Y-86875295D01*
X133280267Y-86863064D01*
X133279274Y-86855203D01*
X133276357Y-86847836D01*
X133276356Y-86847831D01*
X133262998Y-86814092D01*
X133259154Y-86802865D01*
X133249030Y-86768020D01*
X133249030Y-86768019D01*
X133246818Y-86760407D01*
X133236507Y-86742972D01*
X133227812Y-86725224D01*
X133220352Y-86706383D01*
X133194364Y-86670613D01*
X133187848Y-86660693D01*
X133169380Y-86629465D01*
X133169378Y-86629462D01*
X133165342Y-86622638D01*
X133151021Y-86608317D01*
X133138180Y-86593283D01*
X133130931Y-86583306D01*
X133126272Y-86576893D01*
X133092195Y-86548702D01*
X133083416Y-86540712D01*
X127580373Y-81037669D01*
X136381001Y-81037669D01*
X136381371Y-81044490D01*
X136386895Y-81095352D01*
X136390521Y-81110604D01*
X136435676Y-81231054D01*
X136444214Y-81246649D01*
X136520715Y-81348724D01*
X136533276Y-81361285D01*
X136635351Y-81437786D01*
X136650946Y-81446324D01*
X136771394Y-81491478D01*
X136786649Y-81495105D01*
X136837514Y-81500631D01*
X136844328Y-81501000D01*
X137141885Y-81501000D01*
X137157124Y-81496525D01*
X137158329Y-81495135D01*
X137160000Y-81487452D01*
X137160000Y-80515115D01*
X137155525Y-80499876D01*
X137154135Y-80498671D01*
X137146452Y-80497000D01*
X136399116Y-80497000D01*
X136383877Y-80501475D01*
X136382672Y-80502865D01*
X136381001Y-80510548D01*
X136381001Y-81037669D01*
X127580373Y-81037669D01*
X127268164Y-80725460D01*
X127234138Y-80663148D01*
X127239203Y-80592333D01*
X127254044Y-80564098D01*
X127370523Y-80397749D01*
X127372846Y-80392767D01*
X127372849Y-80392762D01*
X127464961Y-80195225D01*
X127464961Y-80195224D01*
X127467284Y-80190243D01*
X127474188Y-80164479D01*
X127525119Y-79974402D01*
X127525119Y-79974400D01*
X127526061Y-79970885D01*
X136381000Y-79970885D01*
X136385475Y-79986124D01*
X136386865Y-79987329D01*
X136394548Y-79989000D01*
X137141885Y-79989000D01*
X137157124Y-79984525D01*
X137158329Y-79983135D01*
X137160000Y-79975452D01*
X137160000Y-79003116D01*
X137155525Y-78987877D01*
X137154135Y-78986672D01*
X137146452Y-78985001D01*
X136844331Y-78985001D01*
X136837510Y-78985371D01*
X136786648Y-78990895D01*
X136771396Y-78994521D01*
X136650946Y-79039676D01*
X136635351Y-79048214D01*
X136533276Y-79124715D01*
X136520715Y-79137276D01*
X136444214Y-79239351D01*
X136435676Y-79254946D01*
X136390522Y-79375394D01*
X136386895Y-79390649D01*
X136381369Y-79441514D01*
X136381000Y-79448328D01*
X136381000Y-79970885D01*
X127526061Y-79970885D01*
X127526543Y-79969087D01*
X127546498Y-79741000D01*
X127526543Y-79512913D01*
X127512348Y-79459938D01*
X127468707Y-79297067D01*
X127468706Y-79297065D01*
X127467284Y-79291757D01*
X127450119Y-79254946D01*
X127372849Y-79089238D01*
X127372846Y-79089233D01*
X127370523Y-79084251D01*
X127257411Y-78922711D01*
X127242357Y-78901211D01*
X127242355Y-78901208D01*
X127239198Y-78896700D01*
X127077300Y-78734802D01*
X127072792Y-78731645D01*
X127072789Y-78731643D01*
X126971917Y-78661012D01*
X126889749Y-78603477D01*
X126884767Y-78601154D01*
X126884762Y-78601151D01*
X126687225Y-78509039D01*
X126687224Y-78509039D01*
X126682243Y-78506716D01*
X126676935Y-78505294D01*
X126676933Y-78505293D01*
X126466402Y-78448881D01*
X126466400Y-78448881D01*
X126461087Y-78447457D01*
X126233000Y-78427502D01*
X126004913Y-78447457D01*
X125999600Y-78448881D01*
X125999598Y-78448881D01*
X125789067Y-78505293D01*
X125789065Y-78505294D01*
X125783757Y-78506716D01*
X125778776Y-78509039D01*
X125778775Y-78509039D01*
X125581238Y-78601151D01*
X125581233Y-78601154D01*
X125576251Y-78603477D01*
X125494083Y-78661012D01*
X125393211Y-78731643D01*
X125393208Y-78731645D01*
X125388700Y-78734802D01*
X125226802Y-78896700D01*
X125223645Y-78901208D01*
X125223643Y-78901211D01*
X125208589Y-78922711D01*
X125095477Y-79084251D01*
X125093154Y-79089233D01*
X125093151Y-79089238D01*
X125015881Y-79254946D01*
X124998716Y-79291757D01*
X124997294Y-79297065D01*
X124997293Y-79297067D01*
X124953652Y-79459938D01*
X124939457Y-79512913D01*
X124919502Y-79741000D01*
X124939457Y-79969087D01*
X124940881Y-79974400D01*
X124940881Y-79974402D01*
X124991813Y-80164479D01*
X124998716Y-80190243D01*
X125001039Y-80195224D01*
X125001039Y-80195225D01*
X125093151Y-80392762D01*
X125093154Y-80392767D01*
X125095477Y-80397749D01*
X125166144Y-80498671D01*
X125209295Y-80560297D01*
X125226802Y-80585300D01*
X125388700Y-80747198D01*
X125393208Y-80750355D01*
X125393211Y-80750357D01*
X125429415Y-80775707D01*
X125550289Y-80860344D01*
X125594616Y-80915800D01*
X125603768Y-80955645D01*
X125605775Y-80987550D01*
X125608225Y-80995091D01*
X125608321Y-80995387D01*
X125613494Y-81018531D01*
X125614526Y-81026700D01*
X125612969Y-81026897D01*
X125610849Y-81088801D01*
X125570444Y-81147179D01*
X125563522Y-81152390D01*
X125475760Y-81213842D01*
X125393211Y-81271643D01*
X125393208Y-81271645D01*
X125388700Y-81274802D01*
X125226802Y-81436700D01*
X125223645Y-81441208D01*
X125223643Y-81441211D01*
X125178395Y-81505832D01*
X125095477Y-81624251D01*
X125093154Y-81629233D01*
X125093151Y-81629238D01*
X125001079Y-81826689D01*
X124998716Y-81831757D01*
X124997294Y-81837065D01*
X124997293Y-81837067D01*
X124953652Y-81999938D01*
X124939457Y-82052913D01*
X124919502Y-82281000D01*
X124939457Y-82509087D01*
X124940881Y-82514400D01*
X124940881Y-82514402D01*
X124991792Y-82704401D01*
X124998716Y-82730243D01*
X125001039Y-82735224D01*
X125001039Y-82735225D01*
X125093151Y-82932762D01*
X125093154Y-82932767D01*
X125095477Y-82937749D01*
X125098634Y-82942257D01*
X125209295Y-83100297D01*
X125226802Y-83125300D01*
X125388700Y-83287198D01*
X125393208Y-83290355D01*
X125393211Y-83290357D01*
X125429415Y-83315707D01*
X125550289Y-83400344D01*
X125594616Y-83455800D01*
X125603768Y-83495645D01*
X125605775Y-83527550D01*
X125608225Y-83535091D01*
X125608321Y-83535387D01*
X125613494Y-83558531D01*
X125614526Y-83566700D01*
X125612969Y-83566897D01*
X125610849Y-83628801D01*
X125570444Y-83687179D01*
X125563522Y-83692390D01*
X125475783Y-83753826D01*
X125393211Y-83811643D01*
X125393208Y-83811645D01*
X125388700Y-83814802D01*
X125226802Y-83976700D01*
X125223645Y-83981208D01*
X125223643Y-83981211D01*
X125189061Y-84030599D01*
X125095477Y-84164251D01*
X125093154Y-84169233D01*
X125093151Y-84169238D01*
X125013262Y-84340563D01*
X124998716Y-84371757D01*
X124997294Y-84377065D01*
X124997293Y-84377067D01*
X124941323Y-84585948D01*
X124939457Y-84592913D01*
X124919502Y-84821000D01*
X124939457Y-85049087D01*
X124940881Y-85054400D01*
X124940881Y-85054402D01*
X124991792Y-85244401D01*
X124998716Y-85270243D01*
X125001039Y-85275224D01*
X125001039Y-85275225D01*
X125093151Y-85472762D01*
X125093154Y-85472767D01*
X125095477Y-85477749D01*
X125098634Y-85482257D01*
X125209295Y-85640297D01*
X125226802Y-85665300D01*
X125388700Y-85827198D01*
X125393208Y-85830355D01*
X125393211Y-85830357D01*
X125429415Y-85855707D01*
X125550289Y-85940344D01*
X125594616Y-85995800D01*
X125603768Y-86035645D01*
X125605775Y-86067550D01*
X125608225Y-86075091D01*
X125608321Y-86075387D01*
X125613494Y-86098531D01*
X125614526Y-86106700D01*
X125612969Y-86106897D01*
X125610849Y-86168801D01*
X125570444Y-86227179D01*
X125563522Y-86232390D01*
X125473085Y-86295715D01*
X125393211Y-86351643D01*
X125393208Y-86351645D01*
X125388700Y-86354802D01*
X125226802Y-86516700D01*
X125223645Y-86521208D01*
X125223643Y-86521211D01*
X125207040Y-86544923D01*
X125095477Y-86704251D01*
X125093153Y-86709236D01*
X125093149Y-86709242D01*
X125022688Y-86860348D01*
X124975771Y-86913634D01*
X124907494Y-86933095D01*
X124839534Y-86912553D01*
X124819398Y-86896194D01*
X124014928Y-86091723D01*
X123102222Y-85179017D01*
X123068196Y-85116705D01*
X123066007Y-85103092D01*
X123064894Y-85092497D01*
X123048642Y-84937872D01*
X122989627Y-84756244D01*
X122894140Y-84590856D01*
X122851267Y-84543240D01*
X122770775Y-84453845D01*
X122770774Y-84453844D01*
X122766353Y-84448934D01*
X122629818Y-84349735D01*
X122617194Y-84340563D01*
X122617193Y-84340562D01*
X122611852Y-84336682D01*
X122605824Y-84333998D01*
X122605822Y-84333997D01*
X122443419Y-84261691D01*
X122443418Y-84261691D01*
X122437388Y-84259006D01*
X122316400Y-84233289D01*
X122257044Y-84220672D01*
X122257039Y-84220672D01*
X122250587Y-84219300D01*
X122059613Y-84219300D01*
X122053161Y-84220672D01*
X122053156Y-84220672D01*
X121993800Y-84233289D01*
X121872812Y-84259006D01*
X121866780Y-84261692D01*
X121860500Y-84263732D01*
X121859916Y-84261936D01*
X121798582Y-84270158D01*
X121734286Y-84240049D01*
X121708585Y-84208617D01*
X121698754Y-84191588D01*
X121653240Y-84112756D01*
X121535087Y-83981533D01*
X121529875Y-83975745D01*
X121529874Y-83975744D01*
X121525453Y-83970834D01*
X121370952Y-83858582D01*
X121364924Y-83855898D01*
X121364922Y-83855897D01*
X121202519Y-83783591D01*
X121202518Y-83783591D01*
X121196488Y-83780906D01*
X121094502Y-83759228D01*
X121016144Y-83742572D01*
X121016139Y-83742572D01*
X121009687Y-83741200D01*
X120818713Y-83741200D01*
X120812261Y-83742572D01*
X120812256Y-83742572D01*
X120733897Y-83759228D01*
X120663106Y-83753826D01*
X120606473Y-83711009D01*
X120581980Y-83644371D01*
X120581700Y-83635981D01*
X120581700Y-79057168D01*
X120582227Y-79045985D01*
X120583902Y-79038492D01*
X120582609Y-78997335D01*
X120581762Y-78970402D01*
X120581700Y-78966444D01*
X120581700Y-78938544D01*
X120581196Y-78934553D01*
X120580263Y-78922711D01*
X120579967Y-78913274D01*
X120578874Y-78878511D01*
X120576661Y-78870893D01*
X120573221Y-78859052D01*
X120569212Y-78839693D01*
X120568208Y-78831747D01*
X120566674Y-78819603D01*
X120563758Y-78812237D01*
X120563756Y-78812231D01*
X120550400Y-78778498D01*
X120546555Y-78767268D01*
X120536430Y-78732417D01*
X120536430Y-78732416D01*
X120534219Y-78724807D01*
X120523905Y-78707366D01*
X120515208Y-78689613D01*
X120510672Y-78678158D01*
X120507752Y-78670783D01*
X120481763Y-78635012D01*
X120475247Y-78625092D01*
X120461088Y-78601151D01*
X120452742Y-78587038D01*
X120438421Y-78572717D01*
X120425580Y-78557683D01*
X120418331Y-78547706D01*
X120413672Y-78541293D01*
X120379595Y-78513102D01*
X120370816Y-78505112D01*
X113973290Y-72107585D01*
X119206698Y-72107585D01*
X119211504Y-72204114D01*
X119220390Y-72382612D01*
X119222936Y-72433759D01*
X119223577Y-72437490D01*
X119223578Y-72437498D01*
X119276332Y-72744507D01*
X119278241Y-72755619D01*
X119279329Y-72759258D01*
X119279330Y-72759261D01*
X119348367Y-72990102D01*
X119371814Y-73068504D01*
X119373327Y-73071975D01*
X119373329Y-73071981D01*
X119460764Y-73272588D01*
X119502297Y-73367881D01*
X119504220Y-73371152D01*
X119504222Y-73371156D01*
X119546584Y-73443215D01*
X119667802Y-73649414D01*
X119670103Y-73652429D01*
X119863631Y-73906012D01*
X119863636Y-73906017D01*
X119865931Y-73909025D01*
X119927931Y-73972670D01*
X120063931Y-74112277D01*
X120093814Y-74142953D01*
X120166635Y-74201607D01*
X120345196Y-74345431D01*
X120345201Y-74345435D01*
X120348149Y-74347809D01*
X120625253Y-74520627D01*
X120921112Y-74658903D01*
X121231440Y-74760634D01*
X121551742Y-74824346D01*
X121555514Y-74824633D01*
X121555522Y-74824634D01*
X121873602Y-74848829D01*
X121873607Y-74848829D01*
X121877379Y-74849116D01*
X122203633Y-74834586D01*
X122263425Y-74824634D01*
X122522037Y-74781590D01*
X122522042Y-74781589D01*
X122525778Y-74780967D01*
X122839149Y-74689034D01*
X122842616Y-74687544D01*
X122842620Y-74687543D01*
X123135721Y-74561616D01*
X123135723Y-74561615D01*
X123139205Y-74560119D01*
X123421601Y-74396091D01*
X123682245Y-74199324D01*
X123867627Y-74020616D01*
X123914632Y-73975303D01*
X123914635Y-73975300D01*
X123917363Y-73972670D01*
X124050940Y-73808596D01*
X124121155Y-73722351D01*
X124121158Y-73722347D01*
X124123549Y-73719410D01*
X124201595Y-73595715D01*
X124295788Y-73446428D01*
X124295790Y-73446425D01*
X124297815Y-73443215D01*
X124437638Y-73148084D01*
X124438840Y-73144482D01*
X124539790Y-72841897D01*
X124539792Y-72841891D01*
X124540992Y-72838293D01*
X124606381Y-72518329D01*
X124607016Y-72510530D01*
X124628529Y-72246027D01*
X124632856Y-72192826D01*
X124633231Y-72157059D01*
X124633428Y-72138221D01*
X124633428Y-72138214D01*
X124633451Y-72136000D01*
X124631862Y-72109632D01*
X124614026Y-71813793D01*
X124614026Y-71813789D01*
X124613798Y-71810015D01*
X124612333Y-71801990D01*
X124555805Y-71492473D01*
X124555804Y-71492469D01*
X124555125Y-71488751D01*
X124547722Y-71464907D01*
X124459404Y-71180477D01*
X124458282Y-71176863D01*
X124324670Y-70878869D01*
X124156226Y-70599084D01*
X124153899Y-70596100D01*
X124153894Y-70596093D01*
X123957726Y-70344558D01*
X123957724Y-70344556D01*
X123955390Y-70341563D01*
X123725070Y-70110034D01*
X123468603Y-69907852D01*
X123189705Y-69737945D01*
X123186261Y-69736379D01*
X123186257Y-69736377D01*
X123043094Y-69671285D01*
X122892414Y-69602775D01*
X122581037Y-69504300D01*
X122363492Y-69463390D01*
X122263809Y-69444645D01*
X122263807Y-69444645D01*
X122260086Y-69443945D01*
X121934208Y-69422586D01*
X121930428Y-69422794D01*
X121930427Y-69422794D01*
X121832897Y-69428162D01*
X121608124Y-69440532D01*
X121604397Y-69441193D01*
X121604393Y-69441193D01*
X121447341Y-69469027D01*
X121286557Y-69497522D01*
X121282941Y-69498624D01*
X121282933Y-69498626D01*
X120989949Y-69587921D01*
X120974167Y-69592731D01*
X120675477Y-69724781D01*
X120650041Y-69739914D01*
X120398074Y-69889817D01*
X120398068Y-69889821D01*
X120394814Y-69891757D01*
X120391812Y-69894073D01*
X120204457Y-70038617D01*
X120136244Y-70091243D01*
X119903513Y-70320347D01*
X119901149Y-70323314D01*
X119901146Y-70323317D01*
X119717561Y-70553702D01*
X119699991Y-70575751D01*
X119528626Y-70853757D01*
X119391902Y-71150336D01*
X119390741Y-71153940D01*
X119390741Y-71153941D01*
X119383139Y-71177547D01*
X119291797Y-71461192D01*
X119291079Y-71464903D01*
X119291078Y-71464907D01*
X119230482Y-71778105D01*
X119230481Y-71778114D01*
X119229763Y-71781824D01*
X119229496Y-71785600D01*
X119229495Y-71785605D01*
X119211703Y-72036896D01*
X119206698Y-72107585D01*
X113973290Y-72107585D01*
X109799452Y-67933747D01*
X109791912Y-67925461D01*
X109787800Y-67918982D01*
X109738148Y-67872356D01*
X109735307Y-67869602D01*
X109715570Y-67849865D01*
X109712373Y-67847385D01*
X109703351Y-67839680D01*
X109676900Y-67814841D01*
X109671121Y-67809414D01*
X109664175Y-67805595D01*
X109664172Y-67805593D01*
X109653366Y-67799652D01*
X109636847Y-67788801D01*
X109634018Y-67786607D01*
X109620841Y-67776386D01*
X109613572Y-67773241D01*
X109613568Y-67773238D01*
X109580263Y-67758826D01*
X109569613Y-67753609D01*
X109530860Y-67732305D01*
X109511237Y-67727267D01*
X109492534Y-67720863D01*
X109481220Y-67715967D01*
X109481219Y-67715967D01*
X109473945Y-67712819D01*
X109466122Y-67711580D01*
X109466112Y-67711577D01*
X109430276Y-67705901D01*
X109418656Y-67703495D01*
X109383511Y-67694472D01*
X109383510Y-67694472D01*
X109375830Y-67692500D01*
X109355576Y-67692500D01*
X109335865Y-67690949D01*
X109323686Y-67689020D01*
X109315857Y-67687780D01*
X109307965Y-67688526D01*
X109271839Y-67691941D01*
X109259981Y-67692500D01*
X108464805Y-67692500D01*
X108396684Y-67672498D01*
X108359013Y-67634940D01*
X108270822Y-67498617D01*
X108270820Y-67498614D01*
X108268014Y-67494277D01*
X108117670Y-67329051D01*
X108113619Y-67325852D01*
X108113615Y-67325848D01*
X107946414Y-67193800D01*
X107946410Y-67193798D01*
X107942359Y-67190598D01*
X107746789Y-67082638D01*
X107741920Y-67080914D01*
X107741916Y-67080912D01*
X107541087Y-67009795D01*
X107541083Y-67009794D01*
X107536212Y-67008069D01*
X107531119Y-67007162D01*
X107531116Y-67007161D01*
X107321373Y-66969800D01*
X107321367Y-66969799D01*
X107316284Y-66968894D01*
X107242452Y-66967992D01*
X107098081Y-66966228D01*
X107098079Y-66966228D01*
X107092911Y-66966165D01*
X106872091Y-66999955D01*
X106659756Y-67069357D01*
X106604970Y-67097877D01*
X106489064Y-67158214D01*
X106461607Y-67172507D01*
X106457474Y-67175610D01*
X106457471Y-67175612D01*
X106287100Y-67303530D01*
X106282965Y-67306635D01*
X106128629Y-67468138D01*
X106125715Y-67472410D01*
X106125714Y-67472411D01*
X106066971Y-67558525D01*
X106002743Y-67652680D01*
X105964011Y-67736121D01*
X105927471Y-67814841D01*
X105908688Y-67855305D01*
X105848989Y-68070570D01*
X105825251Y-68292695D01*
X105825548Y-68297848D01*
X105825548Y-68297851D01*
X105832141Y-68412191D01*
X105838110Y-68515715D01*
X105839247Y-68520761D01*
X105839248Y-68520767D01*
X105863304Y-68627508D01*
X105887222Y-68733639D01*
X105971266Y-68940616D01*
X106006748Y-68998517D01*
X106071141Y-69103597D01*
X106087987Y-69131088D01*
X106234250Y-69299938D01*
X106406126Y-69442632D01*
X106476595Y-69483811D01*
X106479445Y-69485476D01*
X106528169Y-69537114D01*
X106541240Y-69606897D01*
X106514509Y-69672669D01*
X106474055Y-69706027D01*
X106461607Y-69712507D01*
X106457474Y-69715610D01*
X106457471Y-69715612D01*
X106287100Y-69843530D01*
X106282965Y-69846635D01*
X106279393Y-69850373D01*
X106140180Y-69996051D01*
X106128629Y-70008138D01*
X106002743Y-70192680D01*
X105987003Y-70226590D01*
X105932275Y-70344492D01*
X105908688Y-70395305D01*
X105848989Y-70610570D01*
X105825251Y-70832695D01*
X105825548Y-70837848D01*
X105825548Y-70837851D01*
X105834494Y-70993000D01*
X105838110Y-71055715D01*
X105839247Y-71060761D01*
X105839248Y-71060767D01*
X105860275Y-71154069D01*
X105887222Y-71273639D01*
X105971266Y-71480616D01*
X106087987Y-71671088D01*
X106234250Y-71839938D01*
X106406126Y-71982632D01*
X106423523Y-71992798D01*
X106479445Y-72025476D01*
X106528169Y-72077114D01*
X106541240Y-72146897D01*
X106514509Y-72212669D01*
X106474055Y-72246027D01*
X106461607Y-72252507D01*
X106457474Y-72255610D01*
X106457471Y-72255612D01*
X106288323Y-72382612D01*
X106282965Y-72386635D01*
X106128629Y-72548138D01*
X106125715Y-72552410D01*
X106125714Y-72552411D01*
X106098424Y-72592417D01*
X106002743Y-72732680D01*
X105974893Y-72792679D01*
X105922228Y-72906136D01*
X105908688Y-72935305D01*
X105848989Y-73150570D01*
X105825251Y-73372695D01*
X105825548Y-73377848D01*
X105825548Y-73377851D01*
X105832871Y-73504851D01*
X105838110Y-73595715D01*
X105839247Y-73600761D01*
X105839248Y-73600767D01*
X105850891Y-73652429D01*
X105887222Y-73813639D01*
X105971266Y-74020616D01*
X105973965Y-74025020D01*
X106079165Y-74196691D01*
X106087987Y-74211088D01*
X106234250Y-74379938D01*
X106406126Y-74522632D01*
X106410593Y-74525242D01*
X106479445Y-74565476D01*
X106528169Y-74617114D01*
X106541240Y-74686897D01*
X106514509Y-74752669D01*
X106474055Y-74786027D01*
X106461607Y-74792507D01*
X106457474Y-74795610D01*
X106457471Y-74795612D01*
X106306133Y-74909240D01*
X106282965Y-74926635D01*
X106128629Y-75088138D01*
X106002743Y-75272680D01*
X105982867Y-75315499D01*
X105933739Y-75421338D01*
X105908688Y-75475305D01*
X105848989Y-75690570D01*
X105825251Y-75912695D01*
X105825548Y-75917848D01*
X105825548Y-75917851D01*
X105832141Y-76032197D01*
X105838110Y-76135715D01*
X105839247Y-76140761D01*
X105839248Y-76140767D01*
X105849510Y-76186301D01*
X105887222Y-76353639D01*
X105935975Y-76473704D01*
X105959272Y-76531077D01*
X105971266Y-76560616D01*
X105973965Y-76565020D01*
X106055628Y-76698282D01*
X106087987Y-76751088D01*
X106234250Y-76919938D01*
X106406126Y-77062632D01*
X106430627Y-77076949D01*
X106479445Y-77105476D01*
X106528169Y-77157114D01*
X106541240Y-77226897D01*
X106514509Y-77292669D01*
X106474055Y-77326027D01*
X106461607Y-77332507D01*
X106457474Y-77335610D01*
X106457471Y-77335612D01*
X106287100Y-77463530D01*
X106282965Y-77466635D01*
X106128629Y-77628138D01*
X106125715Y-77632410D01*
X106125714Y-77632411D01*
X106059459Y-77729537D01*
X106002743Y-77812680D01*
X105908688Y-78015305D01*
X105848989Y-78230570D01*
X105825251Y-78452695D01*
X105825548Y-78457848D01*
X105825548Y-78457851D01*
X105833541Y-78596471D01*
X105838110Y-78675715D01*
X105839247Y-78680761D01*
X105839248Y-78680767D01*
X105851426Y-78734802D01*
X105887222Y-78893639D01*
X105971266Y-79100616D01*
X105973965Y-79105020D01*
X106082607Y-79282308D01*
X106087987Y-79291088D01*
X106234250Y-79459938D01*
X106406126Y-79602632D01*
X106439712Y-79622258D01*
X106479445Y-79645476D01*
X106528169Y-79697114D01*
X106541240Y-79766897D01*
X106514509Y-79832669D01*
X106474055Y-79866027D01*
X106461607Y-79872507D01*
X106457474Y-79875610D01*
X106457471Y-79875612D01*
X106287100Y-80003530D01*
X106282965Y-80006635D01*
X106279393Y-80010373D01*
X106194815Y-80098879D01*
X106128629Y-80168138D01*
X106125715Y-80172410D01*
X106125714Y-80172411D01*
X106096826Y-80214759D01*
X106002743Y-80352680D01*
X106000564Y-80357375D01*
X105923842Y-80522659D01*
X105908688Y-80555305D01*
X105848989Y-80770570D01*
X105825251Y-80992695D01*
X105825548Y-80997848D01*
X105825548Y-80997851D01*
X105832848Y-81124456D01*
X105838110Y-81215715D01*
X105839247Y-81220761D01*
X105839248Y-81220767D01*
X105863304Y-81327508D01*
X105887222Y-81433639D01*
X105971266Y-81640616D01*
X106087987Y-81831088D01*
X106234250Y-81999938D01*
X106406126Y-82142632D01*
X106430601Y-82156934D01*
X106479445Y-82185476D01*
X106528169Y-82237114D01*
X106541240Y-82306897D01*
X106514509Y-82372669D01*
X106474055Y-82406027D01*
X106461607Y-82412507D01*
X106457474Y-82415610D01*
X106457471Y-82415612D01*
X106358188Y-82490156D01*
X106282965Y-82546635D01*
X106128629Y-82708138D01*
X106125715Y-82712410D01*
X106125714Y-82712411D01*
X106058369Y-82811135D01*
X106002743Y-82892680D01*
X106000564Y-82897375D01*
X105916574Y-83078317D01*
X105908688Y-83095305D01*
X105848989Y-83310570D01*
X105825251Y-83532695D01*
X105825548Y-83537848D01*
X105825548Y-83537851D01*
X105835465Y-83709849D01*
X105838110Y-83755715D01*
X105839247Y-83760761D01*
X105839248Y-83760767D01*
X105843787Y-83780906D01*
X105887222Y-83973639D01*
X105971266Y-84180616D01*
X106009233Y-84242573D01*
X106070066Y-84341843D01*
X106087987Y-84371088D01*
X106234250Y-84539938D01*
X106406126Y-84682632D01*
X106423869Y-84693000D01*
X106479445Y-84725476D01*
X106528169Y-84777114D01*
X106541240Y-84846897D01*
X106514509Y-84912669D01*
X106474055Y-84946027D01*
X106461607Y-84952507D01*
X106457474Y-84955610D01*
X106457471Y-84955612D01*
X106287100Y-85083530D01*
X106282965Y-85086635D01*
X106128629Y-85248138D01*
X106125715Y-85252410D01*
X106125714Y-85252411D01*
X106097572Y-85293666D01*
X106002743Y-85432680D01*
X105908688Y-85635305D01*
X105848989Y-85850570D01*
X105825251Y-86072695D01*
X105825548Y-86077848D01*
X105825548Y-86077851D01*
X105832875Y-86204919D01*
X105838110Y-86295715D01*
X105839247Y-86300761D01*
X105839248Y-86300767D01*
X105863304Y-86407508D01*
X105887222Y-86513639D01*
X105929203Y-86617027D01*
X105968480Y-86713754D01*
X105971266Y-86720616D01*
X105984966Y-86742972D01*
X106085171Y-86906492D01*
X106087987Y-86911088D01*
X106234250Y-87079938D01*
X106406126Y-87222632D01*
X106476595Y-87263811D01*
X106479445Y-87265476D01*
X106528169Y-87317114D01*
X106541240Y-87386897D01*
X106514509Y-87452669D01*
X106474055Y-87486027D01*
X106461607Y-87492507D01*
X106457474Y-87495610D01*
X106457471Y-87495612D01*
X106293653Y-87618610D01*
X106282965Y-87626635D01*
X106279393Y-87630373D01*
X106142333Y-87773798D01*
X106128629Y-87788138D01*
X106125715Y-87792410D01*
X106125714Y-87792411D01*
X106095025Y-87837400D01*
X106002743Y-87972680D01*
X105908688Y-88175305D01*
X105848989Y-88390570D01*
X105825251Y-88612695D01*
X105825548Y-88617848D01*
X105825548Y-88617851D01*
X105836865Y-88814118D01*
X105838110Y-88835715D01*
X105839247Y-88840761D01*
X105839248Y-88840767D01*
X105858969Y-88928273D01*
X105887222Y-89053639D01*
X105971266Y-89260616D01*
X106087987Y-89451088D01*
X106234250Y-89619938D01*
X106406126Y-89762632D01*
X106423869Y-89773000D01*
X106479445Y-89805476D01*
X106528169Y-89857114D01*
X106541240Y-89926897D01*
X106514509Y-89992669D01*
X106474055Y-90026027D01*
X106461607Y-90032507D01*
X106457474Y-90035610D01*
X106457471Y-90035612D01*
X106287100Y-90163530D01*
X106282965Y-90166635D01*
X106279393Y-90170373D01*
X106177523Y-90276974D01*
X106128629Y-90328138D01*
X106125715Y-90332410D01*
X106125714Y-90332411D01*
X106111029Y-90353938D01*
X106002743Y-90512680D01*
X105964207Y-90595700D01*
X105925898Y-90678230D01*
X105908688Y-90715305D01*
X105848989Y-90930570D01*
X105825251Y-91152695D01*
X105825548Y-91157848D01*
X105825548Y-91157851D01*
X105832721Y-91282251D01*
X105838110Y-91375715D01*
X105839247Y-91380761D01*
X105839248Y-91380767D01*
X105853831Y-91445475D01*
X105887222Y-91593639D01*
X105937192Y-91716700D01*
X105962522Y-91779081D01*
X105971266Y-91800616D01*
X105973965Y-91805020D01*
X106084194Y-91984898D01*
X106087987Y-91991088D01*
X106234250Y-92159938D01*
X106406126Y-92302632D01*
X106410593Y-92305242D01*
X106479445Y-92345476D01*
X106528169Y-92397114D01*
X106541240Y-92466897D01*
X106514509Y-92532669D01*
X106474055Y-92566027D01*
X106461607Y-92572507D01*
X106457474Y-92575610D01*
X106457471Y-92575612D01*
X106287100Y-92703530D01*
X106282965Y-92706635D01*
X106257251Y-92733543D01*
X106170201Y-92824636D01*
X106128629Y-92868138D01*
X106125715Y-92872410D01*
X106125714Y-92872411D01*
X106075922Y-92945403D01*
X106002743Y-93052680D01*
X105997329Y-93064344D01*
X105912251Y-93247630D01*
X105908688Y-93255305D01*
X105848989Y-93470570D01*
X105825251Y-93692695D01*
X105825548Y-93697848D01*
X105825548Y-93697851D01*
X105831982Y-93809434D01*
X105838110Y-93915715D01*
X105839247Y-93920761D01*
X105839248Y-93920767D01*
X105856358Y-93996688D01*
X105887222Y-94133639D01*
X105971266Y-94340616D01*
X106087987Y-94531088D01*
X106234250Y-94699938D01*
X106406126Y-94842632D01*
X106410593Y-94845242D01*
X106479445Y-94885476D01*
X106528169Y-94937114D01*
X106541240Y-95006897D01*
X106514509Y-95072669D01*
X106474055Y-95106027D01*
X106461607Y-95112507D01*
X106457474Y-95115610D01*
X106457471Y-95115612D01*
X106325895Y-95214402D01*
X106282965Y-95246635D01*
X106279393Y-95250373D01*
X106141903Y-95394248D01*
X106128629Y-95408138D01*
X106125715Y-95412410D01*
X106125714Y-95412411D01*
X106110139Y-95435243D01*
X106002743Y-95592680D01*
X105908688Y-95795305D01*
X105848989Y-96010570D01*
X105825251Y-96232695D01*
X105825548Y-96237848D01*
X105825548Y-96237851D01*
X105834635Y-96395454D01*
X105838110Y-96455715D01*
X105839247Y-96460761D01*
X105839248Y-96460767D01*
X105856896Y-96539073D01*
X105887222Y-96673639D01*
X105946034Y-96818476D01*
X105966877Y-96869806D01*
X105971266Y-96880616D01*
X106002366Y-96931366D01*
X106085226Y-97066582D01*
X106087987Y-97071088D01*
X106234250Y-97239938D01*
X106406126Y-97382632D01*
X106410593Y-97385242D01*
X106479445Y-97425476D01*
X106528169Y-97477114D01*
X106541240Y-97546897D01*
X106514509Y-97612669D01*
X106474055Y-97646027D01*
X106461607Y-97652507D01*
X106457474Y-97655610D01*
X106457471Y-97655612D01*
X106287100Y-97783530D01*
X106282965Y-97786635D01*
X106279393Y-97790373D01*
X106166109Y-97908918D01*
X106128629Y-97948138D01*
X106125715Y-97952410D01*
X106125714Y-97952411D01*
X106110139Y-97975243D01*
X106002743Y-98132680D01*
X105908688Y-98335305D01*
X105848989Y-98550570D01*
X105825251Y-98772695D01*
X105825548Y-98777848D01*
X105825548Y-98777851D01*
X105832534Y-98899006D01*
X105838110Y-98995715D01*
X105839247Y-99000761D01*
X105839248Y-99000767D01*
X105845658Y-99029208D01*
X105887222Y-99213639D01*
X105971266Y-99420616D01*
X106087987Y-99611088D01*
X106107793Y-99633953D01*
X106137276Y-99698535D01*
X106127162Y-99768808D01*
X106101651Y-99805544D01*
X105596947Y-100310248D01*
X105588661Y-100317788D01*
X105582182Y-100321900D01*
X105576757Y-100327677D01*
X105535557Y-100371551D01*
X105532802Y-100374393D01*
X105513065Y-100394130D01*
X105510585Y-100397327D01*
X105502882Y-100406347D01*
X105472614Y-100438579D01*
X105468795Y-100445525D01*
X105468793Y-100445528D01*
X105462852Y-100456334D01*
X105452001Y-100472853D01*
X105439586Y-100488859D01*
X105436441Y-100496128D01*
X105436438Y-100496132D01*
X105422026Y-100529437D01*
X105416809Y-100540087D01*
X105395505Y-100578840D01*
X105395505Y-100578841D01*
X105394161Y-100578102D01*
X105355980Y-100627038D01*
X105288977Y-100650515D01*
X105219918Y-100634042D01*
X105170729Y-100582847D01*
X105156500Y-100524682D01*
X105156500Y-65658500D01*
X105176502Y-65590379D01*
X105230158Y-65543886D01*
X105282500Y-65532500D01*
X160677090Y-65532500D01*
X160745211Y-65552502D01*
G37*
G04 #@! TD.AperFunction*
G04 #@! TA.AperFunction,Conductor*
G36*
X145773221Y-95470002D02*
G01*
X145792447Y-95486343D01*
X145792720Y-95486040D01*
X145797632Y-95490463D01*
X145802047Y-95495366D01*
X145807386Y-95499245D01*
X145943781Y-95598342D01*
X145956548Y-95607618D01*
X145962576Y-95610302D01*
X145962578Y-95610303D01*
X146124981Y-95682609D01*
X146131012Y-95685294D01*
X146219299Y-95704060D01*
X146311356Y-95723628D01*
X146311361Y-95723628D01*
X146317813Y-95725000D01*
X146508787Y-95725000D01*
X146515239Y-95723628D01*
X146515244Y-95723628D01*
X146607303Y-95704060D01*
X146678094Y-95709462D01*
X146734727Y-95752279D01*
X146759220Y-95818917D01*
X146759500Y-95827307D01*
X146759500Y-96823200D01*
X146739498Y-96891321D01*
X146685842Y-96937814D01*
X146633500Y-96949200D01*
X146570613Y-96949200D01*
X146564161Y-96950572D01*
X146564156Y-96950572D01*
X146477349Y-96969024D01*
X146383812Y-96988906D01*
X146377782Y-96991591D01*
X146377781Y-96991591D01*
X146215378Y-97063897D01*
X146215376Y-97063898D01*
X146209348Y-97066582D01*
X146054847Y-97178834D01*
X146050426Y-97183744D01*
X146050425Y-97183745D01*
X145952414Y-97292598D01*
X145927060Y-97320756D01*
X145831573Y-97486144D01*
X145772558Y-97667772D01*
X145771868Y-97674333D01*
X145771868Y-97674335D01*
X145764395Y-97745442D01*
X145756015Y-97825175D01*
X145755193Y-97832993D01*
X145728180Y-97898650D01*
X145718978Y-97908918D01*
X139583530Y-104044365D01*
X139521218Y-104078391D01*
X139450403Y-104073326D01*
X139422167Y-104058484D01*
X139350749Y-104008477D01*
X139345767Y-104006154D01*
X139345762Y-104006151D01*
X139310951Y-103989919D01*
X139257666Y-103943002D01*
X139238205Y-103874725D01*
X139258747Y-103806765D01*
X139310951Y-103761529D01*
X139345511Y-103745414D01*
X139355007Y-103739931D01*
X139533467Y-103614972D01*
X139541875Y-103607916D01*
X139695916Y-103453875D01*
X139702972Y-103445467D01*
X139827931Y-103267007D01*
X139833414Y-103257511D01*
X139925490Y-103060053D01*
X139929236Y-103049761D01*
X139975394Y-102877497D01*
X139975058Y-102863401D01*
X139967116Y-102860000D01*
X138566000Y-102860000D01*
X138497879Y-102839998D01*
X138451386Y-102786342D01*
X138440000Y-102734000D01*
X138440000Y-102478000D01*
X138460002Y-102409879D01*
X138513658Y-102363386D01*
X138566000Y-102352000D01*
X139961967Y-102352000D01*
X139975498Y-102348027D01*
X139976727Y-102339478D01*
X139929236Y-102162239D01*
X139925490Y-102151947D01*
X139833414Y-101954489D01*
X139827931Y-101944993D01*
X139702972Y-101766533D01*
X139695916Y-101758125D01*
X139541875Y-101604084D01*
X139533467Y-101597028D01*
X139355007Y-101472069D01*
X139345511Y-101466586D01*
X139310951Y-101450471D01*
X139257666Y-101403554D01*
X139238205Y-101335277D01*
X139258747Y-101267317D01*
X139310951Y-101222081D01*
X139345762Y-101205849D01*
X139345767Y-101205846D01*
X139350749Y-101203523D01*
X139471460Y-101119000D01*
X139533789Y-101075357D01*
X139533792Y-101075355D01*
X139538300Y-101072198D01*
X139700198Y-100910300D01*
X139714242Y-100890244D01*
X139802609Y-100764042D01*
X139811994Y-100750639D01*
X139867450Y-100706312D01*
X139905056Y-100698293D01*
X139905035Y-100698163D01*
X139907490Y-100697774D01*
X139911247Y-100696973D01*
X139912870Y-100696922D01*
X139920789Y-100696673D01*
X139940243Y-100691021D01*
X139959600Y-100687013D01*
X139971830Y-100685468D01*
X139971831Y-100685468D01*
X139979697Y-100684474D01*
X139987068Y-100681555D01*
X139987070Y-100681555D01*
X140020812Y-100668196D01*
X140032042Y-100664351D01*
X140066883Y-100654229D01*
X140066884Y-100654229D01*
X140074493Y-100652018D01*
X140081312Y-100647985D01*
X140081317Y-100647983D01*
X140091928Y-100641707D01*
X140109676Y-100633012D01*
X140128517Y-100625552D01*
X140139800Y-100617355D01*
X140164287Y-100599564D01*
X140174207Y-100593048D01*
X140205435Y-100574580D01*
X140205438Y-100574578D01*
X140212262Y-100570542D01*
X140226583Y-100556221D01*
X140241617Y-100543380D01*
X140251594Y-100536131D01*
X140258007Y-100531472D01*
X140286198Y-100497395D01*
X140294188Y-100488616D01*
X145295900Y-95486905D01*
X145358212Y-95452879D01*
X145384995Y-95450000D01*
X145705100Y-95450000D01*
X145773221Y-95470002D01*
G37*
G04 #@! TD.AperFunction*
G04 #@! TA.AperFunction,Conductor*
G36*
X109049327Y-68979502D02*
G01*
X109070301Y-68996405D01*
X115179831Y-75105935D01*
X115213857Y-75168247D01*
X115208792Y-75239062D01*
X115166245Y-75295898D01*
X115143988Y-75309224D01*
X115132491Y-75314585D01*
X115122994Y-75320069D01*
X115070952Y-75356509D01*
X115062576Y-75366988D01*
X115069644Y-75380434D01*
X116858287Y-77169077D01*
X116870062Y-77175507D01*
X116882077Y-77166211D01*
X116917931Y-77115006D01*
X116923415Y-77105509D01*
X116928776Y-77094012D01*
X116975694Y-77040728D01*
X117043972Y-77021268D01*
X117111932Y-77041811D01*
X117132065Y-77058169D01*
X119277795Y-79203899D01*
X119311821Y-79266211D01*
X119314700Y-79292994D01*
X119314700Y-84638606D01*
X119294698Y-84706727D01*
X119241042Y-84753220D01*
X119170768Y-84763324D01*
X119106188Y-84733830D01*
X119099605Y-84727701D01*
X118358484Y-83986579D01*
X117450222Y-83078317D01*
X117416196Y-83016005D01*
X117414007Y-83002392D01*
X117397332Y-82843735D01*
X117397332Y-82843733D01*
X117396642Y-82837172D01*
X117337627Y-82655544D01*
X117242140Y-82490156D01*
X117175021Y-82415612D01*
X117118775Y-82353145D01*
X117118774Y-82353144D01*
X117114353Y-82348234D01*
X116959852Y-82235982D01*
X116953824Y-82233298D01*
X116953822Y-82233297D01*
X116791419Y-82160991D01*
X116791418Y-82160991D01*
X116785388Y-82158306D01*
X116691988Y-82138453D01*
X116605044Y-82119972D01*
X116605039Y-82119972D01*
X116598587Y-82118600D01*
X116407613Y-82118600D01*
X116401161Y-82119972D01*
X116401156Y-82119972D01*
X116314212Y-82138453D01*
X116220812Y-82158306D01*
X116214782Y-82160991D01*
X116214781Y-82160991D01*
X116052378Y-82233297D01*
X116052376Y-82233298D01*
X116046348Y-82235982D01*
X115891847Y-82348234D01*
X115887426Y-82353144D01*
X115887425Y-82353145D01*
X115831180Y-82415612D01*
X115764060Y-82490156D01*
X115668573Y-82655544D01*
X115609558Y-82837172D01*
X115608868Y-82843733D01*
X115608868Y-82843735D01*
X115604649Y-82883881D01*
X115589596Y-83027100D01*
X115590286Y-83033665D01*
X115608294Y-83204997D01*
X115609558Y-83217028D01*
X115668573Y-83398656D01*
X115671876Y-83404378D01*
X115671877Y-83404379D01*
X115680043Y-83418523D01*
X115764060Y-83564044D01*
X115768478Y-83568951D01*
X115768479Y-83568952D01*
X115869895Y-83681586D01*
X115891847Y-83705966D01*
X116046348Y-83818218D01*
X116052376Y-83820902D01*
X116052378Y-83820903D01*
X116214781Y-83893209D01*
X116220812Y-83895894D01*
X116314212Y-83915747D01*
X116401156Y-83934228D01*
X116401161Y-83934228D01*
X116407613Y-83935600D01*
X116463506Y-83935600D01*
X116531627Y-83955602D01*
X116552601Y-83972505D01*
X118502395Y-85922300D01*
X118536421Y-85984612D01*
X118539300Y-86011395D01*
X118539300Y-94121905D01*
X118519298Y-94190026D01*
X118465642Y-94236519D01*
X118395368Y-94246623D01*
X118330788Y-94217129D01*
X118324205Y-94211000D01*
X114972622Y-90859417D01*
X114938596Y-90797105D01*
X114936407Y-90783492D01*
X114919732Y-90624835D01*
X114919732Y-90624833D01*
X114919042Y-90618272D01*
X114860027Y-90436644D01*
X114764540Y-90271256D01*
X114704671Y-90204764D01*
X114641175Y-90134245D01*
X114641174Y-90134244D01*
X114636753Y-90129334D01*
X114503483Y-90032507D01*
X114487594Y-90020963D01*
X114487593Y-90020962D01*
X114482252Y-90017082D01*
X114476224Y-90014398D01*
X114476222Y-90014397D01*
X114313819Y-89942091D01*
X114313818Y-89942091D01*
X114307788Y-89939406D01*
X114206126Y-89917797D01*
X114127444Y-89901072D01*
X114127439Y-89901072D01*
X114120987Y-89899700D01*
X113930013Y-89899700D01*
X113923561Y-89901072D01*
X113923556Y-89901072D01*
X113844874Y-89917797D01*
X113743212Y-89939406D01*
X113737182Y-89942091D01*
X113737181Y-89942091D01*
X113574778Y-90014397D01*
X113574776Y-90014398D01*
X113568748Y-90017082D01*
X113563407Y-90020962D01*
X113563406Y-90020963D01*
X113547517Y-90032507D01*
X113414247Y-90129334D01*
X113409826Y-90134244D01*
X113409825Y-90134245D01*
X113346330Y-90204764D01*
X113286460Y-90271256D01*
X113190973Y-90436644D01*
X113131958Y-90618272D01*
X113131268Y-90624833D01*
X113131268Y-90624835D01*
X113121416Y-90718576D01*
X113111996Y-90808200D01*
X113112686Y-90814765D01*
X113130660Y-90985775D01*
X113131958Y-90998128D01*
X113190973Y-91179756D01*
X113194276Y-91185478D01*
X113194277Y-91185479D01*
X113199708Y-91194886D01*
X113286460Y-91345144D01*
X113290878Y-91350051D01*
X113290879Y-91350052D01*
X113372888Y-91441132D01*
X113414247Y-91487066D01*
X113491767Y-91543388D01*
X113560932Y-91593639D01*
X113568748Y-91599318D01*
X113574776Y-91602002D01*
X113574778Y-91602003D01*
X113734942Y-91673312D01*
X113743212Y-91676994D01*
X113836612Y-91696847D01*
X113923556Y-91715328D01*
X113923561Y-91715328D01*
X113930013Y-91716700D01*
X113985906Y-91716700D01*
X114054027Y-91736702D01*
X114075001Y-91753605D01*
X117748095Y-95426699D01*
X117782121Y-95489011D01*
X117785000Y-95515794D01*
X117785000Y-96818476D01*
X117764998Y-96886597D01*
X117752642Y-96902779D01*
X117679460Y-96984056D01*
X117583973Y-97149444D01*
X117524958Y-97331072D01*
X117524268Y-97337633D01*
X117524268Y-97337635D01*
X117518708Y-97390534D01*
X117504996Y-97521000D01*
X117505686Y-97527565D01*
X117518771Y-97652060D01*
X117515503Y-97696564D01*
X117510700Y-97715270D01*
X117510700Y-97735524D01*
X117509149Y-97755234D01*
X117505980Y-97775243D01*
X117506726Y-97783135D01*
X117510141Y-97819261D01*
X117510700Y-97831119D01*
X117510700Y-100298606D01*
X117490698Y-100366727D01*
X117437042Y-100413220D01*
X117366768Y-100423324D01*
X117302188Y-100393830D01*
X117295605Y-100387701D01*
X112302152Y-95394248D01*
X112268126Y-95331936D01*
X112269541Y-95272541D01*
X112285118Y-95214409D01*
X112285120Y-95214398D01*
X112286543Y-95209087D01*
X112306498Y-94981000D01*
X112286543Y-94752913D01*
X112272348Y-94699938D01*
X112228707Y-94537067D01*
X112228706Y-94537065D01*
X112227284Y-94531757D01*
X112203893Y-94481594D01*
X112132849Y-94329238D01*
X112132846Y-94329232D01*
X112130523Y-94324251D01*
X112037192Y-94190961D01*
X112002357Y-94141211D01*
X112002355Y-94141208D01*
X111999198Y-94136700D01*
X111837300Y-93974802D01*
X111832792Y-93971645D01*
X111832789Y-93971643D01*
X111752915Y-93915715D01*
X111675711Y-93861656D01*
X111631384Y-93806200D01*
X111622232Y-93766354D01*
X111620723Y-93742364D01*
X111620723Y-93742363D01*
X111620225Y-93734450D01*
X111617679Y-93726613D01*
X111612506Y-93703469D01*
X111611474Y-93695300D01*
X111613031Y-93695103D01*
X111615151Y-93633199D01*
X111655556Y-93574821D01*
X111662478Y-93569610D01*
X111796585Y-93475707D01*
X111832789Y-93450357D01*
X111832792Y-93450355D01*
X111837300Y-93447198D01*
X111999198Y-93285300D01*
X112016706Y-93260297D01*
X112057098Y-93202611D01*
X112130523Y-93097749D01*
X112132846Y-93092767D01*
X112132849Y-93092762D01*
X112224961Y-92895225D01*
X112224961Y-92895224D01*
X112227284Y-92890243D01*
X112234209Y-92864401D01*
X112285119Y-92674402D01*
X112285119Y-92674400D01*
X112286543Y-92669087D01*
X112306498Y-92441000D01*
X112286543Y-92212913D01*
X112285119Y-92207598D01*
X112228707Y-91997067D01*
X112228706Y-91997065D01*
X112227284Y-91991757D01*
X112221043Y-91978372D01*
X112132849Y-91789238D01*
X112132846Y-91789233D01*
X112130523Y-91784251D01*
X112045285Y-91662519D01*
X112002357Y-91601211D01*
X112002355Y-91601208D01*
X111999198Y-91596700D01*
X111837300Y-91434802D01*
X111832792Y-91431645D01*
X111832789Y-91431643D01*
X111678376Y-91323522D01*
X111649749Y-91303477D01*
X111644767Y-91301154D01*
X111644762Y-91301151D01*
X111609951Y-91284919D01*
X111556666Y-91238002D01*
X111537205Y-91169725D01*
X111557747Y-91101765D01*
X111609951Y-91056529D01*
X111644511Y-91040414D01*
X111654007Y-91034931D01*
X111832467Y-90909972D01*
X111840875Y-90902916D01*
X111994916Y-90748875D01*
X112001972Y-90740467D01*
X112126931Y-90562007D01*
X112132414Y-90552511D01*
X112224490Y-90355053D01*
X112228236Y-90344761D01*
X112274394Y-90172497D01*
X112274058Y-90158401D01*
X112266116Y-90155000D01*
X110865000Y-90155000D01*
X110796879Y-90134998D01*
X110750386Y-90081342D01*
X110739000Y-90029000D01*
X110739000Y-89773000D01*
X110759002Y-89704879D01*
X110812658Y-89658386D01*
X110865000Y-89647000D01*
X112260967Y-89647000D01*
X112274498Y-89643027D01*
X112275727Y-89634478D01*
X112228236Y-89457239D01*
X112224490Y-89446947D01*
X112132414Y-89249489D01*
X112126931Y-89239993D01*
X112001972Y-89061533D01*
X111994916Y-89053125D01*
X111840875Y-88899084D01*
X111832467Y-88892028D01*
X111654007Y-88767069D01*
X111644511Y-88761586D01*
X111609951Y-88745471D01*
X111556666Y-88698554D01*
X111537205Y-88630277D01*
X111557747Y-88562317D01*
X111609951Y-88517081D01*
X111644762Y-88500849D01*
X111644767Y-88500846D01*
X111649749Y-88498523D01*
X111796585Y-88395707D01*
X111832789Y-88370357D01*
X111832792Y-88370355D01*
X111837300Y-88367198D01*
X111999198Y-88205300D01*
X112016706Y-88180297D01*
X112100991Y-88059925D01*
X112130523Y-88017749D01*
X112132848Y-88012763D01*
X112132849Y-88012762D01*
X112224961Y-87815225D01*
X112224961Y-87815224D01*
X112227284Y-87810243D01*
X112234209Y-87784401D01*
X112285119Y-87594402D01*
X112285119Y-87594400D01*
X112286543Y-87589087D01*
X112306498Y-87361000D01*
X112286543Y-87132913D01*
X112272348Y-87079938D01*
X112228707Y-86917067D01*
X112228706Y-86917065D01*
X112227284Y-86911757D01*
X112197475Y-86847831D01*
X112132849Y-86709238D01*
X112132846Y-86709233D01*
X112130523Y-86704251D01*
X112018960Y-86544923D01*
X112002357Y-86521211D01*
X112002355Y-86521208D01*
X111999198Y-86516700D01*
X111837300Y-86354802D01*
X111832792Y-86351645D01*
X111832789Y-86351643D01*
X111745535Y-86290547D01*
X111649749Y-86223477D01*
X111644767Y-86221154D01*
X111644762Y-86221151D01*
X111609951Y-86204919D01*
X111556666Y-86158002D01*
X111537205Y-86089725D01*
X111557747Y-86021765D01*
X111609951Y-85976529D01*
X111644511Y-85960414D01*
X111654007Y-85954931D01*
X111832467Y-85829972D01*
X111840875Y-85822916D01*
X111994916Y-85668875D01*
X112001972Y-85660467D01*
X112126931Y-85482007D01*
X112132414Y-85472511D01*
X112224490Y-85275053D01*
X112228236Y-85264761D01*
X112274394Y-85092497D01*
X112274058Y-85078401D01*
X112266116Y-85075000D01*
X110865000Y-85075000D01*
X110796879Y-85054998D01*
X110750386Y-85001342D01*
X110739000Y-84949000D01*
X110739000Y-84693000D01*
X110759002Y-84624879D01*
X110812658Y-84578386D01*
X110865000Y-84567000D01*
X112260967Y-84567000D01*
X112274498Y-84563027D01*
X112275727Y-84554478D01*
X112228236Y-84377239D01*
X112224490Y-84366947D01*
X112132414Y-84169489D01*
X112126931Y-84159993D01*
X112001972Y-83981533D01*
X111994916Y-83973125D01*
X111840875Y-83819084D01*
X111832467Y-83812028D01*
X111654007Y-83687069D01*
X111644511Y-83681586D01*
X111609951Y-83665471D01*
X111556666Y-83618554D01*
X111537205Y-83550277D01*
X111557747Y-83482317D01*
X111609951Y-83437081D01*
X111644762Y-83420849D01*
X111644767Y-83420846D01*
X111649749Y-83418523D01*
X111796585Y-83315707D01*
X111832789Y-83290357D01*
X111832792Y-83290355D01*
X111837300Y-83287198D01*
X111999198Y-83125300D01*
X112016706Y-83100297D01*
X112127366Y-82942257D01*
X112130523Y-82937749D01*
X112132846Y-82932767D01*
X112132849Y-82932762D01*
X112224961Y-82735225D01*
X112224961Y-82735224D01*
X112227284Y-82730243D01*
X112234209Y-82704401D01*
X112285119Y-82514402D01*
X112285119Y-82514400D01*
X112286543Y-82509087D01*
X112306498Y-82281000D01*
X112286543Y-82052913D01*
X112272348Y-81999938D01*
X112228707Y-81837067D01*
X112228706Y-81837065D01*
X112227284Y-81831757D01*
X112224921Y-81826689D01*
X112132849Y-81629238D01*
X112132846Y-81629233D01*
X112130523Y-81624251D01*
X112047605Y-81505832D01*
X112002357Y-81441211D01*
X112002355Y-81441208D01*
X111999198Y-81436700D01*
X111837300Y-81274802D01*
X111832789Y-81271643D01*
X111828576Y-81268108D01*
X111829527Y-81266974D01*
X111789529Y-81216929D01*
X111782224Y-81146310D01*
X111814258Y-81082951D01*
X111875462Y-81046970D01*
X111892517Y-81043918D01*
X111903316Y-81042745D01*
X112039705Y-80991615D01*
X112156261Y-80904261D01*
X112243615Y-80787705D01*
X112294745Y-80651316D01*
X112301500Y-80589134D01*
X112301500Y-78892866D01*
X112294745Y-78830684D01*
X112243615Y-78694295D01*
X112156261Y-78577739D01*
X112039705Y-78490385D01*
X111903316Y-78439255D01*
X111841134Y-78432500D01*
X110144866Y-78432500D01*
X110082684Y-78439255D01*
X110075288Y-78442027D01*
X110075282Y-78442029D01*
X109985929Y-78475526D01*
X109915122Y-78480709D01*
X109852753Y-78446788D01*
X109818624Y-78384532D01*
X109815700Y-78357544D01*
X109815700Y-77615416D01*
X109835702Y-77547295D01*
X109889358Y-77500802D01*
X109959632Y-77490698D01*
X110013970Y-77512203D01*
X110127251Y-77591523D01*
X110132233Y-77593846D01*
X110132238Y-77593849D01*
X110328765Y-77685490D01*
X110334757Y-77688284D01*
X110340065Y-77689706D01*
X110340067Y-77689707D01*
X110550598Y-77746119D01*
X110550600Y-77746119D01*
X110555913Y-77747543D01*
X110784000Y-77767498D01*
X111012087Y-77747543D01*
X111017400Y-77746119D01*
X111017402Y-77746119D01*
X111227933Y-77689707D01*
X111227935Y-77689706D01*
X111233243Y-77688284D01*
X111239235Y-77685490D01*
X111435762Y-77593849D01*
X111435767Y-77593846D01*
X111440749Y-77591523D01*
X111514243Y-77540062D01*
X115062493Y-77540062D01*
X115071789Y-77552077D01*
X115122994Y-77587931D01*
X115132489Y-77593414D01*
X115329947Y-77685490D01*
X115340239Y-77689236D01*
X115550688Y-77745625D01*
X115561481Y-77747528D01*
X115778525Y-77766517D01*
X115789475Y-77766517D01*
X116006519Y-77747528D01*
X116017312Y-77745625D01*
X116227761Y-77689236D01*
X116238053Y-77685490D01*
X116435511Y-77593414D01*
X116445006Y-77587931D01*
X116497048Y-77551491D01*
X116505424Y-77541012D01*
X116498356Y-77527566D01*
X115796812Y-76826022D01*
X115782868Y-76818408D01*
X115781035Y-76818539D01*
X115774420Y-76822790D01*
X115068923Y-77528287D01*
X115062493Y-77540062D01*
X111514243Y-77540062D01*
X111613769Y-77470373D01*
X111623789Y-77463357D01*
X111623792Y-77463355D01*
X111628300Y-77460198D01*
X111790198Y-77298300D01*
X111921523Y-77110749D01*
X111923846Y-77105767D01*
X111923849Y-77105762D01*
X112015961Y-76908225D01*
X112015961Y-76908224D01*
X112018284Y-76903243D01*
X112038047Y-76829489D01*
X112076119Y-76687402D01*
X112076119Y-76687400D01*
X112077543Y-76682087D01*
X112097019Y-76459475D01*
X114471483Y-76459475D01*
X114490472Y-76676519D01*
X114492375Y-76687312D01*
X114548764Y-76897761D01*
X114552510Y-76908053D01*
X114644586Y-77105511D01*
X114650069Y-77115006D01*
X114686509Y-77167048D01*
X114696988Y-77175424D01*
X114710434Y-77168356D01*
X115411978Y-76466812D01*
X115419592Y-76452868D01*
X115419461Y-76451035D01*
X115415210Y-76444420D01*
X114709713Y-75738923D01*
X114697938Y-75732493D01*
X114685923Y-75741789D01*
X114650069Y-75792994D01*
X114644586Y-75802489D01*
X114552510Y-75999947D01*
X114548764Y-76010239D01*
X114492375Y-76220688D01*
X114490472Y-76231481D01*
X114471483Y-76448525D01*
X114471483Y-76459475D01*
X112097019Y-76459475D01*
X112097498Y-76454000D01*
X112077543Y-76225913D01*
X112066929Y-76186301D01*
X112019707Y-76010067D01*
X112019706Y-76010065D01*
X112018284Y-76004757D01*
X112015961Y-75999775D01*
X111923849Y-75802238D01*
X111923846Y-75802233D01*
X111921523Y-75797251D01*
X111810862Y-75639211D01*
X111793357Y-75614211D01*
X111793355Y-75614208D01*
X111790198Y-75609700D01*
X111628300Y-75447802D01*
X111623792Y-75444645D01*
X111623789Y-75444643D01*
X111473593Y-75339475D01*
X111440749Y-75316477D01*
X111435767Y-75314154D01*
X111435762Y-75314151D01*
X111238225Y-75222039D01*
X111238224Y-75222039D01*
X111233243Y-75219716D01*
X111227935Y-75218294D01*
X111227933Y-75218293D01*
X111017402Y-75161881D01*
X111017400Y-75161881D01*
X111012087Y-75160457D01*
X110784000Y-75140502D01*
X110555913Y-75160457D01*
X110550600Y-75161881D01*
X110550598Y-75161881D01*
X110340067Y-75218293D01*
X110340065Y-75218294D01*
X110334757Y-75219716D01*
X110329776Y-75222039D01*
X110329775Y-75222039D01*
X110132238Y-75314151D01*
X110132233Y-75314154D01*
X110127251Y-75316477D01*
X110094407Y-75339475D01*
X109944211Y-75444643D01*
X109944208Y-75444645D01*
X109939700Y-75447802D01*
X109777802Y-75609700D01*
X109774645Y-75614208D01*
X109774643Y-75614211D01*
X109739845Y-75663908D01*
X109684388Y-75708236D01*
X109613768Y-75715545D01*
X109547537Y-75680732D01*
X108272603Y-74405798D01*
X108238577Y-74343486D01*
X108243642Y-74272671D01*
X108259375Y-74243177D01*
X108353435Y-74112277D01*
X108356453Y-74108077D01*
X108386898Y-74046477D01*
X108453136Y-73912453D01*
X108453137Y-73912451D01*
X108455430Y-73907811D01*
X108520370Y-73694069D01*
X108549529Y-73472590D01*
X108551156Y-73406000D01*
X108532852Y-73183361D01*
X108478431Y-72966702D01*
X108389354Y-72761840D01*
X108289014Y-72606738D01*
X108270822Y-72578617D01*
X108270820Y-72578614D01*
X108268014Y-72574277D01*
X108117670Y-72409051D01*
X108113619Y-72405852D01*
X108113615Y-72405848D01*
X107946414Y-72273800D01*
X107946410Y-72273798D01*
X107942359Y-72270598D01*
X107901053Y-72247796D01*
X107851084Y-72197364D01*
X107836312Y-72127921D01*
X107861428Y-72061516D01*
X107888780Y-72034909D01*
X107947817Y-71992798D01*
X108067860Y-71907173D01*
X108098652Y-71876489D01*
X108181741Y-71793689D01*
X108226096Y-71749489D01*
X108285594Y-71666689D01*
X108353435Y-71572277D01*
X108356453Y-71568077D01*
X108395112Y-71489857D01*
X108453136Y-71372453D01*
X108453137Y-71372451D01*
X108455430Y-71367811D01*
X108520370Y-71154069D01*
X108549529Y-70932590D01*
X108551156Y-70866000D01*
X108532852Y-70643361D01*
X108478431Y-70426702D01*
X108389354Y-70221840D01*
X108318761Y-70112720D01*
X108270822Y-70038617D01*
X108270820Y-70038614D01*
X108268014Y-70034277D01*
X108117670Y-69869051D01*
X108113619Y-69865852D01*
X108113615Y-69865848D01*
X107946414Y-69733800D01*
X107946410Y-69733798D01*
X107942359Y-69730598D01*
X107901053Y-69707796D01*
X107851084Y-69657364D01*
X107836312Y-69587921D01*
X107861428Y-69521516D01*
X107888780Y-69494909D01*
X107932603Y-69463650D01*
X108067860Y-69367173D01*
X108080588Y-69354490D01*
X108222435Y-69213137D01*
X108226096Y-69209489D01*
X108284647Y-69128007D01*
X108353435Y-69032277D01*
X108356453Y-69028077D01*
X108358746Y-69023437D01*
X108360446Y-69020608D01*
X108412674Y-68972518D01*
X108468451Y-68959500D01*
X108981206Y-68959500D01*
X109049327Y-68979502D01*
G37*
G04 #@! TD.AperFunction*
M02*
