M48
; DRILL file {KiCad (6.0.11)} date Wed Oct  9 23:18:13 2024
; FORMAT={-:-/ absolute / metric / decimal}
; #@! TF.CreationDate,2024-10-09T23:18:13+02:00
; #@! TF.GenerationSoftware,Kicad,Pcbnew,(6.0.11)
; #@! TF.FileFunction,Plated,1,2,PTH
FMAT,2
METRIC
; #@! TA.AperFunction,Plated,PTH,ViaDrill
T1C0.400
; #@! TA.AperFunction,Plated,PTH,ComponentDrill
T2C0.400
; #@! TA.AperFunction,Plated,PTH,ComponentDrill
T3C0.750
; #@! TA.AperFunction,Plated,PTH,ComponentDrill
T4C0.800
; #@! TA.AperFunction,Plated,PTH,ComponentDrill
T5C1.000
; #@! TA.AperFunction,Plated,PTH,ComponentDrill
T6C2.200
%
G90
G05
T1
X114.025Y-90.808
X114.13Y-102.916
X115.208Y-114.251
X116.102Y-106.968
X116.503Y-83.027
X118.204Y-113.435
X118.418Y-97.521
X118.871Y-110.384
X119.035Y-100.67
X119.597Y-98.561
X120.676Y-88.746
X120.914Y-84.65
X121.37Y-101.119
X122.155Y-85.128
X123.581Y-101.262
X124.102Y-113.29
X125.013Y-101.073
X128.038Y-98.424
X128.556Y-105.141
X128.655Y-111.36
X129.046Y-88.702
X129.697Y-114.978
X132.518Y-110.04
X133.645Y-111.851
X134.431Y-96.252
X135.416Y-111.124
X135.546Y-102.044
X137.065Y-108.958
X137.545Y-101.317
X141.334Y-105.22
X145.003Y-101.679
X145.767Y-99.943
X146.413Y-94.816
X146.666Y-97.858
T2
X120.27Y-72.136
X120.753Y-70.969
X120.753Y-73.303
X121.92Y-70.486
X121.92Y-73.786
X123.087Y-70.969
X123.087Y-73.303
X123.57Y-72.136
X146.94Y-72.136
X147.423Y-70.969
X147.423Y-73.303
X148.59Y-70.486
X148.59Y-73.786
X149.757Y-70.969
X149.757Y-73.303
X150.24Y-72.136
T3
X137.414Y-80.243
X138.684Y-80.243
X139.954Y-80.243
T4
X110.784Y-76.454
X110.993Y-79.741
X110.993Y-82.281
X110.993Y-84.821
X110.993Y-87.361
X110.993Y-89.901
X110.993Y-92.441
X110.993Y-94.981
X110.993Y-97.521
X110.993Y-100.061
X110.993Y-102.601
X110.993Y-105.141
X110.993Y-107.681
X110.993Y-110.221
X110.993Y-112.761
X115.784Y-76.454
X126.233Y-79.741
X126.233Y-82.281
X126.233Y-84.821
X126.233Y-87.361
X126.233Y-89.901
X126.233Y-92.441
X126.233Y-94.981
X126.233Y-97.521
X126.233Y-100.061
X126.233Y-102.601
X126.233Y-105.141
X126.233Y-107.681
X126.233Y-110.221
X126.233Y-112.761
X131.074Y-94.986
X131.074Y-97.526
X131.074Y-100.066
X131.074Y-102.606
X131.074Y-105.146
X131.074Y-107.686
X131.074Y-110.226
X131.074Y-112.766
X133.898Y-91.44
X138.694Y-94.986
X138.694Y-97.526
X138.694Y-100.066
X138.694Y-102.606
X138.694Y-105.146
X138.694Y-107.686
X138.694Y-110.226
X138.694Y-112.766
X138.898Y-91.44
X138.938Y-67.564
X138.938Y-75.184
T5
X107.188Y-68.326
X107.188Y-70.866
X107.188Y-73.406
X107.188Y-75.946
X107.188Y-78.486
X107.188Y-81.026
X107.188Y-83.566
X107.188Y-86.106
X107.188Y-88.646
X107.188Y-91.186
X107.188Y-93.726
X107.188Y-96.266
X107.188Y-98.806
X107.188Y-101.346
X107.188Y-103.886
X107.188Y-106.426
X107.188Y-108.966
X107.188Y-111.506
X107.188Y-114.046
X107.188Y-116.586
X110.998Y-116.586
X113.538Y-116.586
X116.078Y-116.586
X118.618Y-116.586
X121.158Y-116.586
X123.698Y-116.586
X126.238Y-116.586
X128.778Y-116.586
X131.318Y-116.586
X133.858Y-116.586
X136.398Y-116.586
X138.938Y-116.586
X141.478Y-116.586
X144.018Y-116.586
X144.272Y-90.673
X144.272Y-105.923
X146.558Y-116.586
X146.812Y-90.673
X146.812Y-105.923
X149.098Y-116.586
X149.352Y-90.673
X149.352Y-105.923
X151.638Y-116.586
X151.892Y-90.673
X151.892Y-105.923
X152.913Y-112.014
X154.178Y-116.586
X154.432Y-90.673
X154.432Y-105.923
X155.453Y-112.014
X156.464Y-68.453
X156.464Y-70.993
X156.464Y-73.533
X156.464Y-76.073
X156.718Y-116.586
X156.972Y-90.673
X156.972Y-105.923
X159.258Y-116.586
X159.512Y-90.673
X159.512Y-105.923
T6
X121.92Y-72.136
X148.59Y-72.136
T0
M30
